<svg width="64" height="64" viewBox="0 0 64 64" fill="none" xmlns="http://www.w3.org/2000/svg">
<path fill-rule="evenodd" clip-rule="evenodd" d="M19.5918 2.5C19.8679 2.5 20.0918 2.72386 20.0918 3V7.4301C20.0918 7.70624 19.8679 7.9301 19.5918 7.9301C19.3157 7.9301 19.0918 7.70624 19.0918 7.4301V3C19.0918 2.72386 19.3157 2.5 19.5918 2.5Z" fill="black"/>
<path fill-rule="evenodd" clip-rule="evenodd" d="M27.6802 2.5C27.9563 2.5 28.1802 2.72386 28.1802 3V7.4301C28.1802 7.70624 27.9563 7.9301 27.6802 7.9301C27.404 7.9301 27.1802 7.70624 27.1802 7.4301V3C27.1802 2.72386 27.404 2.5 27.6802 2.5Z" fill="black"/>
<path fill-rule="evenodd" clip-rule="evenodd" d="M35.7686 2.5C36.0447 2.5 36.2686 2.72386 36.2686 3V7.4301C36.2686 7.70624 36.0447 7.9301 35.7686 7.9301C35.4924 7.9301 35.2686 7.70624 35.2686 7.4301V3C35.2686 2.72386 35.4924 2.5 35.7686 2.5Z" fill="black"/>
<path fill-rule="evenodd" clip-rule="evenodd" d="M43.8599 2.5C44.136 2.5 44.3599 2.72386 44.3599 3V7.4301C44.3599 7.70624 44.136 7.9301 43.8599 7.9301C43.5837 7.9301 43.3599 7.70624 43.3599 7.4301V3C43.3599 2.72386 43.5837 2.5 43.8599 2.5Z" fill="black"/>
<path fill-rule="evenodd" clip-rule="evenodd" d="M19.5918 56.271C19.8679 56.271 20.0918 56.4949 20.0918 56.771V61.2011C20.0918 61.4772 19.8679 61.7011 19.5918 61.7011C19.3157 61.7011 19.0918 61.4772 19.0918 61.2011V56.771C19.0918 56.4949 19.3157 56.271 19.5918 56.271Z" fill="black"/>
<path fill-rule="evenodd" clip-rule="evenodd" d="M27.6802 56.271C27.9563 56.271 28.1802 56.4949 28.1802 56.771V61.2011C28.1802 61.4772 27.9563 61.7011 27.6802 61.7011C27.404 61.7011 27.1802 61.4772 27.1802 61.2011V56.771C27.1802 56.4949 27.404 56.271 27.6802 56.271Z" fill="black"/>
<path fill-rule="evenodd" clip-rule="evenodd" d="M35.7686 56.271C36.0447 56.271 36.2686 56.4949 36.2686 56.771V61.2011C36.2686 61.4772 36.0447 61.7011 35.7686 61.7011C35.4924 61.7011 35.2686 61.4772 35.2686 61.2011V56.771C35.2686 56.4949 35.4924 56.271 35.7686 56.271Z" fill="black"/>
<path fill-rule="evenodd" clip-rule="evenodd" d="M43.8599 56.271C44.136 56.271 44.3599 56.4949 44.3599 56.771V61.2011C44.3599 61.4772 44.136 61.7011 43.8599 61.7011C43.5837 61.7011 43.3599 61.4772 43.3599 61.2011V56.771C43.3599 56.4949 43.5837 56.271 43.8599 56.271Z" fill="black"/>
<path fill-rule="evenodd" clip-rule="evenodd" d="M1.5 20.1785C1.5 19.9023 1.72386 19.6785 2 19.6785H7.23948C7.51562 19.6785 7.73948 19.9023 7.73948 20.1785C7.73948 20.4546 7.51562 20.6785 7.23948 20.6785H2C1.72386 20.6785 1.5 20.4546 1.5 20.1785Z" fill="black"/>
<path fill-rule="evenodd" clip-rule="evenodd" d="M1.5 28.2122C1.5 27.936 1.72386 27.7122 2 27.7122H7.23948C7.51562 27.7122 7.73948 27.936 7.73948 28.2122C7.73948 28.4883 7.51562 28.7122 7.23948 28.7122H2C1.72386 28.7122 1.5 28.4883 1.5 28.2122Z" fill="black"/>
<path fill-rule="evenodd" clip-rule="evenodd" d="M1.5 36.249C1.5 35.9729 1.72386 35.749 2 35.749H7.23948C7.51562 35.749 7.73948 35.9729 7.73948 36.249C7.73948 36.5252 7.51562 36.749 7.23948 36.749H2C1.72386 36.749 1.5 36.5252 1.5 36.249Z" fill="black"/>
<path fill-rule="evenodd" clip-rule="evenodd" d="M1.5 44.2827C1.5 44.0066 1.72386 43.7827 2 43.7827H7.23948C7.51562 43.7827 7.73948 44.0066 7.73948 44.2827C7.73948 44.5589 7.51562 44.7827 7.23948 44.7827H2C1.72386 44.7827 1.5 44.5589 1.5 44.2827Z" fill="black"/>
<path fill-rule="evenodd" clip-rule="evenodd" d="M56.2607 20.1785C56.2607 19.9023 56.4846 19.6785 56.7607 19.6785H62.0002C62.2764 19.6785 62.5002 19.9023 62.5002 20.1785C62.5002 20.4546 62.2764 20.6785 62.0002 20.6785H56.7607C56.4846 20.6785 56.2607 20.4546 56.2607 20.1785Z" fill="black"/>
<path fill-rule="evenodd" clip-rule="evenodd" d="M56.2607 28.2122C56.2607 27.936 56.4846 27.7122 56.7607 27.7122H62.0002C62.2764 27.7122 62.5002 27.936 62.5002 28.2122C62.5002 28.4883 62.2764 28.7122 62.0002 28.7122H56.7607C56.4846 28.7122 56.2607 28.4883 56.2607 28.2122Z" fill="black"/>
<path fill-rule="evenodd" clip-rule="evenodd" d="M56.2607 36.249C56.2607 35.9729 56.4846 35.749 56.7607 35.749H62.0002C62.2764 35.749 62.5002 35.9729 62.5002 36.249C62.5002 36.5252 62.2764 36.749 62.0002 36.749H56.7607C56.4846 36.749 56.2607 36.5252 56.2607 36.249Z" fill="black"/>
<path fill-rule="evenodd" clip-rule="evenodd" d="M56.2607 44.2827C56.2607 44.0066 56.4846 43.7827 56.7607 43.7827H62.0002C62.2764 43.7827 62.5002 44.0066 62.5002 44.2827C62.5002 44.5589 62.2764 44.7827 62.0002 44.7827H56.7607C56.4846 44.7827 56.2607 44.5589 56.2607 44.2827Z" fill="black"/>
<path fill-rule="evenodd" clip-rule="evenodd" d="M12.3856 8.42847C9.8268 8.42847 7.7583 10.4878 7.7583 13.0211V51.4369C7.7583 53.9702 9.8268 56.0295 12.3856 56.0295H51.063C53.6217 56.0295 55.6902 53.9702 55.6902 51.4369V13.0211C55.6902 10.4878 53.6217 8.42847 51.063 8.42847H12.3856ZM6.7583 13.0211C6.7583 9.92917 9.28092 7.42847 12.3856 7.42847H51.063C54.1676 7.42847 56.6902 9.92917 56.6902 13.0211V51.4369C56.6902 54.5288 54.1676 57.0295 51.063 57.0295H12.3856C9.28092 57.0295 6.7583 54.5288 6.7583 51.4369V13.0211Z" fill="black"/>
<path d="M49.2145 11.4639H14.2337C12.3453 11.4639 10.8145 12.9844 10.8145 14.86V49.6042C10.8145 51.4798 12.3453 53.0003 14.2337 53.0003H49.2145C51.1028 53.0003 52.6337 51.4798 52.6337 49.6042V14.86C52.6337 12.9844 51.1028 11.4639 49.2145 11.4639Z" fill="#FFC000"/>
<path fill-rule="evenodd" clip-rule="evenodd" d="M14.2337 11.9639C12.6182 11.9639 11.3145 13.2637 11.3145 14.86V49.6042C11.3145 51.2005 12.6182 52.5003 14.2337 52.5003H49.2145C50.8299 52.5003 52.1337 51.2005 52.1337 49.6042V14.86C52.1337 13.2637 50.8299 11.9639 49.2145 11.9639H14.2337ZM10.3145 14.86C10.3145 12.705 12.0724 10.9639 14.2337 10.9639H49.2145C51.3758 10.9639 53.1337 12.705 53.1337 14.86V49.6042C53.1337 51.7592 51.3758 53.5003 49.2145 53.5003H14.2337C12.0724 53.5003 10.3145 51.7592 10.3145 49.6042V14.86Z" fill="black"/>
<path fill-rule="evenodd" clip-rule="evenodd" d="M17.3185 22.3002C18.0859 19.9708 20.5743 17.4331 24.0454 18.023C26.3171 18.4093 27.4995 19.5859 28.095 20.7014C28.3875 21.2493 28.5326 21.7705 28.6051 22.1552C28.6414 22.3481 28.6598 22.5085 28.6691 22.6232C28.6738 22.6806 28.6762 22.7268 28.6774 22.7601C28.678 22.7767 28.6784 22.7902 28.6785 22.8002L28.6787 22.8127L28.6787 22.817L28.6787 22.8187C28.6787 22.819 28.6787 22.82 28.2021 22.8192L28.6787 22.82C28.6782 23.0961 28.454 23.3196 28.1779 23.3191C27.9023 23.3186 27.6793 23.0954 27.6787 22.8201C27.6787 22.8195 27.6787 22.8189 27.6787 22.8182L28.1787 22.8191C27.6787 22.8182 27.6787 22.818 27.6787 22.8182L27.6781 22.7973C27.6774 22.7777 27.6758 22.7462 27.6724 22.7042C27.6655 22.62 27.6514 22.4947 27.6223 22.3403C27.564 22.0303 27.4467 21.6105 27.2128 21.1723C26.7556 20.3159 25.8294 19.3408 23.8778 19.0089M17.3185 22.3002C16.9852 23.3082 16.8739 24.345 16.8436 25.1199C16.8285 25.5096 16.8336 25.8381 16.8426 26.0706C16.8471 26.1869 16.8527 26.2794 16.8571 26.3438C16.8594 26.376 16.8613 26.4012 16.8628 26.4189L16.8646 26.4396L16.8651 26.4456L16.8653 26.4475C16.8653 26.4476 16.8654 26.4487 17.3631 26.401L16.8654 26.4487C16.8918 26.7235 17.1359 26.925 17.4108 26.8987C17.6857 26.8724 17.8871 26.6283 17.8609 26.3534L17.8606 26.3504L17.8594 26.3361C17.8583 26.3228 17.8566 26.3021 17.8547 26.2746C17.8509 26.2195 17.846 26.1371 17.8419 26.0317C17.8337 25.8207 17.8289 25.5184 17.8429 25.1589C17.8711 24.4355 17.9748 23.5005 18.268 22.6139C18.9344 20.5907 21.0466 18.5277 23.8778 19.0089" fill="black"/>
<path fill-rule="evenodd" clip-rule="evenodd" d="M32.0964 17.2291C32.0965 17.2293 32.0966 17.2295 31.6726 17.4944L32.0964 17.2291L32.1726 17.3511V46.3397L32.0702 46.474L31.6726 46.1709C32.0702 46.474 32.0703 46.4738 32.0702 46.474L32.069 46.4756L32.0669 46.4783L32.0603 46.4868L32.0372 46.5161C32.0174 46.5409 31.989 46.5758 31.9524 46.6195C31.8791 46.7067 31.7726 46.8289 31.6358 46.9735C31.3629 47.2621 30.966 47.644 30.4692 48.0169C29.4856 48.7552 28.05 49.5024 26.3819 49.3307C24.7085 49.1584 23.2996 48.0751 22.5022 46.7377C21.7068 45.4036 21.4656 43.7155 22.2949 42.3292C23.0715 41.0312 24.1009 40.4051 24.9437 40.1096C25.3621 39.9629 25.7321 39.8982 26.0006 39.8701C26.1351 39.8561 26.2449 39.8512 26.3236 39.8499C26.363 39.8492 26.3947 39.8495 26.4179 39.85L26.4463 39.8509L26.4555 39.8513L26.4589 39.8514L26.4602 39.8515C26.4605 39.8515 26.4614 39.8516 26.4345 40.326L26.4614 39.8516C26.7371 39.8672 26.9479 40.1034 26.9323 40.3791C26.9167 40.654 26.6818 40.8644 26.4071 40.8501C26.4065 40.8501 26.4059 40.85 26.4053 40.85L26.396 40.8498C26.3849 40.8495 26.366 40.8493 26.3399 40.8497C26.2876 40.8506 26.2071 40.854 26.1045 40.8647C25.8986 40.8862 25.6067 40.9368 25.2746 41.0532C24.6166 41.284 23.7915 41.7756 23.1531 42.8427C22.5673 43.8216 22.6923 45.1039 23.3611 46.2256C24.0279 47.3439 25.1811 48.2017 26.4843 48.3359C27.7927 48.4706 28.977 47.8866 29.8689 47.2171C30.3099 46.8861 30.6648 46.5449 30.9092 46.2865C31.0221 46.167 31.1107 46.066 31.1726 45.993V17.6479C31.1716 17.6466 31.1707 17.6452 31.1697 17.6439C31.1131 17.5644 31.0273 17.4496 30.9142 17.3144C30.6869 17.0426 30.3555 16.6956 29.9365 16.3864C29.1031 15.7716 27.9632 15.3287 26.575 15.8622C25.6322 16.2246 25.0069 16.9131 24.6115 17.5343C24.4147 17.8433 24.2793 18.129 24.1936 18.336C24.1509 18.4392 24.1209 18.5219 24.102 18.5772C24.0926 18.6048 24.086 18.6254 24.0821 18.6382L24.0781 18.6514C24.078 18.6515 24.0778 18.6523 24.0778 18.6524M24.0778 18.6524C24.0025 18.9179 23.7264 19.0723 23.4607 18.9972C23.195 18.9221 23.0405 18.6458 23.1156 18.3801L23.5967 18.516C23.1156 18.3801 23.1155 18.3803 23.1156 18.3801L23.1161 18.3782L23.1169 18.3755L23.1192 18.3675L23.127 18.342C23.1335 18.3208 23.143 18.2913 23.1555 18.2546C23.1805 18.1811 23.218 18.0782 23.2696 17.9534C23.3727 17.7045 23.5338 17.365 23.7679 16.9972C24.2343 16.2647 25.0085 15.393 26.2163 14.9288C28.0261 14.2332 29.5246 14.8398 30.5302 15.5817C31.0306 15.9509 31.4188 16.3591 31.6813 16.6729C31.8131 16.8305 31.9147 16.9661 31.9843 17.0638C32.0191 17.1127 32.046 17.1523 32.0648 17.1805C32.0742 17.1946 32.0815 17.206 32.0869 17.2142L32.0933 17.2243L32.0953 17.2275L32.0964 17.2291" fill="black"/>
<path fill-rule="evenodd" clip-rule="evenodd" d="M28.5959 36.4716C28.7479 36.7016 28.6851 37.0111 28.4557 37.1637C28.4553 37.164 28.4549 37.1642 28.4545 37.1645L28.1789 36.7476C28.4545 37.1645 28.4547 37.1643 28.4548 37.1642L28.4551 37.1641L28.4555 37.1638L28.454 37.1648L28.4424 37.1728C28.4312 37.1807 28.413 37.1937 28.3892 37.2115C28.3414 37.2472 28.2708 37.3022 28.1859 37.3755C28.0153 37.5227 27.7913 37.7398 27.578 38.0177C27.1499 38.5754 26.7897 39.3419 26.9308 40.2762L26.9309 40.2769C27.03 40.9393 27.3507 41.553 27.7462 42.0492C28.1456 42.5505 28.5895 42.8923 28.8847 43.0317C29.1344 43.1496 29.2413 43.4476 29.1234 43.6973C29.0055 43.947 28.7074 44.0539 28.4577 43.936C27.9924 43.7163 27.4342 43.2624 26.9641 42.6724C26.49 42.0775 26.0736 41.3044 25.942 40.4252C25.7466 39.1307 26.2576 38.0956 26.7847 37.4088C27.0491 37.0645 27.3238 36.7986 27.5325 36.6185C27.6372 36.5281 27.7265 36.4583 27.791 36.4101C27.8233 36.386 27.8496 36.3672 27.8686 36.3539L27.8916 36.338L27.8988 36.3331L27.9013 36.3314L27.9022 36.3308L27.9027 36.3305C27.9028 36.3304 27.903 36.3303 28.1716 36.7365L27.903 36.3303C28.1334 36.178 28.4436 36.2413 28.5959 36.4716Z" fill="black"/>
<path fill-rule="evenodd" clip-rule="evenodd" d="M46.0311 37.0299C46.306 37.0036 46.5501 37.2051 46.5765 37.4799L46.0788 37.5276C46.5765 37.4799 46.5765 37.4798 46.5765 37.4799L46.5766 37.4811L46.5768 37.483L46.5773 37.489L46.5791 37.5097C46.5806 37.5274 46.5825 37.5526 46.5848 37.5848C46.5893 37.6492 46.5948 37.7417 46.5993 37.858C46.6083 38.0905 46.6135 38.419 46.5983 38.8087C46.568 39.5835 46.4567 40.6202 46.1235 41.6281C45.3562 43.9576 42.8677 46.4955 39.3965 45.9056C37.1248 45.5192 35.9424 44.3427 35.3469 43.2272C35.0544 42.6793 34.9093 42.158 34.8368 41.7734C34.8005 41.5805 34.7821 41.4201 34.7728 41.3054C34.7681 41.248 34.7657 41.2018 34.7645 41.1685C34.7639 41.1519 34.7635 41.1384 34.7634 41.1284L34.7632 41.1159L34.7632 41.1116L34.7632 41.1099C34.7632 41.1096 34.7632 41.1086 35.2632 41.1095L34.7632 41.1086C34.7637 40.8325 34.9879 40.609 35.2641 40.6095C35.5395 40.61 35.7626 40.8332 35.7632 41.1084L35.7632 41.1112L35.7638 41.1313C35.7645 41.1509 35.7661 41.1824 35.7695 41.2244C35.7764 41.3086 35.7905 41.4339 35.8196 41.5883C35.8779 41.8983 35.9952 42.3181 36.2291 42.7563C36.6863 43.6127 37.6125 44.5878 39.5642 44.9197C42.3953 45.4009 44.5073 43.3385 45.1737 41.3153C45.4669 40.4287 45.5708 39.4931 45.599 38.7697C45.613 38.4101 45.6082 38.1079 45.6 37.8969C45.5959 37.7915 45.591 37.7091 45.5872 37.654C45.5853 37.6265 45.5836 37.6058 45.5825 37.5925L45.5813 37.5782L45.581 37.5753C45.5548 37.3005 45.7563 37.0562 46.0311 37.0299Z" fill="black"/>
<path fill-rule="evenodd" clip-rule="evenodd" d="M41.664 27.1814C41.664 26.9053 41.8879 26.6814 42.164 26.6814L42.164 27.1814C42.164 26.6814 42.1638 26.6814 42.164 26.6814L42.1664 26.6814L42.1705 26.6814L42.1843 26.6815C42.1958 26.6817 42.2121 26.6819 42.2327 26.6824C42.2741 26.6834 42.3332 26.6853 42.4078 26.689C42.5568 26.6965 42.7682 26.7113 43.0236 26.7407C43.5325 26.7993 44.2249 26.9168 44.9493 27.1544C46.3828 27.6245 48.0586 28.6092 48.5297 30.6541C48.9708 32.5679 48.924 34.2064 48.4147 35.4776C47.8979 36.7674 46.9182 37.6406 45.5994 38.0091C43.8257 38.5049 42.5096 38.2085 41.6254 37.755C41.1888 37.5311 40.8666 37.2737 40.6511 37.0691C40.5432 36.9667 40.4615 36.8769 40.4051 36.8103C40.3768 36.777 40.3548 36.7494 40.3389 36.7288C40.3309 36.7185 40.3245 36.7099 40.3196 36.7032L40.3133 36.6946L40.311 36.6914L40.3101 36.6901C40.3099 36.6898 40.3093 36.689 40.7178 36.4007L40.3093 36.689C40.1501 36.4634 40.2039 36.1514 40.4295 35.9922C40.6552 35.833 40.9671 35.8868 41.1263 36.1124L40.7419 36.3837C41.1263 36.1124 41.1265 36.1127 41.1263 36.1124L41.1257 36.1115L41.1246 36.1099L41.1308 36.1182C41.1377 36.1272 41.15 36.1427 41.1678 36.1636C41.2033 36.2055 41.2604 36.2686 41.3397 36.3439C41.4985 36.4948 41.7441 36.6921 42.0817 36.8652C42.7458 37.2058 43.8031 37.4729 45.3302 37.046C46.3491 36.7613 47.0853 36.1068 47.4864 35.1057C47.895 34.086 47.9682 32.6705 47.5553 30.8786C47.2004 29.3386 45.937 28.5307 44.6377 28.1046C43.9957 27.8941 43.3734 27.7876 42.9092 27.7341C42.678 27.7075 42.4882 27.6943 42.3577 27.6878C42.2925 27.6845 42.2423 27.6829 42.2092 27.6821L42.1729 27.6815L42.1649 27.6814C42.1648 27.6814 42.1639 27.6814 42.1638 27.6814M41.664 27.1814C41.664 27.4574 41.8877 27.6812 42.1638 27.6814L41.664 27.1814Z" fill="black"/>
<path fill-rule="evenodd" clip-rule="evenodd" d="M20.0596 26.6301C20.0596 26.354 19.8357 26.1301 19.5596 26.1301L19.5596 26.6301C19.5596 26.1301 19.5598 26.1301 19.5596 26.1301L19.5573 26.1301L19.5531 26.1301L19.5394 26.1303C19.5278 26.1304 19.5116 26.1307 19.4909 26.1311C19.4495 26.1321 19.3904 26.134 19.3159 26.1378C19.1668 26.1452 18.9554 26.16 18.7 26.1894C18.1911 26.248 17.4987 26.3656 16.7743 26.6031C15.3409 27.0733 13.665 28.0579 13.1939 30.1028C12.7528 32.0166 12.7996 33.6551 13.309 34.9263C13.8258 36.2161 14.8054 37.0893 16.1242 37.4579C17.8979 37.9536 19.214 37.6572 20.0983 37.2037C20.5348 36.9798 20.8571 36.7225 21.0726 36.5178C21.1804 36.4154 21.2621 36.3257 21.3186 36.2591C21.3468 36.2258 21.3689 36.1981 21.3848 36.1775C21.3927 36.1672 21.3991 36.1586 21.4041 36.1519L21.4103 36.1434L21.4126 36.1402L21.4135 36.1388C21.4137 36.1386 21.4143 36.1377 21.0058 35.8494L21.4143 36.1377C21.5736 35.9121 21.5197 35.6001 21.2941 35.4409C21.0685 35.2817 20.7565 35.3355 20.5973 35.5612L20.9817 35.8324C20.5973 35.5611 20.5971 35.5614 20.5973 35.5612L20.598 35.5602L20.5991 35.5586L20.5928 35.567C20.5859 35.5759 20.5736 35.5914 20.5559 35.6123C20.5204 35.6542 20.4633 35.7174 20.384 35.7927C20.2252 35.9435 19.9795 36.1408 19.6419 36.3139C18.9779 36.6545 17.9205 36.9216 16.3934 36.4948C15.3745 36.2101 14.6384 35.5555 14.2372 34.5544C13.8286 33.5347 13.7554 32.1192 14.1684 30.3274C14.5232 28.7873 15.7866 27.9795 17.0859 27.5533C17.7279 27.3428 18.3502 27.2363 18.8144 27.1829C19.0456 27.1562 19.2354 27.143 19.3659 27.1365C19.4311 27.1332 19.4813 27.1316 19.5144 27.1309L19.5508 27.1302L19.5587 27.1301C19.5588 27.1301 19.5598 27.1301 19.5599 27.1301M20.0596 26.6301C20.0596 26.9062 19.8359 27.13 19.5599 27.1301L20.0596 26.6301Z" fill="black"/>
<path fill-rule="evenodd" clip-rule="evenodd" d="M40.9409 19.5007C40.9409 19.2246 41.1648 19.0007 41.4409 19.0007V19.5007C41.4409 19.0007 41.4411 19.0007 41.4414 19.0007L41.4419 19.0007L41.4433 19.0007L41.4469 19.0008L41.4579 19.0009C41.467 19.001 41.4793 19.0012 41.4948 19.0017C41.5257 19.0026 41.5692 19.0043 41.6237 19.0075C41.7326 19.0141 41.8862 19.0271 42.0724 19.0526C42.4435 19.1036 42.9513 19.2055 43.4958 19.411C44.5868 19.8228 45.86 20.6673 46.4226 22.3683L46.4227 22.3684C47.0737 24.3379 46.8357 25.7548 46.3842 26.699C46.1616 27.1645 45.8938 27.5012 45.6773 27.7242C45.5691 27.8358 45.4733 27.9193 45.4017 27.9768C45.3659 28.0056 45.336 28.0279 45.3135 28.0441C45.3023 28.0522 45.2929 28.0587 45.2855 28.0638L45.276 28.0702L45.2724 28.0726L45.2709 28.0736L45.2702 28.074C45.2699 28.0742 45.2696 28.0744 44.9973 27.6551L45.2696 28.0744C45.038 28.2248 44.7283 28.159 44.5779 27.9274C44.4283 27.6969 44.4927 27.3892 44.7216 27.238L44.7294 27.2325C44.7382 27.2261 44.754 27.2144 44.7753 27.1973C44.8181 27.1629 44.8829 27.1069 44.9597 27.0278C45.1134 26.8694 45.3135 26.6202 45.482 26.2676C45.8129 25.5758 46.0502 24.4277 45.4732 22.6823C45.0353 21.3587 44.055 20.6909 43.1427 20.3466C42.6855 20.174 42.2541 20.0869 41.9365 20.0433C41.7783 20.0216 41.6502 20.011 41.5634 20.0057C41.5201 20.0031 41.4872 20.0019 41.4663 20.0013L41.4441 20.0008L41.4409 20.0007C41.4408 20.0007 41.4407 20.0007 41.4405 20.0007L41.4402 20.0007L41.4399 20.0007C41.4397 20.0007 41.4398 20.0007 41.44 20.0007H41.4405M40.9409 19.5007C40.9409 19.7767 41.1646 20.0005 41.4405 20.0007L40.9409 19.5007Z" fill="black"/>
<path fill-rule="evenodd" clip-rule="evenodd" d="M41.1926 31.936C41.4614 31.8727 41.7306 32.0394 41.7939 32.3082L41.3072 32.4227C41.7939 32.3082 41.7939 32.3084 41.794 32.3086L41.7941 32.309L41.7943 32.3101L41.795 32.3129L41.7969 32.3213L41.8027 32.3484C41.8074 32.371 41.8137 32.4027 41.8209 32.4425C41.8351 32.5221 41.8529 32.6348 41.8686 32.7743C41.9 33.0527 41.9235 33.4418 41.8925 33.8901C41.8309 34.7827 41.55 35.947 40.6443 36.9183C39.7545 37.8735 38.8859 38.3181 38.2165 38.518C37.8838 38.6173 37.6049 38.6549 37.4028 38.6668C37.3018 38.6727 37.2199 38.6722 37.16 38.6698C37.1301 38.6686 37.1056 38.667 37.087 38.6654L37.0634 38.6631L37.0549 38.6622L37.0516 38.6618L37.0501 38.6616L37.0494 38.6615C37.0491 38.6615 37.0488 38.6614 37.1108 38.1736L37.0488 38.6614C36.7748 38.6266 36.581 38.3763 36.6159 38.1023C36.6505 37.8302 36.8978 37.6371 37.1696 37.6688C37.1711 37.669 37.1726 37.6691 37.1741 37.6693C37.1742 37.6693 37.1743 37.6694 37.1744 37.6694C37.1744 37.6694 37.1744 37.6694 37.1744 37.6694L37.1741 37.6693L37.1738 37.6693L37.1727 37.6692L37.1715 37.6689C37.1757 37.6693 37.1853 37.67 37.1998 37.6706C37.2289 37.6718 37.2779 37.6724 37.3442 37.6685C37.4767 37.6607 37.6786 37.635 37.9304 37.5598C38.4298 37.4107 39.1445 37.0612 39.9128 36.2365L39.9129 36.2363C40.6094 35.4894 40.8427 34.5764 40.8949 33.8213C40.9208 33.4457 40.901 33.1184 40.8749 32.8862C40.8619 32.7705 40.8474 32.6794 40.8366 32.619C40.8312 32.5889 40.8267 32.5665 40.8238 32.5526L40.8207 32.5382L40.8205 32.5373C40.8205 32.5372 40.8204 32.5371 40.8204 32.5369M41.1926 31.936C40.9239 31.9993 40.7574 32.2683 40.8204 32.5369L41.1926 31.936ZM37.1744 37.6694C37.1746 37.6694 37.1748 37.6694 37.175 37.6694L37.1119 38.1653C37.1746 37.6728 37.1747 37.6694 37.1744 37.6694ZM37.1715 37.6689C37.1707 37.6689 37.17 37.6688 37.1696 37.6688C37.1692 37.6687 37.169 37.6687 37.1689 37.6687L37.1691 37.6687L37.171 37.669L37.1715 37.6689Z" fill="black"/>
<path fill-rule="evenodd" clip-rule="evenodd" d="M22.3045 43.9148C22.1974 44.1694 21.9043 44.289 21.6498 44.1819L21.8436 43.721C21.6498 44.1819 21.6496 44.1819 21.6494 44.1818L21.6489 44.1816L21.6479 44.1812L21.6452 44.18L21.6374 44.1766L21.612 44.1654C21.5909 44.1559 21.5617 44.1424 21.5253 44.1247C21.4525 44.0894 21.3509 44.0374 21.2289 43.968C20.9854 43.8295 20.6569 43.6195 20.3127 43.3306C19.6274 42.7555 18.8514 41.8432 18.5991 40.5394C18.3505 39.2578 18.5023 38.2939 18.7346 37.6351C18.8501 37.3076 18.9838 37.06 19.0932 36.8896C19.1479 36.8045 19.1964 36.7386 19.2336 36.6916C19.2522 36.6681 19.2679 36.6493 19.2802 36.6351L19.2959 36.6174L19.3016 36.6111L19.3039 36.6086L19.3049 36.6075L19.3054 36.607C19.3056 36.6068 19.3059 36.6066 19.6637 36.9438L19.3059 36.6066C19.4953 36.4056 19.8117 36.3962 20.0127 36.5856C20.2123 36.7738 20.2229 37.0873 20.0373 37.2885C20.0362 37.2896 20.0352 37.2907 20.0342 37.2918C20.0341 37.2918 20.0341 37.2919 20.034 37.292C20.034 37.292 20.034 37.292 20.034 37.292L20.0342 37.2918L20.0344 37.2915L20.0351 37.2908L20.0361 37.2899C20.0333 37.2931 20.0271 37.3004 20.018 37.3118C20 37.3347 19.9707 37.3739 19.9348 37.4298C19.8631 37.5415 19.765 37.7199 19.6777 37.9676C19.5043 38.4592 19.3662 39.2427 19.5809 40.3492L19.5809 40.3494C19.7749 41.352 20.3757 42.078 20.9555 42.5646C21.2439 42.8066 21.5202 42.9833 21.7233 43.0988C21.8245 43.1564 21.9066 43.1982 21.9618 43.225C21.9894 43.2384 22.0101 43.2479 22.0231 43.2538L22.0365 43.2597L22.0374 43.2601C22.0375 43.2602 22.0376 43.2602 22.0377 43.2603M22.3045 43.9148C22.4115 43.6604 22.292 43.3674 22.0377 43.2603L22.3045 43.9148ZM20.034 37.292C20.0339 37.2921 20.0337 37.2923 20.0336 37.2924L19.6698 36.9495C20.0311 37.2901 20.0338 37.2922 20.034 37.292ZM20.0361 37.2899C20.0366 37.2892 20.037 37.2888 20.0373 37.2885C20.0376 37.2881 20.0377 37.288 20.0377 37.2879L20.0376 37.2881L20.0363 37.2895L20.0361 37.2899Z" fill="black"/>
<path fill-rule="evenodd" clip-rule="evenodd" d="M34.319 20.2314C34.4369 19.9817 34.7349 19.8749 34.9846 19.9928C35.4499 20.2125 36.0081 20.6664 36.4782 21.2563C36.9524 21.8513 37.3688 22.6244 37.5004 23.5037C37.6957 24.7981 37.1848 25.8332 36.6576 26.52C36.3933 26.8643 36.1186 27.1302 35.9099 27.3103C35.8051 27.4007 35.7159 27.4705 35.6513 27.5187C35.619 27.5428 35.5928 27.5616 35.5738 27.5749L35.5508 27.5908L35.5435 27.5957L35.5411 27.5974L35.5401 27.598C35.5399 27.5981 35.5393 27.5985 35.2636 27.1814L35.5401 27.598C35.3098 27.7503 34.9988 27.6875 34.8465 27.4572C34.6945 27.2272 34.7573 26.9176 34.9867 26.7651C34.9865 26.7652 34.9869 26.7649 34.9867 26.7651L34.9883 26.764L34.9999 26.756C35.0112 26.7481 35.0293 26.7351 35.0532 26.7173C35.101 26.6816 35.1716 26.6266 35.2565 26.5533C35.427 26.4061 35.651 26.189 35.8644 25.9111C36.2924 25.3534 36.6526 24.5869 36.5115 23.6526C36.4124 22.9902 36.0916 22.3758 35.6962 21.8795C35.2967 21.3782 34.8528 21.0365 34.5576 20.8971C34.3079 20.7792 34.2011 20.4812 34.319 20.2314Z" fill="black"/>
<path fill-rule="evenodd" clip-rule="evenodd" d="M34.3134 16.2722C33.3357 16.7602 32.6868 17.4473 32.2371 17.9855L31.4697 17.3443C31.9554 16.7631 32.7094 15.9552 33.8668 15.3775C35.0317 14.7961 36.5708 14.4647 38.6 14.7788C40.4636 15.0673 41.6473 15.9366 42.3944 16.9265C43.1304 17.9017 43.4227 18.9669 43.5663 19.629L42.589 19.841C42.4566 19.2304 42.2027 18.3325 41.5962 17.5289C41.0007 16.7398 40.0453 16.0145 38.447 15.767C36.6121 15.483 35.2837 15.7879 34.3134 16.2722Z" fill="black"/>
<path fill-rule="evenodd" clip-rule="evenodd" d="M25.6775 25.9354C25.7922 25.9121 25.9478 25.8886 26.0903 25.9114C26.3629 25.9551 26.5486 26.2115 26.5049 26.4842C26.4627 26.7478 26.2216 26.9301 25.9592 26.9024C25.9532 26.903 25.9276 26.905 25.8767 26.9154C25.7983 26.9313 25.6899 26.9608 25.5579 27.0074C25.2943 27.1003 24.9589 27.253 24.6096 27.4723C23.9072 27.9135 23.19 28.5973 22.8484 29.5619C22.5395 30.4342 22.6408 31.4089 22.8926 32.2527C23.1475 33.107 23.5278 33.7339 23.6689 33.8906C23.8537 34.0958 23.8371 34.4119 23.6319 34.5967C23.4267 34.7815 23.1106 34.7649 22.9258 34.5597C22.6526 34.2564 22.2149 33.479 21.9343 32.5386C21.6506 31.5877 21.4988 30.3773 21.9058 29.2281C22.3462 27.9844 23.2544 27.1426 24.0777 26.6255C24.4913 26.3658 24.8938 26.1812 25.2254 26.0643C25.3909 26.0059 25.5445 25.9624 25.6775 25.9354Z" fill="black"/>
<path fill-rule="evenodd" clip-rule="evenodd" d="M39.8884 45.149C40.1561 45.2167 40.3182 45.4887 40.2504 45.7564C40.065 46.4887 39.5346 47.2454 38.8611 47.8527C38.1819 48.4651 37.3057 48.9726 36.3676 49.1601C35.0879 49.4159 34.017 48.9918 33.2153 48.4128C32.4211 47.8391 31.8645 47.0969 31.5707 46.6398C31.4214 46.4076 31.4886 46.0982 31.7209 45.9489C31.9532 45.7996 32.2625 45.8668 32.4119 46.0991C32.67 46.5007 33.1468 47.1297 33.8008 47.6021C34.4473 48.0691 35.2395 48.3658 36.1716 48.1795C36.8966 48.0346 37.6151 47.6297 38.1915 47.11C38.7736 46.5851 39.1597 45.99 39.281 45.511C39.3487 45.2433 39.6207 45.0812 39.8884 45.149Z" fill="black"/>
</svg>
