<svg width="64" height="64" viewBox="0 0 64 64" fill="none" xmlns="http://www.w3.org/2000/svg">
<path d="M24.1101 52.79C19.8201 52.79 16.3301 49.3 16.3301 45.01C16.3301 40.72 19.8201 37.23 24.1101 37.23C28.4001 37.23 31.8901 40.72 31.8901 45.01C31.8901 49.3 28.4001 52.79 24.1101 52.79Z" fill="#FFC000"/>
<path d="M24.1104 36.7197C28.6802 36.7199 32.3896 40.4301 32.3896 45C32.3896 47.3837 31.379 49.5317 29.7646 51.043L35.958 56.7217L35.2822 57.458L28.9873 51.6865C27.6187 52.6869 25.9338 53.2802 24.1104 53.2803C19.5404 53.2803 15.8301 49.57 15.8301 45C15.8301 40.43 19.5404 36.7197 24.1104 36.7197ZM24.1104 37.7197C20.1004 37.7197 16.8301 40.99 16.8301 45C16.8301 49.01 20.1004 52.2803 24.1104 52.2803C28.1202 52.2801 31.3896 49.0099 31.3896 45C31.3896 40.9901 28.1302 37.7199 24.1104 37.7197ZM58.7998 45.1504H35.6201V44.1504H57.7998V29.9102H41.1699C40.4202 29.9102 39.7583 29.4944 39.4043 28.8652L39.4014 28.8613L37.373 25.1729C37.3291 25.0953 37.2253 25.1048 37.1914 25.1748L33.751 32.3652C33.3338 33.2356 32.0639 33.1966 31.7295 32.2705L26.8096 18.6836L22.6074 32.1387L22.6064 32.1396C22.3051 33.0967 20.9986 33.2372 20.5039 32.3545L20.5029 32.3535L18.9736 29.6133L18.9717 29.6113C18.8398 29.3715 18.598 29.2296 18.3301 29.2295H6V44.4004H12.2803V45.4004H5V6H58.7998V45.1504ZM6 28.2295H18.3301C18.9607 28.2296 19.5372 28.5679 19.8457 29.126L21.375 31.8652C21.4403 31.9818 21.613 31.9626 21.6523 31.8408L25.873 18.3311V18.3281C26.1419 17.4834 27.2532 17.4232 27.6572 18.1328L27.7285 18.2852L27.7305 18.29L32.6699 31.9297C32.6797 31.9568 32.6925 31.9697 32.7021 31.9766C32.7141 31.985 32.7324 31.9922 32.7539 31.9932C32.7752 31.994 32.7942 31.9886 32.8086 31.9805C32.8208 31.9735 32.8356 31.9609 32.8486 31.9336L36.2891 24.7441L36.3691 24.6016C36.7841 23.9789 37.7041 23.9539 38.1572 24.5488L38.2461 24.6865L38.248 24.6885L40.2783 28.3789C40.4649 28.7071 40.8013 28.9102 41.1699 28.9102H57.7998V7H6V28.2295Z" fill="black"/>
</svg>
