<svg width="64" height="64" viewBox="0 0 64 64" fill="none" xmlns="http://www.w3.org/2000/svg">
<g clip-path="url(#clip0_5_932)">
<path d="M53.05 59C52.91 59 52.76 58.97 52.63 58.92L39.27 53.49C36.91 54.24 34.47 54.63 32 54.63C18.77 54.62 8 43.71 8 30.31C8 16.91 18.77 6 32 6C38.42 6 44.45 8.53 48.98 13.12C53.51 17.71 56.01 23.82 56 30.31C56 35.78 54.16 41.13 50.81 45.41L54.12 57.59C54.23 58.01 54.1 58.44 53.78 58.73C53.57 58.91 53.31 59.01 53.05 59.01V59ZM39.3 52.42L42.12 53.54L53.01 57.99C53.01 57.99 53.07 58.02 53.12 57.97C53.14 57.95 53.18 57.91 53.16 57.85L49.72 45.18L49.88 44.98C53.19 40.84 55.01 35.63 55.01 30.31C55.01 24.08 52.62 18.23 48.28 13.83C43.92 9.42 38.15 7 32 7C19.32 7 9 17.46 9 30.31C9 43.16 19.32 53.62 32 53.62C34.42 53.62 36.81 53.24 39.13 52.48L39.3 52.42Z" fill="black"/>
<path d="M28.6502 36.6V37.1H34.8002V36.61C34.8402 35.69 34.9602 34.96 35.1602 34.42C35.3602 33.87 35.7202 33.33 36.2702 32.78L38.3402 30.77C39.2502 29.85 39.9202 28.93 40.3502 28.01C40.7802 27.08 40.9902 26.06 40.9902 24.96C40.9902 22.47 40.2102 20.48 38.6002 19.07C37.0102 17.67 34.8002 17.01 32.0402 17.01C29.2802 17.01 27.0302 17.74 25.4202 19.25C23.8102 20.76 23.0102 22.85 22.9902 25.46V25.96H23.4902H30.0802V25.47C30.1102 24.6 30.3302 23.97 30.6902 23.53C31.0402 23.1 31.4802 22.89 32.0502 22.89C32.7302 22.89 33.1502 23.09 33.4202 23.42C33.7102 23.77 33.8902 24.34 33.8902 25.23C33.8902 25.9 33.6902 26.51 33.2802 27.08C32.8502 27.68 32.2102 28.36 31.3402 29.12C30.3902 29.95 29.7002 30.94 29.2702 32.09C28.8402 33.22 28.6402 34.74 28.6402 36.59L28.6502 36.6ZM29.0202 44.98C29.7702 45.66 30.7002 45.99 31.7702 45.99C32.8402 45.99 33.7702 45.66 34.5102 44.97C35.2702 44.27 35.6402 43.37 35.6402 42.31C35.6402 41.25 35.2602 40.36 34.5102 39.67C33.7702 38.97 32.8402 38.63 31.7702 38.63C30.7002 38.63 29.7602 38.97 29.0102 39.67C28.2602 40.36 27.8902 41.26 27.8902 42.31C27.8902 43.36 28.2602 44.27 29.0002 44.97L29.0202 44.98Z" fill="#FFC000"/>
<path d="M31.7802 46.5C30.5702 46.5 29.5302 46.12 28.6902 45.36H28.6802C27.8402 44.55 27.4102 43.53 27.4102 42.32C27.4102 41.11 27.8402 40.09 28.6902 39.31C29.5302 38.53 30.5702 38.14 31.7902 38.14C33.0102 38.14 34.0502 38.53 34.8702 39.31C35.7302 40.09 36.1602 41.1 36.1602 42.32C36.1602 43.54 35.7202 44.55 34.8702 45.35C34.0402 46.11 33.0102 46.5 31.7902 46.5H31.7802ZM29.3602 44.61C30.0102 45.2 30.8302 45.5 31.7802 45.5C32.7302 45.5 33.5502 45.2 34.1802 44.62C34.8302 44.02 35.1502 43.25 35.1502 42.32C35.1502 41.39 34.8202 40.63 34.1802 40.05C33.5402 39.45 32.7302 39.14 31.7802 39.14C30.8302 39.14 30.0102 39.44 29.3602 40.04C28.7302 40.63 28.4002 41.39 28.4002 42.32C28.4002 43.25 28.7202 44.01 29.3502 44.61H29.3602ZM35.2802 37.6H28.1402V36.6C28.1402 34.63 28.3602 33.1 28.8002 31.92C29.2502 30.7 30.0002 29.64 31.0102 28.75C31.8402 28.03 32.4702 27.37 32.8802 26.8C33.2302 26.31 33.4002 25.8 33.4002 25.24C33.4002 24.36 33.2002 23.94 33.0402 23.75C32.9202 23.6 32.6802 23.4 32.0502 23.4C31.6302 23.4 31.3302 23.54 31.0802 23.86C30.7802 24.23 30.6202 24.78 30.6002 25.5L30.5702 26.47H22.4902V25.46C22.5302 22.68 23.4002 20.47 25.0902 18.89C26.7602 17.31 29.1102 16.51 32.0502 16.51C34.9902 16.51 37.2902 17.25 38.9402 18.7C40.6402 20.18 41.5002 22.29 41.5002 24.96C41.5002 26.14 41.2702 27.24 40.8102 28.22C40.3702 29.17 39.6602 30.15 38.7002 31.12L36.6102 33.15C36.1402 33.62 35.8002 34.12 35.6202 34.6C35.4302 35.11 35.3202 35.8 35.3002 36.64L35.2702 37.61L35.2802 37.6ZM29.1502 36.6H34.3102C34.3302 35.65 34.4602 34.86 34.6902 34.25C34.9202 33.63 35.3302 33.01 35.9102 32.43L37.9902 30.41C38.8602 29.53 39.5102 28.65 39.9002 27.79C40.3002 26.94 40.5002 25.98 40.5002 24.95C40.5002 22.58 39.7502 20.72 38.2802 19.44C36.8202 18.15 34.7202 17.5 32.0502 17.5C29.3802 17.5 27.2602 18.21 25.7702 19.61C24.2802 21 23.5202 22.97 23.5002 25.46H29.6002C29.6202 24.52 29.8602 23.77 30.3002 23.22C30.7402 22.67 31.3302 22.39 32.0502 22.39C32.8302 22.39 33.4202 22.63 33.8102 23.1C34.2002 23.57 34.4002 24.29 34.4002 25.23C34.4002 26 34.1602 26.73 33.7002 27.38C33.2402 28.02 32.5602 28.73 31.6802 29.51C30.7902 30.28 30.1402 31.21 29.7502 32.27C29.3502 33.32 29.1502 34.78 29.1502 36.6Z" fill="black"/>
</g>
<defs>
<clipPath id="clip0_5_932">
<rect width="48" height="53" fill="white" transform="translate(8 6)"/>
</clipPath>
</defs>
</svg>
