<svg width="64" height="64" viewBox="0 0 64 64" fill="none" xmlns="http://www.w3.org/2000/svg">
<path d="M43.4999 6.49995C39.8999 2.89995 34.3332 6.66662 31.9999 8.99995C30.7998 6.19992 27.1666 5.16664 25.5 5C21.5 5 19.1667 9 18.5 11C9.7 11.4 8.5 19.5 9 23.5L9.50004 24C5.50004 26 5.50004 30.1667 6.00004 32C6.40004 36.4 10.1667 38.1667 12 38.5C7.60003 40.5 8.83336 45.3333 10 47.5C12 50.7 15.4999 51.1667 16.9999 51C16.5999 53.8 19.1665 56.1667 20.4999 57C24.4999 59.4 29.4999 56.3333 31.4999 54.5C33.8999 58.1 37.6387 59 39.208 59C42.5746 58.6 44.472 54.8333 44.9999 53C48.5999 53.4 51.8332 50.8333 52.9999 49.5C55.7999 45.1 55.1665 41.6667 54.4999 40.5C56.8999 38.9 57.4999 36.5 57.4999 35.5C59.0999 29.9 55.4999 26.1667 53.4999 25C54.6999 23.8 54.6665 20.5 54.4999 19C54.4999 14.2 49.4999 12 46.9999 11.5L45.9999 8.5L43.4999 6.49995Z" fill="#FFC000"/>
<path d="M23.3213 4.95142C26.0819 3.90741 28.3655 4.81119 29.9199 5.9397C30.6945 6.50211 31.2973 7.12573 31.7061 7.60669C31.911 7.84785 32.0694 8.05504 32.1768 8.20337C32.1962 8.23022 32.2134 8.25565 32.2295 8.27856C32.6551 7.81789 33.2631 7.21855 34.0186 6.63403C35.5606 5.44091 37.7809 4.25863 40.3428 4.53052C42.9101 4.80312 45.0824 6.52021 46.3135 8.64868C46.8274 9.53741 47.1843 10.5168 47.3379 11.512C47.4934 11.5236 47.6881 11.5415 47.9131 11.5715C48.5034 11.6503 49.3103 11.8082 50.1738 12.1252C51.9009 12.7595 53.8975 14.0504 54.7822 16.6526L54.9619 17.219C55.7776 19.9986 55.3935 22.0009 54.7334 23.344C54.4343 23.9527 54.0805 24.4122 53.7754 24.7434C55.6117 25.6104 57.3814 27.0975 57.9561 29.6389C58.6426 32.6746 58.5612 35.2369 57.7891 37.2004C57.2092 38.6749 56.2454 39.7922 54.9688 40.5022C55.1798 40.5422 55.3493 40.7142 55.373 40.9387V40.9426C55.3733 40.9447 55.3737 40.9479 55.374 40.9514C55.3747 40.9585 55.3758 40.9689 55.377 40.9817C55.3793 41.0074 55.3821 41.0447 55.3857 41.092C55.393 41.1872 55.4018 41.3245 55.4092 41.4973C55.424 41.8432 55.4332 42.3333 55.4082 42.9143C55.3585 44.0715 55.1741 45.6116 54.6309 47.1038L54.6318 47.1047C53.4908 50.2495 50.0636 53.5557 45.3066 53.4895C45.2767 53.5893 45.2404 53.706 45.1963 53.8362C45.0474 54.2755 44.8112 54.8764 44.4609 55.5217C43.7647 56.8045 42.5895 58.3163 40.7041 59.0471C37.8998 60.135 35.5608 59.0448 33.9785 57.7512C33.1871 57.1042 32.5684 56.3944 32.1484 55.8499C31.938 55.577 31.7753 55.3438 31.665 55.177C31.61 55.0937 31.5681 55.0266 31.5391 54.9797C31.5346 54.9725 31.5303 54.9656 31.5264 54.9592C31.1057 55.3868 30.5287 55.9243 29.8203 56.4475C28.2766 57.5877 26.0609 58.7129 23.5078 58.4543C20.9495 58.1951 18.7759 56.5603 17.54 54.5208C16.9695 53.579 16.5904 52.5293 16.4688 51.469C16.3217 51.4583 16.143 51.4433 15.9395 51.4182C15.3512 51.3457 14.5466 51.2003 13.6855 50.9084C11.9695 50.3267 9.96185 49.1363 9.06934 46.7131C8.01784 43.8563 8.40924 41.8196 9.12207 40.4807C9.47365 39.8204 9.89465 39.3462 10.2305 39.0354C10.3986 38.8798 10.5461 38.7639 10.6543 38.6858C10.7076 38.6473 10.7509 38.6168 10.7832 38.5959C8.72252 37.8387 6.54528 36.4058 5.89258 33.6897C5.20427 30.8254 5.28484 28.4006 6.0625 26.5393C6.63438 25.1705 7.57428 24.1324 8.80957 23.4631C8.6296 23.4021 8.49181 23.2425 8.47168 23.0413V23.0374C8.47148 23.0353 8.47103 23.0321 8.4707 23.0286C8.47005 23.0216 8.46886 23.0118 8.46777 22.9993C8.46556 22.9737 8.46339 22.9364 8.45996 22.8889C8.45312 22.7941 8.44448 22.6571 8.4375 22.4846C8.42354 22.1394 8.41496 21.6505 8.43848 21.0706C8.48537 19.9148 8.6584 18.376 9.1709 16.886L9.28906 16.5627C10.5186 13.3997 13.9137 10.1636 18.5723 10.5198C18.528 10.4174 18.5157 10.3004 18.5488 10.1848V10.1819C18.5491 10.1811 18.5495 10.1801 18.5498 10.179C18.5506 10.1762 18.5524 10.1726 18.5537 10.1682C18.5564 10.1593 18.5596 10.1466 18.5645 10.1311C18.5742 10.1001 18.5893 10.0563 18.6084 10.0012C18.6466 9.89095 18.7043 9.73496 18.7842 9.54517C18.9438 9.16576 19.1936 8.64727 19.5566 8.08618C20.2811 6.96657 21.4731 5.65043 23.3213 4.95142ZM40.2373 5.52563C38.0467 5.29315 36.0834 6.30123 34.6309 7.42505C33.91 7.98283 33.3297 8.55743 32.9307 8.99243C32.7316 9.20945 32.5782 9.39095 32.4756 9.51685C32.4563 9.5405 32.4394 9.56262 32.4238 9.58228V53.9446L32.3193 54.0803L32.3174 54.0813L32.3057 54.0969C32.2975 54.1072 32.2856 54.1223 32.2705 54.1409C32.2509 54.165 32.2244 54.1948 32.1934 54.2317C32.2571 54.2729 32.3135 54.3277 32.3545 54.3977L32.3564 54.3997L32.3887 54.4534C32.4128 54.4923 32.4497 54.5507 32.499 54.6252C32.5978 54.7747 32.7466 54.9882 32.9404 55.2395C33.3293 55.7437 33.8958 56.3918 34.6113 56.9768C36.0431 58.1474 38.0044 59.0218 40.3428 58.1145L40.6318 57.9924C42.0457 57.3437 42.9835 56.147 43.582 55.0442C43.8991 54.46 44.1148 53.9148 44.25 53.5159C44.2607 53.4842 44.2686 53.4528 44.2783 53.4231C44.1356 53.4069 43.9915 53.3898 43.8467 53.3674C40.1988 52.8041 38.3165 51.0981 37.3643 49.4788C36.8941 48.6792 36.6591 47.9163 36.542 47.3518C36.4834 47.0692 36.4544 46.8339 36.4395 46.6672C36.432 46.584 36.4277 46.5173 36.4258 46.47C36.4248 46.4464 36.4241 46.4271 36.4238 46.4133V46.3889C36.4244 46.1128 36.6487 45.8884 36.9248 45.8889C37.2003 45.8895 37.4234 46.1126 37.4238 46.3879C37.4238 46.3888 37.4238 46.3915 37.4238 46.3948C37.424 46.4014 37.4241 46.413 37.4248 46.429C37.4261 46.4612 37.4296 46.512 37.4355 46.5784C37.4475 46.7114 37.4716 46.908 37.5215 47.1487C37.6215 47.6308 37.8223 48.2861 38.2256 48.9719C39.0206 50.324 40.6385 51.8602 44 52.3792C48.9489 53.1426 52.5663 49.8648 53.6914 46.7639L53.8633 46.2502C54.2295 45.0491 54.3678 43.8339 54.4092 42.8713C54.4327 42.3236 54.424 41.8626 54.4102 41.5403C54.4033 41.3795 54.3952 41.2531 54.3887 41.1682C54.3854 41.1259 54.3828 41.0934 54.3809 41.0725C54.3799 41.0621 54.3794 41.0538 54.3789 41.0491C54.3787 41.0469 54.378 41.0451 54.3779 41.0442C54.3675 40.9454 54.3871 40.8505 54.4287 40.7678C54.1459 40.892 53.8514 41.0013 53.543 41.0891C50.8163 41.8657 48.8138 41.3981 47.4824 40.7024C46.8226 40.3576 46.3367 39.9613 46.0137 39.6487C45.9346 39.5721 45.8648 39.5006 45.8047 39.4358C45.6912 39.5733 45.5725 39.7109 45.4434 39.844C44.0301 41.3013 42.6634 41.9681 41.6289 42.2649C41.1135 42.4128 40.684 42.4674 40.3779 42.4846C40.2251 42.4932 40.1028 42.4928 40.0156 42.4895C39.972 42.4878 39.9367 42.4847 39.9111 42.4827C39.8985 42.4816 39.8879 42.4806 39.8799 42.4797C39.8761 42.4794 39.8728 42.4791 39.8701 42.4788H39.8643C39.5902 42.4452 39.3942 42.1952 39.4277 41.9211C39.4613 41.6472 39.7094 41.4522 39.9834 41.4856C39.9853 41.4858 39.9889 41.4862 39.9932 41.4866C40.005 41.4875 40.0254 41.4884 40.0537 41.4895C40.1114 41.4917 40.2026 41.4933 40.3223 41.4866C40.5616 41.4731 40.9166 41.4283 41.3535 41.303C42.2237 41.0533 43.4369 40.4766 44.7256 39.1477C45.9226 37.9145 46.3158 36.4162 46.4033 35.1995C46.4469 34.5925 46.4141 34.0634 46.3701 33.6877C46.3482 33.5003 46.3233 33.3518 46.3047 33.2522C46.2954 33.2025 46.2874 33.1649 46.2822 33.1409C46.2797 33.1291 46.2776 33.1206 46.2764 33.1155L46.2754 33.1106L46.2617 33.01C46.2528 32.7777 46.408 32.5636 46.6426 32.5061C46.9106 32.4406 47.1813 32.6043 47.2471 32.8723V32.8743L47.251 32.8899C47.2532 32.8993 47.2562 32.9125 47.2598 32.929C47.2669 32.962 47.2769 33.009 47.2881 33.0686C47.3104 33.1881 47.3384 33.3594 47.3633 33.5715C47.4129 33.9951 47.4495 34.5882 47.4004 35.2708C47.3292 36.2605 47.073 37.4554 46.3975 38.594C46.4034 38.6013 46.4093 38.6093 46.416 38.6174C46.4782 38.6921 46.5758 38.801 46.709 38.9299C46.9759 39.1882 47.3851 39.5229 47.9453 39.8157C49.0543 40.3952 50.7931 40.8321 53.2686 40.1272C54.9581 39.6461 56.191 38.5314 56.8584 36.8342C57.5331 35.1185 57.6409 32.7754 56.9814 29.8596C56.4568 27.5394 54.7478 26.2175 52.9219 25.4602C52.7055 25.5389 52.4561 25.4606 52.3281 25.2581C52.3224 25.249 52.3185 25.239 52.3135 25.2297C52.272 25.2153 52.231 25.1997 52.1895 25.1858C51.1547 24.84 50.1542 24.6657 49.4102 24.5784C49.039 24.5348 48.7333 24.513 48.5225 24.5022C48.4172 24.4968 48.3356 24.4937 48.2812 24.4924C48.2543 24.4918 48.2338 24.4916 48.2207 24.4915H48.2031C47.9271 24.4913 47.7031 24.2675 47.7031 23.9915C47.7031 23.7154 47.9271 23.4916 48.2031 23.4915H48.2324C48.2494 23.4917 48.2737 23.4927 48.3047 23.4934C48.3675 23.4949 48.4585 23.4973 48.5732 23.5032C48.803 23.5149 49.1306 23.5388 49.5264 23.5852C50.3159 23.6778 51.3875 23.8629 52.5059 24.2366C52.5958 24.2666 52.6856 24.2996 52.7764 24.3323C52.8217 24.2912 52.8718 24.2458 52.9238 24.1936C53.1953 23.9215 53.5435 23.4976 53.8359 22.9026C54.4137 21.7268 54.802 19.8201 53.835 16.9739C53.0802 14.7546 51.3845 13.6349 49.8291 13.0637C49.0514 12.7781 48.3195 12.6346 47.7812 12.5627C47.6489 12.5451 47.5287 12.5317 47.4229 12.5217C47.4319 13.5737 47.1935 14.6159 46.6445 15.5618C45.448 17.6232 43.8664 18.6129 42.5732 19.0803C41.9304 19.3127 41.362 19.415 40.9512 19.4592C40.7456 19.4814 40.5781 19.4885 40.46 19.4905C40.4467 19.4907 40.4339 19.4904 40.4219 19.4905C40.3917 20.8835 39.8633 22.0221 39.3047 22.8401C38.9665 23.3353 38.6136 23.7189 38.3447 23.9797C38.21 24.1105 38.0951 24.2114 38.0127 24.2805C37.9715 24.3151 37.9379 24.3418 37.9141 24.3606C37.9022 24.3699 37.8927 24.3777 37.8857 24.3831C37.8823 24.3857 37.8791 24.3873 37.877 24.3889L37.873 24.3928C37.6514 24.5573 37.3375 24.5108 37.1729 24.2893C37.0085 24.0678 37.0541 23.7548 37.2754 23.5901C37.2759 23.5897 37.2771 23.5891 37.2783 23.5881C37.2817 23.5856 37.2879 23.5808 37.2959 23.5745C37.3121 23.5617 37.3375 23.5413 37.3701 23.5139C37.4361 23.4586 37.5329 23.374 37.6484 23.262C37.8804 23.0369 38.1861 22.7038 38.4785 22.2756C39.0636 21.4188 39.5806 20.2044 39.3799 18.7092C39.2405 17.6622 38.7921 16.7067 38.2539 15.9475C37.7105 15.181 37.1036 14.6527 36.6895 14.4329C36.4456 14.3034 36.353 14.001 36.4824 13.7571C36.6119 13.5132 36.9143 13.4206 37.1582 13.55C37.7483 13.8633 38.4644 14.5161 39.0693 15.3694C39.6654 16.2102 40.1798 17.2839 40.3574 18.4905C40.3784 18.491 40.4073 18.4921 40.4434 18.4915C40.5343 18.4899 40.671 18.4837 40.8438 18.4651C41.1901 18.4278 41.6785 18.3404 42.2334 18.1399C43.3365 17.7412 44.7164 16.891 45.7793 15.0598C46.7933 13.3128 46.5555 11.0648 45.4473 9.14868C44.3407 7.23562 42.4223 5.75773 40.2373 5.52563ZM29.332 6.74927C27.9502 5.74611 26.0203 4.99994 23.6748 5.88696C22.0896 6.48659 21.0471 7.62212 20.3955 8.62915C20.0706 9.1314 19.8468 9.59589 19.7051 9.93286C19.6344 10.1009 19.5846 10.2365 19.5527 10.3284C19.5369 10.3742 19.5256 10.4094 19.5186 10.4319C19.515 10.4431 19.5122 10.4515 19.5107 10.4563C19.5101 10.4586 19.51 10.4605 19.5098 10.4612C19.4923 10.5217 19.4626 10.5749 19.4268 10.6223C22.8683 11.194 24.6427 12.9028 25.5381 14.5149C25.9816 15.3135 26.2024 16.0748 26.3125 16.637C26.3677 16.9185 26.3952 17.1519 26.4092 17.3176C26.4162 17.4005 26.4201 17.467 26.4219 17.5139C26.4228 17.5373 26.4236 17.556 26.4238 17.5696V17.594C26.4233 17.8701 26.199 18.0945 25.9229 18.094C25.6468 18.0934 25.4233 17.8691 25.4238 17.593C25.4238 17.5918 25.4239 17.5896 25.4238 17.5872C25.4237 17.5803 25.4235 17.5688 25.4229 17.553C25.4216 17.5203 25.4187 17.4685 25.4131 17.4016C25.4018 17.2677 25.3784 17.0708 25.3311 16.8293C25.2361 16.3449 25.0457 15.6874 24.6641 15.0002C23.912 13.6461 22.3892 12.1198 19.2324 11.6038C14.5968 10.8464 11.1848 14.0951 10.1172 17.2102L10.1162 17.2112C9.64682 18.5759 9.48222 20.0087 9.4375 21.1106C9.41523 21.6594 9.42346 22.1216 9.43652 22.4446C9.44305 22.6057 9.45089 22.7325 9.45703 22.8176C9.46009 22.86 9.46303 22.8923 9.46484 22.9133C9.46572 22.9235 9.46635 22.931 9.4668 22.9358V23.0432C9.46234 23.0865 9.45051 23.1277 9.43555 23.1672C9.71573 23.0518 10.0077 22.9511 10.3125 22.8694C13.0319 22.1405 15.0268 22.5796 16.3545 23.2327C17.0132 23.5567 17.4994 23.929 17.8232 24.2239C17.8785 24.2742 17.9276 24.3241 17.9736 24.3694C18.0253 24.3021 18.0778 24.2346 18.1328 24.1682C19.3423 22.7072 20.5205 22.0294 21.4268 21.7249C21.8775 21.5734 22.2553 21.5163 22.5273 21.4983C22.663 21.4893 22.7725 21.4908 22.8516 21.4944C22.8911 21.4962 22.9233 21.498 22.9473 21.5002C22.9592 21.5014 22.9696 21.5032 22.9775 21.5042C22.9812 21.5046 22.9845 21.5048 22.9873 21.5051C22.9886 21.5053 22.9901 21.505 22.9912 21.5051L22.9932 21.5061C22.9935 21.5061 22.9946 21.5059 22.9551 21.7825L22.9951 21.5061C23.2682 21.5454 23.4579 21.7984 23.4189 22.0715C23.3847 22.3107 23.1863 22.4864 22.9541 22.5002L22.8525 22.4963L22.8066 22.4934C22.762 22.4914 22.6896 22.4899 22.5928 22.4963C22.3992 22.5091 22.1074 22.5514 21.7451 22.6731C21.0252 22.9151 20.0006 23.4804 18.9033 24.8059C17.8413 26.0888 17.5024 27.598 17.4365 28.8118C17.4037 29.4163 17.4389 29.9389 17.4824 30.3088C17.5041 30.4932 17.5281 30.6387 17.5459 30.7366C17.5547 30.7852 17.5624 30.8222 17.5674 30.8459C17.5699 30.8578 17.5711 30.8672 17.5723 30.8723C17.5728 30.8747 17.574 30.8764 17.5742 30.8772C17.6372 31.1456 17.4705 31.4143 17.2021 31.4778C16.9669 31.5332 16.7314 31.4126 16.6338 31.2014L16.6006 31.1057L16.5996 31.1038C16.5994 31.1029 16.5989 31.102 16.5986 31.1008C16.598 31.0981 16.5977 31.0937 16.5967 31.0891C16.5947 31.0801 16.5922 31.0676 16.5889 31.052C16.5821 31.0199 16.5721 30.9735 16.5615 30.9153C16.5404 30.799 16.5136 30.6322 16.4893 30.425C16.4406 30.011 16.4019 29.4299 16.4385 28.7571C16.4948 27.721 16.7335 26.4458 17.4121 25.2258C17.3505 25.1583 17.2636 25.0672 17.1494 24.9631C16.8833 24.7209 16.4742 24.4062 15.9131 24.1301C14.8004 23.5829 13.0542 23.1697 10.5713 23.8352C8.87292 24.2903 7.64678 25.3419 6.98535 26.925C6.31628 28.5266 6.20755 30.7183 6.86523 33.4553C7.45414 35.9066 9.55492 37.1783 11.6494 37.8372C12.6863 38.1633 13.6891 38.3271 14.4346 38.4094C14.8062 38.4505 15.1118 38.4715 15.3232 38.4817C15.4286 38.4868 15.5108 38.4892 15.5654 38.4905C15.5927 38.4911 15.6137 38.4913 15.627 38.4915H15.6445L15.7451 38.5012C15.973 38.5478 16.1445 38.7498 16.1445 38.9915C16.1445 39.2675 15.9206 39.4913 15.6445 39.4915H15.6162C15.5992 39.4913 15.5743 39.4912 15.543 39.4905C15.4804 39.4891 15.3898 39.4862 15.2754 39.4807C15.0463 39.4697 14.72 39.4471 14.3252 39.4036C13.5902 39.3224 12.6105 39.1641 11.5762 38.8586C11.6354 39.0721 11.5489 39.3061 11.3486 39.4231L11.3477 39.4241C11.3442 39.4262 11.3373 39.4298 11.3281 39.4358C11.3092 39.448 11.2788 39.4688 11.2393 39.4973C11.1602 39.5544 11.0449 39.6442 10.9102 39.7688C10.6396 40.0191 10.2941 40.4073 10.0049 40.9504C9.43585 42.0192 9.04729 43.7576 10.0078 46.3674C10.7547 48.3952 12.4403 49.4302 14.0068 49.9612C14.787 50.2256 15.5213 50.3594 16.0615 50.426C16.1986 50.4429 16.3229 50.4548 16.4316 50.4641C16.474 49.5694 16.7179 48.6888 17.209 47.8811C18.409 45.9075 19.9922 44.9636 21.2812 44.5188C21.9229 44.2974 22.49 44.1995 22.8994 44.1575C23.1043 44.1364 23.2711 44.1291 23.3887 44.1272C23.402 44.127 23.4147 44.1273 23.4268 44.1272C23.416 42.5351 23.9538 41.2351 24.5312 40.3049C24.8674 39.7635 25.2182 39.343 25.4863 39.0569C25.6206 38.9136 25.7352 38.8036 25.8174 38.7278C25.8583 38.69 25.8913 38.6605 25.915 38.6399C25.9267 38.6297 25.9364 38.6213 25.9434 38.6155C25.9467 38.6127 25.95 38.6104 25.9521 38.6086L25.957 38.6047C26.1708 38.43 26.4853 38.4614 26.6602 38.675C26.8349 38.8888 26.8035 39.2034 26.5898 39.3782C26.5894 39.3785 26.5895 39.3797 26.5879 39.3811C26.5845 39.3839 26.5784 39.3887 26.5703 39.3958C26.5541 39.4098 26.5281 39.4317 26.4951 39.4622C26.4289 39.5233 26.3319 39.6165 26.2158 39.7405C25.9831 39.9889 25.6755 40.3576 25.3809 40.8323C24.7917 41.7812 24.2641 43.1386 24.4688 44.8147C24.6103 45.9846 25.065 47.0469 25.6064 47.887C26.1537 48.736 26.7629 49.3187 27.1758 49.5598C27.4142 49.699 27.4947 50.0049 27.3555 50.2434C27.2162 50.4819 26.9103 50.5623 26.6719 50.4231C26.0806 50.0779 25.3667 49.3615 24.7656 48.429C24.1966 47.546 23.7044 46.4327 23.5107 45.1868L23.5029 45.1272C23.4814 45.1268 23.4479 45.1265 23.4043 45.1272C23.3128 45.1287 23.1754 45.1348 23.002 45.1526C22.6541 45.1883 22.1638 45.2721 21.6074 45.4641C20.5003 45.8462 19.1219 46.6582 18.0625 48.4006C17.0582 50.0527 17.2907 52.18 18.3945 54.0022C19.4965 55.821 21.414 57.2369 23.6084 57.4592C25.8079 57.6821 27.7756 56.7155 29.2266 55.6438C29.9472 55.1115 30.5262 54.5635 30.9248 54.1487C31.1236 53.9418 31.2765 53.7687 31.3789 53.6487C31.3952 53.6296 31.4101 53.6113 31.4238 53.595V8.87134C31.4071 8.84747 31.3882 8.81966 31.3662 8.78931C31.2721 8.65923 31.1303 8.47293 30.9443 8.25415C30.5712 7.81515 30.0252 7.25251 29.332 6.74927ZM11.0967 38.9915L10.8887 38.635H10.8867C10.9215 38.6941 10.9849 38.7998 11.0967 38.9915Z" fill="black"/>
</svg>
