<svg width="64" height="64" viewBox="0 0 64 64" fill="none" xmlns="http://www.w3.org/2000/svg">
<path d="M10.6528 8.7981H54.4479V21.3668H10.6528V8.7981Z" fill="#FFC000"/>
<path d="M15.3877 27.6512H22.4896V35.1925H15.3877V27.6512Z" fill="#FFC000"/>
<path d="M28.4077 27.6512H35.5096V35.1925H28.4077V27.6512Z" fill="#FFC000"/>
<path d="M41.4277 27.6512H48.5296V35.1925H41.4277V27.6512Z" fill="#FFC000"/>
<path d="M15.3877 41.4768H22.4896V49.018H15.3877V41.4768Z" fill="#FFC000"/>
<path d="M28.4077 41.4768H35.5096V49.018H28.4077V41.4768Z" fill="#FFC000"/>
<path d="M41.4277 41.4768H48.5296V49.018H41.4277V41.4768Z" fill="#FFC000"/>
<path fill-rule="evenodd" clip-rule="evenodd" d="M54.448 21.9953H10.6529V20.7385H54.448V21.9953Z" fill="black"/>
<path fill-rule="evenodd" clip-rule="evenodd" d="M54.448 10.055H10.6529V56.5594H54.448V10.055ZM9.46924 8.79817V57.8162H55.6316V8.79817H9.46924Z" fill="black"/>
<path fill-rule="evenodd" clip-rule="evenodd" d="M17.163 13.8257V6.28442H18.3466V13.8257H17.163Z" fill="black"/>
<path fill-rule="evenodd" clip-rule="evenodd" d="M26.6322 13.8257V6.28442H27.8158V13.8257H26.6322Z" fill="black"/>
<path fill-rule="evenodd" clip-rule="evenodd" d="M36.1014 13.8257V6.28442H37.285V13.8257H36.1014Z" fill="black"/>
<path fill-rule="evenodd" clip-rule="evenodd" d="M45.5706 13.8257V6.28442H46.7542V13.8257H45.5706Z" fill="black"/>
</svg>
