<svg width="64" height="64" viewBox="0 0 64 64" fill="none" xmlns="http://www.w3.org/2000/svg">
<path d="M22.3798 26.98H14.8198V34.54H22.3798V26.98Z" fill="#FFC000"/>
<path d="M35.3002 26.98H27.7402V34.54H35.3002V26.98Z" fill="#FFC000"/>
<path d="M48.2202 26.98H40.6602V34.54H48.2202V26.98Z" fill="#FFC000"/>
<path d="M22.3798 41.8899H14.8198V49.4499H22.3798V41.8899Z" fill="#FFC000"/>
<path d="M35.3002 41.8899H27.7402V49.4499H35.3002V41.8899Z" fill="#FFC000"/>
<path d="M48.2202 41.8899H40.6602V49.4499H48.2202V41.8899Z" fill="#FFC000"/>
<path d="M42.7798 9.06006L42.8813 9.06982C43.109 9.11657 43.2798 9.31854 43.2798 9.56006C43.2798 9.80157 43.109 10.0035 42.8813 10.0503L42.7798 10.0601H19.9302C19.654 10.0601 19.4302 9.8362 19.4302 9.56006C19.4302 9.28392 19.654 9.06006 19.9302 9.06006H42.7798Z" fill="black"/>
<path d="M22.8796 26.48V35.0396H14.32V26.48H22.8796ZM15.32 34.0396H21.8796V27.48H15.32V34.0396Z" fill="black"/>
<path d="M35.7996 26.48V35.0396H27.24V26.48H35.7996ZM28.24 34.0396H34.7996V27.48H28.24V34.0396Z" fill="black"/>
<path d="M48.7196 26.48V35.0396H40.16V26.48H48.7196ZM41.16 34.0396H47.7196V27.48H41.16V34.0396Z" fill="black"/>
<path d="M22.8796 41.39V49.9496H14.32V41.39H22.8796ZM15.32 48.9496H21.8796V42.39H15.32V48.9496Z" fill="black"/>
<path d="M35.7996 41.39V49.9496H27.24V41.39H35.7996ZM28.24 48.9496H34.7996V42.39H28.24V48.9496Z" fill="black"/>
<path d="M48.7196 41.39V49.9496H40.16V41.39H48.7196ZM41.16 48.9496H47.7196V42.39H41.16V48.9496Z" fill="black"/>
<path d="M56.5402 20.55L56.6408 20.5598C56.8687 20.6064 57.0402 20.8084 57.0402 21.05C57.0402 21.2916 56.8687 21.4936 56.6408 21.5402L56.5402 21.55H6.55C6.27386 21.55 6.05 21.3261 6.05 21.05C6.05 20.7739 6.27386 20.55 6.55 20.55H56.5402Z" fill="black"/>
<path d="M14.9902 9.05L15.0908 9.05977C15.3187 9.10638 15.4902 9.30837 15.4902 9.55C15.4902 9.79163 15.3187 9.99362 15.0908 10.0402L14.9902 10.05H7V57.1896H56.0303V10.05H48.4199C48.1438 10.05 47.9199 9.82612 47.9199 9.55C47.9199 9.27388 48.1438 9.05004 48.4199 9.05H56.5303L56.6309 9.05977C56.8587 9.10639 57.0303 9.30838 57.0303 9.55V57.6896C57.0303 57.9657 56.8063 58.1895 56.5303 58.1896H6.5C6.22386 58.1896 6 57.9658 6 57.6896V9.55L6.00977 9.44941C6.05629 9.22145 6.25829 9.05 6.5 9.05H14.9902Z" fill="black"/>
<path d="M43.4196 9.05L43.5211 9.05977C43.7488 9.10649 43.9196 9.30847 43.9196 9.55C43.9196 9.79153 43.7488 9.99351 43.5211 10.0402L43.4196 10.05H20.11C19.8339 10.05 19.61 9.82614 19.61 9.55C19.61 9.27386 19.8339 9.05 20.11 9.05H43.4196Z" fill="black"/>
<path d="M19.9304 5L20.031 5.00977C20.2588 5.05644 20.4304 5.25842 20.4304 5.5V15.2695C20.4304 15.5455 20.2064 15.7693 19.9304 15.7695H15.28C15.0039 15.7695 14.78 15.5457 14.78 15.2695V5.5L14.7898 5.39941C14.8363 5.17145 15.0383 5 15.28 5H19.9304ZM15.78 14.7695H19.4304V6H15.78V14.7695Z" fill="black"/>
<path d="M48.1004 5L48.201 5.00977C48.4288 5.05644 48.6004 5.25842 48.6004 5.5V15.2695C48.6004 15.5455 48.3764 15.7693 48.1004 15.7695H43.45C43.1739 15.7695 42.95 15.5457 42.95 15.2695V5.5L42.9598 5.39941C43.0063 5.17145 43.2083 5 43.45 5H48.1004ZM43.95 14.7695H47.6004V6H43.95V14.7695Z" fill="black"/>
</svg>
