<svg width="64" height="64" viewBox="0 0 64 64" fill="none" xmlns="http://www.w3.org/2000/svg">
<path d="M56.4121 46.2447L48.0388 40.0912C46.095 38.665 43.4036 38.8606 41.7129 40.5513C41.7129 40.5513 40.2866 41.9775 40.2751 41.989C39.286 42.9782 37.9058 43.4843 36.5141 43.3922C35.4099 43.3117 34.3172 42.7711 33.3051 42.0695C32.2354 41.3219 31.2463 40.3903 30.4067 39.6312C29.521 38.8376 28.6469 38.0324 27.8073 37.1928C26.9676 36.3532 26.151 35.479 25.3689 34.5934C24.6213 33.7538 23.6896 32.7646 22.9305 31.695C22.2289 30.6828 21.6768 29.6017 21.6078 28.486C21.5158 27.0943 22.0219 25.7026 23.011 24.7249L24.4488 23.2872C26.1395 21.5965 26.335 18.905 24.9088 16.9613L18.7554 8.58799C16.9841 6.17262 13.4761 5.88508 11.3828 7.9899L9.89906 9.47362C7.97827 11.3944 6.80509 13.9478 6.62106 16.6737C6.17249 23.5402 9.20895 31.0049 15.2704 38.9756C16.8116 40.9999 18.4909 42.9207 20.2851 44.7149C22.0794 46.5092 24.0002 48.1885 26.0245 49.7297C34.0067 55.7911 41.4713 58.8276 48.3264 58.379C51.0523 58.2065 53.6057 57.0218 55.5264 55.101L57.0102 53.6173C59.115 51.5125 58.8274 48.0159 56.4121 46.2332V46.2447Z" fill="#FFC000"/>
<path d="M11.0289 7.63619C13.343 5.31033 17.2088 5.63491 19.1578 8.29147L25.3121 16.6655L25.4537 16.8686C26.8672 18.9902 26.6115 21.8319 24.8023 23.6411L23.3629 25.0805C22.5361 25.8977 22.0824 27.0458 22.0973 28.2182L22.107 28.4526V28.4555L22.1236 28.6381C22.2295 29.5552 22.6981 30.4811 23.3385 31.4057L23.6226 31.7915C23.9133 32.174 24.2216 32.5451 24.5318 32.9028L25.7428 34.2612L25.7437 34.2622L26.3316 34.9184C26.9257 35.5719 27.5369 36.2155 28.1607 36.8393C28.7834 37.462 29.4267 38.0665 30.0816 38.6635L30.7408 39.2592L30.7418 39.2602L31.401 39.8579C32.0786 40.4707 32.8129 41.1151 33.5904 41.6587L33.9596 41.9047C34.8222 42.4536 35.6962 42.83 36.5465 42.893C37.7973 42.9756 39.0364 42.5203 39.9215 41.6352L39.9293 41.6274L39.9312 41.6264L39.9332 41.6235L39.942 41.6157L39.943 41.6137L39.9449 41.6118L39.9469 41.6108L39.9478 41.6098L39.9488 41.6079L39.9498 41.6069L39.9517 41.6059L39.9527 41.604L39.9537 41.603L39.9557 41.602L39.9566 41.6001L39.9586 41.5991L39.9596 41.5971L39.9615 41.5962L39.9625 41.5942L39.9644 41.5922L39.9664 41.5913L39.9674 41.5893L39.9693 41.5883L39.9713 41.5864L39.9723 41.5844L39.9742 41.5825L39.9762 41.5815L39.9781 41.5796L39.9791 41.5776L39.983 41.5737L39.985 41.5727L40.0006 41.5571L40.0025 41.5542L40.0084 41.5483C40.0091 41.5476 40.0106 41.5471 40.0113 41.5463L40.0133 41.5444C40.014 41.5437 40.0145 41.5422 40.0152 41.5415L40.0172 41.5395C40.0179 41.5388 40.0194 41.5383 40.0201 41.5376C40.0209 41.5368 40.0213 41.5354 40.0221 41.5346L40.024 41.5327C40.0248 41.5319 40.0262 41.5315 40.0269 41.5307C40.0277 41.5299 40.0281 41.5286 40.0289 41.5278C40.0296 41.527 40.0311 41.5266 40.0318 41.5258C40.0326 41.5251 40.033 41.5236 40.0338 41.5229L40.0357 41.521C40.0365 41.5202 40.0379 41.5198 40.0387 41.519C40.0394 41.5182 40.0399 41.5168 40.0406 41.5161C40.0414 41.5153 40.0428 41.5149 40.0435 41.5141C40.0443 41.5134 40.0447 41.5119 40.0455 41.5112L40.0484 41.5083C40.0492 41.5075 40.0506 41.5071 40.0514 41.5063C40.0522 41.5055 40.0525 41.5042 40.0533 41.5034C40.0541 41.5026 40.0554 41.5022 40.0562 41.5014C40.057 41.5006 40.0574 41.4993 40.0582 41.4985L40.0611 41.4956C40.0619 41.4948 40.0632 41.4944 40.0641 41.4936C40.0648 41.4928 40.0652 41.4915 40.066 41.4907L40.0719 41.4848C40.0727 41.484 40.074 41.4837 40.0748 41.4829L40.0777 41.4799C40.0785 41.4791 40.0789 41.4778 40.0797 41.477L40.0855 41.4712C40.0863 41.4703 40.0877 41.47 40.0885 41.4692L40.0973 41.4604C40.0981 41.4596 40.0984 41.4583 40.0992 41.4575L40.1139 41.4428C40.1148 41.4418 40.1168 41.4409 40.1178 41.4399L40.1295 41.4282C40.1305 41.4272 40.1314 41.4253 40.1324 41.4243L40.1383 41.4184C40.1393 41.4174 40.1411 41.4165 40.1422 41.4155L40.1451 41.4126C40.1462 41.4115 40.147 41.4097 40.148 41.4087L40.1539 41.4028C40.155 41.4017 40.1567 41.4009 40.1578 41.3999C40.1589 41.3988 40.1597 41.397 40.1607 41.396L40.1637 41.393C40.1647 41.3919 40.1665 41.3912 40.1676 41.3901C40.1686 41.389 40.1694 41.3873 40.1705 41.3862L40.1734 41.3833C40.1745 41.3822 40.1762 41.3814 40.1773 41.3803C40.1784 41.3792 40.1792 41.3775 40.1803 41.3764L40.1832 41.3735C40.1842 41.3724 40.186 41.3716 40.1871 41.3706C40.1882 41.3695 40.1889 41.3677 40.19 41.3667C40.1911 41.3656 40.1928 41.3648 40.1939 41.3637C40.1951 41.3626 40.1957 41.3609 40.1969 41.3598C40.198 41.3587 40.1996 41.358 40.2008 41.3569C40.2019 41.3558 40.2026 41.3541 40.2037 41.353C40.2048 41.3519 40.2065 41.3512 40.2076 41.3501C40.2087 41.3489 40.2094 41.3473 40.2105 41.3462C40.2117 41.345 40.2133 41.3444 40.2144 41.3432C40.2156 41.3421 40.2162 41.3405 40.2174 41.3393C40.2185 41.3382 40.2202 41.3375 40.2213 41.3364C40.2224 41.3353 40.2231 41.3336 40.2242 41.3325L40.2281 41.3286C40.2292 41.3275 40.2309 41.3268 40.232 41.3256C40.2332 41.3245 40.2338 41.3229 40.235 41.3217C40.2361 41.3206 40.2377 41.32 40.2389 41.3188C40.24 41.3177 40.2407 41.316 40.2418 41.3149L40.2457 41.311C40.2468 41.3099 40.2485 41.3092 40.2496 41.3081C40.2507 41.307 40.2514 41.3053 40.2525 41.3042L40.2564 41.3003C40.2576 41.2991 40.2592 41.2985 40.2603 41.2973L40.2642 41.2934C40.2654 41.2923 40.266 41.2907 40.2672 41.2895L40.2711 41.2856C40.2722 41.2845 40.2738 41.2838 40.275 41.2827L40.2789 41.2788C40.28 41.2776 40.2807 41.276 40.2818 41.2749L40.2896 41.2671C40.2908 41.2659 40.2924 41.2653 40.2935 41.2641L40.2975 41.2602C40.2986 41.2591 40.2992 41.2575 40.3004 41.2563L40.3121 41.2446C40.3132 41.2435 40.3149 41.2428 40.316 41.2417L40.3277 41.2299C40.3289 41.2288 40.3295 41.2272 40.3307 41.226L40.401 41.1557C40.4023 41.1544 40.4045 41.1531 40.4058 41.1518L40.4176 41.1401C40.4189 41.1388 40.4201 41.1366 40.4215 41.1352L40.4371 41.1196C40.4384 41.1182 40.4406 41.117 40.442 41.1157L40.4498 41.1079C40.4511 41.1065 40.4523 41.1043 40.4537 41.103L40.4615 41.0952C40.4629 41.0938 40.465 41.0926 40.4664 41.0913L40.4703 41.0874C40.4717 41.086 40.4728 41.0838 40.4742 41.0825L40.482 41.0747C40.4834 41.0733 40.4855 41.0721 40.4869 41.0708L40.4908 41.0669C40.4922 41.0655 40.4933 41.0633 40.4947 41.062L40.5025 41.0542C40.5039 41.0528 40.506 41.0516 40.5074 41.0503L40.5113 41.0463C40.5127 41.045 40.5138 41.0428 40.5152 41.0415L40.5191 41.0376C40.5205 41.0362 40.5226 41.035 40.524 41.0337L40.5279 41.0297C40.5293 41.0284 40.5304 41.0262 40.5318 41.0249L40.5357 41.021C40.5371 41.0196 40.5392 41.0184 40.5406 41.0171L40.5445 41.0131C40.5459 41.0118 40.547 41.0097 40.5484 41.0083L40.5523 41.0044C40.5537 41.003 40.5558 41.0018 40.5572 41.0005C40.5586 40.9991 40.5597 40.9969 40.5611 40.9956L40.565 40.9917C40.5664 40.9903 40.5685 40.9891 40.5699 40.9878L40.5738 40.9838C40.5752 40.9825 40.5763 40.9804 40.5777 40.979L40.5816 40.9751C40.583 40.9737 40.5851 40.9725 40.5865 40.9712L40.5904 40.9672C40.5918 40.9659 40.5929 40.9638 40.5943 40.9624C40.5957 40.961 40.5978 40.9599 40.5992 40.9585L40.6031 40.9546C40.6045 40.9532 40.6056 40.9511 40.607 40.9497L40.6109 40.9458C40.6123 40.9444 40.6144 40.9433 40.6158 40.9419C40.6172 40.9405 40.6183 40.9384 40.6197 40.937L40.6236 40.9331C40.625 40.9317 40.6271 40.9306 40.6285 40.9292L40.6324 40.9253C40.6338 40.9239 40.6349 40.9218 40.6363 40.9204L40.6402 40.9165C40.6416 40.9151 40.6437 40.914 40.6451 40.9126C40.6465 40.9112 40.6476 40.9091 40.649 40.9077L40.6529 40.9038C40.6543 40.9024 40.6564 40.9013 40.6578 40.8999L40.6617 40.896C40.6631 40.8946 40.6642 40.8925 40.6656 40.8911C40.667 40.8897 40.6691 40.8886 40.6705 40.8872L40.6744 40.8833C40.6758 40.8819 40.6769 40.8798 40.6783 40.8784L40.6822 40.8745C40.6836 40.8731 40.6857 40.872 40.6871 40.8706C40.6885 40.8692 40.6896 40.8671 40.691 40.8657L40.6949 40.8618C40.6963 40.8604 40.6984 40.8593 40.6998 40.8579L40.7037 40.854C40.7051 40.8526 40.7062 40.8505 40.7076 40.8491L40.7115 40.8452C40.7129 40.8438 40.715 40.8427 40.7164 40.8413L40.7203 40.8374C40.7217 40.836 40.7228 40.8339 40.7242 40.8325L40.7281 40.8286C40.7295 40.8272 40.7316 40.8261 40.733 40.8247C40.7344 40.8233 40.7355 40.8212 40.7369 40.8198L40.7447 40.812C40.7461 40.8106 40.7482 40.8094 40.7496 40.8081C40.751 40.8067 40.7521 40.8046 40.7535 40.8032L40.7613 40.7954C40.7627 40.794 40.7648 40.7928 40.7662 40.7915C40.7676 40.7901 40.7687 40.788 40.7701 40.7866L40.7779 40.7788C40.7793 40.7774 40.7814 40.7762 40.7828 40.7749L40.7867 40.771C40.7881 40.7696 40.7892 40.7674 40.7906 40.7661L40.7984 40.7583C40.7998 40.7569 40.8019 40.7557 40.8033 40.7544L40.8072 40.7505C40.8086 40.7491 40.8098 40.7469 40.8111 40.7456L40.8189 40.7378C40.8203 40.7364 40.8225 40.7352 40.8238 40.7338L40.8277 40.7299C40.8291 40.7286 40.8303 40.7264 40.8316 40.7251L40.8433 40.7133C40.8447 40.712 40.8469 40.7108 40.8482 40.7094L40.86 40.6977C40.8613 40.6964 40.8625 40.6942 40.8639 40.6928L40.8834 40.6733C40.8847 40.672 40.8869 40.6707 40.8883 40.6694L40.943 40.6147C40.9441 40.6136 40.9448 40.6119 40.9459 40.6108L40.9654 40.5913C40.9666 40.5901 40.9682 40.5895 40.9693 40.5883L40.9771 40.5805C40.9783 40.5794 40.9789 40.5778 40.9801 40.5766L40.9879 40.5688C40.989 40.5677 40.9907 40.567 40.9918 40.5659L40.9957 40.562C40.9968 40.5608 40.9975 40.5592 40.9986 40.5581L41.0064 40.5503C41.0076 40.5491 41.0092 40.5485 41.0103 40.5473L41.0142 40.5434C41.0154 40.5423 41.016 40.5406 41.0172 40.5395L41.0211 40.5356C41.0222 40.5345 41.0239 40.5338 41.025 40.5327C41.0261 40.5315 41.0268 40.5299 41.0279 40.5288L41.0318 40.5249C41.033 40.5237 41.0346 40.5231 41.0357 40.5219C41.0369 40.5208 41.0375 40.5192 41.0387 40.518L41.0426 40.5141C41.0437 40.513 41.0454 40.5123 41.0465 40.5112C41.0476 40.5101 41.0483 40.5084 41.0494 40.5073C41.0505 40.5061 41.0522 40.5055 41.0533 40.5044C41.0544 40.5032 41.0551 40.5016 41.0562 40.5005L41.0601 40.4965C41.0612 40.4955 41.063 40.4947 41.0641 40.4936C41.0651 40.4925 41.0659 40.4908 41.067 40.4897C41.0681 40.4886 41.0698 40.4879 41.0709 40.4868C41.072 40.4857 41.0727 40.484 41.0738 40.4829C41.0749 40.4818 41.0766 40.481 41.0777 40.4799C41.0788 40.4788 41.0796 40.4771 41.0807 40.476C41.0817 40.4749 41.0835 40.4742 41.0846 40.4731C41.0856 40.472 41.0864 40.4703 41.0875 40.4692L41.0904 40.4663C41.0915 40.4652 41.0933 40.4644 41.0943 40.4633C41.0954 40.4623 41.0962 40.4605 41.0973 40.4594C41.0984 40.4583 41.1001 40.4576 41.1012 40.4565C41.1023 40.4554 41.103 40.4537 41.1041 40.4526L41.107 40.4497C41.1081 40.4486 41.1099 40.4478 41.1109 40.4467C41.112 40.4457 41.1128 40.4439 41.1139 40.4428L41.1168 40.4399C41.1178 40.4388 41.1196 40.438 41.1207 40.437C41.1218 40.4359 41.1226 40.4341 41.1236 40.4331L41.1266 40.4301C41.1276 40.4291 41.1294 40.4283 41.1305 40.4272L41.1334 40.4243C41.1344 40.4232 41.1353 40.4214 41.1363 40.4204L41.1422 40.4145C41.1432 40.4135 41.1451 40.4126 41.1461 40.4116L41.1519 40.4057C41.153 40.4047 41.1539 40.4028 41.1549 40.4018L41.19 40.3667C41.1908 40.3658 41.1921 40.3655 41.193 40.3647L41.1988 40.3588C41.1996 40.358 41.2 40.3567 41.2008 40.3559L41.2066 40.3501C41.2074 40.3492 41.2087 40.3489 41.2096 40.3481L41.2125 40.3452C41.2133 40.3444 41.2136 40.3431 41.2144 40.3422L41.2174 40.3393C41.2182 40.3385 41.2195 40.3382 41.2203 40.3374C41.2211 40.3365 41.2214 40.3352 41.2223 40.3344L41.2252 40.3315C41.226 40.3307 41.2274 40.3303 41.2281 40.3296C41.2289 40.3288 41.2293 40.3274 41.2301 40.3266C41.2309 40.3258 41.2322 40.3255 41.233 40.3247C41.2338 40.3239 41.2341 40.3225 41.235 40.3217C41.2357 40.321 41.2371 40.3206 41.2379 40.3198C41.2387 40.319 41.2391 40.3176 41.2398 40.3169C41.2406 40.3161 41.242 40.3157 41.2428 40.3149C41.2435 40.3141 41.2439 40.3127 41.2447 40.312C41.2455 40.3112 41.2469 40.3108 41.2476 40.31C41.2484 40.3092 41.2488 40.3079 41.2496 40.3071C41.2504 40.3063 41.2518 40.3059 41.2525 40.3051C41.2533 40.3044 41.2537 40.3029 41.2545 40.3022L41.2564 40.3003C41.2572 40.2995 41.2586 40.2991 41.2594 40.2983C41.2601 40.2976 41.2606 40.2961 41.2613 40.2954L41.2633 40.2934C41.264 40.2927 41.2655 40.2922 41.2662 40.2915L41.2682 40.2895C41.2689 40.2888 41.2694 40.2873 41.2701 40.2866L41.274 40.2827L41.2769 40.2807L41.2848 40.2729L41.2867 40.27L41.2906 40.2661L41.2926 40.2651L41.3004 40.2573L41.3014 40.2553L41.3053 40.2514L41.3072 40.2505L41.3082 40.2485L41.3101 40.2465L41.3121 40.2456L41.3131 40.2436L41.315 40.2417L41.317 40.2407L41.318 40.2387L41.3199 40.2378L41.3209 40.2358L41.3228 40.2348L41.3238 40.2329L41.3258 40.2319L41.3267 40.2299L41.3287 40.229L41.3297 40.228L41.3307 40.226L41.3326 40.2251L41.3336 40.2241L41.3346 40.2221L41.3365 40.2202L41.3385 40.2192L41.3404 40.2172L41.3414 40.2153L41.3453 40.2114L41.3492 40.2085L41.3502 40.2065L41.3521 40.2055L41.359 40.1987L41.5377 40.0278C43.4116 38.3189 46.2612 38.1668 48.3346 39.688L56.6324 45.7856C56.6588 45.7986 56.6853 45.8127 56.7096 45.8305C59.3655 47.791 59.6895 51.6455 57.3639 53.9712L55.8805 55.4546C53.8761 57.459 51.2088 58.697 48.358 58.8774L48.359 58.8784C41.332 59.3381 33.7488 56.2225 25.7223 50.1274C23.6801 48.5726 21.7412 46.8788 19.9312 45.0688C18.1212 43.2588 16.4275 41.3209 14.8726 39.2788C8.77733 31.2634 5.66285 23.6794 6.12264 16.6411L6.1705 16.1079C6.47098 13.4612 7.66548 10.9996 9.5455 9.11959L11.0289 7.63619ZM18.3521 8.88326C16.7585 6.71055 13.6091 6.45973 11.7369 8.34225L10.2525 9.8276C8.41659 11.6637 7.2955 14.1036 7.11971 16.7075C6.68283 23.4016 9.64091 30.7471 15.6676 38.6723C17.1951 40.6787 18.8608 42.5833 20.6392 44.3618C22.4176 46.1401 24.3215 47.8041 26.3277 49.3315C34.2655 55.3592 41.6105 58.3176 48.2935 57.8803L48.7808 57.8374C51.1987 57.5707 53.4511 56.4698 55.1734 54.7475L56.6568 53.2641C58.5209 51.4 58.2939 48.3078 56.1822 46.688C56.1595 46.6761 56.1369 46.6634 56.1158 46.6479L47.7428 40.4946C45.9955 39.2127 43.5809 39.3911 42.067 40.9047L42.0582 40.9135L42.0562 40.9145L42.0514 40.9204L42.0445 40.9272L42.0426 40.9282L42.0416 40.9292L42.0406 40.9311L42.0396 40.9321L42.0377 40.9331L42.0367 40.935L42.0357 40.936L42.0338 40.937L42.0328 40.9389L42.0308 40.9399L42.0299 40.9419L42.0279 40.9428L42.0269 40.9448L42.025 40.9458L42.024 40.9477L42.0221 40.9487L42.0211 40.9506L42.0191 40.9526L42.0172 40.9536L42.0162 40.9555L42.0123 40.9594L42.0103 40.9604L42.0084 40.9624L42.0074 40.9643L41.984 40.9878L41.981 40.9897L41.9771 40.9936C41.9764 40.9943 41.9759 40.9958 41.9752 40.9965L41.9732 40.9985C41.9725 40.9992 41.971 40.9997 41.9703 41.0005C41.9696 41.0012 41.9691 41.0027 41.9683 41.0034L41.9664 41.0053C41.9656 41.0061 41.9642 41.0065 41.9635 41.0073C41.9627 41.008 41.9622 41.0095 41.9615 41.0102L41.9596 41.0122C41.9588 41.0129 41.9574 41.0133 41.9566 41.0141C41.9558 41.0149 41.9555 41.0163 41.9547 41.0171C41.9539 41.0178 41.9525 41.0182 41.9517 41.019C41.951 41.0198 41.9506 41.0212 41.9498 41.0219C41.949 41.0227 41.9476 41.0231 41.9469 41.0239C41.9461 41.0247 41.9457 41.026 41.9449 41.0268C41.9441 41.0276 41.9428 41.028 41.942 41.0288C41.9412 41.0296 41.9408 41.0309 41.94 41.0317C41.9392 41.0325 41.9379 41.0328 41.9371 41.0337C41.9363 41.0345 41.9359 41.0358 41.9351 41.0366L41.9322 41.0395C41.9314 41.0403 41.9301 41.0407 41.9293 41.0415C41.9285 41.0423 41.9282 41.0436 41.9273 41.0444L41.9244 41.0473C41.9236 41.0481 41.9223 41.0485 41.9215 41.0493C41.9207 41.0501 41.9203 41.0514 41.9195 41.0522L41.9166 41.0551C41.9158 41.056 41.9145 41.0563 41.9137 41.0571L41.9107 41.06C41.9099 41.0608 41.9096 41.0621 41.9088 41.063L41.9 41.0717C41.8992 41.0726 41.8979 41.0729 41.8971 41.0737L41.8619 41.1088C41.8609 41.1099 41.86 41.1117 41.859 41.1128L41.8502 41.1215C41.8492 41.1226 41.8473 41.1234 41.8463 41.1245L41.8433 41.1274C41.8423 41.1284 41.8415 41.1303 41.8404 41.1313L41.8375 41.1342C41.8364 41.1353 41.8346 41.1361 41.8336 41.1372L41.8307 41.1401C41.8296 41.1412 41.8288 41.1429 41.8277 41.144L41.8248 41.1469C41.8237 41.148 41.8219 41.1488 41.8209 41.1499C41.8198 41.1509 41.819 41.1527 41.818 41.1538L41.815 41.1567C41.814 41.1578 41.8122 41.1586 41.8111 41.1596C41.81 41.1607 41.8093 41.1624 41.8082 41.1635C41.8071 41.1646 41.8054 41.1654 41.8043 41.1665C41.8032 41.1675 41.8024 41.1693 41.8014 41.1704L41.7984 41.1733C41.7974 41.1744 41.7956 41.1752 41.7945 41.1762C41.7934 41.1773 41.7927 41.1791 41.7916 41.1801C41.7905 41.1812 41.7888 41.182 41.7877 41.1831C41.7866 41.1842 41.7859 41.1859 41.7848 41.187C41.7836 41.1881 41.782 41.1888 41.7808 41.1899C41.7797 41.191 41.779 41.1927 41.7779 41.1938C41.7768 41.1949 41.7751 41.1956 41.774 41.1967C41.7729 41.1978 41.7722 41.1996 41.7711 41.2006L41.7672 41.2046C41.7661 41.2056 41.7644 41.2064 41.7633 41.2075C41.7622 41.2086 41.7615 41.2103 41.7603 41.2114C41.7592 41.2125 41.7576 41.2132 41.7564 41.2143C41.7553 41.2155 41.7546 41.2171 41.7535 41.2182L41.7496 41.2221C41.7485 41.2232 41.7468 41.224 41.7457 41.2251C41.7446 41.2262 41.7439 41.2278 41.7428 41.229C41.7416 41.2301 41.74 41.2308 41.7389 41.2319L41.735 41.2358C41.7338 41.2369 41.7332 41.2386 41.732 41.2397L41.7281 41.2436C41.727 41.2447 41.7253 41.2454 41.7242 41.2465C41.7231 41.2477 41.7224 41.2493 41.7213 41.2505L41.7174 41.2544C41.7162 41.2555 41.7146 41.2561 41.7135 41.2573L41.7096 41.2612C41.7084 41.2623 41.7078 41.264 41.7066 41.2651L41.6988 41.2729C41.6977 41.274 41.6961 41.2747 41.6949 41.2758L41.691 41.2797C41.6899 41.2809 41.6892 41.2825 41.6881 41.2837L41.6725 41.2993C41.6713 41.3004 41.6697 41.3011 41.6685 41.3022L41.6568 41.3139C41.6557 41.3151 41.655 41.3167 41.6539 41.3178L41.5914 41.3803C41.5901 41.3817 41.5878 41.3829 41.5865 41.3842L41.5748 41.396C41.5735 41.3973 41.5722 41.3995 41.5709 41.4008L41.5553 41.4165C41.5539 41.4178 41.5517 41.419 41.5504 41.4204L41.5426 41.4282C41.5412 41.4295 41.54 41.4317 41.5387 41.4331L41.5269 41.4448C41.5256 41.4461 41.5234 41.4473 41.5221 41.4487L41.5182 41.4526C41.5168 41.454 41.5156 41.4561 41.5142 41.4575L41.5064 41.4653C41.5051 41.4667 41.5029 41.4678 41.5016 41.4692L41.4976 41.4731C41.4963 41.4745 41.4951 41.4766 41.4937 41.478L41.4859 41.4858C41.4846 41.4872 41.4824 41.4883 41.481 41.4897C41.4797 41.4911 41.4785 41.4932 41.4771 41.4946L41.4693 41.5024C41.4679 41.5038 41.4658 41.5049 41.4644 41.5063C41.4631 41.5077 41.4619 41.5098 41.4605 41.5112L41.4527 41.519C41.4513 41.5204 41.4492 41.5215 41.4478 41.5229C41.4465 41.5243 41.4453 41.5264 41.4439 41.5278L41.4361 41.5356C41.4347 41.537 41.4326 41.5381 41.4312 41.5395C41.4299 41.5409 41.4287 41.543 41.4273 41.5444L41.4234 41.5483C41.422 41.5497 41.4199 41.5508 41.4185 41.5522L41.4146 41.5561C41.4132 41.5575 41.4121 41.5596 41.4107 41.561L41.4068 41.5649C41.4054 41.5663 41.4033 41.5674 41.4019 41.5688C41.4006 41.5702 41.3994 41.5723 41.398 41.5737L41.3941 41.5776C41.3927 41.579 41.3906 41.5801 41.3892 41.5815L41.3853 41.5854C41.3839 41.5868 41.3828 41.5889 41.3814 41.5903L41.3775 41.5942C41.3761 41.5956 41.374 41.5967 41.3726 41.5981C41.3713 41.5995 41.3701 41.6016 41.3687 41.603L41.3648 41.6069C41.3634 41.6083 41.3614 41.6094 41.36 41.6108L41.356 41.6147C41.3546 41.6161 41.3535 41.6182 41.3521 41.6196L41.3482 41.6235C41.3469 41.6249 41.3447 41.626 41.3433 41.6274C41.3419 41.6288 41.3408 41.6309 41.3394 41.6323L41.3355 41.6362C41.3341 41.6376 41.3321 41.6387 41.3307 41.6401C41.3293 41.6415 41.3281 41.6436 41.3267 41.645L41.3228 41.6489C41.3214 41.6503 41.3194 41.6514 41.318 41.6528L41.3141 41.6567C41.3127 41.6581 41.3115 41.6602 41.3101 41.6616L41.3062 41.6655C41.3048 41.6669 41.3027 41.668 41.3014 41.6694C41.3 41.6708 41.2988 41.6729 41.2975 41.6743L41.2935 41.6782C41.2921 41.6796 41.2901 41.6807 41.2887 41.6821L41.2848 41.686C41.2834 41.6874 41.2822 41.6895 41.2808 41.6909L41.2769 41.6948C41.2756 41.6962 41.2735 41.6973 41.2721 41.6987C41.2707 41.7001 41.2695 41.7022 41.2682 41.7036L41.2603 41.7114C41.259 41.7128 41.2568 41.7139 41.2555 41.7153C41.2541 41.7167 41.2529 41.7188 41.2516 41.7202L41.2476 41.7241C41.2463 41.7255 41.2441 41.7266 41.2428 41.728L41.2389 41.7319C41.2375 41.7333 41.2363 41.7354 41.235 41.7368L41.231 41.7407C41.2297 41.7421 41.2275 41.7432 41.2262 41.7446L41.2223 41.7485C41.2209 41.7499 41.2197 41.752 41.2183 41.7534L41.2105 41.7612C41.2092 41.7626 41.207 41.7637 41.2057 41.7651C41.2043 41.7665 41.2031 41.7686 41.2017 41.77L41.1939 41.7778C41.1926 41.7792 41.1904 41.7803 41.1891 41.7817L41.1851 41.7856C41.1838 41.787 41.1826 41.7891 41.1812 41.7905L41.1695 41.8022C41.1682 41.8036 41.166 41.8048 41.1646 41.8061L41.1607 41.81C41.1594 41.8114 41.1582 41.8135 41.1568 41.8149L41.1451 41.8266C41.1438 41.828 41.1416 41.8292 41.1402 41.8305L41.1324 41.8383C41.1311 41.8397 41.1298 41.8419 41.1285 41.8432L41.109 41.8628C41.1076 41.8641 41.1054 41.8653 41.1041 41.8667L41.0416 41.9292C41.0405 41.9303 41.0398 41.9319 41.0387 41.9331L41.0191 41.9526C41.018 41.9537 41.0164 41.9544 41.0152 41.9555L41.0074 41.9633C41.0063 41.9645 41.0056 41.9661 41.0045 41.9672L40.9967 41.9751C40.9955 41.9762 40.9939 41.9769 40.9928 41.978L40.9889 41.9819C40.9877 41.983 40.9871 41.9847 40.9859 41.9858L40.982 41.9897C40.9809 41.9908 40.9793 41.9915 40.9781 41.9926L40.9742 41.9965C40.9731 41.9977 40.9724 41.9993 40.9713 42.0005L40.9674 42.0044C40.9662 42.0055 40.9646 42.0061 40.9635 42.0073C40.9623 42.0084 40.9617 42.0101 40.9605 42.0112L40.9566 42.0151C40.9555 42.0162 40.9539 42.0169 40.9527 42.018C40.9516 42.0191 40.9509 42.0208 40.9498 42.0219L40.9459 42.0258C40.9447 42.027 40.9431 42.0276 40.942 42.0288C40.9408 42.0299 40.9402 42.0315 40.9391 42.0327L40.9283 42.0434C40.9272 42.0445 40.9255 42.0452 40.9244 42.0463C40.9233 42.0475 40.9226 42.0491 40.9215 42.0503C40.9203 42.0514 40.9187 42.052 40.9176 42.0532C40.9164 42.0543 40.9158 42.056 40.9146 42.0571C40.9135 42.0582 40.9119 42.0589 40.9107 42.06C40.9096 42.0612 40.9089 42.0628 40.9078 42.0639C40.9067 42.0651 40.905 42.0657 40.9039 42.0669C40.9028 42.068 40.9021 42.0696 40.901 42.0708C40.8999 42.0719 40.8982 42.0726 40.8971 42.0737C40.896 42.0748 40.8952 42.0765 40.8941 42.0776L40.8912 42.0805C40.8901 42.0816 40.8884 42.0824 40.8873 42.0835C40.8862 42.0846 40.8855 42.0863 40.8844 42.0874C40.8833 42.0885 40.8816 42.0892 40.8805 42.0903C40.8794 42.0913 40.8786 42.0932 40.8775 42.0942L40.8746 42.0971C40.8735 42.0982 40.8718 42.099 40.8707 42.1001L40.8678 42.103C40.8667 42.1041 40.8659 42.1058 40.8648 42.1069L40.8619 42.1098C40.8608 42.1109 40.8591 42.1117 40.858 42.1128C40.8569 42.1138 40.8561 42.1156 40.8551 42.1167L40.8492 42.1225C40.8482 42.1236 40.8463 42.1244 40.8453 42.1255L40.8394 42.1313C40.8384 42.1323 40.8375 42.1342 40.8365 42.1352L40.8189 42.1528C40.818 42.1538 40.816 42.1547 40.815 42.1557C40.8142 42.1565 40.8139 42.1578 40.8131 42.1587L40.7926 42.1792C40.7918 42.18 40.7905 42.1803 40.7896 42.1811L40.7867 42.184C40.7859 42.1849 40.7856 42.1862 40.7848 42.187L40.7789 42.1928C40.7781 42.1936 40.7768 42.194 40.776 42.1948C40.7752 42.1956 40.7748 42.1969 40.774 42.1977L40.7711 42.2006C40.7703 42.2015 40.769 42.2018 40.7682 42.2026C40.7674 42.2034 40.767 42.2048 40.7662 42.2055L40.7633 42.2085C40.7625 42.2093 40.7612 42.2096 40.7603 42.2104C40.7595 42.2112 40.7592 42.2125 40.7584 42.2133L40.7506 42.2212C40.7498 42.2219 40.7484 42.2224 40.7476 42.2231C40.7469 42.2239 40.7464 42.2253 40.7457 42.226C40.7449 42.2268 40.7435 42.2272 40.7428 42.228C40.742 42.2287 40.7415 42.2302 40.7408 42.2309L40.7389 42.2329C40.7381 42.2336 40.7367 42.2341 40.7359 42.2348C40.7351 42.2356 40.7347 42.237 40.734 42.2378C40.7332 42.2385 40.7318 42.239 40.731 42.2397L40.7291 42.2417C40.7283 42.2424 40.7279 42.2438 40.7271 42.2446L40.7252 42.2465C40.7245 42.2473 40.723 42.2478 40.7223 42.2485C40.7215 42.2492 40.721 42.2507 40.7203 42.2514L40.7164 42.2553C40.7157 42.256 40.7142 42.2566 40.7135 42.2573L40.7096 42.2612L40.7076 42.2641L40.692 42.2797L40.69 42.2807L40.6861 42.2846L40.6851 42.2866L40.6812 42.2905L40.6793 42.2915L40.6783 42.2934L40.6764 42.2954L40.6744 42.2963L40.6734 42.2983L40.6715 42.3003L40.6695 42.3012L40.6685 42.3032L40.6666 42.3042L40.6656 42.3061L40.6637 42.3071L40.6627 42.309L40.6617 42.31L40.6598 42.311L40.6588 42.313L40.6568 42.3139L40.6558 42.3149L40.6549 42.3169L40.6539 42.3178L40.6519 42.3188L40.651 42.3198L40.65 42.3217L40.6402 42.3315L40.6383 42.3325L40.6373 42.3344L40.6353 42.3354L40.6344 42.3364L40.6334 42.3383L40.6295 42.3422C39.5363 43.4354 38.0135 43.9924 36.481 43.8911H36.4781C35.2431 43.801 34.0614 43.2027 33.0201 42.4809L33.0191 42.479C31.9178 41.7092 30.9002 40.7514 30.0728 40.0034L29.4088 39.4028C28.7461 38.7987 28.0904 38.1831 27.4537 37.5463C26.6061 36.6987 25.782 35.8169 24.9937 34.9243C24.2598 34.1001 23.3021 33.0816 22.523 31.9838L22.5201 31.9799C21.8019 30.9439 21.1871 29.7713 21.109 28.519L21.0973 28.2319C21.0789 26.798 21.632 25.3855 22.6598 24.3696L24.0953 22.934C25.6093 21.4201 25.7875 19.0046 24.5055 17.2573L18.3521 8.88326Z" fill="black"/>
<path d="M36.2423 18.6293L36.6983 18.7055C38.8207 19.105 40.8509 20.0914 42.547 21.6469L42.9054 21.9897L42.9064 21.9907L43.2569 22.3559C44.8511 24.0903 45.838 26.1906 46.2189 28.3657L46.2911 28.8334L46.295 28.934C46.2794 29.1663 46.102 29.3637 45.8624 29.3959C45.623 29.428 45.4008 29.2845 45.3243 29.0649L45.3009 28.9663L45.2345 28.5385C44.8608 26.4031 43.8493 24.3482 42.2003 22.6987L41.8712 22.3842C40.3139 20.9559 38.454 20.0532 36.5128 19.6879L36.0958 19.6176L35.9982 19.5932C35.7794 19.5139 35.6396 19.2894 35.6749 19.0502C35.7103 18.8114 35.9087 18.6374 36.1407 18.6245L36.2423 18.6293Z" fill="black"/>
<path d="M36.7052 7.44173C41.8555 7.93916 46.8785 10.1476 50.8087 14.0892C54.7376 18.0296 57.0119 23.1504 57.4708 28.3734L57.5089 28.8792L57.506 28.9798C57.4744 29.2103 57.2842 29.3946 57.0431 29.4105C56.8021 29.4262 56.59 29.2684 56.5284 29.0443L56.5108 28.9437L56.4737 28.4603C56.0347 23.4653 53.8589 18.5654 50.0997 14.7952C46.3418 11.0266 41.5394 8.91405 36.6095 8.43783L36.1319 8.39681L36.0323 8.37825C35.8086 8.31484 35.6521 8.10158 35.67 7.86068C35.6907 7.58542 35.9309 7.37829 36.2062 7.39876L36.7052 7.44173Z" fill="black"/>
</svg>
