<svg width="64" height="64" viewBox="0 0 64 64" fill="none" xmlns="http://www.w3.org/2000/svg">
<path d="M13 23.5L14 25C14 28.2 9 26.6667 6.5 25.5L7 24L7.5 22.5H8.5L10 23L13 23.5Z" fill="#FFC000"/>
<path d="M24.5845 36.5L25.5845 38C25.5845 41.2 20.5845 39.6667 18.0845 38.5L18.5845 37L19.0845 35.5H20.0845L21.5845 36L24.5845 36.5Z" fill="#FFC000"/>
<path d="M50.4419 36.5L49.4419 38C49.4419 41.2 54.4419 39.6667 56.9419 38.5L56.4419 37L55.9419 35.5H54.9419L53.4419 36L50.4419 36.5Z" fill="#FFC000"/>
<path fill-rule="evenodd" clip-rule="evenodd" d="M17.1854 11.5C16.5517 11.5 15.9033 11.8394 15.3224 12.268C14.7255 12.7085 14.1225 13.3017 13.5663 13.9288C12.7536 14.8453 12.0113 15.8681 11.5037 16.6678C11.133 16.2613 10.5981 16.0135 10.0229 16.0135H8.51503C6.29288 16.0135 4.5 17.8064 4.5 20.0285C4.5 20.8683 5.18563 21.5372 6.00866 21.5372H7.6692C6.67147 22.8379 6.00783 24.5097 6.00783 26.0805L6.10976 33.6845V37.5629C6.10976 38.1361 6.37603 38.6629 6.7529 39.0398C7.12976 39.4166 7.65659 39.6829 8.22973 39.6829H12.621C13.7946 39.6829 14.5475 38.6489 14.5475 37.6139L14.5065 35.7081L14.0066 35.2188H7.10976L7.10981 33.6811L7.00814 26.0969C9.51382 27.6049 12.4347 27.3244 13.6374 26.9808L13.7619 26.9452L13.8536 26.8536C14.2925 26.4146 14.479 25.8933 14.4361 25.3559C14.3947 24.8392 14.1463 24.3585 13.8158 23.9528C13.159 23.1467 12.067 22.4984 11.0103 22.2894C10.1606 22.1214 9.27366 22.0401 8.56747 22.0119C8.8039 21.7185 9.06 21.4487 9.33056 21.2112H43.4003C43.9691 21.7106 44.4853 22.3791 44.8921 23.2635L45.8006 22.8456C45.5766 22.3586 45.3207 21.9238 45.0394 21.5372H46.7219C47.5449 21.5372 48.2305 20.8683 48.2305 20.0285C48.2305 17.8064 46.4376 16.0135 44.2155 16.0135H42.7076C42.1292 16.0135 41.5915 16.2641 41.2205 16.6747C40.7119 15.8738 39.9659 14.8476 39.15 13.9286C38.5933 13.3016 37.9901 12.7085 37.3938 12.2682C36.8139 11.8399 36.1666 11.5 35.5349 11.5H17.1854ZM41.7812 17.6369C42.1603 18.2949 42.6579 18.9426 43.0836 19.4478C43.316 19.7236 43.5233 19.9526 43.6721 20.1122C43.7464 20.1919 43.8059 20.2541 43.8465 20.296L43.8601 20.3101L43.901 20.3247C43.984 20.3928 44.0659 20.4636 44.1467 20.5372H46.7219C46.9992 20.5372 47.2305 20.3095 47.2305 20.0285C47.2305 18.3587 45.8854 17.0135 44.2155 17.0135H42.7076C42.2934 17.0135 41.9267 17.2697 41.7812 17.6369ZM8.8394 20.3215L8.86673 20.2937C8.90775 20.2519 8.96796 20.1897 9.04307 20.1101C9.19341 19.9506 9.4027 19.7219 9.63677 19.4463C10.0681 18.9386 10.5701 18.2875 10.9456 17.6276C10.7977 17.2655 10.4337 17.0135 10.0229 17.0135H8.51503C6.84517 17.0135 5.5 18.3587 5.5 20.0285C5.5 20.3095 5.73133 20.5372 6.00866 20.5372H8.58413C8.66451 20.4641 8.74606 20.3934 8.82866 20.3253L8.8394 20.3215ZM42.42 20.2112H10.2983C10.3313 20.173 10.3648 20.1338 10.3989 20.0937C10.8898 19.5158 11.4996 18.7249 11.9319 17.9091C12.3186 17.1793 13.2498 15.7929 14.3145 14.5923C14.846 13.993 15.3968 13.4559 15.9162 13.0727C16.4515 12.6776 16.8819 12.5 17.1854 12.5H35.5349C35.8355 12.5 36.2643 12.6772 36.7997 13.0726C37.3188 13.4559 37.87 13.9931 38.4022 14.5925C39.4684 15.7934 40.402 17.1797 40.7885 17.9091L40.7897 17.9113C41.2261 18.725 41.8321 19.5146 42.3189 20.0922C42.3531 20.1328 42.3869 20.1725 42.42 20.2112ZM22.6865 29.4915C23.1942 28.6909 23.9383 27.6649 24.7533 26.7459C25.3094 26.1188 25.9124 25.5256 26.5094 25.0852C27.0902 24.6565 27.7386 24.3171 28.3724 24.3171H46.7218C47.3535 24.3171 48.0009 24.657 48.5807 25.0853C49.177 25.5256 49.7802 26.1187 50.337 26.7457C51.1506 27.6622 51.8947 28.6853 52.4033 29.4852C52.774 29.0785 53.309 28.8306 53.8843 28.8306H55.3922C57.6144 28.8306 59.4073 30.6235 59.4073 32.8456C59.4073 33.6854 58.7216 34.3543 57.8986 34.3543H56.1871C57.2123 35.7626 57.8809 37.8033 57.8892 40.7272L57.8892 40.7302L57.9697 46.1589L58.0013 46.162V50.3189C58.0013 51.3238 57.323 52.4389 56.1157 52.4389H51.2659C50.1204 52.4389 49.2784 51.4462 49.2784 50.3698L49.2785 50.3591L49.3078 49H25.6935L25.7242 50.431C25.7242 51.4809 24.957 52.5 23.7977 52.5H19.4065C18.8334 52.5 18.3065 52.2337 17.9297 51.8569C17.5528 51.48 17.2865 50.9532 17.2865 50.38V46.459L17.1846 38.8772C17.1846 37.3157 17.8521 35.649 18.8456 34.3543H17.1854C16.3624 34.3543 15.6767 33.6854 15.6767 32.8456C15.6767 30.6235 17.4696 28.8306 19.6918 28.8306H21.1997C21.7779 28.8306 22.3155 29.0811 22.6865 29.4915ZM50.5 49H50.308L50.2784 50.3747C50.281 50.967 50.742 51.4389 51.2659 51.4389H56.1157C56.5792 51.4389 57.0013 50.9849 57.0013 50.3189V48.1771C56.575 48.6168 55.9698 48.9748 55.1376 48.9748H50.5V49ZM25 48H49.7934L49.8192 47.9748H49.8294H55.1376C55.8479 47.9748 56.3029 47.5564 56.6071 47.058C56.7586 46.8097 56.8611 46.5572 56.9259 46.3643C56.9438 46.3109 56.9585 46.2628 56.9705 46.2215L56.8893 40.739L56.8892 40.7329C56.8874 40.0597 56.8489 39.4424 56.779 38.8763L56.7194 38.916C54.1541 40.6262 51.0533 40.3375 49.8047 39.9808L49.6801 39.9452L49.5885 39.8536C49.3283 39.5934 49.1568 39.3042 49.0693 39L25.9574 39C25.8698 39.3042 25.6983 39.5934 25.4381 39.8536L25.3465 39.9452L25.2219 39.9808C23.9733 40.3375 20.8725 40.6262 18.3072 38.916L18.1849 38.8345L18.1847 38.874L18.2767 45.7229L18.2806 45.7227L18.2847 45.7223L18.2851 45.7258L18.2869 45.7441C18.2886 45.761 18.2915 45.7872 18.2958 45.8212C18.3044 45.8894 18.3186 45.9886 18.3403 46.1084C18.3841 46.3501 18.4571 46.6654 18.5731 46.9747C18.8252 47.647 19.1731 48.0359 19.6307 48.0359H25V48ZM49.0673 38L25.9593 38C25.8587 37.6186 25.6536 37.2637 25.4004 36.9528C24.7436 36.1467 23.6515 35.4984 22.5948 35.2894C21.5093 35.0748 20.3629 35.0017 19.6103 35C19.8833 34.6394 20.1854 34.3106 20.5072 34.0283H54.5462C54.855 34.2996 55.1496 34.6203 55.4192 35C54.6667 35.0015 53.5187 35.0745 52.4318 35.2894C51.3751 35.4984 50.283 36.1467 49.6263 36.9528C49.373 37.2637 49.168 37.6186 49.0673 38ZM24.6251 37.5845C24.827 37.8323 24.9497 38.0715 25 38.2861V38.7102C24.9696 38.8234 24.9112 38.9383 24.8149 39.0546C23.6816 39.3377 21.1491 39.5075 19.033 38.194C18.9905 37.92 18.9787 37.5406 19.0611 37.1543C19.1534 36.7214 19.3569 36.3059 19.7444 36.0011C20.4463 36.0107 21.455 36.0834 22.4009 36.2704C23.2371 36.4358 24.1206 36.9653 24.6251 37.5845ZM54.2705 32.2649C53.8426 31.7571 53.3419 31.1051 52.9622 30.4436C53.1104 30.082 53.4741 29.8306 53.8843 29.8306H55.3922C57.0621 29.8306 58.4073 31.1758 58.4073 32.8456C58.4073 33.1266 58.1759 33.3543 57.8986 33.3543H55.2927C55.226 33.2936 55.1585 33.2347 55.0902 33.1774L55.0933 33.1743L55.0908 33.1717L55.0794 33.1603L55.0561 33.1365L55.0334 33.1131C54.9929 33.0712 54.9333 33.009 54.859 32.9293C54.7102 32.7697 54.5029 32.5407 54.2705 32.2649ZM20.23 32.9272C20.1764 32.984 20.1304 33.032 20.0936 33.0699L20.0057 33.1422C19.923 33.2103 19.8413 33.2811 19.7607 33.3543H17.1854C16.9081 33.3543 16.6767 33.1266 16.6767 32.8456C16.6767 31.1758 18.0219 29.8306 19.6918 29.8306H21.1997C21.6144 29.8306 21.9814 30.0875 22.1266 30.4553C21.7518 31.1115 21.2527 31.7584 20.8237 32.2634C20.5896 32.539 20.3803 32.7678 20.23 32.9272ZM21.4852 33.0283H53.6069C53.5738 32.9896 53.5401 32.95 53.5058 32.9093C53.0191 32.3317 52.4131 31.5421 51.9766 30.7285L51.9754 30.7262C51.589 29.9968 50.6553 28.6105 49.5892 27.4097C49.057 26.8103 48.5057 26.273 47.9867 25.8897C47.4513 25.4943 47.0224 25.3171 46.7218 25.3171H28.3724C28.0688 25.3171 27.6385 25.4948 27.1031 25.8898C26.5838 26.273 26.0329 26.8101 25.5014 27.4094C24.4368 28.61 23.5055 29.9964 23.1188 30.7262C22.6866 31.5421 22.0767 32.3329 21.5859 32.9108C21.5518 32.9509 21.5182 32.9901 21.4852 33.0283ZM18.2865 50.38V48.432C18.6091 48.7787 19.0453 49.0359 19.6307 49.0359H24.694L24.7241 50.4359C24.7218 51.0543 24.2877 51.5 23.7977 51.5H19.4065C19.1442 51.5 18.861 51.374 18.6368 51.1498C18.4125 50.9255 18.2865 50.6423 18.2865 50.38ZM7.10976 36.2188V37.5629C7.10976 37.8252 7.23575 38.1084 7.46 38.3326C7.68426 38.5569 7.96742 38.6829 8.22973 38.6829H12.621C13.117 38.6829 13.5451 38.2318 13.5473 37.6188L13.5172 36.2188H7.10976ZM7.47651 24.1543C7.56881 23.7214 7.7724 23.3059 8.15988 23.0011C8.86173 23.0107 9.8704 23.0834 10.8163 23.2704C11.6526 23.4358 12.5361 23.9653 13.0405 24.5845C13.2907 24.8915 13.4192 25.1853 13.4392 25.4356C13.4553 25.6362 13.4055 25.8432 13.2304 26.0546C12.097 26.3377 9.56452 26.5075 7.4484 25.194C7.40598 24.92 7.39413 24.5406 7.47651 24.1543ZM55.9656 37.1543C55.8733 36.7214 55.6697 36.3059 55.2822 36.0011C54.5803 36.0107 53.5717 36.0834 52.6257 36.2704C51.7895 36.4358 50.906 36.9653 50.4015 37.5845C50.1514 37.8915 50.0228 38.1853 50.0028 38.4356C49.9868 38.6362 50.0366 38.8432 50.2117 39.0546C51.345 39.3377 53.8775 39.5075 55.9937 38.194C56.0361 37.92 56.0479 37.5406 55.9656 37.1543Z" fill="black"/>
</svg>
