<svg width="64" height="64" viewBox="0 0 64 64" fill="none" xmlns="http://www.w3.org/2000/svg">
<path d="M35.0303 12C31.7003 12 29.2603 13.94 28.1203 16.22C27.7803 16.89 26.9703 17.15 26.3003 16.81C24.9203 16.12 23.2503 16.21 21.9503 16.99C20.6503 17.77 19.6803 19.18 19.6803 21.48C19.6803 22.14 19.2003 22.7 18.5503 22.81C16.0803 23.22 14.2603 25.75 14.2603 28.26C14.2603 31.28 16.5803 33.68 20.5803 33.68H42.7103C45.9703 33.68 48.5803 31.07 48.5803 27.81C48.5803 24.94 46.5503 22.57 43.8503 22.04C43.1603 21.91 42.6803 21.27 42.7503 20.57C43.1803 16.36 39.8603 12 35.0303 12Z" fill="#FFC000"/>
<path fill-rule="evenodd" clip-rule="evenodd" d="M27.6738 15.9948C28.8885 13.5669 31.4895 11.5 35.0303 11.5C40.1835 11.5 43.7045 16.1434 43.2477 20.62C43.2037 21.0615 43.5076 21.4666 43.9428 21.5486L43.9466 21.5493C46.8772 22.1246 49.0803 24.6971 49.0803 27.81C49.0803 31.3461 46.2464 34.18 42.7103 34.18H20.5803C18.4801 34.18 16.7729 33.5487 15.5847 32.4732C14.3943 31.3958 13.7603 29.9034 13.7603 28.26C13.7603 25.5504 15.7151 22.7743 18.4675 22.3169C18.8801 22.2468 19.1803 21.8924 19.1803 21.48C19.1803 19.0144 20.234 17.4367 21.693 16.5613C23.1354 15.6958 24.9866 15.5942 26.5239 16.3628L26.5265 16.3641C26.9526 16.5803 27.4598 16.4151 27.6738 15.9948ZM35.0303 12.5C31.9118 12.5 29.6332 14.3122 28.5675 16.4436L28.5661 16.4463C28.1001 17.3647 26.9887 17.7191 26.0755 17.2566C24.8529 16.6459 23.3648 16.7244 22.2075 17.4187C21.0665 18.1033 20.1803 19.3456 20.1803 21.48C20.1803 22.3874 19.5208 23.1529 18.6337 23.303L18.6321 23.3033C16.4449 23.6663 14.7603 25.9499 14.7603 28.26C14.7603 29.6366 15.2862 30.8542 16.2558 31.7318C17.2276 32.6113 18.6804 33.18 20.5803 33.18H42.7103C45.6941 33.18 48.0803 30.7939 48.0803 27.81C48.0803 25.1835 46.2241 23.0163 43.7556 22.531C42.8121 22.3521 42.157 21.4779 42.2527 20.5202L42.2528 20.5192C42.6556 16.5761 39.5367 12.5 35.0303 12.5Z" fill="black"/>
<path fill-rule="evenodd" clip-rule="evenodd" d="M57.2392 33.0557L48.4278 29.3744L48.7323 28.6455L59.2609 33.0442L32.0024 44.7991L3.98975 33.0753L14.1237 28.7072L14.4364 29.4327L6.01041 33.0646L31.9978 43.9408L57.2392 33.0557Z" fill="black"/>
<path fill-rule="evenodd" clip-rule="evenodd" d="M57.2405 41.6748L50.7773 38.9642L51.0828 38.2357L59.2597 41.665L32.0024 53.409L3.99051 41.6959L11.9934 38.2374L12.3068 38.9625L6.00964 41.6839L31.9978 52.5508L57.2405 41.6748Z" fill="black"/>
</svg>
