<svg width="64" height="64" viewBox="0 0 64 64" fill="none" xmlns="http://www.w3.org/2000/svg">
<path d="M34 9.5C21.5736 9.5 11.5 19.5736 11.5 32C11.5 44.4264 21.5736 54.5 34 54.5C46.4264 54.5 56.5 44.4264 56.5 32L57.5 32C57.5 44.9787 46.9787 55.5 34 55.5C21.0213 55.5 10.5 44.9787 10.5 32C10.5 19.0213 21.0213 8.5 34 8.5C46.9787 8.5 57.5 19.0213 57.5 32L56.5 32C56.5 19.5736 46.4264 9.5 34 9.5Z" fill="black"/>
<path d="M46 9.58594L46 54.4307L11.584 31.6406L46 9.58594ZM45 52.5693L45 11.4141L13.416 31.6543L45 52.5693Z" fill="black"/>
<path d="M13 25.5C16.5899 25.5 19.5 28.4101 19.5 32C19.5 35.5899 16.5899 38.5 13 38.5C9.41015 38.5 6.5 35.5899 6.5 32C6.5 28.4101 9.41015 25.5 13 25.5Z" fill="#FFC000"/>
<path d="M13 26.5C9.96243 26.5 7.5 28.9624 7.5 32C7.5 35.0376 9.96243 37.5 13 37.5C16.0376 37.5 18.5 35.0376 18.5 32L19.5 32C19.5 35.5899 16.5899 38.5 13 38.5C9.41015 38.5 6.5 35.5899 6.5 32C6.5 28.4101 9.41015 25.5 13 25.5C16.5899 25.5 19.5 28.4101 19.5 32L18.5 32C18.5 28.9624 16.0376 26.5 13 26.5Z" fill="black"/>
<path d="M45 46.5C48.5899 46.5 51.5 49.4101 51.5 53C51.5 56.5899 48.5899 59.5 45 59.5C41.4101 59.5 38.5 56.5899 38.5 53C38.5 49.4101 41.4101 46.5 45 46.5Z" fill="#FFC000"/>
<path d="M45 47.5C41.9624 47.5 39.5 49.9624 39.5 53C39.5 56.0376 41.9624 58.5 45 58.5C48.0376 58.5 50.5 56.0376 50.5 53L51.5 53C51.5 56.5899 48.5899 59.5 45 59.5C41.4101 59.5 38.5 56.5899 38.5 53C38.5 49.4101 41.4101 46.5 45 46.5C48.5899 46.5 51.5 49.4101 51.5 53L50.5 53C50.5 49.9624 48.0376 47.5 45 47.5Z" fill="black"/>
<path d="M45 5.5C48.5899 5.5 51.5 8.41015 51.5 12C51.5 15.5899 48.5899 18.5 45 18.5C41.4101 18.5 38.5 15.5899 38.5 12C38.5 8.41015 41.4101 5.5 45 5.5Z" fill="#FFC000"/>
<path d="M45 6.5C41.9624 6.5 39.5 8.96243 39.5 12C39.5 15.0376 41.9624 17.5 45 17.5C48.0376 17.5 50.5 15.0376 50.5 12L51.5 12C51.5 15.5899 48.5899 18.5 45 18.5C41.4101 18.5 38.5 15.5899 38.5 12C38.5 8.41015 41.4101 5.5 45 5.5C48.5899 5.5 51.5 8.41015 51.5 12L50.5 12C50.5 8.96243 48.0376 6.5 45 6.5Z" fill="black"/>
</svg>
