<svg width="64" height="64" viewBox="0 0 64 64" fill="none" xmlns="http://www.w3.org/2000/svg">
<path d="M47.3471 13.5913H15.9725C14.2788 13.5913 12.9058 14.955 12.9058 16.6373V47.7997C12.9058 49.482 14.2788 50.8457 15.9725 50.8457H47.3471C49.0408 50.8457 50.4138 49.482 50.4138 47.7997V16.6373C50.4138 14.955 49.0408 13.5913 47.3471 13.5913Z" fill="#FFC000"/>
<path fill-rule="evenodd" clip-rule="evenodd" d="M15.9725 14.0913C14.5517 14.0913 13.4058 15.2344 13.4058 16.6373V47.7997C13.4058 49.2027 14.5517 50.3457 15.9725 50.3457H47.3471C48.7678 50.3457 49.9138 49.2027 49.9138 47.7997V16.6373C49.9138 15.2344 48.7678 14.0913 47.3471 14.0913H15.9725ZM12.4058 16.6373C12.4058 14.6757 14.0058 13.0913 15.9725 13.0913H47.3471C49.3137 13.0913 50.9138 14.6757 50.9138 16.6373V47.7997C50.9138 49.7613 49.3137 51.3457 47.3471 51.3457H15.9725C14.0058 51.3457 12.4058 49.7613 12.4058 47.7997V16.6373Z" fill="black"/>
<path fill-rule="evenodd" clip-rule="evenodd" d="M20.7781 5.5C21.0543 5.5 21.2781 5.72386 21.2781 6V9.92038H27.5326V6C27.5326 5.72386 27.7565 5.5 28.0326 5.5C28.3088 5.5 28.5326 5.72386 28.5326 6V9.92038H34.7872V6C34.7872 5.72386 35.011 5.5 35.2872 5.5C35.5633 5.5 35.7872 5.72386 35.7872 6V9.92038H42.0445V6C42.0445 5.72386 42.2683 5.5 42.5445 5.5C42.8206 5.5 43.0445 5.72386 43.0445 6V9.92038H49.0049C51.8177 9.92038 54.1036 12.186 54.1036 14.988V20.9077L54.1152 20.9075H58.8145C59.0907 20.9075 59.3145 21.1314 59.3145 21.4075C59.3145 21.6837 59.0907 21.9075 58.8145 21.9075H54.1152L54.1036 21.9074V28.1132L54.1152 28.1131H58.8145C59.0906 28.1131 59.3145 28.3369 59.3145 28.6131C59.3145 28.8892 59.0906 29.1131 58.8145 29.1131H54.1152L54.1036 29.1129V35.3214L54.1152 35.3213H58.8145C59.0906 35.3213 59.3145 35.5451 59.3145 35.8213C59.3145 36.0974 59.0906 36.3213 58.8145 36.3213H54.1152L54.1036 36.3212V42.527L54.1152 42.5269H58.8145C59.0906 42.5269 59.3145 42.7508 59.3145 43.0269C59.3145 43.3031 59.0906 43.5269 58.8145 43.5269H54.1152L54.1036 43.5268V49.4435C54.1036 52.2455 51.8177 54.5111 49.0049 54.5111H43.0445V58.2011C43.0445 58.4773 42.8206 58.7011 42.5445 58.7011C42.2683 58.7011 42.0445 58.4773 42.0445 58.2011V54.5111H35.7872V58.2011C35.7872 58.4773 35.5633 58.7011 35.2872 58.7011C35.011 58.7011 34.7872 58.4773 34.7872 58.2011V54.5111H28.5326V58.2011C28.5326 58.4773 28.3088 58.7011 28.0326 58.7011C27.7565 58.7011 27.5326 58.4773 27.5326 58.2011V54.5111H21.2781V58.2011C21.2781 58.4773 21.0543 58.7011 20.7781 58.7011C20.502 58.7011 20.2781 58.4773 20.2781 58.2011V54.5111H14.3148C11.5021 54.5111 9.21611 52.2455 9.21611 49.4435V43.527H5C4.72386 43.527 4.5 43.3032 4.5 43.027C4.5 42.7509 4.72386 42.527 5 42.527H9.21611V36.3214H5C4.72386 36.3214 4.5 36.0976 4.5 35.8214C4.5 35.5453 4.72386 35.3214 5 35.3214H9.21611V29.1132H5C4.72386 29.1132 4.5 28.8893 4.5 28.6132C4.5 28.337 4.72386 28.1132 5 28.1132H9.21611V21.9076H5C4.72386 21.9076 4.5 21.6838 4.5 21.4076C4.5 21.1315 4.72386 20.9076 5 20.9076H9.21611V14.988C9.21611 12.186 11.5021 9.92038 14.3148 9.92038H20.2781V6C20.2781 5.72386 20.502 5.5 20.7781 5.5ZM10.2161 14.988C10.2161 12.7447 12.048 10.9204 14.3148 10.9204H49.0049C51.2718 10.9204 53.1036 12.7447 53.1036 14.988V49.4435C53.1036 51.6868 51.2718 53.5111 49.0049 53.5111H14.3148C12.048 53.5111 10.2161 51.6868 10.2161 49.4435V14.988ZM27.5932 28.5221C27.5321 29.4843 27.5 30.4799 27.5 31.5C27.5 32.4555 27.5282 33.3897 27.5819 34.2949C28.1187 34.6902 28.6754 35.0811 29.2502 35.4651C30.1722 36.0812 31.0931 36.6478 32.0007 37.162C32.9079 36.6482 33.8283 36.0821 34.7498 35.4666C35.3245 35.0827 35.8812 34.692 36.4179 34.2969C36.4718 33.391 36.5 32.4562 36.5 31.5C36.5 30.4795 36.4679 29.4834 36.4067 28.5209C35.8741 28.129 35.322 27.7415 34.752 27.3606C33.8301 26.7447 32.9093 26.1781 32.0018 25.6639C31.0935 26.1782 30.1721 26.7449 29.2495 27.3612C28.679 27.7422 28.1263 28.13 27.5932 28.5221ZM26.5 31.5C26.5 32.1783 26.5139 32.8471 26.541 33.5036C25.658 32.8106 24.8382 32.1092 24.0905 31.412C24.8404 30.713 25.6629 30.0099 26.5488 29.3152C26.5166 30.0298 26.5 30.7592 26.5 31.5ZM26.6138 34.8213C25.4299 33.9303 24.3412 33.0171 23.3676 32.1067C22.48 32.9868 21.7138 33.8534 21.0875 34.6808C20.2076 35.8432 19.6213 36.9055 19.3509 37.801C19.0792 38.7011 19.1466 39.356 19.4467 39.7982C19.7468 40.2405 20.333 40.5488 21.2759 40.6377C22.214 40.7261 23.4266 40.5868 24.8432 40.2153C25.5841 40.0211 26.3731 39.7653 27.198 39.4511C26.9281 38.0313 26.7289 36.473 26.6138 34.8213ZM20.2868 28.7442C20.9401 29.6076 21.7331 30.5051 22.6462 31.4118C21.7324 32.3189 20.9387 33.2168 20.2849 34.0805C19.3664 35.2939 18.7066 36.4626 18.3897 37.5124C18.0742 38.5576 18.0783 39.5625 18.6151 40.3537C19.152 41.1448 20.0889 41.5266 21.1838 41.6298C22.2835 41.7335 23.6232 41.5667 25.1019 41.1789C25.8316 40.9876 26.6019 40.7406 27.4026 40.441C27.5765 41.2174 27.7727 41.9445 27.9886 42.6137C28.4501 44.0443 29.0103 45.2382 29.6562 46.0851C30.2963 46.9244 31.0836 47.5 32 47.5C32.9164 47.5 33.7037 46.9244 34.3438 46.0851C34.9897 45.2382 35.5499 44.0443 36.0114 42.6137C36.2272 41.9445 36.4234 41.2174 36.5974 40.4411C37.3977 40.7407 38.1677 40.9877 38.8971 41.1791C40.3758 41.5672 41.7154 41.7342 42.8151 41.6307C43.91 41.5277 44.847 41.146 45.384 40.355C45.921 39.5639 45.9253 38.5591 45.61 37.5137C45.2932 36.4639 44.6337 35.2951 43.7154 34.0815C43.062 33.218 42.2688 32.3203 41.3556 31.4135C42.2683 30.5072 43.0612 29.6102 43.7144 28.7473C44.6329 27.5339 45.2927 26.3652 45.6096 25.3154C45.9251 24.2701 45.921 23.2652 45.3841 22.4741C44.8473 21.6829 43.9104 21.3011 42.8155 21.1979C41.7158 21.0942 40.3761 21.261 38.8974 21.6488C38.157 21.843 37.3747 22.0944 36.5613 22.4C36.3965 21.6832 36.2125 21.0097 36.0114 20.3863C35.5499 18.9557 34.9897 17.7618 34.3438 16.9149C33.7037 16.0756 32.9164 15.5 32 15.5C31.0836 15.5 30.2963 16.0756 29.6562 16.9149C29.0103 17.7618 28.4501 18.9557 27.9886 20.3863C27.7878 21.009 27.604 21.6817 27.4392 22.3976C26.6265 22.0921 25.8449 21.8408 25.1051 21.6466C23.6264 21.2586 22.2868 21.0916 21.1871 21.195C20.0922 21.298 19.1552 21.6797 18.6182 22.4708C18.0812 23.2618 18.0769 24.2667 18.3922 25.312C18.709 26.3619 19.3685 27.5307 20.2868 28.7442ZM21.0895 28.1441C21.7154 28.9712 22.481 29.8374 23.3677 30.7171C24.345 29.8038 25.4381 28.8876 26.6271 27.9939C26.7485 26.3474 26.9539 24.7963 27.2294 23.3858C26.3943 23.0664 25.5956 22.8068 24.8463 22.6102C23.4297 22.2384 22.2171 22.0989 21.279 22.1872C20.3361 22.2759 19.7498 22.5841 19.4497 23.0263C19.1495 23.4685 19.0819 24.1234 19.3535 25.0235C19.6237 25.9191 20.2098 26.9815 21.0895 28.1441ZM27.6957 27.2153C27.8101 25.9936 27.9721 24.837 28.1746 23.7663C29.078 24.1478 30.0166 24.5941 30.9754 25.1015C30.2164 25.5455 29.4518 26.0235 28.688 26.5337C28.3513 26.7586 28.0204 26.9859 27.6957 27.2153ZM35.3136 26.5333C34.5505 26.0233 33.7865 25.5455 33.0283 25.1017C33.986 24.5952 34.9234 24.1496 35.8259 23.7686C36.028 24.8383 36.1898 25.9936 36.3042 27.2139C35.98 26.9849 35.6497 26.7578 35.3136 26.5333ZM37.5 31.5C37.5 30.7588 37.4834 30.0291 37.4512 29.3143C38.3378 30.0097 39.1609 30.7136 39.9113 31.4134C39.1631 32.1109 38.3426 32.8126 37.4589 33.5059C37.4861 32.8486 37.5 32.1791 37.5 31.5ZM37.3728 27.9928C38.5626 28.8873 39.6564 29.8044 40.6342 30.7186C41.5207 29.8394 42.2861 28.9736 42.9118 28.147C43.7917 26.9846 44.378 25.9223 44.6484 25.0267C44.9201 24.1266 44.8527 23.4717 44.5526 23.0295C44.2525 22.5873 43.6663 22.2789 42.7234 22.19C41.7853 22.1016 40.5727 22.2409 39.156 22.6124C38.4061 22.8091 37.6069 23.0687 36.771 23.3882C37.0463 24.7978 37.2515 26.3477 37.3728 27.9928ZM37.386 34.8234C38.5707 33.9323 39.66 33.0188 40.6341 32.1082C41.521 32.9881 42.2867 33.8545 42.9127 34.6817C43.7924 35.8442 44.3785 36.9066 44.6487 37.8022C44.9203 38.7024 44.8527 39.3572 44.5526 39.7994C44.2524 40.2416 43.6661 40.5499 42.7232 40.6386C41.7851 40.7268 40.5725 40.5873 39.1559 40.2156C38.4153 40.0212 37.6266 39.7654 36.802 39.4512C37.0718 38.032 37.271 36.4744 37.386 34.8234ZM36.3212 35.6C36.2116 36.8281 36.054 37.9921 35.8557 39.0713C34.9437 38.6872 33.9958 38.237 33.0271 37.7244C33.785 37.2809 34.5485 36.8035 35.3113 36.294C35.6541 36.0651 35.9909 35.8336 36.3212 35.6ZM28.1443 39.0714C29.0568 38.6872 30.0052 38.237 30.9743 37.7243C30.2159 37.2804 29.4519 36.8025 28.6886 36.2925C28.3458 36.0634 28.009 35.8318 27.6786 35.5981C27.7883 36.8269 27.9459 37.9916 28.1443 39.0714ZM35.6554 40.0698C34.481 39.5842 33.2528 38.9935 32.0007 38.3063C30.7481 38.9936 29.5195 39.5843 28.3446 40.0698C28.5205 40.8754 28.7202 41.6243 28.9403 42.3067C29.3837 43.681 29.9009 44.7569 30.4513 45.4787C31.0076 46.2081 31.5357 46.5 32 46.5C32.4643 46.5 32.9924 46.2081 33.5487 45.4787C34.0991 44.7569 34.6163 43.681 35.0597 42.3067C35.2798 41.6243 35.4795 40.8753 35.6554 40.0698ZM28.3801 22.7698C29.5446 23.2528 30.7615 23.8388 32.0019 24.5197C33.2411 23.8398 34.457 23.2545 35.6204 22.7721C35.4532 22.0265 35.2653 21.3308 35.0597 20.6933C34.6163 19.319 34.0991 18.2431 33.5487 17.5213C32.9924 16.7919 32.4643 16.5 32 16.5C31.5357 16.5 31.0076 16.7919 30.4513 17.5213C29.9009 18.2431 29.3837 19.319 28.9403 20.6933C28.7349 21.3301 28.5472 22.025 28.3801 22.7698ZM34 32C34 33.1046 33.1046 34 32 34C30.8954 34 30 33.1046 30 32C30 30.8954 30.8954 30 32 30C33.1046 30 34 30.8954 34 32ZM35 32C35 33.6569 33.6569 35 32 35C30.3431 35 29 33.6569 29 32C29 30.3431 30.3431 29 32 29C33.6569 29 35 30.3431 35 32Z" fill="black"/>
</svg>
