<svg width="64" height="64" viewBox="0 0 64 64" fill="none" xmlns="http://www.w3.org/2000/svg">
<path fill-rule="evenodd" clip-rule="evenodd" d="M22.2423 16.7267L22.2424 16.7265L22.2483 16.7197C22.2542 16.713 22.2638 16.702 22.2771 16.6872C22.3038 16.6576 22.3453 16.6129 22.4007 16.5565C22.5118 16.4435 22.6782 16.2845 22.894 16.107C23.3275 15.7505 23.9496 15.3284 24.7133 15.0488C25.4731 14.7707 26.3706 14.6342 27.3713 14.8407C28.3721 15.0471 29.5118 15.6039 30.7444 16.7691C30.9451 16.9588 31.2615 16.9499 31.4512 16.7492C31.6409 16.5486 31.6321 16.2321 31.4314 16.0424C30.0879 14.7723 28.7861 14.1115 27.5734 13.8613C26.3606 13.6111 25.2729 13.7791 24.3695 14.1098C23.47 14.439 22.7507 14.9301 22.2588 15.3346C22.0119 15.5377 21.8196 15.7212 21.6875 15.8555C21.6215 15.9227 21.5703 15.9779 21.5347 16.0173C21.517 16.037 21.5031 16.0527 21.4932 16.0641L21.4813 16.0779L21.4776 16.0822L21.4764 16.0837L21.4759 16.0843C21.4757 16.0846 21.4755 16.0848 21.8588 16.4056L21.4755 16.0848C21.2982 16.2966 21.3262 16.6119 21.538 16.7891C21.7496 16.9663 22.0647 16.9385 22.242 16.727L22.2423 16.7267Z" fill="black"/>
<path fill-rule="evenodd" clip-rule="evenodd" d="M19.0114 13.6105L19.0136 13.6079L19.0257 13.5938C19.0371 13.5808 19.0549 13.5604 19.0792 13.5336C19.1276 13.4798 19.2015 13.4001 19.2995 13.3004C19.4956 13.1008 19.7875 12.8219 20.1652 12.5113C20.9226 11.8883 22.014 11.1464 23.3598 10.6538C24.7018 10.1625 26.2943 9.91944 28.0699 10.2857C29.8455 10.652 31.8402 11.6351 33.9749 13.653C34.1755 13.8427 34.492 13.8338 34.6817 13.6331C34.8714 13.4324 34.8625 13.116 34.6618 12.9263C32.4162 10.8036 30.2595 9.7164 28.2719 9.30636C26.2843 8.89632 24.5016 9.17085 23.0161 9.7147C21.5344 10.2571 20.3458 11.068 19.53 11.7389C19.1212 12.0752 18.8033 12.3786 18.5862 12.5995C18.4776 12.7101 18.394 12.8002 18.3367 12.8637C18.308 12.8955 18.2859 12.9206 18.2705 12.9384L18.2524 12.9594L18.2472 12.9655L18.2455 12.9675L18.2449 12.9682C18.2447 12.9685 18.2445 12.9687 18.6279 13.2896L18.2445 12.9687C18.0673 13.1805 18.0953 13.4958 18.3071 13.6731C18.5187 13.8502 18.8338 13.8223 19.0111 13.6108L19.0112 13.6107L19.0114 13.6105Z" fill="black"/>
<path fill-rule="evenodd" clip-rule="evenodd" d="M15.6247 10.5906L15.6251 10.5901L15.6291 10.5854L15.6477 10.5638C15.6648 10.544 15.6913 10.5139 15.727 10.4743C15.7983 10.3953 15.9061 10.2789 16.0487 10.1338C16.334 9.84343 16.7575 9.43884 17.305 8.98848C18.4019 8.08619 19.9853 7.00911 21.9415 6.29293C23.8937 5.57817 26.2147 5.2234 28.8026 5.75731C31.3906 6.29123 34.2815 7.72126 37.3619 10.6331C37.5626 10.8228 37.879 10.8138 38.0687 10.6132C38.2584 10.4125 38.2495 10.096 38.0488 9.90634C34.8576 6.88975 31.8047 5.35559 29.0047 4.77794C26.2047 4.20028 23.6935 4.58655 21.5977 5.35389C19.5057 6.11981 17.825 7.26588 16.6697 8.2162C16.0911 8.69215 15.6416 9.12125 15.3353 9.43297C15.1821 9.58891 15.0646 9.71568 14.9844 9.80453C14.9444 9.84897 14.9136 9.88393 14.8924 9.90834L14.8678 9.93691L14.861 9.94501L14.8589 9.94746L14.8582 9.94829C14.858 9.94859 14.8578 9.94884 15.2412 10.2697L14.8578 9.94884C14.6805 10.1606 14.7086 10.476 14.9204 10.6532C15.1321 10.8303 15.4472 10.8024 15.6245 10.5908L15.6247 10.5906Z" fill="black"/>
<path d="M36.5 31.5H46L49 34L52.5 38L55 41.5L57.5 46.5L58 49H48L48.5 48.5V45L48 43.5L46 40.5L43 36.5L40.5 34C39.8333 33.5 38.4 32.5 38 32.5C37.6 32.5 36.8333 31.8333 36.5 31.5Z" fill="#FFC000"/>
<path fill-rule="evenodd" clip-rule="evenodd" d="M4.5 27.7477H36.4336C38.5622 27.7477 41.2415 28.5361 43.951 29.9621C46.6685 31.3923 49.4537 33.4832 51.793 36.1326C53.4156 37.9727 55.0191 40.1966 56.258 42.3908C57.4899 44.5726 58.3909 46.7764 58.5543 48.5663C58.6478 49.5906 58.2105 50.5046 57.5128 51.2703C56.8182 52.0325 55.8377 52.6821 54.7491 53.2086C52.5746 54.2604 49.847 54.8794 47.7467 54.88C47.7457 54.88 47.7448 54.88 47.7438 54.88H4.5V27.7477ZM47.7438 53.88C49.6858 53.88 52.2666 53.2985 54.3136 52.3084C55.3362 51.8138 56.1951 51.2317 56.7736 50.5968C57.3491 49.9652 57.6186 49.3165 57.5584 48.6573C57.4144 47.0803 56.5971 45.0253 55.3872 42.8825C54.1843 40.752 52.6221 38.5849 51.0431 36.7942C48.7888 34.2411 46.1016 32.224 43.4853 30.8471C40.8609 29.4658 38.3447 28.7477 36.4336 28.7477H5.5V53.88H47.7438Z" fill="black"/>
<path fill-rule="evenodd" clip-rule="evenodd" d="M33.3018 30.764H44.6583C44.9345 30.764 45.1583 30.9878 45.1583 31.264C45.1583 31.5401 44.9345 31.764 44.6583 31.764H37.8165C39.6301 32.5761 41.4987 33.9274 43.3342 35.9764C44.1871 36.9285 45.5482 38.5002 46.771 40.2281C47.9817 41.939 49.1058 43.8697 49.4158 45.5304L48.9243 45.6221L49.4158 45.5304C49.5624 46.3157 49.3725 47.3055 48.902 48.1016C48.8007 48.2729 48.6842 48.4386 48.5526 48.5935H57.755C58.0311 48.5935 58.255 48.8173 58.255 49.0935C58.255 49.3696 58.0311 49.5935 57.755 49.5935H46.468V48.5935C47.1528 48.5935 47.6855 48.1944 48.0411 47.5928C48.4036 46.9794 48.5298 46.2335 48.4328 45.7139C48.1657 44.283 47.1569 42.5046 45.9547 40.8058C44.7646 39.124 43.433 37.5854 42.5894 36.6437L42.5894 36.6437C39.3267 33.0015 36.0509 31.764 33.3018 31.764V30.764Z" fill="black"/>
<path fill-rule="evenodd" clip-rule="evenodd" d="M19.5508 48.7774V31.264H20.5508V48.7774H19.5508Z" fill="black"/>
<path fill-rule="evenodd" clip-rule="evenodd" d="M5.22295 30.764H26.3643C29.2 30.764 33.2064 32.1199 36.3599 35.9944C37.4413 37.323 38.6565 39.0501 39.6296 40.7573C40.5913 42.4445 41.3588 44.1841 41.4701 45.5167C41.5982 47.0498 40.5304 48.014 39.2674 48.5612C37.9987 49.1108 36.3787 49.3238 34.9948 49.3238H34.9941L5.22217 49.2774L5.22373 48.2774L34.9948 48.3238C36.3022 48.3238 37.7722 48.1191 38.8699 47.6436C39.9734 47.1655 40.5485 46.497 40.4736 45.5999C40.3819 44.5023 39.7153 42.9271 38.7608 41.2525C37.8176 39.5978 36.6345 37.9159 35.5844 36.6257L35.5844 36.6257C32.6246 32.9891 28.9053 31.764 26.3643 31.764H5.22295V30.764Z" fill="black"/>
<path fill-rule="evenodd" clip-rule="evenodd" d="M7.56543 54.0396H16.761V54.5396C16.761 57.0778 14.7014 59.1374 12.1632 59.1374C9.62502 59.1374 7.56543 57.0778 7.56543 54.5396V54.0396ZM8.59995 55.0396C8.84356 56.7891 10.347 58.1374 12.1632 58.1374C13.9794 58.1374 15.4828 56.7891 15.7264 55.0396H8.59995Z" fill="black"/>
<path fill-rule="evenodd" clip-rule="evenodd" d="M16.0889 54.0396H25.2844V54.5396C25.2844 57.0778 23.2248 59.1374 20.6866 59.1374C18.1485 59.1374 16.0889 57.0778 16.0889 54.5396V54.0396ZM17.1234 55.0396C17.367 56.7891 18.8704 58.1374 20.6866 58.1374C22.5029 58.1374 24.0063 56.7891 24.2499 55.0396H17.1234Z" fill="black"/>
<path fill-rule="evenodd" clip-rule="evenodd" d="M30.2788 54.0396H39.4743V54.5396C39.4743 57.0778 37.4148 59.1374 34.8766 59.1374C32.3384 59.1374 30.2788 57.0778 30.2788 54.5396V54.0396ZM31.3133 55.0396C31.5569 56.7891 33.0603 58.1374 34.8766 58.1374C36.6928 58.1374 38.1962 56.7891 38.4398 55.0396H31.3133Z" fill="black"/>
<path fill-rule="evenodd" clip-rule="evenodd" d="M38.8018 54.0396H47.9973V54.5396C47.9973 57.0778 45.9377 59.1374 43.3995 59.1374C40.8613 59.1374 38.8018 57.0778 38.8018 54.5396V54.0396ZM39.8363 55.0396C40.0799 56.7891 41.5833 58.1374 43.3995 58.1374C45.2158 58.1374 46.7192 56.7891 46.9628 55.0396H39.8363Z" fill="black"/>
<path fill-rule="evenodd" clip-rule="evenodd" d="M56.6204 59.5H5.28955V58.5H56.6204V59.5Z" fill="black"/>
</svg>
