<svg width="64" height="64" viewBox="0 0 64 64" fill="none" xmlns="http://www.w3.org/2000/svg">
<path fill-rule="evenodd" clip-rule="evenodd" d="M4.6599 24.6335C12.1515 17.6818 21.7564 13.5 32.0781 13.5C42.3995 13.5 51.8715 17.6333 59.3384 24.4993C59.5417 24.6862 59.555 25.0025 59.3681 25.2058C59.1811 25.409 58.8648 25.4223 58.6616 25.2354C51.3587 18.5202 42.1222 14.5 32.0781 14.5C22.0341 14.5 12.6664 18.5682 5.3401 25.3665C5.13768 25.5543 4.82132 25.5425 4.63349 25.3401C4.44566 25.1377 4.45748 24.8213 4.6599 24.6335Z" fill="black"/>
<path fill-rule="evenodd" clip-rule="evenodd" d="M14.6925 30.6057C19.5883 26.7876 25.8354 24.5 32.5483 24.5C39.2606 24.5 45.4349 26.7566 50.3064 30.5333C50.5246 30.7025 50.5644 31.0166 50.3952 31.2348C50.226 31.453 49.9119 31.4928 49.6936 31.3236C44.9933 27.6796 39.0336 25.5 32.5483 25.5C26.0637 25.5 20.0319 27.7098 15.3075 31.3943C15.0897 31.5641 14.7755 31.5252 14.6057 31.3075C14.4359 31.0897 14.4748 30.7755 14.6925 30.6057Z" fill="black"/>
<path fill-rule="evenodd" clip-rule="evenodd" d="M32.5244 35.5C29.7614 35.5 27.2343 36.2296 25.2593 37.4275C25.0232 37.5707 24.7157 37.4954 24.5725 37.2593C24.4293 37.0232 24.5046 36.7157 24.7407 36.5725C26.881 35.2744 29.5893 34.5 32.5244 34.5C35.4594 34.5 38.1306 35.2663 40.258 36.5477C40.4945 36.6902 40.5708 36.9974 40.4283 37.234C40.2858 37.4705 39.9786 37.5468 39.742 37.4043C37.7785 36.2217 35.2873 35.5 32.5244 35.5Z" fill="black"/>
<path d="M32.5 52C34.433 52 36 50.433 36 48.5C36 46.567 34.433 45 32.5 45C30.567 45 29 46.567 29 48.5C29 50.433 30.567 52 32.5 52Z" fill="#FFC000"/>
<path fill-rule="evenodd" clip-rule="evenodd" d="M32.5 45.5C30.8431 45.5 29.5 46.8431 29.5 48.5C29.5 50.1569 30.8431 51.5 32.5 51.5C34.1569 51.5 35.5 50.1569 35.5 48.5C35.5 46.8431 34.1569 45.5 32.5 45.5ZM28.5 48.5C28.5 46.2909 30.2909 44.5 32.5 44.5C34.7091 44.5 36.5 46.2909 36.5 48.5C36.5 50.7091 34.7091 52.5 32.5 52.5C30.2909 52.5 28.5 50.7091 28.5 48.5Z" fill="black"/>
</svg>
