<svg width="64" height="64" viewBox="0 0 64 64" fill="none" xmlns="http://www.w3.org/2000/svg">
<g clip-path="url(#clip0_5_245)">
<path d="M58.5134 9.4845H5.48633V39.195H58.5134V9.4845Z" fill="#FFC000"/>
<path fill-rule="evenodd" clip-rule="evenodd" d="M4.98633 8.9845H59.0134V39.695H4.98633V8.9845ZM5.98633 9.9845V38.695H58.0134V9.9845H5.98633Z" fill="black"/>
<path fill-rule="evenodd" clip-rule="evenodd" d="M29.7584 41.544H34.2513V42.044C34.2513 44.6034 34.9612 47.055 36.0101 48.854C37.079 50.6875 38.4057 51.6995 39.5795 51.6995H41.247V55.0252H22.7627V51.6995H24.4303C25.604 51.6995 26.9307 50.6875 27.9997 48.854C29.0485 47.055 29.7584 44.6034 29.7584 42.044V41.544ZM30.75 42.544C30.6646 45.0944 29.9342 47.5213 28.8636 49.3577C27.7433 51.2792 26.156 52.6995 24.4303 52.6995H23.7627V54.0252H40.247V52.6995H39.5795C37.8537 52.6995 36.2664 51.2792 35.1461 49.3577C34.0756 47.5213 33.3451 45.0944 33.2597 42.544H30.75Z" fill="black"/>
<path fill-rule="evenodd" clip-rule="evenodd" d="M55.5195 16.5639L49.4429 22.6159L43.8691 19.9915L36.9442 25.4495L29.6353 24.2817L21.6362 29.2942L17.3203 26.1445L9.16649 33.4149L8.50098 32.6685L17.2575 24.8607L21.6788 28.0873L29.4224 23.235L36.6693 24.3929L43.7357 18.8234L49.2343 21.4124L54.8139 15.8553L55.5195 16.5639Z" fill="black"/>
</g>
<defs>
<clipPath id="clip0_5_245">
<rect width="54" height="46" fill="white" transform="translate(5 9)"/>
</clipPath>
</defs>
</svg>
