<svg width="64" height="64" viewBox="0 0 64 64" fill="none" xmlns="http://www.w3.org/2000/svg">
<path d="M47.3471 13.5913H15.9725C14.2788 13.5913 12.9058 14.955 12.9058 16.6373V47.7997C12.9058 49.482 14.2788 50.8457 15.9725 50.8457H47.3471C49.0408 50.8457 50.4138 49.482 50.4138 47.7997V16.6373C50.4138 14.955 49.0408 13.5913 47.3471 13.5913Z" fill="#FFC000"/>
<path fill-rule="evenodd" clip-rule="evenodd" d="M15.9725 14.0913C14.5517 14.0913 13.4058 15.2344 13.4058 16.6373V47.7997C13.4058 49.2027 14.5517 50.3457 15.9725 50.3457H47.3471C48.7678 50.3457 49.9138 49.2027 49.9138 47.7997V16.6373C49.9138 15.2344 48.7678 14.0913 47.3471 14.0913H15.9725ZM12.4058 16.6373C12.4058 14.6757 14.0058 13.0913 15.9725 13.0913H47.3471C49.3137 13.0913 50.9138 14.6757 50.9138 16.6373V47.7997C50.9138 49.7613 49.3137 51.3457 47.3471 51.3457H15.9725C14.0058 51.3457 12.4058 49.7613 12.4058 47.7997V16.6373Z" fill="black"/>
<path d="M42.5449 5.5C42.8209 5.50025 43.0449 5.72401 43.0449 6V9.91992H49.0049C51.8176 9.91992 54.1035 12.1863 54.1035 14.9883V20.9082C54.1074 20.9081 54.1113 20.9072 54.1152 20.9072H58.8145C59.0905 20.9072 59.3143 21.1312 59.3145 21.4072C59.3145 21.6834 59.0906 21.9072 58.8145 21.9072H54.1152C54.1113 21.9072 54.1074 21.9054 54.1035 21.9053V28.1143C54.1074 28.1142 54.1113 28.1133 54.1152 28.1133H58.8145C59.0906 28.1133 59.3145 28.3371 59.3145 28.6133C59.3143 28.8893 59.0905 29.1133 58.8145 29.1133H54.1152C54.1113 29.1133 54.1074 29.1114 54.1035 29.1113V35.3223C54.1074 35.3222 54.1113 35.3213 54.1152 35.3213H58.8145C59.0906 35.3213 59.3145 35.5451 59.3145 35.8213C59.3145 36.0974 59.0906 36.3213 58.8145 36.3213H54.1152C54.1113 36.3213 54.1074 36.3194 54.1035 36.3193V42.5283C54.1074 42.5282 54.1113 42.5273 54.1152 42.5273H58.8145C59.0906 42.5273 59.3145 42.7512 59.3145 43.0273C59.3142 43.3033 59.0905 43.5273 58.8145 43.5273H54.1152C54.1113 43.5273 54.1074 43.5255 54.1035 43.5254V49.4434C54.1035 52.2453 51.8176 54.5107 49.0049 54.5107H43.0449V58.2012C43.0449 58.4771 42.8208 58.7009 42.5449 58.7012C42.2688 58.7012 42.0449 58.4773 42.0449 58.2012V54.5107H35.7871V58.2012C35.7871 58.4773 35.5632 58.7012 35.2871 58.7012C35.011 58.7011 34.7871 58.4773 34.7871 58.2012V54.5107H28.5322V58.2012C28.5322 58.4773 28.3084 58.7012 28.0322 58.7012C27.7563 58.701 27.5322 58.4772 27.5322 58.2012V54.5107H21.2783V58.2012C21.2783 58.4772 21.0544 58.7011 20.7783 58.7012C20.5022 58.7012 20.2783 58.4773 20.2783 58.2012V54.5107H14.3145C11.5019 54.5106 9.21582 52.2452 9.21582 49.4434V43.5273H5C4.72397 43.5273 4.50018 43.3033 4.5 43.0273C4.5 42.7512 4.72386 42.5273 5 42.5273H9.21582V36.3213H5C4.72386 36.3213 4.5 36.0974 4.5 35.8213C4.50007 35.5452 4.7239 35.3213 5 35.3213H9.21582V29.1133H5C4.7239 29.1133 4.50007 28.8894 4.5 28.6133C4.5 28.3371 4.72386 28.1133 5 28.1133H9.21582V21.9072H5C4.72386 21.9072 4.5 21.6834 4.5 21.4072C4.50021 21.1313 4.72399 20.9072 5 20.9072H9.21582V14.9883C9.21582 12.1864 11.5019 9.92011 14.3145 9.91992H20.2783V6C20.2783 5.72386 20.5022 5.5 20.7783 5.5C21.0544 5.5001 21.2783 5.72392 21.2783 6V9.91992H27.5322V6C27.5322 5.72399 27.7563 5.50022 28.0322 5.5C28.3084 5.5 28.5322 5.72386 28.5322 6V9.91992H34.7871V6C34.7871 5.72388 35.011 5.50003 35.2871 5.5C35.5633 5.5 35.7871 5.72386 35.7871 6V9.91992H42.0449V6C42.0449 5.72386 42.2688 5.5 42.5449 5.5ZM14.3145 10.9199C12.0478 10.9201 10.2158 12.7451 10.2158 14.9883V49.4434C10.2158 51.6865 12.0478 53.5106 14.3145 53.5107H49.0049C51.2717 53.5107 53.1035 51.6866 53.1035 49.4434V14.9883C53.1035 12.745 51.2717 10.9199 49.0049 10.9199H14.3145Z" fill="black"/>
<path d="M27.9072 26.4075H36.0928C36.921 26.4077 37.5928 27.0792 37.5928 27.9075V36.093C37.5925 36.9211 36.9208 37.5928 36.0928 37.593H27.9072C27.079 37.593 26.4075 36.9212 26.4072 36.093V27.9075C26.4072 27.079 27.0788 26.4075 27.9072 26.4075Z" fill="white" stroke="black"/>
</svg>
