<svg width="64" height="64" viewBox="0 0 64 64" fill="none" xmlns="http://www.w3.org/2000/svg">
<path fill-rule="evenodd" clip-rule="evenodd" d="M50.7193 31.1949L47.4603 38.8953L46.5393 38.5056L49.7983 30.8052L50.7193 31.1949Z" fill="black"/>
<path fill-rule="evenodd" clip-rule="evenodd" d="M45.9464 40.3387L41.8174 38.7215L42.1821 37.7904L46.3111 39.4076L45.9464 40.3387Z" fill="black"/>
<path d="M46.5 41C47.3284 41 48 40.3284 48 39.5C48 38.6716 47.3284 38 46.5 38C45.6716 38 45 38.6716 45 39.5C45 40.3284 45.6716 41 46.5 41Z" fill="#FFC000"/>
<path fill-rule="evenodd" clip-rule="evenodd" d="M46.5 38.5C45.9477 38.5 45.5 38.9477 45.5 39.5C45.5 40.0523 45.9477 40.5 46.5 40.5C47.0523 40.5 47.5 40.0523 47.5 39.5C47.5 38.9477 47.0523 38.5 46.5 38.5ZM44.5 39.5C44.5 38.3954 45.3954 37.5 46.5 37.5C47.6046 37.5 48.5 38.3954 48.5 39.5C48.5 40.6046 47.6046 41.5 46.5 41.5C45.3954 41.5 44.5 40.6046 44.5 39.5Z" fill="black"/>
<path fill-rule="evenodd" clip-rule="evenodd" d="M7.55514 10.9172C6.53233 11.8412 6.0382 12.7914 6.0382 13.7267C6.0382 14.662 6.53233 15.6123 7.55514 16.5362C8.57791 17.4602 10.087 18.316 11.996 19.0454C15.8104 20.5028 21.1149 21.4152 27 21.4152C32.8851 21.4152 38.1896 20.5028 42.004 19.0454C43.913 18.316 45.4221 17.4602 46.4449 16.5362C47.4677 15.6123 47.9618 14.662 47.9618 13.7267C47.9618 12.7914 47.4677 11.8412 46.4449 10.9172C45.4221 9.99327 43.913 9.13742 42.004 8.40803C38.1896 6.95061 32.8851 6.03828 27 6.03828C21.1149 6.03828 15.8104 6.95061 11.996 8.40803C10.087 9.13742 8.57791 9.99327 7.55514 10.9172ZM11.6254 7.43813C15.5856 5.925 21.0215 5 27 5C32.9785 5 38.4144 5.925 42.3746 7.43813C44.3529 8.19402 45.9896 9.10676 47.1408 10.1467C48.292 11.1866 49 12.3955 49 13.7267C49 15.0579 48.292 16.2668 47.1408 17.3067C45.9896 18.3467 44.3529 19.2594 42.3746 20.0153C38.4144 21.5284 32.9785 22.4534 27 22.4534C21.0215 22.4534 15.5856 21.5284 11.6254 20.0153C9.64713 19.2594 8.01043 18.3467 6.85922 17.3067C5.70804 16.2668 5 15.0579 5 13.7267C5 12.3955 5.70804 11.1866 6.85922 10.1467C8.01043 9.10676 9.64713 8.19402 11.6254 7.43813Z" fill="black"/>
<path fill-rule="evenodd" clip-rule="evenodd" d="M5.5191 25.0532C5.80579 25.0532 6.0382 25.2856 6.0382 25.5723C6.0382 26.5097 6.53239 27.4609 7.55455 28.385C8.57679 29.3092 10.0851 30.1648 11.9932 30.8937C15.8058 32.3502 21.1079 33.2607 26.9902 33.2607C27.5355 33.2607 28.0598 33.2607 28.5727 33.2418C28.7244 33.2313 28.8637 33.2313 28.9847 33.2313H28.991C29.2777 33.2313 29.5101 33.4638 29.5101 33.7505C29.5101 34.0372 29.2777 34.2696 28.991 34.2696C28.862 34.2696 28.7531 34.2698 28.6377 34.2781L28.6288 34.2787L28.6199 34.2791C28.0832 34.299 27.5383 34.299 26.9952 34.299H26.9902C21.0147 34.299 15.5812 33.3759 11.6227 31.8636C9.64523 31.1082 8.00914 30.1956 6.85834 29.1552C5.70746 28.1148 5 26.905 5 25.5723C5 25.2856 5.23241 25.0532 5.5191 25.0532Z" fill="black"/>
<path fill-rule="evenodd" clip-rule="evenodd" d="M5.5191 36.9085C5.80579 36.9085 6.0382 37.141 6.0382 37.4277C6.0382 38.3621 6.53249 39.3121 7.55583 40.236C8.57907 41.1599 10.0888 42.0158 11.9981 42.7454C15.8132 44.2032 21.1178 45.1161 27 45.1161C27.2867 45.1161 27.5191 45.3485 27.5191 45.6353C27.5191 45.922 27.2867 46.1544 27 46.1544C21.0243 46.1544 15.5884 45.2287 11.6276 43.7153C9.64892 42.9593 8.01174 42.0465 6.86011 41.0067C5.70858 39.967 5 38.7584 5 37.4277C5 37.141 5.23241 36.9085 5.5191 36.9085Z" fill="black"/>
<path fill-rule="evenodd" clip-rule="evenodd" d="M5.5191 12.933C5.80579 12.933 6.0382 13.1654 6.0382 13.4521V49.2733C6.0382 50.2077 6.53249 51.1577 7.55583 52.0816C8.57907 53.0055 10.0888 53.8614 11.9981 54.591C15.8132 56.0488 21.1178 56.9617 27 56.9617C33.6071 56.9617 39.4709 55.8115 43.3256 54.038L43.3294 54.0363C43.876 53.7901 44.3759 53.5248 44.8388 53.2495C45.0852 53.103 45.4037 53.184 45.5503 53.4304C45.6968 53.6769 45.6158 53.9954 45.3694 54.142C44.8764 54.4351 44.3425 54.7186 43.7579 54.982C39.7268 56.8363 33.7041 58 27 58C21.0243 58 15.5884 57.0743 11.6276 55.5609C9.64892 54.8049 8.01174 53.8921 6.86011 52.8523C5.70858 51.8126 5 50.604 5 49.2733V13.4521C5 13.1654 5.23241 12.933 5.5191 12.933Z" fill="black"/>
<path fill-rule="evenodd" clip-rule="evenodd" d="M48.4711 12.933C48.7578 12.933 48.9902 13.1654 48.9902 13.4521V22.8561C48.9902 23.1428 48.7578 23.3752 48.4711 23.3752C48.1844 23.3752 47.952 23.1428 47.952 22.8561V13.4521C47.952 13.1654 48.1844 12.933 48.4711 12.933Z" fill="black"/>
<path fill-rule="evenodd" clip-rule="evenodd" d="M46 24.906C42.5169 24.906 39.0189 26.7742 36.4821 29.6537L35.7961 29.0569C38.4625 26.0303 42.1946 24 46 24C53.728 24 60 30.2674 60 38C60 45.7324 53.7379 52 46 52C38.44 52 32.2889 46.0174 32.0099 38.5312C31.999 38.2384 32.2375 38 32.5305 38C32.7411 38 32.9112 38.1717 32.9172 38.3822C33.1192 45.4426 38.8989 51.094 46 51.094C53.2288 51.094 59.0882 45.2376 59.0882 38C59.0882 30.7627 53.2193 24.906 46 24.906Z" fill="black"/>
<path d="M40.7156 30.1191L35.2036 26L34.5721 32.2094L40.7156 30.1191Z" fill="#FFC000"/>
<path fill-rule="evenodd" clip-rule="evenodd" d="M34.7959 25.0708L41.7755 30.2867L33.9962 32.9335L34.7959 25.0708ZM35.6121 26.9291L35.1487 31.4851L39.6564 29.9515L35.6121 26.9291Z" fill="black"/>
</svg>
