<svg width="64" height="64" viewBox="0 0 64 64" fill="none" xmlns="http://www.w3.org/2000/svg">
<path fill-rule="evenodd" clip-rule="evenodd" d="M7.55514 10.9172C6.53233 11.8412 6.0382 12.7914 6.0382 13.7267C6.0382 14.662 6.53233 15.6123 7.55514 16.5362C8.57791 17.4602 10.087 18.316 11.996 19.0454C15.8104 20.5028 21.1149 21.4152 27 21.4152C32.8851 21.4152 38.1897 20.5028 42.004 19.0454C43.913 18.316 45.4221 17.4602 46.4449 16.5362C47.4677 15.6123 47.9618 14.662 47.9618 13.7267C47.9618 12.7914 47.4677 11.8412 46.4449 10.9172C45.4221 9.99327 43.913 9.13742 42.004 8.40803C38.1897 6.95061 32.8851 6.03828 27 6.03828C21.1149 6.03828 15.8104 6.95061 11.996 8.40803C10.087 9.13742 8.57791 9.99327 7.55514 10.9172ZM11.6254 7.43813C15.5856 5.925 21.0215 5 27 5C32.9785 5 38.4144 5.925 42.3746 7.43813C44.3529 8.19402 45.9896 9.10676 47.1408 10.1467C48.292 11.1866 49 12.3955 49 13.7267C49 15.0579 48.292 16.2668 47.1408 17.3067C45.9896 18.3467 44.3529 19.2594 42.3746 20.0153C38.4144 21.5284 32.9785 22.4534 27 22.4534C21.0215 22.4534 15.5856 21.5284 11.6254 20.0153C9.64713 19.2594 8.01043 18.3467 6.85922 17.3067C5.70804 16.2668 5 15.0579 5 13.7267C5 12.3955 5.70804 11.1866 6.85922 10.1467C8.01043 9.10676 9.64713 8.19402 11.6254 7.43813Z" fill="black"/>
<path fill-rule="evenodd" clip-rule="evenodd" d="M5.5191 25.0532C5.80579 25.0532 6.0382 25.2856 6.0382 25.5723C6.0382 26.5097 6.53239 27.4609 7.55455 28.385C8.57679 29.3092 10.0851 30.1648 11.9932 30.8937C15.8058 32.3502 21.1079 33.2607 26.9902 33.2607C27.5355 33.2607 28.0598 33.2607 28.5727 33.2418C28.7244 33.2313 28.8637 33.2313 28.9847 33.2313H28.991C29.2777 33.2313 29.5101 33.4638 29.5101 33.7505C29.5101 34.0372 29.2777 34.2696 28.991 34.2696C28.862 34.2696 28.7531 34.2698 28.6377 34.2781L28.6288 34.2787L28.6199 34.2791C28.0832 34.299 27.5383 34.299 26.9952 34.299H26.9902C21.0147 34.299 15.5812 33.3759 11.6227 31.8636C9.64523 31.1082 8.00914 30.1956 6.85834 29.1552C5.70746 28.1148 5 26.905 5 25.5723C5 25.2856 5.23241 25.0532 5.5191 25.0532Z" fill="black"/>
<path fill-rule="evenodd" clip-rule="evenodd" d="M5.5191 36.9085C5.80579 36.9085 6.0382 37.141 6.0382 37.4277C6.0382 38.3621 6.53249 39.3121 7.55583 40.236C8.57907 41.1599 10.0888 42.0158 11.9981 42.7454C15.8132 44.2032 21.1178 45.1161 27 45.1161C27.2867 45.1161 27.5191 45.3485 27.5191 45.6353C27.5191 45.922 27.2867 46.1544 27 46.1544C21.0243 46.1544 15.5884 45.2287 11.6276 43.7153C9.64892 42.9593 8.01174 42.0465 6.86011 41.0067C5.70858 39.967 5 38.7584 5 37.4277C5 37.141 5.23241 36.9085 5.5191 36.9085Z" fill="black"/>
<path fill-rule="evenodd" clip-rule="evenodd" d="M5.5191 12.933C5.80579 12.933 6.0382 13.1654 6.0382 13.4521V49.2733C6.0382 50.2077 6.53249 51.1577 7.55583 52.0816C8.57907 53.0055 10.0888 53.8614 11.9981 54.591C15.8132 56.0488 21.1178 56.9617 27 56.9617C33.6071 56.9617 39.4709 55.8115 43.3256 54.038L43.3294 54.0363C43.876 53.7901 44.3759 53.5248 44.8388 53.2495C45.0852 53.103 45.4037 53.184 45.5503 53.4304C45.6968 53.6769 45.6158 53.9954 45.3694 54.142C44.8764 54.4351 44.3425 54.7186 43.7579 54.982C39.7268 56.8363 33.7041 58 27 58C21.0243 58 15.5884 57.0743 11.6276 55.5609C9.64892 54.8049 8.01174 53.8921 6.86011 52.8523C5.70858 51.8126 5 50.604 5 49.2733V13.4521C5 13.1654 5.23241 12.933 5.5191 12.933Z" fill="black"/>
<path fill-rule="evenodd" clip-rule="evenodd" d="M48.4711 12.933C48.7578 12.933 48.9902 13.1654 48.9902 13.4521V22.8561C48.9902 23.1428 48.7578 23.3752 48.4711 23.3752C48.1844 23.3752 47.952 23.1428 47.952 22.8561V13.4521C47.952 13.1654 48.1844 12.933 48.4711 12.933Z" fill="black"/>
<path d="M47 50C54.1797 50 60 44.4036 60 37.5C60 30.5964 54.1797 25 47 25C39.8203 25 34 30.5964 34 37.5C34 44.4036 39.8203 50 47 50Z" fill="#FFC000"/>
<path fill-rule="evenodd" clip-rule="evenodd" d="M47 26.0181C40.3874 26.0181 35.0227 31.3804 35.0227 38C35.0227 44.6196 40.3874 49.9819 47 49.9819C53.6126 49.9819 58.9773 44.6196 58.9773 38C58.9773 31.3804 53.6126 26.0181 47 26.0181ZM34 38C34 30.8225 39.8181 25 47 25C54.1819 25 60 30.8225 60 38C60 45.1775 54.1819 51 47 51C39.8181 51 34 45.1775 34 38Z" fill="black"/>
<path fill-rule="evenodd" clip-rule="evenodd" d="M48.4109 26.9925L53.1083 30.6333L47.6066 32.881L47.9256 30.5453C44.6066 30.7648 42.4423 32.3589 41.193 34.3775C39.854 36.5409 39.5539 39.2141 40.0679 41.2673L39.0693 41.5173C38.4902 39.2039 38.8273 36.2438 40.3177 33.8358C41.7678 31.4927 44.2985 29.6925 48.0676 29.506L48.4109 26.9925Z" fill="black"/>
<path fill-rule="evenodd" clip-rule="evenodd" d="M46.2566 48.8566L41.5592 45.2158L47.0609 42.9681L46.7418 45.3039C50.0609 45.0843 52.2252 43.4902 53.4745 41.4716C54.8134 39.3082 55.1136 36.635 54.5996 34.5818L55.5982 34.3318C56.1773 36.6453 55.8401 39.6053 54.3498 42.0133C52.8997 44.3564 50.369 46.1566 46.5999 46.3431L46.2566 48.8566Z" fill="black"/>
</svg>
