<svg width="64" height="64" viewBox="0 0 64 64" fill="none" xmlns="http://www.w3.org/2000/svg">
<path d="M9 31.8499V10.2942L9.60254 10.4202C15.8737 11.7311 21.2746 10.21 25.1201 8.34985C27.0423 7.42008 28.5706 6.40771 29.6172 5.62915C30.1403 5.24003 30.5428 4.90955 30.8125 4.67798C30.9471 4.56239 31.049 4.47173 31.1162 4.4104C31.1496 4.37995 31.1742 4.35628 31.1904 4.34106C31.1985 4.33346 31.2053 4.32796 31.209 4.32446C31.2108 4.32274 31.2122 4.32124 31.2129 4.32056L31.5459 3.99829L31.8916 4.30591C33.773 5.9772 40.2037 10.6183 53.6221 10.4104L54.1299 10.4026V31.8596C54.1299 37.7529 52.2575 43.5699 48.4648 48.1194C45.4088 51.7969 40.7173 55.5662 33.5303 58.3459L33.5273 58.3479C32.946 58.5684 32.3498 58.7906 31.7324 59.0032L31.5654 59.0598L31.3994 59.0002L28.8105 58.0627L28.8389 58.0334C22.0809 55.2836 17.6189 51.6442 14.666 48.1106C10.8837 43.5616 9 37.7441 9 31.8499ZM10 31.8499C10 37.5351 11.8166 43.1182 15.4336 47.469C18.3785 50.9931 22.9086 54.6641 29.9111 57.384L30.4258 57.5833L31.5703 57.9983C32.1152 57.808 32.6468 57.6119 33.1729 57.4124C40.204 54.6923 44.7528 51.0217 47.6963 47.4797C51.3231 43.1294 53.1299 37.5459 53.1299 31.8596V11.4114C40.4576 11.4958 33.9323 7.31031 31.5684 5.34302C31.5353 5.37184 31.5016 5.40438 31.4639 5.43677C31.1782 5.68198 30.7583 6.02759 30.2148 6.43188C29.1284 7.24011 27.5456 8.28766 25.5557 9.25024C21.6987 11.1159 16.2916 12.6693 10 11.5168V31.8499Z" fill="black"/>
<path d="M43.7701 22.0801V41.1101C43.7701 43.5201 38.3101 45.4701 31.5701 45.4701C24.8301 45.4701 19.3701 43.5201 19.3701 41.1101V22.0801" fill="#FFC000"/>
<path d="M18.8701 41.1104V22.0801C18.8701 21.804 19.094 21.5801 19.3701 21.5801C19.6463 21.5801 19.8701 21.804 19.8701 22.0801V41.1104C19.8702 41.5088 20.0947 41.9552 20.6514 42.4258C21.2061 42.8947 22.0389 43.3395 23.1113 43.7227C25.2519 44.4875 28.2422 44.9698 31.5703 44.9698C34.8985 44.9697 37.8888 44.4875 40.0293 43.7227C41.1017 43.3395 41.9346 42.8947 42.4893 42.4258C43.0457 41.9553 43.2704 41.5088 43.2705 41.1104V22.0801C43.2705 21.804 43.4944 21.5801 43.7705 21.5801C44.0465 21.5803 44.2705 21.8041 44.2705 22.0801V41.1104C44.2704 41.9165 43.8119 42.617 43.1348 43.1895C42.4551 43.764 41.5012 44.2595 40.3662 44.6651C38.0918 45.4777 34.982 45.9697 31.5703 45.9698C28.1586 45.9698 25.0488 45.4777 22.7744 44.6651C21.6394 44.2595 20.6855 43.764 20.0059 43.1895C19.3286 42.6169 18.8702 41.9166 18.8701 41.1104Z" fill="black"/>
<path d="M31.5701 26.5901C38.308 26.5901 43.7701 24.6381 43.7701 22.2301C43.7701 19.8222 38.308 17.8701 31.5701 17.8701C24.8322 17.8701 19.3701 19.8222 19.3701 22.2301C19.3701 24.6381 24.8322 26.5901 31.5701 26.5901Z" fill="#FFC000"/>
<path d="M43.2705 22.2305C43.2705 21.8326 43.0455 21.3858 42.4883 20.915C41.9334 20.4462 41.1008 20.0014 40.0283 19.6182C37.8875 18.8531 34.8973 18.3701 31.5703 18.3701C28.2432 18.3701 25.2522 18.8531 23.1113 19.6182C22.0389 20.0015 21.2062 20.4462 20.6514 20.915C20.0943 21.3858 19.8701 21.8326 19.8701 22.2305C19.8702 22.6282 20.0945 23.0743 20.6514 23.5449C21.2062 24.0137 22.0389 24.4585 23.1113 24.8418C25.2522 25.6069 28.2432 26.0898 31.5703 26.0898C34.8973 26.0898 37.8875 25.6069 40.0283 24.8418C41.1009 24.4585 41.9334 24.0138 42.4883 23.5449C43.0453 23.0743 43.2704 22.6283 43.2705 22.2305ZM44.2705 22.2305C44.2704 23.0364 43.8112 23.7372 43.1338 24.3096C42.454 24.8838 41.5002 25.3786 40.3652 25.7842C38.0906 26.5971 34.981 27.0898 31.5703 27.0898C28.1597 27.0898 25.05 26.597 22.7754 25.7842C21.6402 25.3785 20.6856 24.8839 20.0059 24.3096C19.3285 23.7372 18.8703 23.0364 18.8701 22.2305C18.8701 21.4245 19.3285 20.7238 20.0059 20.1514C20.6857 19.577 21.6402 19.0824 22.7754 18.6768C25.0501 17.8639 28.1596 17.3701 31.5703 17.3701C34.981 17.3701 38.0906 17.8639 40.3652 18.6768C41.5003 19.0824 42.4541 19.577 43.1338 20.1514C43.8113 20.7238 44.2705 21.4244 44.2705 22.2305Z" fill="black"/>
<path d="M18.8701 28.5201C18.8701 28.244 19.094 28.0201 19.3701 28.0201C19.6463 28.0201 19.8701 28.244 19.8701 28.5201C19.8701 28.9187 20.0944 29.3658 20.6514 29.8365C21.2061 30.3054 22.039 30.7502 23.1113 31.1334C25.2519 31.8981 28.2423 32.3805 31.5703 32.3805C34.8984 32.3805 37.8888 31.8982 40.0293 31.1334C41.1017 30.7502 41.9345 30.3054 42.4893 29.8365C43.0461 29.3658 43.2705 28.9187 43.2705 28.5201C43.2705 28.244 43.4944 28.0201 43.7705 28.0201C44.0465 28.0203 44.2705 28.2441 44.2705 28.5201C44.2705 29.3265 43.8122 30.0275 43.1348 30.6002C42.4552 31.1747 41.5011 31.6693 40.3662 32.0748C38.0918 32.8875 34.982 33.3805 31.5703 33.3805C28.1586 33.3805 25.0488 32.8875 22.7744 32.0748C21.6395 31.6693 20.6855 31.1747 20.0059 30.6002C19.3284 30.0275 18.8701 29.3265 18.8701 28.5201Z" fill="black"/>
<path d="M18.8701 34.8201C18.8701 34.544 19.094 34.3201 19.3701 34.3201C19.6463 34.3201 19.8701 34.544 19.8701 34.8201C19.8701 35.2187 20.0944 35.6658 20.6514 36.1365C21.2061 36.6054 22.039 37.0502 23.1113 37.4334C25.2519 38.1981 28.2423 38.6805 31.5703 38.6805C34.8984 38.6805 37.8888 38.1982 40.0293 37.4334C41.1017 37.0502 41.9345 36.6054 42.4893 36.1365C43.0461 35.6658 43.2705 35.2187 43.2705 34.8201C43.2705 34.544 43.4944 34.3201 43.7705 34.3201C44.0465 34.3203 44.2705 34.5441 44.2705 34.8201C44.2705 35.6265 43.8122 36.3275 43.1348 36.9002C42.4552 37.4747 41.5011 37.9693 40.3662 38.3748C38.0918 39.1875 34.982 39.6805 31.5703 39.6805C28.1586 39.6805 25.0488 39.1875 22.7744 38.3748C21.6395 37.9693 20.6855 37.4747 20.0059 36.9002C19.3284 36.3275 18.8701 35.6265 18.8701 34.8201Z" fill="black"/>
</svg>
