<svg width="64" height="64" viewBox="0 0 64 64" fill="none" xmlns="http://www.w3.org/2000/svg">
<path d="M19.38 6H10V15.38H19.38V6Z" fill="#FFC000"/>
<path d="M36.2599 6H26.8799V15.38H36.2599V6Z" fill="#FFC000"/>
<path d="M53.1398 6H43.7598V15.38H53.1398V6Z" fill="#FFC000"/>
<path fill-rule="evenodd" clip-rule="evenodd" d="M31.5 31.5C35.2667 31.5 38.6976 32.0083 41.2041 32.8438C42.4547 33.2606 43.5033 33.7678 44.249 34.3555C44.7083 34.7175 45.0785 35.133 45.2939 35.5967C45.4185 35.6876 45.5 35.834 45.5 36V53.709C45.5 54.532 44.9767 55.2268 44.2393 55.7812C43.4933 56.342 42.4456 56.825 41.1963 57.2217C38.6918 58.0168 35.2634 58.5 31.5 58.5C27.7365 58.5 24.3081 58.015 21.8037 57.2188C20.5544 56.8215 19.5065 56.3385 18.7607 55.7783C18.0237 55.2247 17.5 54.5304 17.5 53.709V36C17.5 35.8343 17.5809 35.6877 17.7051 35.5967C17.9205 35.1328 18.2916 34.7176 18.751 34.3555C19.4967 33.7678 20.5453 33.2606 21.7959 32.8438C24.3024 32.0083 27.7333 31.5 31.5 31.5ZM18.5 53.709C18.5 54.0713 18.7318 54.5057 19.3613 54.9785C19.9822 55.4448 20.9125 55.886 22.1064 56.2656C24.4887 57.023 27.8103 57.5 31.5 57.5C35.19 57.5 38.5114 57.0249 40.8936 56.2686C42.0875 55.8895 43.0179 55.449 43.6387 54.9824C44.2677 54.5096 44.5 54.074 44.5 53.709V50.1064C44.4255 50.1803 44.3494 50.2544 44.2686 50.3252C43.523 50.9782 42.4727 51.5429 41.2188 52.0068C38.7067 52.9362 35.27 53.5 31.5 53.5C27.7298 53.5 24.2932 52.9335 21.7812 52.0029C20.5274 51.5384 19.4778 50.9736 18.7324 50.3213C18.6514 50.2504 18.5747 50.1766 18.5 50.1025V53.709ZM18.5 48C18.5 48.4926 18.7685 49.0238 19.3906 49.5684C20.0118 50.112 20.9396 50.6248 22.1289 51.0654C24.5036 51.9452 27.817 52.5 31.5 52.5C35.1832 52.5 38.4965 51.9477 40.8711 51.0693C42.0603 50.6294 42.9883 50.1172 43.6094 49.5732C44.2312 49.0285 44.5 48.4956 44.5 48V44.1064C44.4255 44.1803 44.3494 44.2544 44.2686 44.3252C43.523 44.9782 42.4727 45.5429 41.2188 46.0068C38.7067 46.9362 35.27 47.5 31.5 47.5C27.7298 47.5 24.2932 46.9335 21.7812 46.0029C20.5274 45.5384 19.4778 44.9736 18.7324 44.3213C18.6514 44.2504 18.5747 44.1766 18.5 44.1025V48ZM44.249 38.6445C43.5033 39.2322 42.4547 39.7394 41.2041 40.1562C38.6976 40.9917 35.2667 41.5 31.5 41.5C27.7333 41.5 24.3024 40.9917 21.7959 40.1562C20.5453 39.7394 19.4967 39.2322 18.751 38.6445C18.6637 38.5758 18.5804 38.5042 18.5 38.4316V42C18.5 42.4926 18.7685 43.0238 19.3906 43.5684C20.0118 44.112 20.9396 44.6248 22.1289 45.0654C24.5036 45.9452 27.817 46.5 31.5 46.5C35.1832 46.5 38.4965 45.9477 40.8711 45.0693C42.0603 44.6294 42.9883 44.1172 43.6094 43.5732C44.2312 43.0285 44.5 42.4956 44.5 42V38.4316C44.4196 38.5042 44.3363 38.5758 44.249 38.6445ZM31.5 32.5C27.811 32.5 24.4918 32.9988 22.1123 33.792C20.92 34.1894 19.9906 34.6516 19.3701 35.1406C18.744 35.6341 18.5 36.0975 18.5 36.5C18.5 36.9025 18.744 37.3659 19.3701 37.8594C19.9906 38.3484 20.92 38.8106 22.1123 39.208C24.4918 40.0011 27.811 40.5 31.5 40.5C35.189 40.5 38.5082 40.0011 40.8877 39.208C42.08 38.8106 43.0094 38.3484 43.6299 37.8594C44.256 37.3659 44.5 36.9025 44.5 36.5C44.5 36.0975 44.256 35.6341 43.6299 35.1406C43.0094 34.6516 42.08 34.1894 40.8877 33.792C38.5082 32.9988 35.189 32.5 31.5 32.5Z" fill="black"/>
<path fill-rule="evenodd" clip-rule="evenodd" d="M19.8799 15.8799H15.2402V22.0801H31.5V15.8799H26.3799V5.5H36.7598V15.8799H32.5V22.0801H47.8906V15.8799H43.2598V5.5H53.6396V15.8799H48.8906V23.0801H32.5V28.5H31.5V23.0801H14.2402V15.8799H9.5V5.5H19.8799V15.8799ZM10.5 14.8799H18.8799V6.5H10.5V14.8799ZM27.3799 14.8799H35.7598V6.5H27.3799V14.8799ZM44.2598 14.8799H52.6396V6.5H44.2598V14.8799Z" fill="black"/>
</svg>
