<svg width="64" height="64" viewBox="0 0 64 64" fill="none" xmlns="http://www.w3.org/2000/svg">
<path d="M31.5 37.9891C24.9539 37.9891 18 36.1943 18 32.8767V12.9601C18 12.6555 18.2424 12.4162 18.551 12.4162C18.8596 12.4162 19.102 12.6555 19.102 12.9601V32.8876C19.102 34.7912 24.1935 36.9123 31.5 36.9123C38.8065 36.9123 43.898 34.7912 43.898 32.8876V12.9601C43.898 12.6555 44.1404 12.4162 44.449 12.4162C44.7575 12.4162 45 12.6555 45 12.9601V32.8876C45 36.2052 38.0461 38 31.5 38V37.9891Z" fill="black"/>
<path d="M31.5 18.2139C24.9539 18.2139 18 16.4191 18 13.1015C18 9.7839 24.9539 8 31.5 8C38.0461 8 45 9.79478 45 13.1124C45 16.43 38.0461 18.2248 31.5 18.2248V18.2139ZM31.5 9.08774C24.1935 9.08774 19.102 11.2088 19.102 13.1124C19.102 15.016 24.1935 17.1371 31.5 17.1371C38.8065 17.1371 43.898 15.016 43.898 13.1124C43.898 11.2088 38.8065 9.08774 31.5 9.08774Z" fill="black"/>
<path d="M31.5 24.8057C24.9539 24.8057 18 23.0109 18 19.6933C18 19.3887 18.2424 19.1494 18.551 19.1494C18.8596 19.1494 19.102 19.3887 19.102 19.6933C19.102 21.5968 24.1935 23.7179 31.5 23.7179C38.8065 23.7179 43.898 21.5968 43.898 19.6933C43.898 19.3887 44.1404 19.1494 44.449 19.1494C44.7575 19.1494 45 19.3887 45 19.6933C45 23.0109 38.0461 24.8057 31.5 24.8057Z" fill="black"/>
<path d="M31.5 31.3974C24.9539 31.3974 18 29.6026 18 26.285C18 25.9804 18.2424 25.7411 18.551 25.7411C18.8596 25.7411 19.102 25.9804 19.102 26.285C19.102 28.1885 24.1935 30.3096 31.5 30.3096C38.8065 30.3096 43.898 28.1885 43.898 26.285C43.898 25.9804 44.1404 25.7411 44.449 25.7411C44.7575 25.7411 45 25.9804 45 26.285C45 29.6026 38.0461 31.3974 31.5 31.3974Z" fill="black"/>
<path d="M31.5 51C31.22 51 31 50.7688 31 50.4745V37.5255C31 37.2312 31.22 37 31.5 37C31.78 37 32 37.2312 32 37.5255V50.4745C32 50.7688 31.78 51 31.5 51Z" fill="black"/>
<path d="M56.4528 52H6.54721C6.24077 52 6 51.78 6 51.5C6 51.22 6.24077 51 6.54721 51H56.4528C56.7592 51 57 51.22 57 51.5C57 51.78 56.7592 52 56.4528 52Z" fill="black"/>
<path d="M36.128 47.2397H27.1624V56.2053H36.128V47.2397Z" fill="#FFC000"/>
<path d="M36.6621 56.75H26.6071V46.695H36.6621V56.75ZM27.7073 55.6606H35.5836V47.7844H27.7073V55.6606Z" fill="black"/>
<path d="M9.81966 56.2052C12.2924 56.2052 14.297 54.2006 14.297 51.7279C14.297 49.2551 12.2924 47.2505 9.81966 47.2505C7.34687 47.2505 5.34229 49.2551 5.34229 51.7279C5.34229 54.2006 7.34687 56.2052 9.81966 56.2052Z" fill="#FFC000"/>
<path d="M9.81943 56.7499C7.05239 56.7499 4.79736 54.4949 4.79736 51.7279C4.79736 48.9608 7.05239 46.7058 9.81943 46.7058C12.5865 46.7058 14.8415 48.9608 14.8415 51.7279C14.8415 54.4949 12.5865 56.7499 9.81943 56.7499ZM9.81943 47.7952C7.65155 47.7952 5.88675 49.56 5.88675 51.7279C5.88675 53.8958 7.65155 55.6606 9.81943 55.6606C11.9873 55.6606 13.7521 53.8958 13.7521 51.7279C13.7521 49.56 11.9873 47.7952 9.81943 47.7952Z" fill="black"/>
<path d="M53.4603 56.2052C55.9331 56.2052 57.9377 54.2006 57.9377 51.7279C57.9377 49.2551 55.9331 47.2505 53.4603 47.2505C50.9875 47.2505 48.9829 49.2551 48.9829 51.7279C48.9829 54.2006 50.9875 56.2052 53.4603 56.2052Z" fill="#FFC000"/>
<path d="M53.4605 56.7499C50.6935 56.7499 48.4385 54.4949 48.4385 51.7279C48.4385 48.9608 50.6935 46.7058 53.4605 46.7058C56.2276 46.7058 58.4826 48.9608 58.4826 51.7279C58.4826 54.4949 56.2276 56.7499 53.4605 56.7499ZM53.4605 47.7952C51.2927 47.7952 49.5279 49.56 49.5279 51.7279C49.5279 53.8958 51.2927 55.6606 53.4605 55.6606C55.6284 55.6606 57.3932 53.8958 57.3932 51.7279C57.3932 49.56 55.6284 47.7952 53.4605 47.7952Z" fill="black"/>
</svg>
