<svg width="64" height="64" viewBox="0 0 64 64" fill="none" xmlns="http://www.w3.org/2000/svg">
<path d="M22.1465 10.7357V21.7757L32.4999 27.1747L43.0424 21.881V10.7357L32.4999 5.58936L22.1465 10.7357Z" fill="#FFC000"/>
<path d="M55.9751 21.106V48.3335L32.8062 59.8579L32.5854 59.9683L9.30518 48.5669L9.0249 48.4302V21.1011L17.6001 16.3804L18.0825 17.2563L10.0249 21.6919V47.8062L32.5825 58.8521L54.9751 47.7134V21.687L47.0796 17.2007L47.5737 16.3315L55.9751 21.106Z" fill="black"/>
<path d="M55.4751 21.3968L55.7046 21.8411L32.4995 33.8626L9.29443 21.8411L9.75537 20.9525L32.4995 32.7357L55.2446 20.9525L55.4751 21.3968Z" fill="black"/>
<path d="M32.9999 33.2998V59.4101H31.9999V33.2998H32.9999Z" fill="black"/>
<path d="M43.542 10.4233V22.189L43.2666 22.3276L32.7246 27.6216L32.4961 27.7368L32.2686 27.6177L21.915 22.2192L21.6465 22.0786V10.4263L21.9238 10.2876L32.2773 5.14209L32.498 5.03174L43.542 10.4233ZM22.6465 11.0444V21.4722L32.5039 26.6128L42.542 21.5728V11.0474L32.501 6.146L22.6465 11.0444Z" fill="black"/>
<path d="M43.042 10.7357L43.2637 11.184L32.7207 16.3832L32.498 16.4936L32.2754 16.3812L21.9219 11.183L22.3711 10.2885L32.502 15.3754L42.8213 10.2875L43.042 10.7357Z" fill="black"/>
</svg>
