<svg width="64" height="64" viewBox="0 0 64 64" fill="none" xmlns="http://www.w3.org/2000/svg">
<path d="M14.98 33.46C18.0065 33.46 20.46 31.0065 20.46 27.98C20.46 24.9535 18.0065 22.5 14.98 22.5C11.9535 22.5 9.5 24.9535 9.5 27.98C9.5 31.0065 11.9535 33.46 14.98 33.46Z" fill="#FFC000"/>
<path d="M32.34 17.46C35.3665 17.46 37.82 15.0065 37.82 11.98C37.82 8.95348 35.3665 6.5 32.34 6.5C29.3135 6.5 26.86 8.95348 26.86 11.98C26.86 15.0065 29.3135 17.46 32.34 17.46Z" fill="#FFC000"/>
<path d="M49.95 33.73C52.9765 33.73 55.43 31.2765 55.43 28.25C55.43 25.2235 52.9765 22.77 49.95 22.77C46.9235 22.77 44.47 25.2235 44.47 28.25C44.47 31.2765 46.9235 33.73 49.95 33.73Z" fill="#FFC000"/>
<path fill-rule="evenodd" clip-rule="evenodd" d="M14.9805 22C18.182 22.0002 20.7955 24.5169 20.9521 27.6797C20.9914 27.6684 21.0325 27.6615 21.0752 27.6602C24.175 27.5708 26.4841 28.1156 28.1982 29.0146C29.9158 29.9156 31.0089 31.1577 31.6963 32.4131C32.3807 33.6632 32.6591 34.9195 32.7686 35.8574C32.8234 36.3274 32.8362 36.7213 32.835 37C32.8343 37.1394 32.8303 37.2505 32.8262 37.3281C32.8241 37.3667 32.8219 37.3973 32.8203 37.4189V55.9941L41.5654 44.7129C41.7346 44.4953 42.0486 44.4554 42.2666 44.624C42.4847 44.7931 42.5243 45.108 42.3555 45.3262L32.4141 58.1514L22.2979 45.3291C22.127 45.1124 22.1642 44.798 22.3809 44.627C22.5976 44.4563 22.9121 44.4934 23.083 44.71L31.8203 55.7852V37.3857L31.8223 37.3623V37.3604C31.8225 37.3574 31.8227 37.3519 31.8232 37.3447C31.8243 37.33 31.8265 37.3065 31.8281 37.2754C31.8314 37.2127 31.8344 37.118 31.835 36.9961C31.8361 36.7513 31.8249 36.3978 31.7754 35.9736C31.6761 35.1225 31.4239 33.9995 30.8184 32.8936C30.2157 31.793 29.2591 30.7007 27.7334 29.9004C26.204 29.0983 24.0737 28.5736 21.1045 28.6592C21.0409 28.6609 20.9804 28.649 20.9238 28.6289C20.6003 31.6261 18.0636 33.9597 14.9805 33.96C11.678 33.96 9.00025 31.2829 9 27.9805C9 24.6778 11.6778 22 14.9805 22ZM14.9805 23C12.2301 23 10 25.2301 10 27.9805C10.0003 30.7306 12.2302 32.96 14.9805 32.96C17.7305 32.9597 19.9597 30.7305 19.96 27.9805C19.96 25.2302 17.7306 23.0003 14.9805 23Z" fill="black"/>
<path fill-rule="evenodd" clip-rule="evenodd" d="M49.9512 22.2705C53.2534 22.271 55.9307 24.9486 55.9307 28.251C55.9301 31.5529 53.2531 34.23 49.9512 34.2305C46.7431 34.2305 44.1239 31.7039 43.9766 28.5322C43.9092 28.5631 43.835 28.5823 43.7559 28.5801C39.3081 28.453 36.7351 29.6839 35.2354 31.2021C35.0414 31.3981 34.7247 31.3997 34.5283 31.2061C34.3321 31.012 34.3306 30.6954 34.5244 30.499C36.2647 28.7373 39.1321 27.4481 43.7842 27.5811C43.8624 27.5833 43.935 27.6048 44 27.6387C44.3064 24.6233 46.855 22.2705 49.9512 22.2705ZM49.9512 23.2705C47.2008 23.2705 44.9707 25.5006 44.9707 28.251C44.9712 31.0009 47.2011 33.2305 49.9512 33.2305C52.7008 33.23 54.9301 31.0006 54.9307 28.251C54.9307 25.5009 52.7011 23.271 49.9512 23.2705Z" fill="black"/>
<path fill-rule="evenodd" clip-rule="evenodd" d="M32.3408 6C35.643 6.00052 38.3203 8.67813 38.3203 11.9805C38.3201 15.2159 35.7498 17.8485 32.54 17.9541V27.5303C32.5399 27.8063 32.3161 28.0303 32.04 28.0303C31.764 28.0303 31.5402 27.8063 31.54 27.5303V17.9043C28.616 17.5131 26.3606 15.0114 26.3604 11.9805C26.3604 8.67781 29.0382 6 32.3408 6ZM32.3408 7C29.5904 7 27.3604 9.23009 27.3604 11.9805C27.3606 14.7306 29.5906 16.96 32.3408 16.96C35.0906 16.9594 37.3201 14.7303 37.3203 11.9805C37.3203 9.23041 35.0908 7.00052 32.3408 7Z" fill="black"/>
</svg>
