<svg width="64" height="64" viewBox="0 0 64 64" fill="none" xmlns="http://www.w3.org/2000/svg">
<path d="M39.79 26.48V27.48H23.2002V26.48H39.79Z" fill="black"/>
<path d="M39.79 31.11V32.11H23.2002V31.11H39.79Z" fill="black"/>
<path d="M39.79 35.73V36.73H23.2002V35.73H39.79Z" fill="black"/>
<path d="M51.7398 31.6101C51.7398 30.3701 51.6198 29.1601 51.4098 27.9801L57.6298 23.5101C57.1398 21.9201 56.4898 20.4001 55.7298 18.9501L48.1798 20.1901C46.7898 18.1801 45.0498 16.4401 43.0398 15.0501L44.2798 7.50008C42.8298 6.74008 41.3098 6.10008 39.7198 5.60008L35.2498 11.8201C34.0698 11.6001 32.8598 11.4901 31.6198 11.4901C30.3798 11.4901 29.1698 11.6101 27.9898 11.8201L23.4998 5.58008C21.9098 6.07008 20.3898 6.72008 18.9398 7.48008L20.1798 15.0301C18.1698 16.4201 16.4298 18.1601 15.0398 20.1701L7.48984 18.9301C6.72984 20.3801 6.08984 21.9001 5.58984 23.4901L11.8098 27.9601C11.5898 29.1401 11.4798 30.3501 11.4798 31.5901C11.4798 32.8301 11.5998 34.0401 11.8098 35.2201L5.58984 39.6901C6.07984 41.2801 6.72984 42.8001 7.48984 44.2501L15.0398 43.0101C16.4298 45.0201 18.1698 46.7601 20.1798 48.1501L18.9398 55.7001C20.3898 56.4601 21.9098 57.1001 23.4998 57.6001L27.9698 51.3801C29.1498 51.6001 30.3598 51.7101 31.5998 51.7101C32.8398 51.7101 34.0498 51.5901 35.2298 51.3801L39.6998 57.6001C41.2898 57.1101 42.8098 56.4601 44.2598 55.7001L43.0198 48.1501C45.0298 46.7601 46.7698 45.0201 48.1598 43.0101L55.7098 44.2501C56.4698 42.8001 57.1098 41.2801 57.6098 39.6901L51.3898 35.2201C51.6098 34.0401 51.7198 32.8301 51.7198 31.5901L51.7398 31.6101ZM31.6098 44.7601C24.3498 44.7601 18.4598 38.8701 18.4598 31.6101C18.4598 24.3501 24.3498 18.4601 31.6098 18.4601C38.8698 18.4601 44.7598 24.3501 44.7598 31.6101C44.7598 38.8701 38.8698 44.7601 31.6098 44.7601Z" fill="#FFC000"/>
<path d="M35.5598 28.8801C36.5374 28.8801 37.3298 28.0876 37.3298 27.1101C37.3298 26.1325 36.5374 25.3401 35.5598 25.3401C34.5823 25.3401 33.7898 26.1325 33.7898 27.1101C33.7898 28.0876 34.5823 28.8801 35.5598 28.8801Z" fill="#FFC000"/>
<path d="M28.0798 33.4701C29.0574 33.4701 29.8498 32.6776 29.8498 31.7001C29.8498 30.7225 29.0574 29.9301 28.0798 29.9301C27.1023 29.9301 26.3098 30.7225 26.3098 31.7001C26.3098 32.6776 27.1023 33.4701 28.0798 33.4701Z" fill="#FFC000"/>
<path d="M35.2198 38.1901C36.1974 38.1901 36.9898 37.3976 36.9898 36.4201C36.9898 35.4425 36.1974 34.6501 35.2198 34.6501C34.2423 34.6501 33.4498 35.4425 33.4498 36.4201C33.4498 37.3976 34.2423 38.1901 35.2198 38.1901Z" fill="#FFC000"/>
<path d="M23.9053 5.28809L28.2129 11.2754C29.3207 11.0937 30.4567 10.9902 31.6201 10.9902C32.7799 10.9902 33.9154 11.085 35.0264 11.2734L39.5244 5.01465L39.8701 5.12305C41.4896 5.63234 43.0367 6.2845 44.5117 7.05762L44.832 7.22461L43.583 14.8223C45.4467 16.1536 47.0758 17.7819 48.4072 19.6455L56.0049 18.3984L56.1729 18.7178C56.9451 20.1911 57.6072 21.7401 58.1074 23.3633L58.2139 23.7061L51.9541 28.2031C52.1358 29.3109 52.2402 30.4469 52.2402 31.6104V32.8174L52.1855 32.7627C52.1433 33.5182 52.0601 34.2629 51.9355 34.9971L58.1953 39.4951L58.0869 39.8398C57.5776 41.4594 56.9255 43.0073 56.1523 44.4824L55.9854 44.8018L48.3867 43.5537C47.0554 45.4172 45.427 47.0457 43.5635 48.377L44.8115 55.9756L44.4922 56.1426C43.0189 56.9148 41.4699 57.5779 39.8467 58.0781L39.5039 58.1836L35.0049 51.9238C33.8976 52.1053 32.7624 52.21 31.5996 52.21C30.4394 52.2099 29.3037 52.1143 28.1924 51.9258L23.6953 58.1855L23.3496 58.0771C21.7301 57.5679 20.183 56.9157 18.708 56.1426L18.3877 55.9756L19.6357 48.377C17.7721 47.0455 16.1428 45.4174 14.8115 43.5537L7.21484 44.8018L7.04688 44.4824C6.27466 43.0091 5.61253 41.4601 5.1123 39.8369L5.00586 39.4941L11.2646 34.9951C11.0832 33.888 10.9795 32.7526 10.9795 31.5898C10.9795 30.4301 11.0743 29.2946 11.2627 28.1836L5.00391 23.6855L5.11328 23.3398C5.62254 21.7205 6.27383 20.1732 7.04688 18.6982L7.21484 18.3779L14.8115 19.626C16.143 17.7622 17.772 16.1332 19.6357 14.8018L18.3877 7.20508L18.708 7.03711C20.1812 6.26497 21.7295 5.60273 23.3525 5.10254L23.6963 4.99609L23.9053 5.28809ZM44.2598 31.6104C44.2598 24.6265 38.5932 18.96 31.6094 18.96C24.6257 18.9602 18.96 24.6266 18.96 31.6104C18.9601 38.5939 24.6258 44.2595 31.6094 44.2598C38.5931 44.2598 44.2596 38.5941 44.2598 31.6104ZM45.2598 31.6104C45.2596 39.1464 39.1454 45.2598 31.6094 45.2598C24.0735 45.2595 17.9601 39.1462 17.96 31.6104C17.96 24.0744 24.0734 17.9602 31.6094 17.96C39.1455 17.96 45.2598 24.0742 45.2598 31.6104ZM11.9795 31.5898C11.9795 32.7974 12.0963 33.9786 12.3018 35.1328L12.3574 35.4424L6.17676 39.8828C6.60514 41.2017 7.14542 42.473 7.76855 43.6973L14.959 42.5166L15.2715 42.4658L15.4512 42.7256C16.8069 44.686 18.5035 46.3836 20.4639 47.7393L20.7246 47.9189L20.6729 48.2314L19.4922 55.4199C20.7147 56.0411 21.9858 56.5755 23.3066 57.0107L27.749 50.8301L28.0615 50.8887C29.2102 51.1028 30.3894 51.2099 31.5996 51.21C32.8072 51.21 33.9884 51.0931 35.1426 50.8877L35.4521 50.833L35.6357 51.0879L39.8926 57.0117C41.2115 56.5833 42.4827 56.0431 43.707 55.4199L42.5264 48.2314L42.4756 47.9189L42.7354 47.7393C44.6958 46.3835 46.3933 44.686 47.749 42.7256L47.9287 42.4658L48.2412 42.5166L55.4297 43.6973C56.0509 42.4745 56.5853 41.203 57.0205 39.8818L50.8398 35.4404L50.8984 35.1289C51.1126 33.9801 51.2197 32.8001 51.2197 31.5898V30.7363C51.1781 29.8315 51.0736 28.9417 50.918 28.0674L50.8623 27.7578L57.042 23.3164C56.6135 21.9976 56.0734 20.7262 55.4502 19.502L48.2607 20.6836L47.9482 20.7344L47.7686 20.4746C46.4129 18.5142 44.7162 16.8166 42.7559 15.4609L42.4951 15.2812L42.5469 14.9688L43.7266 7.7793C42.5041 7.15822 41.2329 6.62363 39.9121 6.18848L35.4707 12.3701L35.1582 12.3115C34.0095 12.0974 32.8303 11.9903 31.6201 11.9902C30.4125 11.9902 29.2314 12.1071 28.0771 12.3125L27.7676 12.3672L23.3057 6.16699C21.9873 6.5953 20.7161 7.13489 19.4922 7.75781L20.6729 14.9492L20.7246 15.2617L20.4639 15.4414C18.5037 16.797 16.8068 18.4939 15.4512 20.4541L15.2715 20.7148L14.959 20.6631L7.76855 19.4824C7.14747 20.7049 6.61291 21.9761 6.17773 23.2969L12.3594 27.7393L12.3018 28.0518C12.0876 29.2005 11.9795 30.3797 11.9795 31.5898Z" fill="black"/>
<path d="M36.8301 27.1096C36.8298 26.4084 36.2608 25.8401 35.5596 25.8401C34.8585 25.8403 34.2903 26.4086 34.29 27.1096C34.29 27.8109 34.8584 28.3799 35.5596 28.3801C36.261 28.3801 36.8301 27.811 36.8301 27.1096ZM37.8301 27.1096C37.8301 28.3633 36.8133 29.3801 35.5596 29.3801C34.3061 29.3799 33.29 28.3631 33.29 27.1096C33.2903 25.8563 34.3063 24.8403 35.5596 24.8401C36.8131 24.8401 37.8298 25.8561 37.8301 27.1096Z" fill="black"/>
<path d="M29.3501 31.6995C29.3498 30.9983 28.7808 30.4299 28.0796 30.4299C27.3786 30.4302 26.8103 30.9984 26.8101 31.6995C26.8101 32.4007 27.3784 32.9697 28.0796 32.97C28.781 32.97 29.3501 32.4009 29.3501 31.6995ZM30.3501 31.6995C30.3501 32.9532 29.3333 33.97 28.0796 33.97C26.8261 33.9697 25.8101 32.953 25.8101 31.6995C25.8103 30.4461 26.8263 29.4302 28.0796 29.4299C29.3331 29.4299 30.3498 30.446 30.3501 31.6995Z" fill="black"/>
<path d="M36.4902 36.4194C36.49 35.7182 35.921 35.1499 35.2197 35.1499C34.5187 35.1502 33.9504 35.7184 33.9502 36.4194C33.9502 37.1207 34.5185 37.6897 35.2197 37.6899C35.9211 37.6899 36.4902 37.1208 36.4902 36.4194ZM37.4902 36.4194C37.4902 37.6731 36.4734 38.6899 35.2197 38.6899C33.9663 38.6897 32.9502 37.673 32.9502 36.4194C32.9504 35.1661 33.9664 34.1502 35.2197 34.1499C36.4733 34.1499 37.49 35.166 37.4902 36.4194Z" fill="black"/>
</svg>
