<svg width="64" height="64" viewBox="0 0 64 64" fill="none" xmlns="http://www.w3.org/2000/svg">
<path d="M32.5 23C45.4787 23 56 19.1944 56 14.5C56 9.80558 45.4787 6 32.5 6C19.5213 6 9 9.80558 9 14.5C9 19.1944 19.5213 23 32.5 23Z" fill="#FFC000"/>
<path fill-rule="evenodd" clip-rule="evenodd" d="M11.1717 11.5714C10.0431 12.5366 9.5 13.528 9.5 14.5C9.5 15.472 10.0431 16.4634 11.1717 17.4286C12.2985 18.3922 13.9584 19.2826 16.0531 20.0402C20.2382 21.554 26.053 22.5 32.5 22.5C38.947 22.5 44.7618 21.554 48.9469 20.0402C51.0416 19.2826 52.7015 18.3922 53.8283 17.4286C54.9569 16.4634 55.5 15.472 55.5 14.5C55.5 13.528 54.9569 12.5366 53.8283 11.5714C52.7015 10.6078 51.0416 9.71743 48.9469 8.95978C44.7618 7.446 38.947 6.5 32.5 6.5C26.053 6.5 20.2382 7.446 16.0531 8.95978C13.9584 9.71743 12.2985 10.6078 11.1717 11.5714ZM8.5 14C8.5 13.898 8.53055 13.8031 8.583 13.724C8.81348 12.6541 9.51158 11.6753 10.5218 10.8114C11.7733 9.74116 13.5549 8.79995 15.7129 8.0194C20.0331 6.45679 25.9683 5.5 32.5 5.5C39.0317 5.5 44.9669 6.45679 49.2871 8.0194C51.4451 8.79995 53.2267 9.74116 54.4782 10.8114C55.4884 11.6753 56.1865 12.6542 56.417 13.724C56.4695 13.8031 56.5 13.898 56.5 14V14.5V26V39V50.6138C56.5 51.9757 55.7248 53.2055 54.4755 54.2593C53.2239 55.3152 51.4424 56.2437 49.2848 57.0138C44.9652 58.5555 39.0308 59.5 32.5 59.5C25.9691 59.5 20.0346 58.5529 15.715 57.0086C13.5573 56.2372 11.7759 55.3074 10.5243 54.2505C9.27511 53.1957 8.5 51.9653 8.5 50.6036V39V26V14.5V14ZM54.4782 18.1886C54.8683 17.855 55.2119 17.5042 55.5 17.1377V26C55.5 27.0518 54.945 28.1109 53.8176 29.1315C52.6902 30.1522 51.0308 31.0945 48.9379 31.8961C44.7554 33.4982 38.9438 34.5 32.5 34.5C26.0562 34.5 20.2446 33.4982 16.0621 31.8961C13.9692 31.0945 12.3098 30.1522 11.1824 29.1315C10.055 28.1109 9.5 27.0518 9.5 26V17.1377C9.78808 17.5042 10.1317 17.855 10.5218 18.1886C11.7733 19.2588 13.5549 20.2 15.7129 20.9806C20.0331 22.5432 25.9683 23.5 32.5 23.5C39.0317 23.5 44.9669 22.5432 49.2871 20.9806C51.4451 20.2 53.2267 19.2588 54.4782 18.1886ZM54.4887 29.8729C54.8753 29.5229 55.2151 29.1561 55.5 28.7741V39C55.5 39.8896 54.9709 40.8132 53.8397 41.7235C52.713 42.6302 51.0522 43.4689 48.9556 44.1827C44.7673 45.6088 38.9492 46.5 32.5 46.5C26.0506 46.5 20.2325 45.6112 16.0443 44.1864C13.9477 43.4731 12.287 42.6347 11.1604 41.7277C10.0295 40.8172 9.5 39.8924 9.5 39V28.7741C9.78492 29.1561 10.1247 29.5228 10.5113 29.8729C11.7623 31.0055 13.5446 32.0027 15.7044 32.83C20.0275 34.4859 25.9659 35.5 32.5 35.5C39.0341 35.5 44.9725 34.4859 49.2956 32.83C51.4554 32.0027 53.2377 31.0055 54.4887 29.8729ZM54.4666 42.5026C54.8605 42.1856 55.2083 41.8511 55.5 41.5001V50.6138C55.5 51.5667 54.9599 52.5424 53.8307 53.495C52.704 54.4455 51.0438 55.3242 48.9486 56.072C44.7627 57.566 38.9472 58.5 32.5 58.5C26.053 58.5 20.2375 57.5635 16.0516 56.067C13.9565 55.3179 12.2963 54.438 11.1694 53.4865C10.0402 52.5329 9.5 51.5565 9.5 50.6036V41.5036C9.79161 41.8548 10.1394 42.1896 10.5333 42.5067C11.7852 43.5146 13.5661 44.3996 15.7222 45.1331C20.0395 46.6018 25.9715 47.5 32.5 47.5C39.0287 47.5 44.9606 46.5993 49.2779 45.1294C51.434 44.3953 53.2148 43.51 54.4666 42.5026ZM14 25.5C14 26.3284 13.5523 27 13 27C12.4477 27 12 26.3284 12 25.5C12 24.6716 12.4477 24 13 24C13.5523 24 14 24.6716 14 25.5ZM13 40C13.5523 40 14 39.1046 14 38C14 36.8954 13.5523 36 13 36C12.4477 36 12 36.8954 12 38C12 39.1046 12.4477 40 13 40ZM14 50C14 51.1046 13.5523 52 13 52C12.4477 52 12 51.1046 12 50C12 48.8954 12.4477 48 13 48C13.5523 48 14 48.8954 14 50Z" fill="black"/>
</svg>
