<svg width="64" height="64" viewBox="0 0 64 64" fill="none" xmlns="http://www.w3.org/2000/svg">
<path d="M43.9464 22.6058V41.2386C43.9464 43.5937 38.5931 45.5026 31.9948 45.5026C25.3965 45.5026 20.0432 43.5937 20.0432 41.2386V22.6058" fill="#FFC000"/>
<path fill-rule="evenodd" clip-rule="evenodd" d="M20.0432 22.1058C20.3194 22.1058 20.5432 22.3296 20.5432 22.6058V41.2386C20.5432 41.6228 20.7602 42.0567 21.3051 42.5162C21.8476 42.9736 22.6623 43.4081 23.7127 43.7828C25.809 44.5306 28.7374 45.0026 31.9948 45.0026C35.2522 45.0026 38.1806 44.5306 40.277 43.7828C41.3273 43.4081 42.142 42.9736 42.6845 42.5162C43.2294 42.0567 43.4464 41.6228 43.4464 41.2386V22.6058C43.4464 22.3296 43.6703 22.1058 43.9464 22.1058C44.2225 22.1058 44.4464 22.3296 44.4464 22.6058V41.2386C44.4464 42.0319 43.9942 42.7199 43.3292 43.2806C42.6618 43.8434 41.7257 44.3277 40.6129 44.7247C38.383 45.5201 35.3357 46.0026 31.9948 46.0026C28.6539 46.0026 25.6066 45.5201 23.3767 44.7247C22.2639 44.3277 21.3279 43.8434 20.6605 43.2806C19.9954 42.7199 19.5432 42.0319 19.5432 41.2386V22.6058C19.5432 22.3296 19.7671 22.1058 20.0432 22.1058Z" fill="black"/>
<path d="M31.9948 27.015C38.5955 27.015 43.9464 25.1059 43.9464 22.751C43.9464 20.3961 38.5955 18.487 31.9948 18.487C25.3941 18.487 20.0432 20.3961 20.0432 22.751C20.0432 25.1059 25.3941 27.015 31.9948 27.015Z" fill="#FFC000"/>
<path fill-rule="evenodd" clip-rule="evenodd" d="M21.3048 21.4735C20.7601 21.9329 20.5432 22.3667 20.5432 22.751C20.5432 23.1353 20.7601 23.5691 21.3048 24.0285C21.8472 24.486 22.6616 24.9205 23.7118 25.2952C25.8078 26.043 28.7362 26.515 31.9948 26.515C35.2534 26.515 38.1819 26.043 40.2778 25.2952C41.328 24.9205 42.1425 24.486 42.6848 24.0285C43.2295 23.5691 43.4464 23.1353 43.4464 22.751C43.4464 22.3667 43.2295 21.9329 42.6848 21.4735C42.1425 21.016 41.328 20.5815 40.2778 20.2068C38.1819 19.4591 35.2534 18.987 31.9948 18.987C28.7362 18.987 25.8078 19.4591 23.7118 20.2068C22.6616 20.5815 21.8472 21.016 21.3048 21.4735ZM23.3758 19.265C25.6054 18.4695 28.6527 17.987 31.9948 17.987C35.3369 17.987 38.3842 18.4695 40.6139 19.265C41.7265 19.662 42.6623 20.1463 43.3296 20.7091C43.9944 21.2699 44.4464 21.9578 44.4464 22.751C44.4464 23.5442 43.9944 24.2321 43.3296 24.7929C42.6623 25.3557 41.7265 25.8401 40.6139 26.237C38.3842 27.0325 35.3369 27.515 31.9948 27.515C28.6527 27.515 25.6054 27.0325 23.3758 26.237C22.2631 25.8401 21.3273 25.3557 20.6601 24.7929C19.9952 24.2321 19.5432 23.5442 19.5432 22.751C19.5432 21.9578 19.9952 21.2699 20.6601 20.7091C21.3273 20.1463 22.2631 19.662 23.3758 19.265Z" fill="black"/>
<path fill-rule="evenodd" clip-rule="evenodd" d="M20.0432 28.4135C20.3194 28.4135 20.5432 28.6374 20.5432 28.9135C20.5432 29.2978 20.7602 29.7316 21.3051 30.1911C21.8476 30.6486 22.6623 31.0831 23.7127 31.4577C25.809 32.2055 28.7374 32.6775 31.9948 32.6775C35.2522 32.6775 38.1806 32.2055 40.277 31.4577C41.3273 31.0831 42.142 30.6486 42.6845 30.1911C43.2294 29.7316 43.4464 29.2978 43.4464 28.9135C43.4464 28.6374 43.6703 28.4135 43.9464 28.4135C44.2225 28.4135 44.4464 28.6374 44.4464 28.9135C44.4464 29.7069 43.9942 30.3948 43.3292 30.9556C42.6618 31.5184 41.7257 32.0027 40.6129 32.3996C38.383 33.195 35.3357 33.6775 31.9948 33.6775C28.6539 33.6775 25.6066 33.195 23.3767 32.3996C22.2639 32.0027 21.3279 31.5184 20.6605 30.9556C19.9954 30.3948 19.5432 29.7069 19.5432 28.9135C19.5432 28.6374 19.7671 28.4135 20.0432 28.4135Z" fill="black"/>
<path fill-rule="evenodd" clip-rule="evenodd" d="M20.0432 34.5761C20.3194 34.5761 20.5432 34.7999 20.5432 35.0761C20.5432 35.4603 20.7602 35.8941 21.3051 36.3536C21.8476 36.8111 22.6623 37.2456 23.7127 37.6203C25.809 38.3681 28.7374 38.8401 31.9948 38.8401C35.2522 38.8401 38.1806 38.3681 40.277 37.6203C41.3273 37.2456 42.142 36.8111 42.6845 36.3536C43.2294 35.8941 43.4464 35.4603 43.4464 35.0761C43.4464 34.7999 43.6703 34.5761 43.9464 34.5761C44.2225 34.5761 44.4464 34.7999 44.4464 35.0761C44.4464 35.8694 43.9942 36.5573 43.3292 37.1181C42.6618 37.6809 41.7257 38.1652 40.6129 38.5621C38.383 39.3576 35.3357 39.8401 31.9948 39.8401C28.6539 39.8401 25.6066 39.3576 23.3767 38.5621C22.2639 38.1652 21.3279 37.6809 20.6605 37.1181C19.9954 36.5573 19.5432 35.8694 19.5432 35.0761C19.5432 34.7999 19.7671 34.5761 20.0432 34.5761Z" fill="black"/>
<path d="M22.253 29.4426C22.5281 29.4426 22.751 28.9967 22.751 28.4467C22.751 27.8966 22.5281 27.4507 22.253 27.4507C21.978 27.4507 21.755 27.8966 21.755 28.4467C21.755 28.9967 21.978 29.4426 22.253 29.4426Z" fill="black"/>
<path d="M22.253 35.6986C22.5281 35.6986 22.751 35.2526 22.751 34.7026C22.751 34.1525 22.5281 33.7066 22.253 33.7066C21.978 33.7066 21.755 34.1525 21.755 34.7026C21.755 35.2526 21.978 35.6986 22.253 35.6986Z" fill="black"/>
<path d="M22.253 41.9545C22.5281 41.9545 22.751 41.5086 22.751 40.9585C22.751 40.4084 22.5281 39.9625 22.253 39.9625C21.978 39.9625 21.755 40.4084 21.755 40.9585C21.755 41.5086 21.978 41.9545 22.253 41.9545Z" fill="black"/>
<path fill-rule="evenodd" clip-rule="evenodd" d="M31.4948 13.1337V5H32.4948V13.1337H31.4948Z" fill="black"/>
<path fill-rule="evenodd" clip-rule="evenodd" d="M31.4948 59V50.8663H32.4948V59H31.4948Z" fill="black"/>
<path fill-rule="evenodd" clip-rule="evenodd" d="M41.1506 15.4937L45.29 8.49082L46.1509 8.99967L42.0114 16.0026L41.1506 15.4937Z" fill="black"/>
<path fill-rule="evenodd" clip-rule="evenodd" d="M17.8487 55.0011L21.9778 47.9878L22.8395 48.4952L18.7104 55.5084L17.8487 55.0011Z" fill="black"/>
<path fill-rule="evenodd" clip-rule="evenodd" d="M50.8663 31.4948H59V32.4948H50.8663V31.4948Z" fill="black"/>
<path fill-rule="evenodd" clip-rule="evenodd" d="M5 31.4948H13.1337V32.4948H5V31.4948Z" fill="black"/>
<path fill-rule="evenodd" clip-rule="evenodd" d="M48.1175 22.1926L55.1826 18.1465L55.6796 19.0143L48.6145 23.0604L48.1175 22.1926Z" fill="black"/>
<path fill-rule="evenodd" clip-rule="evenodd" d="M8.3206 44.9752L15.3754 40.9395L15.8719 41.8075L8.81715 45.8432L8.3206 44.9752Z" fill="black"/>
<path fill-rule="evenodd" clip-rule="evenodd" d="M21.8863 16.0672L17.7053 9.08511L18.5633 8.57137L22.7442 15.5535L21.8863 16.0672Z" fill="black"/>
<path fill-rule="evenodd" clip-rule="evenodd" d="M45.4261 55.4282L41.2555 48.446L42.114 47.9332L46.2846 54.9154L45.4261 55.4282Z" fill="black"/>
<path fill-rule="evenodd" clip-rule="evenodd" d="M15.4446 22.9444L8.41055 18.8464L8.91395 17.9824L15.948 22.0804L15.4446 22.9444Z" fill="black"/>
<path fill-rule="evenodd" clip-rule="evenodd" d="M55.0865 46.0075L48.0525 41.9199L48.555 41.0553L55.589 45.1429L55.0865 46.0075Z" fill="black"/>
</svg>
