<svg width="64" height="64" viewBox="0 0 64 64" fill="none" xmlns="http://www.w3.org/2000/svg">
<path d="M28.5441 9.55688V27.3375C28.5441 29.5849 23.4161 31.4102 17.0903 31.4102C10.7645 31.4102 5.62402 29.5849 5.62402 27.3375V9.55688" fill="#FFC000"/>
<path d="M17.0778 13.7662C23.4036 13.7662 28.5316 11.9428 28.5316 9.69351C28.5316 7.44424 23.4036 5.62085 17.0778 5.62085C10.7521 5.62085 5.62402 7.44424 5.62402 9.69351C5.62402 11.9428 10.7521 13.7662 17.0778 13.7662Z" fill="#FFC000"/>
<path fill-rule="evenodd" clip-rule="evenodd" d="M17.0781 5.12109C20.2825 5.12112 23.2054 5.58209 25.3447 6.34277C26.412 6.72229 27.3111 7.18595 27.9531 7.72559C28.4964 8.18229 28.8924 8.7297 29 9.35449C29.0275 9.41642 29.0439 9.48451 29.0439 9.55664V27.3369C29.0439 28.104 28.6052 28.7672 27.9658 29.3047C27.3238 29.8443 26.4239 30.3078 25.3564 30.6875C23.2171 31.4484 20.2942 31.9102 17.0898 31.9102C13.8855 31.9101 10.9596 31.4483 8.81738 30.6875C7.74865 30.3079 6.84818 29.8441 6.20508 29.3047C5.56464 28.7674 5.12402 28.1045 5.12402 27.3369V9.55664C5.12404 9.512 5.13061 9.46891 5.1416 9.42773C5.22954 8.77223 5.6377 8.20015 6.20215 7.72559C6.84419 7.18584 7.74407 6.72234 8.81152 6.34277C10.9509 5.58212 13.8738 5.12109 17.0781 5.12109ZM27.9658 23.4189C27.3238 23.9586 26.4239 24.4231 25.3564 24.8027C23.2171 25.5636 20.2941 26.0244 17.0898 26.0244C13.8861 26.0244 10.9607 25.5668 8.81836 24.8076C7.74937 24.4288 6.84749 23.9651 6.2041 23.4248C6.17632 23.4015 6.15103 23.3754 6.12402 23.3516V27.3369C6.12402 27.693 6.32672 28.1021 6.84766 28.5391C7.36599 28.9738 8.14572 29.3876 9.15234 29.7451C11.1616 30.4587 13.9688 30.9101 17.0898 30.9102C20.211 30.9102 23.0154 30.4586 25.0215 29.7451C26.0267 29.3876 26.8051 28.9737 27.3223 28.5391C27.8419 28.1023 28.0439 27.6935 28.0439 27.3369V23.3477C28.0176 23.3709 27.9929 23.3962 27.9658 23.4189ZM6.12402 21.4521L6.13379 21.5889C6.17968 21.9146 6.3921 22.2766 6.84766 22.6592C7.36578 23.0943 8.14563 23.5075 9.15234 23.8643C11.1615 24.5763 13.9685 25.0244 17.0898 25.0244C20.2109 25.0244 23.0154 24.5738 25.0215 23.8604C26.0266 23.5029 26.8051 23.0889 27.3223 22.6543C27.7771 22.272 27.9885 21.911 28.0342 21.5879L28.0439 21.4521V17.4746C28.0176 17.4978 27.9929 17.5231 27.9658 17.5459C27.3238 18.0855 26.4239 18.55 25.3564 18.9297C23.2171 19.6905 20.2941 20.1514 17.0898 20.1514C13.8855 20.1513 10.9596 19.6905 8.81738 18.9297C7.7487 18.5501 6.8482 18.0862 6.20508 17.5469C6.17709 17.5234 6.15123 17.4976 6.12402 17.4736V21.4521ZM27.9531 11.6621C27.3111 12.2017 26.4119 12.6654 25.3447 13.0449C23.2054 13.8056 20.2824 14.2666 17.0781 14.2666C13.8739 14.2666 10.9509 13.8055 8.81152 13.0449C7.74413 12.6654 6.8442 12.2018 6.20215 11.6621C6.1751 11.6394 6.15033 11.614 6.12402 11.5908V15.5791L6.13379 15.7148C6.17968 16.0375 6.39174 16.3978 6.84766 16.7803C7.366 17.215 8.14552 17.6297 9.15234 17.9873C11.1616 18.7009 13.9689 19.1513 17.0898 19.1514C20.2109 19.1514 23.0154 18.7008 25.0215 17.9873C26.0266 17.6298 26.8051 17.2158 27.3223 16.7812C27.7771 16.3989 27.9885 16.038 28.0342 15.7148L28.0439 15.5791V11.5791C28.0135 11.6062 27.9846 11.6356 27.9531 11.6621ZM17.0781 6.12109C13.9569 6.12109 11.1526 6.57188 9.14648 7.28516C8.14128 7.64259 7.36282 8.05649 6.8457 8.49121C6.32643 8.92782 6.12417 9.33635 6.12402 9.69336C6.12412 10.0505 6.3262 10.4598 6.8457 10.8965C7.36283 11.3312 8.14132 11.7451 9.14648 12.1025C11.1525 12.8158 13.957 13.2666 17.0781 13.2666C20.1992 13.2666 23.0038 12.8158 25.0098 12.1025C26.0146 11.7452 26.7925 11.3311 27.3096 10.8965C27.8291 10.4598 28.0312 10.0505 28.0312 9.69336C28.0311 9.33633 27.8289 8.92785 27.3096 8.49121C26.7925 8.05658 26.0147 7.64253 25.0098 7.28516C23.0038 6.57187 20.1993 6.12112 17.0781 6.12109Z" fill="black"/>
<path d="M35.5933 28.5791V58.3791H58.3761V34.4149L52.5119 28.5791H35.5933Z" fill="#FFC000"/>
<path d="M52.7183 28.0791L58.8765 34.207V58.8789H35.0933V28.0791H52.7183ZM36.0933 57.8789H57.8765V34.623L52.3062 29.0791H36.0933V57.8789Z" fill="black"/>
<path d="M47.6338 36.5847V37.5847H40.3223V36.5847H47.6338Z" fill="black"/>
<path d="M53.2363 43.302V44.302H40.3223V43.302H53.2363Z" fill="black"/>
<path d="M53.2363 49.7834V50.7834H40.3223V49.7834H53.2363Z" fill="black"/>
<path d="M22.438 43.8047C22.6077 44.0224 22.5688 44.337 22.3511 44.5068C22.1334 44.6765 21.8187 44.6375 21.6489 44.4199L17.5776 39.1992V52.5029H27.2583C27.5344 52.5029 27.7582 52.7269 27.7583 53.0029C27.7581 53.2789 27.5343 53.5029 27.2583 53.5029H16.5776V39.1748L12.52 44.4189C12.351 44.637 12.0371 44.6766 11.8188 44.5078C11.6006 44.3389 11.5602 44.025 11.729 43.8066L17.064 36.916L22.438 43.8047Z" fill="black"/>
<path d="M46.2744 23.1582L50.3447 17.9043C50.5139 17.6864 50.8287 17.6465 51.0469 17.8154C51.265 17.9844 51.3045 18.2993 51.1357 18.5176L46.1826 24.9121L45.7871 25.4209L40.4268 18.5176C40.2575 18.2995 40.2967 17.9858 40.5146 17.8164C40.7326 17.6475 41.0465 17.6866 41.2158 17.9043L45.2744 23.1299V9.82129H35.5938C35.3177 9.82129 35.0929 9.59732 35.0928 9.32129C35.0928 9.04515 35.3176 8.82129 35.5938 8.82129H46.2744V23.1582Z" fill="black"/>
</svg>
