<svg width="64" height="64" viewBox="0 0 64 64" fill="none" xmlns="http://www.w3.org/2000/svg">
<path d="M32 40.0859L38.4394 42.3847L41.3462 25.7693L32 40.0859Z" fill="#FFC000"/>
<path fill-rule="evenodd" clip-rule="evenodd" d="M41.5297 25.3041C41.7505 25.3912 41.8796 25.6216 41.8387 25.8554L38.9319 42.4708C38.9065 42.6159 38.8184 42.7425 38.691 42.8167C38.5637 42.8908 38.4101 42.905 38.2713 42.8555L31.8319 40.5568C31.6877 40.5053 31.575 40.3906 31.5261 40.2454C31.4773 40.1003 31.4976 39.9408 31.5813 39.8126L40.9275 25.4959C41.0572 25.2971 41.3088 25.217 41.5297 25.3041ZM32.7653 39.8282L38.0491 41.7144L40.4341 28.0809L32.7653 39.8282Z" fill="black"/>
<path fill-rule="evenodd" clip-rule="evenodd" d="M5.02202 29.2098C11.5216 21.7071 20.9513 16.9615 31.8449 16.9615C42.7397 16.9615 52.4868 21.8655 58.9874 29.5886L58.9899 29.5916C59.7764 30.5411 59.6409 31.954 58.6682 32.7204L40.9846 46.5754C40.1029 47.2641 38.8501 47.1741 38.0726 46.3728L38.0702 46.3702C36.5069 44.7358 34.2927 43.7145 31.8449 43.7145C29.4719 43.7145 27.3319 44.6703 25.7668 46.2136L25.766 46.2144C24.989 46.9772 23.7593 47.0583 22.8975 46.3655C22.8973 46.3653 22.8977 46.3656 22.8975 46.3655L5.32426 32.3254C5.32422 32.3254 5.32431 32.3255 5.32426 32.3254C4.37114 31.5643 4.21034 30.1485 5.02202 29.2098ZM5.77802 29.8644C5.34933 30.3603 5.42466 31.126 5.94819 31.5439L23.5225 45.5848L23.5238 45.5859C23.9812 45.9538 24.6416 45.9169 25.0655 45.5008C26.8085 43.7824 29.197 42.7145 31.8449 42.7145C34.5751 42.7145 37.0468 43.8543 38.7915 45.6776C39.2151 46.1131 39.8916 46.1599 40.3681 45.7881C40.368 45.7882 40.3682 45.788 40.3681 45.7881L58.0493 31.935C58.0491 31.9351 58.0495 31.9348 58.0493 31.935C58.5719 31.5226 58.6538 30.7551 58.221 30.231C51.9028 22.7254 42.4322 17.9615 31.8449 17.9615C21.2558 17.9615 12.0972 22.5699 5.77802 29.8644Z" fill="black"/>
<path fill-rule="evenodd" clip-rule="evenodd" d="M32 20.0769C32.2761 20.0769 32.5 20.3008 32.5 20.5769V24.7308C32.5 25.0069 32.2761 25.2308 32 25.2308C31.7239 25.2308 31.5 25.0069 31.5 24.7308V20.5769C31.5 20.3008 31.7239 20.0769 32 20.0769Z" fill="black"/>
<path fill-rule="evenodd" clip-rule="evenodd" d="M10.8774 27.4926C11.0727 27.2974 11.3892 27.2974 11.5845 27.4926L14.6999 30.608C14.8952 30.8033 14.8952 31.1199 14.6999 31.3151C14.5046 31.5104 14.1881 31.5104 13.9928 31.3151L10.8774 28.1997C10.6821 28.0045 10.6821 27.6879 10.8774 27.4926Z" fill="black"/>
<path fill-rule="evenodd" clip-rule="evenodd" d="M53.1691 27.5461C53.3348 27.767 53.29 28.0804 53.0691 28.2461L48.9153 31.3615C48.6943 31.5272 48.3809 31.4824 48.2153 31.2615C48.0496 31.0406 48.0943 30.7272 48.3153 30.5615L52.4691 27.4461C52.69 27.2804 53.0034 27.3252 53.1691 27.5461Z" fill="black"/>
</svg>
