<svg width="64" height="64" viewBox="0 0 64 64" fill="none" xmlns="http://www.w3.org/2000/svg">
<path fill-rule="evenodd" clip-rule="evenodd" d="M32.2362 21.2808L33.9171 21.1876L33.6439 20.9183L32.3097 19.603L38.7706 13.2336L42.9519 17.9977L42.206 24.0978L50.9991 26.0553L51.3773 25.1957L46.051 21.5604V18.6088C46.5133 18.5052 46.9335 18.267 47.2697 17.9459C47.5533 17.6663 47.7634 17.3245 47.8895 16.9517H50.8311L54.5185 22.2026L55.3905 21.8297L53.4154 13.2129H46.8284L41.8698 8.99773C41.9328 8.04491 41.5861 7.12316 40.9033 6.44997C40.2624 5.81821 39.422 5.47644 38.5185 5.47644C37.615 5.47644 36.7746 5.81821 36.1337 6.44997L26.6577 15.7917V16.3199" fill="#FFC000"/>
<path fill-rule="evenodd" clip-rule="evenodd" d="M30.6924 44.4799H49.4659C50.2012 44.4799 50.8106 45.0702 50.8106 45.8055L51.5355 49.1093C51.5355 49.8343 50.9366 50.435 50.1907 50.435H32.1106" fill="#FFC000"/>
<path d="M50.1905 50.9425H32.1104V49.9068H50.1905C50.6212 49.9068 50.9784 49.5754 51.0099 49.1507L50.2851 45.7952C50.2851 45.3498 49.9174 44.9873 49.4656 44.9873H30.6816V43.9517H49.4656C50.4742 43.9517 51.3041 44.7491 51.3356 45.733L52.0605 49.099C52.0605 50.1139 51.2201 50.9425 50.1905 50.9425Z" fill="black"/>
<path fill-rule="evenodd" clip-rule="evenodd" d="M39.3278 30.1254L35.9345 25.1335L33.1715 25.0195L32.6568 25.3924L31.7848 26.4073L31.27 26.9355L30.9233 27.6605L31.249 28.5926L31.3436 29.9493L37.3528 33.7295" fill="#FFC000"/>
<path fill-rule="evenodd" clip-rule="evenodd" d="M35.2619 34.1853L33.2974 42.3671H46.9336L43.6033 28.4684H41.3026H40.4832" fill="#FFC000"/>
<path d="M47.5957 42.885H32.6357L34.7474 34.0714L35.7664 34.3096L33.9594 41.8493H46.2615L43.1833 28.9862H40.4834V27.9506H44.0133L47.5957 42.885Z" fill="black"/>
<path d="M51.3147 26.6663L41.6391 24.5121L42.4165 18.1738L38.75 14L33.056 19.6133L35.1151 21.6433L32.2576 21.7986L32.205 20.7629L32.7093 20.7319L31.5642 19.603L38.792 12.4776L43.4985 17.8423L42.7737 23.7146L50.6738 25.4753L50.7054 25.4028L45.5156 21.8504V18.2255L45.9148 18.1323C46.2825 18.0495 46.6187 17.8631 46.8813 17.6041C47.1019 17.3867 47.27 17.1174 47.3751 16.817L47.4907 16.4649H51.0836L54.6765 21.5811L54.75 21.5501L52.9641 13.7514H46.6082L41.3029 9.2359L41.3239 8.97699C41.3764 8.1588 41.0823 7.39241 40.5044 6.82278C39.4329 5.7664 37.5524 5.7664 36.4808 6.82278L26.8787 16.2992L26.1328 15.5639L35.7664 6.08746C37.2372 4.63751 39.8006 4.63751 41.2714 6.08746C41.9962 6.80207 42.3955 7.76525 42.406 8.76985L47.0284 12.7054H53.836L56.0002 22.1404L54.3403 22.8654L50.5583 17.4902H48.2471C48.1 17.8009 47.9004 18.0909 47.6482 18.3395C47.3436 18.6398 46.9864 18.8677 46.5872 19.023V21.3222L52.0396 25.0506L51.3147 26.687V26.6663Z" fill="black"/>
<path d="M32.1102 50.9424H18.3164C18.1588 50.9424 18.0012 50.8699 17.9067 50.7456C17.8016 50.6214 17.7701 50.4557 17.8121 50.3003L20.0498 40.9585L9.19757 30.2704C7.61123 28.7065 7.61123 26.1484 9.19757 24.5845C9.76487 24.0253 10.4898 23.6421 11.2987 23.4971L20.7852 14.145C22.256 12.695 24.8194 12.695 26.2901 14.145C27.015 14.8596 27.4142 15.8227 27.4248 16.8273L32.0472 20.7629H38.4346C38.6762 20.7629 38.8968 20.9286 38.9494 21.1668L40.9244 29.7836C40.977 30.0218 40.8509 30.2704 40.6198 30.374L39.7478 30.7468C39.5167 30.8504 39.2435 30.7675 39.107 30.5707L35.5771 25.5477H33.2659C33.1188 25.8584 32.9192 26.1484 32.6565 26.397C32.3519 26.6973 31.9947 26.9252 31.5955 27.0805V29.3797L36.6907 32.8596C36.9008 33.0046 36.9743 33.2635 36.8693 33.4913L36.4911 34.3509C36.386 34.5788 36.1444 34.7031 35.8923 34.6513L27.0991 32.6939C26.8364 32.6317 26.6578 32.3935 26.6894 32.1242L27.4142 26.252L23.7478 22.0782L18.0538 27.6916L26.5108 36.0287H28.5909C28.8325 36.0287 29.0426 36.1944 29.1056 36.4223L30.9861 44.252L32.604 50.3107C32.646 50.466 32.604 50.6317 32.5095 50.756C32.4149 50.8803 32.2573 50.9528 32.0892 50.9528L32.1102 50.9424ZM18.9783 49.9067H31.4274L29.9776 44.4798L28.1917 37.0333H26.3112C26.1746 37.0333 26.038 36.9815 25.9435 36.878L16.9612 28.023C16.8666 27.9298 16.8036 27.7951 16.8036 27.6605C16.8036 27.5259 16.8561 27.3912 16.9612 27.298L23.4221 20.9286C23.5272 20.825 23.6743 20.794 23.8108 20.7733C23.9579 20.7733 24.0945 20.8458 24.189 20.9493L28.3703 25.7134C28.4648 25.8273 28.5173 25.9723 28.4963 26.1173L27.803 31.7514L35.7032 33.512L35.7347 33.4395L30.7655 30.0425C30.629 29.9493 30.5449 29.7836 30.5449 29.6179V26.6662C30.5449 26.428 30.713 26.2209 30.9441 26.1588C31.3118 26.0759 31.648 25.8895 31.9106 25.6306C32.1313 25.4131 32.2993 25.1438 32.4044 24.8435C32.4779 24.626 32.6775 24.4913 32.9087 24.4913H35.8502C36.0183 24.4913 36.1864 24.5742 36.281 24.7088L39.7268 29.6076L39.8003 29.5765L38.0144 21.7779H31.8476C31.7215 21.7779 31.5955 21.7364 31.5009 21.6536L26.5423 17.4384C26.4162 17.3348 26.3532 17.1795 26.3637 17.0138C26.4162 16.1956 26.1221 15.4395 25.5443 14.8596C24.4727 13.8032 22.5922 13.8032 21.5206 14.8596L11.9185 24.3463C11.8345 24.4292 11.7399 24.4706 11.6244 24.4913C10.973 24.5845 10.3847 24.8745 9.93296 25.3199C9.36566 25.8791 9.05049 26.6352 9.05049 27.4326C9.05049 28.2301 9.36566 28.9758 9.93296 29.5454L20.9848 40.4407C21.1109 40.565 21.1634 40.7514 21.1214 40.9275L18.9678 49.9067H18.9783Z" fill="black"/>
<path d="M30.0197 25.3717C29.7991 25.3613 29.631 25.3302 29.4734 25.2681C29.2738 25.1956 29.1268 25.1127 29.0007 25.0092C28.8221 24.8538 28.717 24.7295 28.633 24.6053C28.5069 24.3774 28.4439 24.2324 28.4124 24.0667C28.3914 23.9631 28.3809 23.8596 28.3809 23.7457C28.3809 22.855 29.1162 22.13 30.0197 22.13C30.1248 22.13 30.2298 22.1404 30.3349 22.1611C30.4925 22.1921 30.6501 22.2439 30.8182 22.3371C31.0178 22.4614 31.1438 22.565 31.2594 22.6789C31.417 22.8653 31.501 23.0103 31.5535 23.1553C31.6376 23.3935 31.6691 23.5696 31.6691 23.7353C31.6691 24.626 30.9337 25.3509 30.0302 25.3509L30.0197 25.3717ZM30.0197 22.9068C29.547 22.9068 29.1688 23.29 29.1688 23.7457C29.1688 23.8078 29.1688 23.8596 29.1898 23.9114C29.2003 23.9839 29.2318 24.0667 29.2843 24.1496C29.3474 24.2531 29.3999 24.3153 29.4629 24.3671C29.568 24.4499 29.6415 24.4913 29.7151 24.5224C29.8201 24.5638 29.9147 24.5742 29.9987 24.5742C30.4925 24.5742 30.8707 24.2014 30.8707 23.7353C30.8707 23.6524 30.8497 23.5592 30.8182 23.466C30.7761 23.3521 30.7341 23.2796 30.6816 23.2175C30.5975 23.1139 30.5345 23.0621 30.461 23.0207C30.3349 22.9585 30.2614 22.9275 30.1773 22.9068C30.1248 22.8964 30.0618 22.886 30.0092 22.886L30.0197 22.9068Z" fill="black"/>
<path d="M23.2648 19.1059C22.2247 19.1059 21.3843 18.2774 21.3843 17.252C21.3843 16.2267 22.2247 15.3982 23.2648 15.3982C24.3048 15.3982 25.1453 16.2267 25.1453 17.252C25.1453 18.2774 24.3048 19.1059 23.2648 19.1059ZM23.2648 16.1749C22.666 16.1749 22.1722 16.6617 22.1722 17.252C22.1722 17.8424 22.666 18.3291 23.2648 18.3291C23.8636 18.3291 24.3574 17.8424 24.3574 17.252C24.3574 16.6617 23.8636 16.1749 23.2648 16.1749Z" fill="black"/>
<path d="M12.4545 29.8873C11.1938 29.8873 10.1748 28.8827 10.1748 27.6399C10.1748 26.3971 11.1938 25.3925 12.4545 25.3925C13.7152 25.3925 14.7342 26.3971 14.7342 27.6399C14.7342 28.8827 13.7152 29.8873 12.4545 29.8873ZM12.4545 26.1692C11.6351 26.1692 10.9627 26.832 10.9627 27.6399C10.9627 28.4477 11.6351 29.1105 12.4545 29.1105C13.274 29.1105 13.9463 28.4477 13.9463 27.6399C13.9463 26.832 13.274 26.1692 12.4545 26.1692Z" fill="black"/>
<path d="M24.5568 42.16C23.5167 42.16 22.6763 41.3314 22.6763 40.3061C22.6763 39.2808 23.5167 38.4523 24.5568 38.4523C25.5968 38.4523 26.4373 39.2808 26.4373 40.3061C26.4373 41.3314 25.5968 42.16 24.5568 42.16ZM24.5568 39.229C23.958 39.229 23.4642 39.7158 23.4642 40.3061C23.4642 40.8965 23.958 41.3832 24.5568 41.3832C25.1556 41.3832 25.6493 40.8965 25.6493 40.3061C25.6493 39.7158 25.1556 39.229 24.5568 39.229Z" fill="black"/>
<path d="M35.2096 58.9999H14.4926C13.463 58.9999 12.6226 58.1714 12.6226 57.1565V57.0425L13.3474 53.7905C13.379 52.8066 14.2089 52.0092 15.2174 52.0092H34.4847C35.4932 52.0092 36.3232 52.8066 36.3547 53.7905L37.0796 57.1565C37.0796 58.1714 36.2391 58.9999 35.2096 58.9999ZM13.6731 57.2082C13.6941 57.6329 14.0513 57.9643 14.4926 57.9643H35.2096C35.6403 57.9643 35.9975 57.6329 36.029 57.2082L35.3041 53.863C35.3041 53.4177 34.9364 53.0552 34.4847 53.0552H15.2174C14.7657 53.0552 14.398 53.4177 14.398 53.863V53.9769L13.6731 57.2186V57.2082Z" fill="black"/>
</svg>
