<svg width="64" height="64" viewBox="0 0 64 64" fill="none" xmlns="http://www.w3.org/2000/svg">
<path fill-rule="evenodd" clip-rule="evenodd" d="M39.11 14.71C39.11 9.34731 43.4573 5 48.82 5C54.1827 5 58.53 9.34731 58.53 14.71C58.53 20.0727 54.1827 24.42 48.82 24.42C43.4573 24.42 39.11 20.0727 39.11 14.71ZM48.82 6C44.0096 6 40.11 9.8996 40.11 14.71C40.11 19.5204 44.0096 23.42 48.82 23.42C53.6304 23.42 57.53 19.5204 57.53 14.71C57.53 12.4807 56.6925 10.447 55.3149 8.90643L51.2757 12.7713L50.5843 12.0487L54.6067 8.20004C53.0682 6.83143 51.0412 6 48.82 6Z" fill="black"/>
<path fill-rule="evenodd" clip-rule="evenodd" d="M5 48.82C5 43.4573 9.34731 39.11 14.71 39.11C20.0727 39.11 24.42 43.4573 24.42 48.82C24.42 54.1827 20.0727 58.53 14.71 58.53C9.34731 58.53 5 54.1827 5 48.82ZM14.71 40.11C9.8996 40.11 6 44.0096 6 48.82C6 51.2997 7.03623 53.5374 8.69929 55.1236L12.7365 51.0865L13.4436 51.7936L9.46375 55.7734C10.9229 56.876 12.7401 57.53 14.71 57.53C19.5204 57.53 23.42 53.6304 23.42 48.82C23.42 44.0096 19.5204 40.11 14.71 40.11Z" fill="black"/>
<path fill-rule="evenodd" clip-rule="evenodd" d="M48.82 39.11C43.4573 39.11 39.11 43.4573 39.11 48.82C39.11 54.1827 43.4573 58.53 48.82 58.53C54.1827 58.53 58.53 54.1827 58.53 48.82C58.53 43.4573 54.1827 39.11 48.82 39.11ZM40.11 48.82C40.11 44.0096 44.0096 40.11 48.82 40.11C53.6304 40.11 57.53 44.0096 57.53 48.82C57.53 51.06 56.6844 53.1025 55.295 54.6457L51.3361 50.8491L50.6439 51.5709L54.5844 55.3498C53.0486 56.7066 51.0304 57.53 48.82 57.53C44.0096 57.53 40.11 53.6304 40.11 48.82Z" fill="black"/>
<path fill-rule="evenodd" clip-rule="evenodd" d="M5 14.71C5 9.34731 9.34731 5 14.71 5C20.0727 5 24.42 9.34731 24.42 14.71C24.42 20.0727 20.0727 24.42 14.71 24.42C9.34731 24.42 5 20.0727 5 14.71ZM8.62803 8.47512C7.00668 10.0569 6 12.2659 6 14.71C6 19.5204 9.8996 23.42 14.71 23.42C19.5204 23.42 23.42 19.5204 23.42 14.71C23.42 9.8996 19.5204 6 14.71 6C12.7042 6 10.8568 6.67799 9.38441 7.81729L13.3936 11.8264L12.6865 12.5335L8.62803 8.47512Z" fill="black"/>
<path d="M51.45 46.0201L44.67 39.2401C38.19 32.9401 42.59 26.8101 44.61 24.6101L51.45 17.7701C52.91 16.3101 52.94 13.9701 51.55 12.4601C50.04 11.0701 47.7 11.1001 46.24 12.5601L39.4 19.4001C37.2 21.4101 31.07 25.8201 24.77 19.3401L17.99 12.5601C16.49 11.0601 14.06 11.0601 12.56 12.5601C11.06 14.0601 11.06 16.4901 12.56 17.9901L19.82 25.2501C25.56 31.3701 21.38 37.2301 19.42 39.3701L12.55 46.2401C11.09 47.7001 11.06 50.0401 12.45 51.5501C13.96 52.9401 16.29 52.9101 17.76 51.4501L24.63 44.5801C26.77 42.6201 32.63 38.4401 38.75 44.1801L46.01 51.4401C47.51 52.9401 49.94 52.9401 51.44 51.4401C52.94 49.9401 52.94 47.5101 51.44 46.0101L51.45 46.0201Z" fill="#FFC000"/>
<path fill-rule="evenodd" clip-rule="evenodd" d="M12.2064 12.2065C13.9017 10.5112 16.6483 10.5112 18.3435 12.2065L25.1285 18.9915C28.1623 22.1119 31.097 22.5721 33.5199 22.0644C35.9793 21.5491 37.9776 20.0208 39.0544 19.0385L45.8864 12.2065C47.5384 10.5545 50.1839 10.5229 51.8886 12.0922L51.9038 12.1062L51.9178 12.1214C53.4871 13.8262 53.4555 16.4716 51.8035 18.1236L44.9711 24.956C43.9846 26.032 42.456 28.0304 41.9419 30.4899C41.4354 32.9127 41.8979 35.8476 45.0185 38.8816L45.0235 38.8865L51.7935 45.6565C51.7968 45.6598 51.8002 45.6632 51.8035 45.6665C53.4888 47.3626 53.4854 50.1017 51.7935 51.7936C50.0983 53.4889 47.3517 53.4889 45.6564 51.7936L38.4021 44.5393C35.4675 41.79 32.6455 41.4444 30.3092 41.9799C27.9403 42.5229 26.0207 43.9858 24.9757 44.9414L18.1135 51.8036L18.1123 51.8048C16.4513 53.4546 13.8168 53.4878 12.1113 51.9179L12.0961 51.9039L12.0821 51.8887C10.5128 50.1839 10.5444 47.5385 12.1964 45.8865L19.0586 39.0243C20.0143 37.9793 21.4771 36.0597 22.0201 33.6908C22.5557 31.3545 22.21 28.5325 19.4607 25.5979L12.2064 18.3436C10.5111 16.6483 10.5111 13.9018 12.2064 12.2065ZM51.0864 46.3636C51.0864 46.3636 51.0865 46.3637 51.0864 46.3636L44.3214 39.5986C44.3205 39.5977 44.3197 39.5969 44.3188 39.596C40.9618 36.3308 40.3847 33.0517 40.963 30.2852C41.5326 27.5607 43.2079 25.3978 44.2417 24.2719L44.2489 24.264L51.0964 17.4165C52.3595 16.1534 52.3926 14.1297 51.1961 12.814C49.8804 11.6174 47.8566 11.6505 46.5935 12.9136L39.7455 19.7616L39.7372 19.7692C38.612 20.7972 36.4493 22.4723 33.725 23.0432C30.9586 23.6228 27.6794 23.0485 24.414 19.6912L17.6364 12.9136C16.3317 11.6089 14.2183 11.6089 12.9135 12.9136C11.6088 14.2183 11.6088 16.3318 12.9135 17.6365L20.1792 24.9022L20.1847 24.908C23.1704 28.0914 23.6039 31.2572 22.9948 33.9143C22.3942 36.5343 20.7932 38.611 19.7887 39.7078L19.7813 39.7159L12.9035 46.5936C11.6404 47.8567 11.6073 49.8805 12.8039 51.1962C14.1186 52.3919 16.1331 52.3607 17.4071 51.0958C17.407 51.0959 17.4073 51.0956 17.4071 51.0958L24.2842 44.2188L24.2923 44.2113C25.389 43.2068 27.4657 41.6058 30.0857 41.0052C32.7429 40.3961 35.9086 40.8297 39.092 43.8154L39.0979 43.8208L46.3635 51.0865C47.6683 52.3912 49.7817 52.3912 51.0864 51.0865C52.3911 49.7818 52.391 47.6684 51.0864 46.3636Z" fill="black"/>
<path fill-rule="evenodd" clip-rule="evenodd" d="M32.0101 28.39C30.0109 28.39 28.3901 30.0107 28.3901 32.01C28.3901 34.0093 30.0109 35.63 32.0101 35.63C34.0094 35.63 35.6301 34.0093 35.6301 32.01C35.6301 30.0107 34.0094 28.39 32.0101 28.39ZM27.3901 32.01C27.3901 29.4585 29.4586 27.39 32.0101 27.39C34.5617 27.39 36.6301 29.4585 36.6301 32.01C36.6301 34.5616 34.5617 36.63 32.0101 36.63C29.4586 36.63 27.3901 34.5616 27.3901 32.01Z" fill="black"/>
</svg>
