<svg width="64" height="64" viewBox="0 0 64 64" fill="none" xmlns="http://www.w3.org/2000/svg">
<path d="M56.5698 21.79C56.5698 20.99 56.2198 20.64 55.4198 20.64C53.5898 20.64 51.7598 20.67 49.9298 20.64C48.0898 20.6 46.5398 19.91 45.4298 18.39C44.8098 17.53 44.0598 16.81 43.1798 16.23C41.5798 15.17 39.8198 14.5 37.9698 14.03C35.7998 13.48 33.5998 13.23 31.3798 13.21C31.3798 13.21 31.3298 13.21 31.3098 13.21C31.2898 13.21 31.2598 13.21 31.2398 13.21C29.0198 13.23 26.8198 13.48 24.6498 14.04C22.7998 14.51 21.0398 15.18 19.4398 16.24C18.5598 16.82 17.8098 17.54 17.1898 18.4C16.0898 19.92 14.5298 20.61 12.6898 20.65C10.8598 20.69 9.0298 20.65 7.1998 20.65C6.3998 20.65 6.0498 21 6.0498 21.8C6.0498 23.17 6.0498 24.53 6.0498 25.9C6.0498 26.62 6.3398 26.94 7.0498 27.04C7.4198 27.1 7.7898 27.17 8.1498 27.23C11.0898 27.8 16.3398 29.11 16.9398 29.27C19.6798 29.99 22.7898 30.87 25.6298 31.85C25.9098 31.95 26.1998 32.05 26.4798 32.15C27.6498 32.58 28.8498 32.81 30.0898 32.88C30.4698 32.9 30.8498 32.91 31.2198 32.92C31.2198 32.92 31.2698 32.92 31.2898 32.92C31.3098 32.92 31.3398 32.92 31.3598 32.92C31.7398 32.91 32.1198 32.89 32.4898 32.87C33.7298 32.81 34.9298 32.58 36.0998 32.14C36.3798 32.04 36.6698 31.94 36.9498 31.84C39.7998 30.86 42.8998 29.97 45.6398 29.26C46.2398 29.11 51.4898 27.79 54.4298 27.22C54.7998 27.15 55.1598 27.08 55.5298 27.03C56.2398 26.92 56.5298 26.61 56.5298 25.89C56.5298 24.52 56.5298 23.16 56.5298 21.79H56.5698Z" fill="#FFC000"/>
<path d="M38.62 33.4L44.92 40.23L42.25 42.64L42.92 43.38L46.33 40.29L39.36 32.72L38.62 33.4Z" fill="black"/>
<path d="M22 32.72L15.03 40.29L18.43 43.38L19.11 42.64L16.44 40.23L22.74 33.4L22 32.72Z" fill="black"/>
<path d="M59.18 10.71V9.71H45.25V10.71H51.71V16.26H49.66V20.12C48.03 20.02 46.74 19.34 45.84 18.09C45.17 17.17 44.4 16.43 43.46 15.81C41.97 14.82 40.22 14.08 38.1 13.55C37.53 13.41 36.95 13.29 36.36 13.18V9H26.26V13.17C25.67 13.28 25.09 13.4 24.52 13.54C22.4 14.08 20.64 14.82 19.16 15.8C18.24 16.41 17.44 17.18 16.78 18.08C15.98 19.18 14.88 19.84 13.5 20.05V16.25H11.45V10.71H17.91V9.71H4V10.71H10.46V16.26H8.41V20.15H7.2C6.12 20.15 5.55 20.72 5.55 21.79V25.89C5.55 26.85 6.02 27.38 6.98 27.52C7.27 27.56 7.56 27.62 7.85 27.67L8.06 27.71C10.87 28.25 15.86 29.5 16.82 29.74C20.11 30.6 23.03 31.47 25.47 32.31L25.68 32.38C25.89 32.46 26.11 32.53 26.32 32.61C26.78 32.78 27.26 32.92 27.74 33.03V37.06H30.55V38.98H22.79V55.98H39.79V38.98H31.55V37.06H34.87V33.03C35.35 32.92 35.83 32.78 36.29 32.61C36.5 32.53 36.71 32.46 36.92 32.38L37.13 32.31C39.58 31.47 42.49 30.6 45.78 29.74C46.75 29.5 51.73 28.25 54.54 27.71L54.76 27.67C55.05 27.62 55.34 27.56 55.63 27.52C56.59 27.38 57.06 26.84 57.06 25.88V21.78C57.06 20.7 56.49 20.13 55.41 20.13H54.75V16.24H52.7V10.71H59.18ZM38.8 54.99H23.8V39.99H38.8V54.99ZM27.26 10H35.36V13.01C34.22 12.85 33.06 12.74 31.88 12.72H30.74C29.55 12.76 28.39 12.86 27.26 13.02V10ZM12.51 17.26V20.14C11.48 20.16 10.45 20.16 9.42 20.15V17.26H12.51ZM33.88 36.07H28.75V33.23C29.19 33.3 29.63 33.35 30.08 33.37C30.3 33.38 30.52 33.39 30.74 33.4L31.38 33.42H31.88V33.4C32.1 33.4 32.32 33.38 32.54 33.37C33 33.35 33.44 33.29 33.87 33.23V36.07H33.88ZM56.07 21.79V25.89C56.07 26.35 55.97 26.47 55.49 26.54C55.19 26.58 54.89 26.64 54.59 26.7L54.37 26.74C51.53 27.29 46.52 28.54 45.54 28.78C42.22 29.65 39.29 30.52 36.81 31.38L36.6 31.46C36.38 31.54 36.17 31.61 35.95 31.69C34.86 32.09 33.73 32.32 32.49 32.39C32.12 32.41 31.74 32.42 31.37 32.43H31.25C30.88 32.43 30.5 32.41 30.13 32.39C28.89 32.33 27.76 32.1 26.67 31.69C26.45 31.61 26.23 31.53 26.02 31.46L25.81 31.39C23.33 30.54 20.4 29.66 17.07 28.79C16.1 28.55 11.09 27.3 8.24 26.75L8.03 26.71C7.73 26.65 7.43 26.6 7.12 26.55C6.65 26.48 6.54 26.36 6.54 25.9V21.8C6.54 21.27 6.66 21.15 7.19 21.15H8.85C10.13 21.16 11.41 21.17 12.69 21.15C14.78 21.1 16.43 20.27 17.58 18.69C18.17 17.87 18.87 17.21 19.7 16.65C21.09 15.73 22.74 15.03 24.75 14.52C26.79 14 28.97 13.73 31.23 13.72H31.36C33.61 13.74 35.79 14.01 37.84 14.52C39.85 15.03 41.5 15.73 42.89 16.65C43.72 17.2 44.42 17.87 45.01 18.69C46.16 20.27 47.8 21.1 49.9 21.15C51.18 21.18 52.45 21.17 53.74 21.17H55.4C55.93 21.17 56.05 21.29 56.05 21.81L56.07 21.79ZM53.76 20.15C52.73 20.15 51.7 20.15 50.67 20.14V17.26H53.76V20.15Z" fill="black"/>
<path d="M36.5698 45.72H33.0698V42.22H29.5298V45.72H26.0298V49.25H29.5298V52.75H33.0698V49.25H36.5698V45.72Z" fill="#FFC000"/>
<path d="M33.57 53.25H29.04V49.75H25.54V45.22H29.04V41.72H33.57V45.22H37.07V49.75H33.57V53.25ZM30.03 52.25H32.56V48.75H36.06V46.22H32.56V42.72H30.03V46.22H26.53V48.75H30.03V52.25Z" fill="black"/>
</svg>
