<svg width="64" height="64" viewBox="0 0 64 64" fill="none" xmlns="http://www.w3.org/2000/svg">
<path d="M32 12C34.2091 12 36 10.2091 36 8C36 5.79086 34.2091 4 32 4C29.7909 4 28 5.79086 28 8C28 10.2091 29.7909 12 32 12Z" fill="white"/>
<path d="M11.5 24C13.9853 24 16 22.2091 16 20C16 17.7909 13.9853 16 11.5 16C9.01472 16 7 17.7909 7 20C7 22.2091 9.01472 24 11.5 24Z" fill="white"/>
<path d="M11.5 48C13.9853 48 16 45.9853 16 43.5C16 41.0147 13.9853 39 11.5 39C9.01472 39 7 41.0147 7 43.5C7 45.9853 9.01472 48 11.5 48Z" fill="white"/>
<path d="M32 60C34.2091 60 36 58.2091 36 56C36 53.7909 34.2091 52 32 52C29.7909 52 28 53.7909 28 56C28 58.2091 29.7909 60 32 60Z" fill="white"/>
<path d="M53 24C55.2091 24 57 22.2091 57 20C57 17.7909 55.2091 16 53 16C50.7909 16 49 17.7909 49 20C49 22.2091 50.7909 24 53 24Z" fill="white"/>
<path d="M53 48C55.2091 48 57 45.9853 57 43.5C57 41.0147 55.2091 39 53 39C50.7909 39 49 41.0147 49 43.5C49 45.9853 50.7909 48 53 48Z" fill="white"/>
<path d="M35.1859 18C31.7869 18 29.2985 19.8779 28.1322 22.0874C27.783 22.7331 26.9535 22.9879 26.2737 22.6621C24.8642 21.9927 23.1679 22.0874 21.8395 22.8398C20.5173 23.5921 19.5257 24.9605 19.5257 27.1879C19.5257 27.8276 19.033 28.3667 18.3719 28.4733C15.8523 28.8762 14 31.3168 14 33.7515C14 36.6779 16.3699 39 20.4487 39H43.0128C46.337 39 49 36.4705 49 33.3131C49 30.5348 46.9232 28.2364 44.1791 27.721C43.4743 27.5966 42.9879 26.9805 43.0565 26.2993C43.4931 22.2237 40.1066 18 35.1859 18Z" fill="#FFC000"/>
<path fill-rule="evenodd" clip-rule="evenodd" d="M32 4.5C30.067 4.5 28.5 6.067 28.5 8C28.5 9.933 30.067 11.5 32 11.5C33.933 11.5 35.5 9.933 35.5 8C35.5 6.067 33.933 4.5 32 4.5ZM27.5 8C27.5 5.51472 29.5147 3.5 32 3.5C34.4853 3.5 36.5 5.51472 36.5 8C36.5 8.48847 36.4222 8.95876 36.2782 9.39915L49.2245 17.5505C50.0269 16.3162 51.4181 15.5 53 15.5C55.4853 15.5 57.5 17.5147 57.5 20C57.5 21.9593 56.2478 23.6262 54.5 24.2439V38.7822C56.2714 39.4749 57.5 41.3593 57.5 43.5C57.5 46.2044 55.539 48.5 53 48.5C51.4059 48.5 50.0397 47.5951 49.2435 46.2523L36.2664 54.4231L36.1247 54.1981C36.3661 54.7498 36.5 55.3593 36.5 56C36.5 58.4853 34.4853 60.5 32 60.5C29.5147 60.5 27.5 58.4853 27.5 56C27.5 55.2773 27.6704 54.5943 27.9732 53.9891L15.3014 46.7481C14.3844 47.8204 13.0215 48.5 11.5 48.5C8.73858 48.5 6.5 46.2614 6.5 43.5C6.5 41.4497 7.7341 39.6876 9.5 38.916V24.124C7.75388 23.4373 6.5 21.8765 6.5 20C6.5 17.461 8.79557 15.5 11.5 15.5C13.0593 15.5 14.4827 16.1519 15.4085 17.1907L27.9732 10.0109C27.6704 9.4057 27.5 8.72275 27.5 8ZM28.5183 10.8511L15.9891 18.0107C16.3153 18.6063 16.5 19.2799 16.5 20C16.5 20.5281 16.4007 21.0312 16.219 21.4969L20.0681 23.7347C20.4867 23.1767 21.0089 22.7371 21.5922 22.4052L21.5931 22.4047C23.0576 21.5753 24.9259 21.4684 26.4882 22.2104L26.4898 22.2112C26.9407 22.4273 27.4747 22.2495 27.6914 21.8515C28.3857 20.5373 29.515 19.3379 31 18.5327V12.3885C30.0085 12.1635 29.1414 11.6112 28.5183 10.8511ZM32 12.5V18.0732C32.9521 17.7095 34.0193 17.5 35.1859 17.5C40.2201 17.5 43.7654 21.6716 43.588 25.8911C44.4158 25.4583 45.3512 24.9446 46.3182 24.4135L46.4179 24.3587C47.4224 23.8071 48.4568 23.2399 49.4258 22.7344C48.8451 21.9765 48.5 21.0285 48.5 20C48.5 19.3593 48.6339 18.7498 48.8753 18.1981L48.7336 18.4231L35.8586 10.3167C35.0715 11.6249 33.638 12.5 32 12.5ZM50.1519 23.4842C49.121 24.0162 47.999 24.6313 46.8993 25.2353L46.7928 25.2937C45.7117 25.8875 44.6546 26.4681 43.7432 26.9372C43.8677 27.0823 44.0471 27.19 44.266 27.2286L44.2714 27.2296L44.2714 27.2296C47.2296 27.7852 49.5 30.2723 49.5 33.3131C49.5 35.6446 48.1761 37.6451 46.2173 38.7007L49.2698 40.7039C50.0695 39.3852 51.4233 38.5 53 38.5C53.1694 38.5 53.3362 38.5102 53.5 38.5301V24.4725C53.3358 24.4907 53.169 24.5 53 24.5C51.9194 24.5 50.9277 24.1191 50.1519 23.4842ZM48.8329 41.6133L45.1126 39.1719C44.4537 39.3849 43.7473 39.5 43.0128 39.5H32V51.5C33.5819 51.5 34.9731 52.3162 35.7755 53.5505L48.8159 45.3399C48.6116 44.7669 48.5 44.1451 48.5 43.5C48.5 42.8373 48.6178 42.1991 48.8329 41.6133ZM31 51.6115V39.5H20.4487C20.0021 39.5 19.5729 39.4733 19.1623 39.4217L15.8899 41.1046C16.2789 41.8159 16.5 42.6321 16.5 43.5C16.5 44.3794 16.273 45.2058 15.8743 45.9237L28.5183 53.1489C29.1414 52.3888 30.0085 51.8365 31 51.6115ZM15.3197 40.2734L17.6268 39.0868C16.7479 38.8045 15.9896 38.3852 15.3691 37.8525C14.1538 36.8092 13.5 35.3574 13.5 33.7515C13.5 31.0956 15.5073 28.425 18.2929 27.9796C18.7366 27.9077 19.0257 27.5573 19.0257 27.1879C19.0257 26.1722 19.2194 25.3117 19.5547 24.5929L15.7476 22.3795C14.8552 23.6651 13.2647 24.5 11.5 24.5C11.1589 24.5 10.8243 24.4688 10.5 24.4092V38.6C10.8231 38.5344 11.1575 38.5 11.5 38.5C13.0317 38.5 14.4025 39.1887 15.3197 40.2734ZM19.2047 38.4188L19.1463 38.3054L18.9885 38.3865C17.7431 38.1832 16.7489 37.719 16.0205 37.0938C15.0311 36.2444 14.5 35.0719 14.5 33.7515C14.5 31.538 16.1972 29.3274 18.4508 28.9671L18.4515 28.967C19.3296 28.8253 20.0257 28.0978 20.0257 27.1879C20.0257 25.1384 20.9224 23.937 22.0866 23.2745C23.2786 22.5997 24.8025 22.517 26.0588 23.1135C26.9665 23.5478 28.0897 23.217 28.572 22.3253L28.572 22.3253L28.5744 22.3208C29.66 20.264 31.9847 18.5 35.1859 18.5C39.8095 18.5 42.9642 22.4661 42.5593 26.246L42.559 26.2492C42.4624 27.2082 43.1468 28.045 44.0892 28.2129C46.618 28.6889 48.5 30.7982 48.5 33.3131C48.5 36.1704 46.0854 38.5 43.0128 38.5H20.4487C20.0107 38.5 19.5959 38.472 19.2047 38.4188ZM43.5975 26.6897L43.6871 26.8638C43.65 26.8093 43.62 26.7508 43.5975 26.6897ZM11.5 16.5C9.23387 16.5 7.5 18.1207 7.5 20C7.5 21.8793 9.23387 23.5 11.5 23.5C13.7661 23.5 15.5 21.8793 15.5 20C15.5 18.1207 13.7661 16.5 11.5 16.5ZM53 16.5C51.067 16.5 49.5 18.067 49.5 20C49.5 21.933 51.067 23.5 53 23.5C54.933 23.5 56.5 21.933 56.5 20C56.5 18.067 54.933 16.5 53 16.5ZM11.5 39.5C9.29086 39.5 7.5 41.2909 7.5 43.5C7.5 45.7091 9.29086 47.5 11.5 47.5C13.7091 47.5 15.5 45.7091 15.5 43.5C15.5 41.2909 13.7091 39.5 11.5 39.5ZM53 39.5C51.1207 39.5 49.5 41.2339 49.5 43.5C49.5 45.7661 51.1207 47.5 53 47.5C54.8793 47.5 56.5 45.7661 56.5 43.5C56.5 41.2339 54.8793 39.5 53 39.5ZM32 52.5C30.067 52.5 28.5 54.067 28.5 56C28.5 57.933 30.067 59.5 32 59.5C33.933 59.5 35.5 57.933 35.5 56C35.5 54.067 33.933 52.5 32 52.5Z" fill="black"/>
</svg>
