<svg width="64" height="64" viewBox="0 0 64 64" fill="none" xmlns="http://www.w3.org/2000/svg">
<path d="M52.2801 41.94L27.6301 20.86C27.5001 20.75 27.3101 20.84 27.3101 21.01L27.8501 53.44C27.8501 53.58 28.0001 53.67 28.1201 53.61L35.6101 50.08C35.7101 50.03 35.8201 50.08 35.8601 50.17L39.6501 58.22C39.7001 58.32 39.8101 58.36 39.9001 58.31L48.3201 54.34C48.4201 54.29 48.4601 54.18 48.4101 54.09L44.6201 46.04C44.5701 45.94 44.6201 45.83 44.7101 45.79L52.2001 42.26C52.3301 42.2 52.3501 42.03 52.2401 41.94H52.2801Z" fill="#FFC000"/>
<path d="M39.8401 58.83C39.7601 58.83 39.6801 58.82 39.6001 58.79C39.4301 58.73 39.2901 58.6 39.2101 58.43L35.5501 50.66L28.3401 54.06C28.1301 54.16 27.8801 54.15 27.6801 54.02C27.4801 53.89 27.3601 53.68 27.3501 53.45L26.8101 21.02C26.8101 20.75 26.9601 20.5 27.2101 20.38C27.4501 20.26 27.7501 20.3 27.9501 20.48L52.6001 41.56C52.7801 41.71 52.8701 41.94 52.8401 42.17C52.8101 42.4 52.6601 42.6 52.4501 42.71L45.2301 46.11L48.8901 53.88C49.0501 54.23 48.9001 54.64 48.5601 54.8L40.1401 58.77C40.0501 58.81 39.9501 58.84 39.8501 58.84L39.8401 58.83ZM35.7101 49.56C35.9701 49.56 36.2201 49.71 36.3401 49.96L40.0001 57.73L47.8701 54.03L44.2101 46.26C44.1301 46.09 44.1201 45.9 44.1801 45.73C44.2401 45.56 44.3701 45.42 44.5401 45.34L51.6001 42.02L27.8301 21.69L28.3501 52.95L35.4101 49.63C35.5001 49.59 35.6101 49.56 35.7001 49.56H35.7101Z" fill="black"/>
<path d="M44.5801 21.79H35.8701V22.79H44.5801V21.79Z" fill="black"/>
<path d="M20.71 21.79H12V22.79H20.71V21.79Z" fill="black"/>
<path d="M39.6491 10.3608L33.4902 16.5197L34.1973 17.2268L40.3562 11.0679L39.6491 10.3608Z" fill="black"/>
<path d="M22.4734 27.4916L16.3145 33.6505L17.0216 34.3576L23.1805 28.1987L22.4734 27.4916Z" fill="black"/>
<path d="M28.79 6H27.79V14.71H28.79V6Z" fill="black"/>
<path d="M16.8106 10.3503L16.1035 11.0574L22.2624 17.2163L22.9695 16.5092L16.8106 10.3503Z" fill="black"/>
</svg>
