<svg width="64" height="64" viewBox="0 0 64 64" fill="none" xmlns="http://www.w3.org/2000/svg">
<g clip-path="url(#clip0_5_146)">
<path fill-rule="evenodd" clip-rule="evenodd" d="M31.2318 6.98114L41.8782 18.5815H35.582V37.5503C39.0262 34.1869 43.4508 31.9957 48.3299 31.5452V24.5095L58.6449 35.7488L59.1942 36.0238L48.3688 47.8193V41.0295C43.5044 41.7917 39.4664 45.4642 37.8319 50.4116L37.2097 52.2948L36.8647 50.3418C36.426 47.8579 35.6439 45.5074 34.5946 43.3477C34.5942 43.3469 34.5938 43.3461 34.5934 43.3454L34.5711 43.3008C34.5702 43.299 34.5698 43.2981 34.5696 43.2978L34.2518 42.6611C34.2116 42.5902 34.1724 42.5165 34.1367 42.4494L34.1351 42.4465C34.0955 42.3721 34.0601 42.3057 34.0255 42.245L34.0186 42.233L34.0124 42.2206C34 42.1958 33.9872 42.173 33.9671 42.1379L33.9654 42.1348C33.948 42.1044 33.9249 42.0639 33.9011 42.017C33.8575 41.9387 33.8134 41.8636 33.7661 41.7831L33.7649 41.781C33.7253 41.7135 33.6833 41.6421 33.6407 41.5666C33.5856 41.4984 33.5523 41.4352 33.5342 41.399C31.837 38.5387 29.6477 36.0819 27.0818 34.1593L26.8816 34.0093V18.5815H20.5854L31.2318 6.98114ZM57.6885 36.1856L49.3299 27.078V32.473L48.8645 32.5052C43.6555 32.8656 38.9492 35.3129 35.4502 39.1221L34.582 40.0672V17.5815H39.6031L31.2318 8.46007L22.8605 17.5815H27.8816V33.5106C30.4748 35.4953 32.685 38.0037 34.4038 40.905L34.4129 40.9204L34.421 40.9365L34.4237 40.9418L34.4547 40.9729L34.4886 41.0341C34.5338 41.1155 34.5793 41.1931 34.6284 41.2766L34.6296 41.2787C34.6774 41.3601 34.7287 41.4474 34.7803 41.5405L34.7856 41.55L34.7904 41.5597C34.8028 41.5845 34.8156 41.6072 34.8357 41.6423L34.8374 41.6454C34.8545 41.6753 34.8771 41.7149 34.9005 41.7609C34.9408 41.8319 34.9802 41.9059 35.016 41.9731L35.0177 41.9765C35.0573 42.0508 35.0928 42.1172 35.1274 42.1779L35.1343 42.19L35.2808 42.4835C35.281 42.4838 35.2817 42.4854 35.2826 42.4872L35.4928 42.9082C36.3454 44.6627 37.0282 46.5388 37.5031 48.5081C39.6098 43.8608 43.8218 40.5091 48.8143 39.9617L49.3688 39.9009V45.2507L57.6885 36.1856Z" fill="black"/>
<path d="M15.17 32.2985V26.0859L5.66113 36.4273L15.17 46.7882V40.7119C22.0731 41.4519 27.4789 47.8009 27.4789 55.5131H35.1988C35.1988 43.1658 26.3316 33.0581 15.17 32.2985Z" fill="#FFC000"/>
<path fill-rule="evenodd" clip-rule="evenodd" d="M15.6702 24.8033V31.8367C26.9054 32.8614 35.699 43.1082 35.699 55.5131V56.0131H26.9792V55.5131C26.9792 48.2345 22.0255 42.262 15.6702 41.2813V48.0724L4.98242 36.4269L15.6702 24.8033ZM6.34031 36.4276L14.6702 45.5039V40.1554L15.2235 40.2147C22.2596 40.969 27.7437 47.3018 27.9718 55.0131H34.6941C34.4588 43.1241 25.8527 33.5266 15.1362 32.7973L14.6702 32.7656V27.3683L6.34031 36.4276Z" fill="black"/>
</g>
<defs>
<clipPath id="clip0_5_146">
<rect width="54" height="49" fill="white" transform="translate(5 7)"/>
</clipPath>
</defs>
</svg>
