<svg width="64" height="64" viewBox="0 0 64 64" fill="none" xmlns="http://www.w3.org/2000/svg">
<g clip-path="url(#clip0_5_591)">
<path d="M31.87 6.56C17.97 6.56 6.70996 17.82 6.70996 31.72C6.70996 45.62 17.97 56.88 31.87 56.88C45.77 56.88 57.03 45.62 57.03 31.72C57.03 17.82 45.76 6.56 31.87 6.56ZM31.87 51.54C20.92 51.54 12.05 42.67 12.05 31.72C12.05 20.77 20.92 11.9 31.87 11.9C42.82 11.9 51.69 20.77 51.69 31.72C51.69 42.67 42.82 51.54 31.87 51.54Z" fill="#FFC000"/>
<path d="M31.8203 6C46.0802 6.00017 57.6396 17.5604 57.6396 31.8203C57.6395 46.0801 46.0801 57.6395 31.8203 57.6396C17.5604 57.6396 6.00017 46.0802 6 31.8203C6 17.5603 17.5603 6 31.8203 6ZM31.8203 7C18.1126 7 7 18.1126 7 31.8203C7.00017 45.5279 18.1127 56.6396 31.8203 56.6396C45.5278 56.6395 56.6395 45.5278 56.6396 31.8203C56.6396 18.1127 45.5279 7.00017 31.8203 7ZM31.8203 11.5098C36.5166 11.5098 40.8401 13.1048 44.2803 15.7812C44.2987 15.7931 44.3153 15.8071 44.332 15.8213C47.104 17.9922 49.2962 20.868 50.6416 24.1787C50.644 24.1839 50.6462 24.1891 50.6484 24.1943C51.603 26.549 52.1299 29.1232 52.1299 31.8203C52.1298 36.5154 50.5356 40.8376 47.8604 44.2773C47.8466 44.299 47.8305 44.3185 47.8135 44.3379C45.6433 47.1068 42.7699 49.2971 39.4619 50.6416C39.4559 50.6444 39.4494 50.6459 39.4434 50.6484C37.0893 51.6025 34.5166 52.1298 31.8203 52.1299C27.1245 52.1299 22.8014 50.5353 19.3613 47.8594C19.3361 47.8432 19.3122 47.8253 19.29 47.8047C16.5284 45.6369 14.3437 42.7686 13.001 39.4678C12.9952 39.456 12.9902 39.4439 12.9854 39.4316C12.0344 37.0809 11.5098 34.5119 11.5098 31.8203C11.5098 27.1248 13.1037 22.8013 15.7793 19.3613C15.7934 19.3392 15.8096 19.3186 15.8271 19.2988C17.996 16.5325 20.8679 14.3443 24.1729 13C24.1839 12.9947 24.1956 12.9909 24.207 12.9863C26.5582 12.035 29.128 11.5098 31.8203 11.5098ZM35.6553 39.25C34.8552 39.6634 33.9851 39.9483 33.0752 40.0859C33.9358 43.9271 33.0414 47.9653 30.6406 51.0918C31.0308 51.1153 31.4242 51.1299 31.8203 51.1299C34.2828 51.1298 36.6371 50.6675 38.8027 49.8271L38.8359 49.6309L38.8369 49.6289C39.4412 45.8598 38.2609 42.0188 35.6553 39.25ZM28.1973 39.3535C27.0168 43.068 24.2574 46.0738 20.6562 47.5771C23.199 49.3819 26.1975 50.5851 29.4453 50.9834L29.6357 50.7529L29.6367 50.752C32.0441 47.7908 32.9422 43.8757 32.0713 40.1758C31.5494 40.1907 31.0188 40.159 30.4844 40.0723C29.6707 39.9402 28.9042 39.6934 28.1973 39.3535ZM38.8594 36.335C38.2478 37.2871 37.4521 38.097 36.5303 38.7256C39.1507 41.6036 40.3783 45.5014 39.8838 49.3682C42.6169 48.1101 45.0053 46.2333 46.8701 43.916L46.8027 43.7373L46.666 43.3936C45.2532 39.9883 42.3896 37.3935 38.8594 36.335ZM24.917 36.5273C22.0384 39.1499 18.139 40.3789 14.2705 39.8838C15.5284 42.6168 17.4056 45.0053 19.7227 46.8701L19.9023 46.8027C23.4777 45.4432 26.2136 42.5054 27.3066 38.8555C26.3552 38.2439 25.5452 37.4488 24.917 36.5273ZM50.4541 34.4189C47.5331 32.1821 43.7609 31.3689 40.1729 32.2109C40.1578 32.5253 40.1268 32.8422 40.0752 33.1602C39.9433 33.9727 39.6956 34.7373 39.3564 35.4434C43.0693 36.6242 46.074 39.3828 47.5771 42.9824C49.2732 40.5926 50.4396 37.8009 50.9043 34.7773L50.7441 34.6475L50.4541 34.4189ZM33.0029 24.5557C28.9906 23.9044 25.2099 26.6293 24.5586 30.6416C23.9075 34.6538 26.6323 38.4347 30.6445 39.0859C34.6567 39.737 38.4376 37.0121 39.0889 33C39.1505 32.6205 39.1816 32.243 39.1846 31.8701C39.1817 31.8421 39.1808 31.8146 39.1826 31.7871C39.1708 28.2517 36.6075 25.1409 33.0029 24.5557ZM12.5928 30.0264C12.5384 30.617 12.5098 31.2155 12.5098 31.8203C12.5098 34.2831 12.972 36.6379 13.8125 38.8037L14.0107 38.8369C17.7815 39.4416 21.6234 38.2593 24.3926 35.6514C23.8856 34.6698 23.5707 33.5827 23.4863 32.4463C19.6754 33.2764 15.6928 32.3934 12.5928 30.0264ZM31.8203 27.3896C34.2663 27.3898 36.25 29.3743 36.25 31.8203V32.3203H35.25V31.8203C35.25 29.9266 33.714 28.3898 31.8203 28.3896C29.9265 28.3896 28.3896 29.9265 28.3896 31.8203C28.3898 33.714 29.9266 35.25 31.8203 35.25H32.3203V36.25H31.8203C29.3743 36.25 27.3898 34.2663 27.3896 31.8203C27.3896 29.3742 29.3742 27.3896 31.8203 27.3896ZM49.6289 24.8037C45.8601 24.1994 42.0188 25.3782 39.25 27.9834C39.7584 28.9654 40.0741 30.053 40.1592 31.1904C43.9677 30.3627 47.9476 31.2473 51.0459 33.6123C51.1002 33.0222 51.1299 32.4246 51.1299 31.8203C51.1299 29.3572 50.6678 27.002 49.8271 24.8359L49.6309 24.8037H49.6289ZM16.0615 20.6562C14.3656 23.0458 13.1992 25.8381 12.7344 28.8613L12.8955 28.9922C15.856 31.4034 19.7636 32.2986 23.4736 31.4258C23.4888 31.113 23.5199 30.7978 23.5713 30.4814C23.7031 29.6694 23.9492 28.904 24.2881 28.1982C20.5726 27.0181 17.565 24.2582 16.0615 20.6562ZM23.7559 14.2695C21.0227 15.5274 18.6344 17.4055 16.7695 19.7227L16.8379 19.9023C18.1975 23.4778 21.135 26.2137 24.7852 27.3066C25.3959 26.3554 26.1909 25.5455 27.1113 24.917C24.489 22.0382 23.2604 18.138 23.7559 14.2695ZM43.7373 16.8369V16.8379C40.1631 18.197 37.4276 21.1329 36.334 24.7812C37.2862 25.3921 38.0965 26.1873 38.7256 27.1084C41.6037 24.4882 45.5024 23.261 49.3691 23.7559C48.1111 21.0226 46.2334 18.6344 43.916 16.7695L43.7373 16.8369ZM31.8203 12.5098C29.3573 12.5098 27.0019 12.9718 24.8359 13.8125L24.8037 14.0107C24.199 17.7812 25.3798 21.6234 27.9873 24.3926C28.9684 23.8849 30.0552 23.5696 31.1914 23.4844C30.3623 19.6744 31.2461 15.6921 33.6123 12.5928C33.0222 12.5385 32.4245 12.5098 31.8203 12.5098ZM34.6475 12.8955C32.2369 15.8551 31.3403 19.7617 32.2119 23.4707C32.5269 23.4857 32.8444 23.5166 33.1631 23.5684C33.9739 23.7 34.7375 23.9461 35.4424 24.2842C36.6231 20.5708 39.3823 17.5647 42.9824 16.0615C40.5927 14.3657 37.8007 13.199 34.7773 12.7344L34.6475 12.8955Z" fill="black"/>
</g>
<defs>
<clipPath id="clip0_5_591">
<rect width="51.64" height="51.64" fill="white" transform="translate(6 6)"/>
</clipPath>
</defs>
</svg>
