<svg width="64" height="64" viewBox="0 0 64 64" fill="none" xmlns="http://www.w3.org/2000/svg">
<g clip-path="url(#clip0_5_571)">
<path d="M8.98 51C8.98 46.73 13.25 46.6 13.25 46.6L13.64 46.48V10.06H6V51H8.98Z" fill="#FFC000"/>
<path d="M54.1302 51C54.1302 46.73 49.8602 46.6 49.8602 46.6L49.4702 46.48V10.06H57.1002V51H54.1202H54.1302Z" fill="#FFC000"/>
<path fill-rule="evenodd" clip-rule="evenodd" d="M13.6099 46.75V10.5H14.6099V46.75H13.6099Z" fill="black"/>
<path fill-rule="evenodd" clip-rule="evenodd" d="M49.5 10.53V46.8H48.5V10.53H49.5Z" fill="black"/>
<path fill-rule="evenodd" clip-rule="evenodd" d="M6 10H14.13C14.3281 10 14.5075 10.117 14.5875 10.2982C16.7604 15.2255 23.1208 18.95 31.59 18.95C40.0592 18.95 46.3903 15.2454 48.573 10.3272C48.653 10.1469 48.8315 10.0305 49.0288 10.03L57.1088 10.01L57.1112 11.01L49.3503 11.0292C46.8394 16.2737 40.1406 19.95 31.59 19.95C23.04 19.95 16.3121 16.2549 13.8093 11H6V10Z" fill="black"/>
<path fill-rule="evenodd" clip-rule="evenodd" d="M25.2002 29.7V26.69H26.2002V29.7H25.2002Z" fill="black"/>
<path fill-rule="evenodd" clip-rule="evenodd" d="M25.2002 43.69V33.13H26.2002V43.69H25.2002Z" fill="black"/>
<path fill-rule="evenodd" clip-rule="evenodd" d="M33 28.32V27.03H34V28.32H33Z" fill="black"/>
<path fill-rule="evenodd" clip-rule="evenodd" d="M33 37.6V31.76H34V37.6H33Z" fill="black"/>
<path fill-rule="evenodd" clip-rule="evenodd" d="M29.1001 32.26V27.03H30.1001V32.26H29.1001Z" fill="black"/>
<path fill-rule="evenodd" clip-rule="evenodd" d="M29.1001 40.75V35.69H30.1001V40.75H29.1001Z" fill="black"/>
<path fill-rule="evenodd" clip-rule="evenodd" d="M36.9102 32.95V26.69H37.9102V32.95H36.9102Z" fill="black"/>
<path fill-rule="evenodd" clip-rule="evenodd" d="M36.9102 43.08V36.38H37.9102V43.08H36.9102Z" fill="black"/>
<path fill-rule="evenodd" clip-rule="evenodd" d="M24.3736 22.9531C26.6453 23.4842 29.1171 23.77 31.5898 23.77C34.0626 23.77 36.4352 23.4941 38.6682 22.9826L38.8915 23.9574C36.5845 24.4858 34.137 24.77 31.5898 24.77C29.0425 24.77 26.4943 24.4758 24.146 23.9269L24.3736 22.9531Z" fill="black"/>
<path fill-rule="evenodd" clip-rule="evenodd" d="M24.6102 45.2162C25.5247 42.2497 28.2789 40.09 31.55 40.09C34.8222 40.09 37.5772 42.2511 38.4907 45.2191C39.3939 44.5528 40.5064 44.16 41.71 44.16C44.5709 44.16 46.9191 46.3791 47.1253 49.1878C47.6787 48.9461 48.2868 48.81 48.93 48.81C51.2772 48.81 53.2134 50.5886 53.4628 52.87H57.11V53.87H52.99C52.7139 53.87 52.49 53.6462 52.49 53.37C52.49 51.4062 50.8939 49.81 48.93 49.81C48.1704 49.81 47.4695 50.0538 46.8771 50.4694C46.7153 50.5829 46.5016 50.5904 46.3322 50.4884C46.1628 50.3865 46.0693 50.1942 46.0939 49.998C46.1023 49.9305 46.1102 49.8761 46.1169 49.8295C46.1308 49.7334 46.14 49.6698 46.14 49.59C46.14 47.1462 44.1539 45.16 41.71 45.16C40.4796 45.16 39.3659 45.6622 38.5555 46.4816C38.4245 46.6141 38.2308 46.6627 38.0528 46.6079C37.8748 46.553 37.742 46.4038 37.7083 46.2206C37.1709 43.3023 34.6232 41.09 31.55 41.09C28.4768 41.09 25.9291 43.3023 25.3917 46.2206C25.3579 46.4043 25.2245 46.5538 25.0459 46.6083C24.8673 46.6628 24.6731 46.6132 24.5425 46.4796C23.7437 45.6629 22.6314 45.16 21.39 45.16C18.9461 45.16 16.96 47.1462 16.96 49.59C16.96 49.6698 16.9692 49.7334 16.9831 49.8295C16.9898 49.8761 16.9977 49.9305 17.0061 49.998C17.0307 50.1949 16.9366 50.3877 16.7663 50.4894C16.5959 50.591 16.3816 50.5824 16.22 50.4673C15.6403 50.0545 14.9408 49.81 14.17 49.81C12.2061 49.81 10.61 51.4062 10.61 53.37C10.61 53.6462 10.3861 53.87 10.11 53.87H6V52.87H9.63717C9.88661 50.5886 11.8228 48.81 14.17 48.81C14.8161 48.81 15.4244 48.9446 15.9749 49.1849C16.1825 46.3776 18.5301 44.16 21.39 44.16C22.5985 44.16 23.7115 44.5509 24.6102 45.2162Z" fill="black"/>
</g>
<defs>
<clipPath id="clip0_5_571">
<rect width="51.11" height="43.87" fill="white" transform="translate(6 10)"/>
</clipPath>
</defs>
</svg>
