<svg width="64" height="64" viewBox="0 0 64 64" fill="none" xmlns="http://www.w3.org/2000/svg">
<g clip-path="url(#clip0_561_394)">
<circle cx="31.8199" cy="31.82" r="8.03717" fill="#FFC000"/>
<path fill-rule="evenodd" clip-rule="evenodd" d="M31.82 7C18.1123 7 7 18.1123 7 31.82C7 45.5277 18.1123 56.64 31.82 56.64C45.5277 56.64 56.64 45.5277 56.64 31.82C56.64 18.1123 45.5277 7 31.82 7ZM6 31.82C6 17.56 17.56 6 31.82 6C46.08 6 57.64 17.56 57.64 31.82C57.64 46.08 46.08 57.64 31.82 57.64C17.56 57.64 6 46.08 6 31.82Z" fill="black"/>
<path fill-rule="evenodd" clip-rule="evenodd" d="M31.8198 12.51C21.1551 12.51 12.5098 21.1554 12.5098 31.82C12.5098 42.4846 21.1551 51.13 31.8198 51.13C42.4844 51.13 51.1298 42.4846 51.1298 31.82C51.1298 21.1554 42.4844 12.51 31.8198 12.51ZM11.5098 31.82C11.5098 20.6031 20.6029 11.51 31.8198 11.51C43.0367 11.51 52.1298 20.6031 52.1298 31.82C52.1298 43.0369 43.0367 52.13 31.8198 52.13C20.6029 52.13 11.5098 43.0369 11.5098 31.82Z" fill="black"/>
<path fill-rule="evenodd" clip-rule="evenodd" d="M24.5585 30.6414C23.9072 34.6537 26.6319 38.4343 30.6442 39.0856C34.6565 39.7368 38.437 37.0122 39.0883 32.9999C39.7396 28.9876 37.015 25.207 33.0027 24.5557C28.9904 23.9044 25.2098 26.6291 24.5585 30.6414ZM30.4839 40.0726C25.9265 39.3329 22.8316 35.0386 23.5714 30.4812C24.3112 25.9237 28.6055 22.8289 33.1629 23.5687C37.7204 24.3084 40.8152 28.6027 40.0754 33.1601C39.3356 37.7176 35.0414 40.8124 30.4839 40.0726Z" fill="black"/>
<path fill-rule="evenodd" clip-rule="evenodd" d="M31.8201 28.39C29.9263 28.39 28.3901 29.9262 28.3901 31.82C28.3901 33.7139 29.9263 35.25 31.8201 35.25H32.3201V36.25H31.8201C29.374 36.25 27.3901 34.2662 27.3901 31.82C27.3901 29.3739 29.374 27.39 31.8201 27.39C34.2663 27.39 36.2501 29.3739 36.2501 31.82V32.32H35.2501V31.82C35.2501 29.9262 33.714 28.39 31.8201 28.39Z" fill="black"/>
<path fill-rule="evenodd" clip-rule="evenodd" d="M34.8859 11.8125C35.0999 11.9871 35.1318 12.3021 34.9573 12.516L34.6475 12.8957C32.1587 15.9514 31.2843 20.016 32.3029 23.831C32.3741 24.0978 32.2156 24.3718 31.9488 24.443C31.682 24.5143 31.408 24.3557 31.3367 24.0889C30.2354 19.9639 31.1809 15.5685 33.8721 12.2642L34.1824 11.8839C34.3569 11.6699 34.6719 11.638 34.8859 11.8125Z" fill="black"/>
<path fill-rule="evenodd" clip-rule="evenodd" d="M44.4779 16.0233C44.5754 16.2816 44.4451 16.5701 44.1868 16.6677L43.7378 16.8373C43.7376 16.8374 43.7375 16.8375 43.7373 16.8375C40.047 18.2408 37.2514 21.3253 36.2332 25.1389C36.162 25.4057 35.8879 25.5643 35.6211 25.493C35.3543 25.4218 35.1958 25.1478 35.267 24.881C36.3687 20.7548 39.393 17.4194 43.3824 15.9026L43.3834 15.9022L43.8334 15.7322C44.0917 15.6346 44.3803 15.7649 44.4779 16.0233Z" fill="black"/>
<path fill-rule="evenodd" clip-rule="evenodd" d="M49.6292 24.8034C45.7374 24.1793 41.7692 25.4578 38.9834 28.2435C38.7882 28.4388 38.4716 28.4388 38.2763 28.2435C38.0811 28.0483 38.0811 27.7317 38.2763 27.5364C41.2902 24.5225 45.5814 23.141 49.7891 23.8163L49.7921 23.8168L49.7921 23.8168L50.2721 23.8968C50.5445 23.9422 50.7285 24.1998 50.6831 24.4722C50.6377 24.7446 50.3801 24.9286 50.1077 24.8832L49.6306 24.8037C49.6302 24.8036 49.6297 24.8035 49.6292 24.8034Z" fill="black"/>
<path fill-rule="evenodd" clip-rule="evenodd" d="M50.7437 34.6474C47.6881 32.1588 43.6236 31.2845 39.8088 32.303C39.542 32.3743 39.268 32.2157 39.1967 31.9489C39.1255 31.6821 39.284 31.4081 39.5508 31.3369C43.6759 30.2355 48.0713 31.181 51.3756 33.8723L51.3759 33.8725L51.7559 34.1825C51.9698 34.3571 52.0018 34.672 51.8272 34.886C51.6527 35.1 51.3377 35.1319 51.1237 34.9574L50.7441 34.6476" fill="black"/>
<path fill-rule="evenodd" clip-rule="evenodd" d="M38.1469 35.621C38.2182 35.3542 38.4922 35.1957 38.759 35.2669C42.8852 36.3686 46.2205 39.3929 47.7374 43.3823L47.7377 43.3833L47.9077 43.8333C48.0053 44.0916 47.875 44.3801 47.6167 44.4777C47.3584 44.5753 47.0699 44.445 46.9723 44.1867L46.8026 43.7377C46.8026 43.7375 46.8025 43.7374 46.8025 43.7372C45.3992 40.0469 42.3147 37.2513 38.501 36.2331C38.2342 36.1618 38.0757 35.8878 38.1469 35.621Z" fill="black"/>
<path fill-rule="evenodd" clip-rule="evenodd" d="M35.3964 38.2765C35.5917 38.0812 35.9083 38.0812 36.1036 38.2765C39.1174 41.2903 40.499 45.5815 39.8237 49.7892L39.8232 49.7922L39.8232 49.7922L39.7432 50.2722C39.6978 50.5446 39.4402 50.7286 39.1678 50.6832C38.8954 50.6378 38.7114 50.3802 38.7568 50.1078L38.8363 49.6308C38.8364 49.6303 38.8365 49.6298 38.8366 49.6293C39.4607 45.7375 38.1822 41.7693 35.3964 38.9836C35.2012 38.7883 35.2012 38.4717 35.3964 38.2765Z" fill="black"/>
<path fill-rule="evenodd" clip-rule="evenodd" d="M32.3339 39.2C32.6006 39.1286 32.8748 39.2869 32.9462 39.5536C34.0494 43.6707 33.1003 48.0777 30.4116 51.384L30.4097 51.3864L30.4097 51.3864L30.1004 51.7621C29.9249 51.9752 29.6098 52.0058 29.3966 51.8303C29.1834 51.6548 29.1528 51.3397 29.3284 51.1265L29.6357 50.7531C29.636 50.7527 29.6364 50.7523 29.6367 50.752C32.1231 47.6936 33 43.6178 31.9803 39.8124C31.9089 39.5457 32.0671 39.2715 32.3339 39.2Z" fill="black"/>
<path fill-rule="evenodd" clip-rule="evenodd" d="M28.019 38.1469C28.2858 38.2182 28.4443 38.4922 28.3731 38.759C27.2714 42.8852 24.2472 46.2205 20.2577 47.7374L19.8067 47.9077C19.5484 48.0053 19.2599 47.875 19.1623 47.6167C19.0647 47.3584 19.195 47.0699 19.4533 46.9723L19.9023 46.8026C19.9022 46.8027 19.9024 46.8026 19.9023 46.8026C23.5927 45.3994 26.3887 42.3147 27.4069 38.501C27.4782 38.2342 27.7522 38.0757 28.019 38.1469Z" fill="black"/>
<path fill-rule="evenodd" clip-rule="evenodd" d="M25.3638 35.3964C25.5591 35.5917 25.5591 35.9083 25.3638 36.1036C22.3499 39.1174 18.0588 40.499 13.851 39.8237L13.8481 39.8232L13.8481 39.8232L13.3681 39.7432C13.0957 39.6978 12.9117 39.4402 12.9571 39.1678C13.0025 38.8954 13.2601 38.7114 13.5325 38.7568L14.011 38.8366C17.9028 39.4607 21.871 38.1822 24.6567 35.3964C24.852 35.2012 25.1686 35.2012 25.3638 35.3964Z" fill="black"/>
<path fill-rule="evenodd" clip-rule="evenodd" d="M11.8128 28.7539C11.9873 28.5399 12.3023 28.508 12.5163 28.6825L12.896 28.9923C15.9517 31.481 20.0163 32.3555 23.8312 31.3369C24.098 31.2656 24.3721 31.4242 24.4433 31.691C24.5145 31.9578 24.356 32.2318 24.0892 32.303C19.9641 33.4044 15.5688 32.4589 12.2645 29.7676L11.8841 29.4574C11.6702 29.2828 11.6382 28.9679 11.8128 28.7539Z" fill="black"/>
<path fill-rule="evenodd" clip-rule="evenodd" d="M16.0231 19.1623C16.2815 19.0647 16.57 19.195 16.6676 19.4533L16.8374 19.9028C18.2407 23.5931 21.3252 26.3887 25.1388 27.4069C25.4056 27.4782 25.5642 27.7522 25.4929 28.019C25.4217 28.2858 25.1477 28.4443 24.8809 28.3731C20.7547 27.2714 17.4193 24.2472 15.9025 20.2577L15.9021 20.2567L15.9021 20.2567L15.7321 19.8067C15.6345 19.5484 15.7648 19.2599 16.0231 19.1623Z" fill="black"/>
<path fill-rule="evenodd" clip-rule="evenodd" d="M24.472 12.9568C24.7444 13.0022 24.9284 13.2598 24.883 13.5322L24.8033 14.0107C24.1792 17.9025 25.4576 21.8707 28.2434 24.6565C28.4387 24.8517 28.4387 25.1683 28.2434 25.3636C28.0481 25.5588 27.7316 25.5588 27.5363 25.3636C24.5224 22.3497 23.1409 18.0585 23.8162 13.8508L23.8166 13.8478L23.8167 13.8478L23.8967 13.3678C23.9421 13.0954 24.1997 12.9114 24.472 12.9568Z" fill="black"/>
</g>
<defs>
<clipPath id="clip0_561_394">
<rect width="51.64" height="51.64" fill="white" transform="translate(6 6)"/>
</clipPath>
</defs>
</svg>
