<svg width="64" height="64" viewBox="0 0 64 64" fill="none" xmlns="http://www.w3.org/2000/svg">
<path d="M35.8999 58.2893H27.2899V33.4H20.6899L31.3399 22.75L41.9899 33.4H35.8999V58.77V58.2893Z" fill="#FFC000"/>
<path d="M43.1968 33.9004H36.3999V58.7695L35.8999 58.77L35.8999 58.7891H26.7896V33.9004H19.4829L31.3403 22.043L43.1968 33.9004ZM21.897 32.9004H27.7896V57.7891H35.3999V32.9004H40.7827L31.3394 23.457L21.897 32.9004Z" fill="black"/>
<path d="M56.2002 13.62V14.62H7.5V13.62H56.2002Z" fill="black"/>
<path d="M20.0399 9.49994V10.4999H16.9998V9.49994H20.0399Z" fill="black"/>
<path d="M15.16 9.49994V10.4999H12.12V9.49994H15.16Z" fill="black"/>
<path d="M25.0401 9.49994V10.4999H22V9.49994H25.0401Z" fill="black"/>
<path d="M56.7002 5V46.5898H40.4697V45.5898H55.7002V6H8V45.5898H22.7197V46.5898H7V5H56.7002Z" fill="black"/>
</svg>
