<svg width="64" height="64" viewBox="0 0 64 64" fill="none" xmlns="http://www.w3.org/2000/svg">
<path fill-rule="evenodd" clip-rule="evenodd" d="M32 5.84619C17.3645 5.84619 5.5 17.7106 5.5 32.3462C5.5 46.9817 17.3645 58.8462 32 58.8462C46.6355 58.8462 58.5 46.9817 58.5 32.3462C58.5 17.7106 46.6355 5.84619 32 5.84619ZM4.5 32.3462C4.5 17.1584 16.8122 4.84619 32 4.84619C47.1878 4.84619 59.5 17.1584 59.5 32.3462C59.5 47.534 47.1878 59.8462 32 59.8462C16.8122 59.8462 4.5 47.534 4.5 32.3462Z" fill="black"/>
<path d="M48.8614 23.2114C49.2519 22.8208 49.2519 22.1877 48.8614 21.7972L42.5492 15.485C42.1587 15.0945 41.5255 15.0945 41.135 15.485L32.0002 24.6198L22.8654 15.4851C22.4749 15.0945 21.8417 15.0945 21.4512 15.4851L15.1391 21.7972C14.7486 22.1877 14.7486 22.8209 15.1391 23.2114L24.2739 32.3462L15.1392 41.4809C14.7486 41.8714 14.7486 42.5046 15.1392 42.8951L21.4513 49.2072C21.8418 49.5977 22.475 49.5977 22.8655 49.2072L32.0002 40.0725L41.1349 49.2072C41.5255 49.5978 42.1586 49.5978 42.5491 49.2072L48.8613 42.8951C49.2518 42.5046 49.2518 41.8714 48.8613 41.4809L39.7265 32.3462L48.8614 23.2114Z" fill="#FFC000"/>
<path fill-rule="evenodd" clip-rule="evenodd" d="M42.1957 15.8386C42.0004 15.6433 41.6838 15.6433 41.4886 15.8386L32.0002 25.327L22.5119 15.8386C22.3166 15.6434 22 15.6434 21.8048 15.8386L15.4926 22.1507C15.2974 22.346 15.2974 22.6626 15.4926 22.8579L24.981 32.3462L15.4927 41.8344C15.2975 42.0297 15.2975 42.3463 15.4927 42.5415L21.8048 48.8537C22.0001 49.0489 22.3167 49.0489 22.512 48.8537L32.0002 39.3654L41.4885 48.8537C41.6837 49.049 42.0003 49.049 42.1956 48.8537L48.5077 42.5416C48.703 42.3463 48.703 42.0297 48.5077 41.8345L39.0194 32.3462L48.5078 22.8578C48.7031 22.6626 48.7031 22.346 48.5078 22.1507L42.1957 15.8386ZM40.7815 15.1315C41.3672 14.5457 42.317 14.5457 42.9028 15.1315L49.2149 21.4436C49.8007 22.0294 49.8007 22.9791 49.2149 23.5649L40.4336 32.3462L49.2148 41.1274C49.8006 41.7131 49.8006 42.6629 49.2148 43.2487L42.9027 49.5608C42.3169 50.1466 41.3672 50.1466 40.7814 49.5608L32.0002 40.7796L23.2191 49.5608C22.6333 50.1465 21.6835 50.1465 21.0977 49.5608L14.7856 43.2486C14.1998 42.6629 14.1998 41.7131 14.7856 41.1273L23.5668 32.3462L14.7855 23.565C14.1997 22.9792 14.1997 22.0294 14.7855 21.4436L21.0977 15.1315C21.6834 14.5457 22.6332 14.5457 23.219 15.1315L32.0002 23.9127L40.7815 15.1315Z" fill="black"/>
</svg>
