<svg width="64" height="64" viewBox="0 0 64 64" fill="none" xmlns="http://www.w3.org/2000/svg">
<path fill-rule="evenodd" clip-rule="evenodd" d="M24.6129 6.6654V20.2443H11.4954L24.6129 6.6654ZM24.6129 5.34412H24.4989L10.2529 20.0912V20.2443H10.2378V21.2443H10.2529V60.7141H50.6403V48.5484H49.6403V59.7141H11.2529V21.2443H25.6129V6.34412H49.6403V33.7105H50.6403V5.34412H25.6129V5.32922H24.6129V5.34412Z" fill="black"/>
<path d="M23.8271 33.0217H61.0742V48.6865H23.8271V33.0217Z" fill="#FFC000"/>
<path fill-rule="evenodd" clip-rule="evenodd" d="M60.0742 34.0217H24.8271V47.6865H60.0742V34.0217ZM23.8271 33.0217V48.6865H61.0742V33.0217H23.8271Z" fill="black"/>
<path d="M57.8044 36.0685V46.0217H55.8699L52.7458 39.7941V46.0217H50.8454V36.0685H52.7527L55.904 42.3644V36.0685H57.8044Z" fill="black"/>
<path d="M49.3894 40.2726V41.9338C49.3894 42.6356 49.3028 43.2508 49.1296 43.7795C48.961 44.3036 48.7195 44.7433 48.405 45.0988C48.0951 45.4497 47.7191 45.714 47.2771 45.8918C46.8396 46.0695 46.3542 46.1584 45.821 46.1584C45.2878 46.1584 44.8002 46.0695 44.3581 45.8918C43.9206 45.714 43.5424 45.4497 43.2234 45.0988C42.9089 44.7433 42.6651 44.3036 42.4919 43.7795C42.3187 43.2508 42.2322 42.6356 42.2322 41.9338V40.2726C42.2322 39.5526 42.3165 38.9237 42.4851 38.3859C42.6537 37.8436 42.8975 37.3924 43.2165 37.0324C43.5355 36.6678 43.9138 36.3944 44.3513 36.2121C44.7888 36.0252 45.2742 35.9318 45.8074 35.9318C46.3406 35.9318 46.8259 36.0252 47.2634 36.2121C47.7009 36.3944 48.0792 36.6678 48.3982 37.0324C48.7172 37.3924 48.961 37.8436 49.1296 38.3859C49.3028 38.9237 49.3894 39.5526 49.3894 40.2726ZM47.4001 41.9338V40.259C47.4001 39.785 47.3659 39.3817 47.2976 39.049C47.2292 38.7118 47.1267 38.4361 46.99 38.2219C46.8533 38.0077 46.6869 37.8504 46.4909 37.7502C46.295 37.6499 46.0671 37.5998 45.8074 37.5998C45.5476 37.5998 45.3174 37.6499 45.1169 37.7502C44.921 37.8504 44.7546 38.0077 44.6179 38.2219C44.4857 38.4361 44.3855 38.7118 44.3171 39.049C44.2533 39.3817 44.2214 39.785 44.2214 40.259V41.9338C44.2214 42.3895 44.2556 42.7792 44.324 43.1027C44.3923 43.4263 44.4949 43.6906 44.6316 43.8957C44.7683 44.1008 44.9346 44.2534 45.1306 44.3537C45.3311 44.4494 45.5613 44.4972 45.821 44.4972C46.0762 44.4972 46.3018 44.4494 46.4978 44.3537C46.6983 44.2534 46.8646 44.1008 46.9968 43.8957C47.129 43.6906 47.2292 43.4263 47.2976 43.1027C47.3659 42.7792 47.4001 42.3895 47.4001 41.9338Z" fill="black"/>
<path d="M39.0466 43.4035C39.0466 43.2258 39.0307 43.064 38.9988 42.9181C38.9669 42.7723 38.8985 42.6379 38.7937 42.5148C38.6934 42.3918 38.5453 42.2687 38.3493 42.1457C38.1579 42.0226 37.9073 41.895 37.5974 41.7629C37.2283 41.6079 36.8705 41.4439 36.5242 41.2707C36.1778 41.093 35.8656 40.8879 35.5876 40.6555C35.3096 40.423 35.0886 40.1496 34.9245 39.8351C34.765 39.5161 34.6853 39.1424 34.6853 38.714C34.6853 38.2948 34.7605 37.9142 34.9109 37.5724C35.0658 37.2306 35.2846 36.939 35.5671 36.6974C35.8497 36.4514 36.1801 36.2622 36.5583 36.1301C36.9411 35.9979 37.3673 35.9318 37.8367 35.9318C38.4747 35.9318 39.0261 36.064 39.4909 36.3283C39.9603 36.5926 40.3227 36.9549 40.5779 37.4152C40.8376 37.8755 40.9675 38.4042 40.9675 39.0012H38.9714C38.9714 38.7186 38.9304 38.4702 38.8484 38.256C38.7709 38.0373 38.6456 37.8664 38.4724 37.7433C38.2992 37.6203 38.0759 37.5588 37.8025 37.5588C37.5473 37.5588 37.3353 37.6112 37.1667 37.716C37.0027 37.8163 36.8796 37.9553 36.7976 38.133C36.7201 38.3062 36.6814 38.5021 36.6814 38.7209C36.6814 38.8849 36.7201 39.0331 36.7976 39.1652C36.8796 39.2928 36.9913 39.409 37.1325 39.5139C37.2738 39.6141 37.4402 39.7121 37.6316 39.8078C37.8275 39.9035 38.0417 39.9969 38.2742 40.0881C38.7253 40.2658 39.1241 40.4618 39.4704 40.676C39.8168 40.8856 40.1062 41.1226 40.3386 41.3869C40.571 41.6467 40.7465 41.9406 40.865 42.2687C40.9835 42.5969 41.0427 42.9706 41.0427 43.3898C41.0427 43.8045 40.9698 44.1828 40.824 44.5246C40.6827 44.8618 40.4753 45.1535 40.2019 45.3996C39.9284 45.6411 39.598 45.828 39.2107 45.9601C38.8279 46.0923 38.3995 46.1584 37.9255 46.1584C37.4652 46.1584 37.03 46.0946 36.6199 45.967C36.2097 45.8348 35.8474 45.6366 35.5329 45.3722C35.223 45.1034 34.9792 44.7639 34.8015 44.3537C34.6238 43.939 34.5349 43.4491 34.5349 42.884H36.5378C36.5378 43.1847 36.5674 43.4422 36.6267 43.6564C36.6859 43.8661 36.7771 44.0347 36.9001 44.1623C37.0232 44.2853 37.1736 44.3788 37.3513 44.4426C37.5336 44.5018 37.7409 44.5314 37.9734 44.5314C38.2377 44.5314 38.4473 44.4813 38.6023 44.381C38.7618 44.2808 38.8757 44.1463 38.9441 43.9777C39.0124 43.8091 39.0466 43.6177 39.0466 43.4035Z" fill="black"/>
<path d="M31.2468 42.9523V36.0685H33.2429V42.9523C33.2429 43.6177 33.1153 44.1919 32.8601 44.675C32.6094 45.1535 32.2676 45.5204 31.8347 45.7756C31.4018 46.0308 30.9141 46.1584 30.3718 46.1584C29.8158 46.1584 29.3191 46.049 28.8816 45.8303C28.4486 45.6069 28.1068 45.2674 27.8562 44.8117C27.6055 44.356 27.4802 43.7795 27.4802 43.0822H29.49C29.49 43.4377 29.5264 43.718 29.5993 43.923C29.6723 44.1281 29.7748 44.2762 29.907 44.3674C30.0437 44.4585 30.1986 44.5041 30.3718 44.5041C30.5587 44.5041 30.7159 44.4426 30.8435 44.3195C30.9756 44.1965 31.0759 44.021 31.1443 43.7931C31.2126 43.5607 31.2468 43.2805 31.2468 42.9523Z" fill="black"/>
</svg>
