<svg width="64" height="64" viewBox="0 0 64 64" fill="none" xmlns="http://www.w3.org/2000/svg">
<path d="M31.94 6.49997C25.29 6.36997 20.33 9.50997 17.33 15.43C14.3 21.42 15.11 27.12 19.15 32.4C21.87 35.96 23.75 39.8 23.5 44.43C23.48 44.74 23.58 45.06 23.63 45.39H39.55C39.6 45.1 39.66 44.94 39.65 44.78C39.34 39.83 41.43 35.81 44.31 31.97C48.1 26.91 48.74 21.35 45.92 15.62C43.09 9.86997 38.37 6.62997 31.94 6.49997Z" fill="#FFC000"/>
<path fill-rule="evenodd" clip-rule="evenodd" d="M16.884 15.204C19.9667 9.12093 25.0989 5.86614 31.9498 6.00007C38.5799 6.13411 43.4622 9.49374 46.3687 15.3992C49.275 21.3046 48.6085 27.0652 44.7102 32.2697C41.8581 36.0726 39.85 39.9739 40.1491 44.7487C40.1585 44.8994 40.1336 45.0345 40.1121 45.1379C40.1043 45.1752 40.0968 45.2094 40.0894 45.243C40.0737 45.3144 40.0586 45.3834 40.0428 45.4749L39.9712 45.89H23.2001L23.1357 45.4649C23.1214 45.3705 23.1059 45.2937 23.0885 45.2072C23.0757 45.1439 23.0619 45.0754 23.0467 44.9909C23.0159 44.8194 22.9874 44.6156 23.0009 44.4006C23.2411 39.9381 21.4356 36.2149 18.7527 32.7035C16.6897 30.0072 15.4333 27.1793 15.0921 24.2388C14.7507 21.2958 15.3306 18.275 16.884 15.204ZM17.7762 15.6557C16.2997 18.5746 15.7694 21.3991 16.0855 24.1236C16.4018 26.8506 17.5703 29.5126 19.5471 32.0961C22.3038 35.7042 24.2583 39.6605 23.9993 44.4569L23.999 44.4622C23.9929 44.5561 24.0044 44.6663 24.0309 44.814C24.0349 44.8364 24.0398 44.862 24.0453 44.89H39.1417C39.1515 44.8366 39.1515 44.8188 39.151 44.8112M17.7762 15.6557C20.6936 9.89896 25.4811 6.87387 31.9299 6.99987C38.1599 7.12582 42.7179 10.2462 45.4714 15.8408C48.2051 21.3953 47.5916 26.7548 43.9099 31.6702C41.0021 35.5473 38.8301 39.6862 39.151 44.8112" fill="black"/>
<path fill-rule="evenodd" clip-rule="evenodd" d="M22.16 45.11H41.01V50.09H22.16V45.11ZM23.16 46.11V49.09H40.01V46.11H23.16Z" fill="black"/>
<path fill-rule="evenodd" clip-rule="evenodd" d="M22.16 49.09H41.01V54.07H22.16V49.09ZM23.16 50.09V53.07H40.01V50.09H23.16Z" fill="black"/>
<path fill-rule="evenodd" clip-rule="evenodd" d="M27.1495 55.7369C28.2579 56.3836 29.8226 56.8 31.58 56.8C33.3374 56.8 34.9022 56.3836 36.0106 55.7369C37.1312 55.083 37.7 54.2534 37.7 53.44H38.7C38.7 54.7566 37.7889 55.857 36.5145 56.6006C35.2279 57.3514 33.4826 57.8 31.58 57.8C29.6774 57.8 27.9322 57.3514 26.6456 56.6006C25.3712 55.857 24.46 54.7566 24.46 53.44H25.46C25.46 54.2534 26.0289 55.083 27.1495 55.7369Z" fill="black"/>
</svg>
