<svg width="64" height="64" viewBox="0 0 64 64" fill="none" xmlns="http://www.w3.org/2000/svg">
<path fill-rule="evenodd" clip-rule="evenodd" d="M47.9813 29.3811H17.3122C15.2977 29.3811 13.6714 30.7089 13.6714 32.3503V55.4977C13.6714 57.1391 15.2977 58.4669 17.3122 58.4669H47.9708C49.9854 58.4669 51.6117 57.1391 51.6117 55.4977V32.3503C51.6117 30.7089 49.9854 29.3811 47.9708 29.3811H47.9813ZM36.146 53.6785H29.1581L30.5116 43.5685C29.263 42.8367 28.4236 41.488 28.4236 39.9406C28.4236 37.6092 30.3122 35.7273 32.652 35.7273C34.9918 35.7273 36.8804 37.6092 36.8804 39.9406C36.8804 41.488 36.041 42.8367 34.7925 43.5685L36.146 53.6785Z" fill="#FFC000"/>
<path fill-rule="evenodd" clip-rule="evenodd" d="M13.0244 32.3502C13.0244 30.3423 14.9745 28.881 17.1653 28.881H47.8343L47.8393 28.881C50.0237 28.8879 51.9647 30.347 51.9647 32.3502V55.4975C51.9647 57.5054 50.0146 58.9668 47.8238 58.9668H17.1653C14.9745 58.9668 13.0244 57.5054 13.0244 55.4975V32.3502ZM47.8238 29.881H17.1653C15.3269 29.881 14.0244 31.0752 14.0244 32.3502V55.4975C14.0244 56.7725 15.3269 57.9668 17.1653 57.9668H47.8238C49.6622 57.9668 50.9647 56.7725 50.9647 55.4975V32.3502C50.9647 31.0752 49.6622 29.881 47.8238 29.881Z" fill="black"/>
<path fill-rule="evenodd" clip-rule="evenodd" d="M17.8121 19.5327V22.263H20.9042V19.5324C20.9042 13.7966 25.2856 9.08969 31.0781 9.08969H33.911C39.7035 9.08969 44.0849 13.7966 44.0849 19.5324V28.881H47.177V19.5324C47.177 12.0701 41.3767 6.02271 33.911 6.02271H31.0781C23.6234 6.02271 17.8225 12.0697 17.8121 19.5327ZM16.8121 19.5317C16.823 11.5424 23.0462 5.02271 31.0781 5.02271H33.911C41.953 5.02271 48.177 11.5422 48.177 19.5324V29.381C48.177 29.6571 47.9531 29.881 47.677 29.881H43.5849C43.3088 29.881 43.0849 29.6571 43.0849 29.381V19.5324C43.0849 14.3113 39.1145 10.0897 33.911 10.0897H31.0781C25.8746 10.0897 21.9042 14.3113 21.9042 19.5324V22.763C21.9042 23.0391 21.6803 23.263 21.4042 23.263H17.3121C17.036 23.263 16.8121 23.0391 16.8121 22.763L16.8121 19.5317Z" fill="black"/>
<path fill-rule="evenodd" clip-rule="evenodd" d="M27.7661 39.9301C27.7661 37.3208 29.8803 35.2167 32.4946 35.2167C35.1088 35.2167 37.223 37.3208 37.223 39.9301C37.223 41.5425 36.4087 42.9605 35.173 43.8082L36.5599 54.1679H28.4292L29.8161 43.8082C28.5804 42.9605 27.7661 41.5425 27.7661 39.9301ZM32.4946 36.2167C30.4292 36.2167 28.7661 37.8764 28.7661 39.9301C28.7661 41.2913 29.5038 42.48 30.607 43.1266L30.8938 43.2947L29.572 53.1679H35.4171L34.0953 43.2947L34.3822 43.1266C35.4853 42.48 36.223 41.2913 36.223 39.9301C36.223 37.8764 34.5599 36.2167 32.4946 36.2167Z" fill="black"/>
</svg>
