<svg width="64" height="64" viewBox="0 0 64 64" fill="none" xmlns="http://www.w3.org/2000/svg">
<path d="M54.1302 12.35H48.9019L49.1571 7.75648C49.1868 7.22171 49.6326 6.8053 50.1681 6.81204L53.0194 6.8479C53.5561 6.85465 53.9918 7.28394 54.0065 7.82051L54.1302 12.35Z" fill="#FFC000" stroke="black"/>
<path d="M47.9 31.19L41.55 36.37V23.91C41.55 23.49 41.21 23.15 40.79 23.15C40.61 23.15 40.44 23.21 40.31 23.32L24.33 36.38V23.9C24.33 23.6 24.16 23.33 23.9 23.21C23.63 23.08 23.32 23.12 23.09 23.31L5.77 37.39C5.6 37.53 5.5 37.75 5.5 37.98V55.77C5.5 56.19 5.84 56.53 6.26 56.53H58.02C58.44 56.53 58.78 56.19 58.78 55.77V23.9C58.78 23.62 58.61 23.36 58.36 23.23C58.1 23.1 57.78 23.14 57.55 23.32L54.97 25.42L47.89 31.2L47.9 31.19ZM47.9 31.19L49.05 7.22C49.07 6.82 49.4 6.5 49.81 6.5H53.35C53.75 6.5 54.09 6.81 54.11 7.22L54.34 12.12L54.98 25.41" stroke="black" stroke-miterlimit="10"/>
<path d="M48.7202 12.35H54.2902" stroke="black" stroke-miterlimit="10"/>
<rect x="27.7178" y="47.7139" width="12.0073" height="8.8161" fill="#FFC000" stroke="black"/>
</svg>
