<svg width="64" height="64" viewBox="0 0 64 64" fill="none" xmlns="http://www.w3.org/2000/svg">
<path d="M43 10.7301V52.2737C43 53.7421 41.3064 54.5392 40.1946 53.5848L24.9728 40.6109C24.6611 40.3487 24.2766 40.2019 23.8714 40.2019H6.80006C6.35327 40.2019 6 39.8348 6 39.3943V23.5886C6 23.1376 6.36366 22.781 6.80006 22.781H23.8714C24.2766 22.781 24.6611 22.6342 24.9728 22.372L40.1946 9.40864C41.3064 8.4647 43 9.2618 43 10.7197V10.7301Z" fill="#FFC000"/>
<path d="M42.5 10.7197C42.5 9.68037 41.2998 9.12681 40.5186 9.79L40.5176 9.78902L25.2969 22.7529L25.2949 22.7548C24.8977 23.089 24.3999 23.2812 23.8711 23.2812H6.7998C6.63985 23.2813 6.5 23.4139 6.5 23.5888V39.3945C6.50013 39.5673 6.63795 39.702 6.7998 39.7021H23.8711C24.3336 39.7021 24.7722 39.8489 25.1406 40.1093L25.2949 40.2285L25.2969 40.2304L40.5186 53.2041L40.5205 53.205L40.6709 53.3164C41.4443 53.8031 42.5 53.2606 42.5 52.2734V10.7197ZM43.5 52.2734C43.5 54.1567 41.3152 55.204 39.8701 53.9648L24.6484 40.9912C24.4229 40.8026 24.1514 40.7021 23.8711 40.7021H6.7998C6.06848 40.702 5.50013 40.1023 5.5 39.3945V23.5888C5.5 22.862 6.08719 22.2813 6.7998 22.2812H23.8711C24.1517 22.2812 24.4227 22.1801 24.6484 21.9912L39.8701 9.02828L39.8711 9.0273L40.0088 8.9189C41.4483 7.86894 43.5 8.90216 43.5 10.7197V52.2734Z" fill="black"/>
<path d="M58.4731 31.5L58.5737 31.5097C58.8017 31.5562 58.9731 31.7582 58.9731 32C58.9731 32.2417 58.8017 32.4437 58.5737 32.4902L58.4731 32.5H49.7173C49.4411 32.5 49.2173 32.2761 49.2173 32C49.2173 31.7238 49.4411 31.5 49.7173 31.5H58.4731Z" fill="black"/>
<path d="M57.5366 19.1282C57.763 19.0746 58.0033 19.1853 58.105 19.4046C58.2209 19.6551 58.1122 19.9525 57.8618 20.0686L49.9272 23.7464L49.8315 23.7796C49.6054 23.8329 49.3648 23.7222 49.2632 23.5032C49.147 23.2527 49.2568 22.9553 49.5073 22.8391L57.4409 19.1604L57.5366 19.1282Z" fill="black"/>
<path d="M57.8618 43.9321C58.1121 44.0483 58.2211 44.3457 58.105 44.5961C57.9887 44.8464 57.6913 44.9554 57.4409 44.8393L57.8618 43.9321ZM49.8315 40.2212L49.9272 40.2534L57.8618 43.9321L57.6509 44.3852L57.4409 44.8393L49.5073 41.1616L49.4194 41.1098C49.2325 40.9718 49.1619 40.7166 49.2632 40.4975C49.3647 40.2784 49.6053 40.1677 49.8315 40.2212Z" fill="black"/>
<path d="M11.3172 40.7075C11.3172 40.4313 11.541 40.2075 11.8172 40.2075C12.0933 40.2075 12.3172 40.4313 12.3172 40.7075V53.1479H20.6101V41.0004C20.6104 40.7246 20.8343 40.5006 21.1101 40.5004C21.3861 40.5004 21.6099 40.7245 21.6101 41.0004V53.6479C21.6101 53.924 21.3863 54.1479 21.1101 54.1479H11.8172C11.541 54.1479 11.3172 53.924 11.3172 53.6479V40.7075Z" fill="black"/>
</svg>
