<svg width="64" height="64" viewBox="0 0 64 64" fill="none" xmlns="http://www.w3.org/2000/svg">
<path d="M9.5 54V20.4805H10.5V54C10.5 54.8284 11.1716 55.5 12 55.5H52C52.8284 55.5 53.5 54.8284 53.5 54V19H54.5V54C54.5 55.3807 53.3807 56.5 52 56.5H12C10.6193 56.5 9.5 55.3807 9.5 54Z" fill="black"/>
<path d="M48 6H58V19C58 21.7614 55.7614 24 53 24C50.2386 24 48 21.7614 48 19V6Z" fill="#FFC000"/>
<path d="M57 19V7H49V19C49 21.2091 50.7909 23 53 23V24C50.3247 24 48.1405 21.8989 48.0068 19.2568L48 19V6H58V19L57.9932 19.2568C57.8595 21.8989 55.6753 24 53 24V23C55.2091 23 57 21.2091 57 19Z" fill="black"/>
<path d="M40 6H50V19C50 21.7614 47.7614 24 45 24C42.2386 24 40 21.7614 40 19V6Z" fill="#FFC000"/>
<path d="M49 19V7H41V19C41 21.2091 42.7909 23 45 23V24C42.3247 24 40.1405 21.8989 40.0068 19.2568L40 19V6H50V19L49.9932 19.2568C49.8595 21.8989 47.6753 24 45 24V23C47.2091 23 49 21.2091 49 19Z" fill="black"/>
<path d="M29 33V56.5H16V33H29ZM17 55.5H28V34H17V55.5Z" fill="black"/>
<path d="M47 32V47H34V32H47ZM35 46H46V33H35V46Z" fill="black"/>
<path d="M31 6H42V18.5C42 21.5376 39.5376 24 36.5 24C33.4624 24 31 21.5376 31 18.5V6Z" fill="#FFC000"/>
<path d="M41 18.5V7H32V18.5C32 20.9853 34.0147 23 36.5 23V24C33.4624 24 31 21.5376 31 18.5V6H42V18.5L41.9932 18.7832C41.8458 21.6892 39.4426 24 36.5 24V23C38.9853 23 41 20.9853 41 18.5Z" fill="black"/>
<path d="M22 6H33V18.5C33 21.5376 30.5376 24 27.5 24C24.4624 24 22 21.5376 22 18.5V6Z" fill="#FFC000"/>
<path d="M32 18.5V7H23V18.5C23 20.9853 25.0147 23 27.5 23V24C24.4624 24 22 21.5376 22 18.5V6H33V18.5L32.9932 18.7832C32.8458 21.6892 30.4426 24 27.5 24V23C29.9853 23 32 20.9853 32 18.5Z" fill="black"/>
<path d="M14 6H24V19C24 21.7614 21.7614 24 19 24C16.2386 24 14 21.7614 14 19V6Z" fill="#FFC000"/>
<path d="M23 19V7H15V19C15 21.2091 16.7909 23 19 23V24C16.3247 24 14.1405 21.8989 14.0068 19.2568L14 19V6H24V19L23.9932 19.2568C23.8595 21.8989 21.6753 24 19 24V23C21.2091 23 23 21.2091 23 19Z" fill="black"/>
<path d="M6 6H16V19C16 21.7614 13.7614 24 11 24C8.23858 24 6 21.7614 6 19V6Z" fill="#FFC000"/>
<path d="M15 19V7H7V19C7 21.2091 8.79086 23 11 23V24C8.32472 24 6.14053 21.8989 6.00684 19.2568L6 19V6H16V19L15.9932 19.2568C15.8595 21.8989 13.6753 24 11 24V23C13.2091 23 15 21.2091 15 19Z" fill="black"/>
</svg>
