<svg width="64" height="64" viewBox="0 0 64 64" fill="none" xmlns="http://www.w3.org/2000/svg">
<path fill-rule="evenodd" clip-rule="evenodd" d="M27.98 40.86V24.72H26.98V41.86H36.3V24.72H35.3V40.86H27.98Z" fill="black"/>
<path d="M31.1202 25.76C36.5768 25.76 41.0002 21.3366 41.0002 15.88C41.0002 10.4234 36.5768 6 31.1202 6C25.6637 6 21.2402 10.4234 21.2402 15.88C21.2402 21.3366 25.6637 25.76 31.1202 25.76Z" fill="#FFC000"/>
<path fill-rule="evenodd" clip-rule="evenodd" d="M31.1202 6.5C25.9398 6.5 21.7402 10.6996 21.7402 15.88C21.7402 21.0604 25.9398 25.26 31.1202 25.26C36.3007 25.26 40.5002 21.0604 40.5002 15.88C40.5002 10.6996 36.3007 6.5 31.1202 6.5ZM20.7402 15.88C20.7402 10.1473 25.3875 5.5 31.1202 5.5C36.8529 5.5 41.5002 10.1473 41.5002 15.88C41.5002 21.6127 36.8529 26.26 31.1202 26.26C25.3875 26.26 20.7402 21.6127 20.7402 15.88Z" fill="black"/>
<path fill-rule="evenodd" clip-rule="evenodd" d="M22.8198 45.52C22.8198 45.2439 23.0437 45.02 23.3198 45.02H39.9598C40.236 45.02 40.4598 45.2439 40.4598 45.52C40.4598 45.7962 40.236 46.02 39.9598 46.02H23.3198C23.0437 46.02 22.8198 45.7962 22.8198 45.52Z" fill="black"/>
<path fill-rule="evenodd" clip-rule="evenodd" d="M19.7002 49.6799C19.7002 49.4038 19.9241 49.1799 20.2002 49.1799H43.0802C43.3563 49.1799 43.5802 49.4038 43.5802 49.6799C43.5802 49.9561 43.3563 50.1799 43.0802 50.1799H20.2002C19.9241 50.1799 19.7002 49.9561 19.7002 49.6799Z" fill="black"/>
<path fill-rule="evenodd" clip-rule="evenodd" d="M16.5801 53.8401C16.5801 53.5639 16.8039 53.3401 17.0801 53.3401H45.1601C45.4362 53.3401 45.6601 53.5639 45.6601 53.8401C45.6601 54.1162 45.4362 54.3401 45.1601 54.3401H17.0801C16.8039 54.3401 16.5801 54.1162 16.5801 53.8401Z" fill="black"/>
<path fill-rule="evenodd" clip-rule="evenodd" d="M14.5 58C14.5 57.7239 14.7239 57.5 15 57.5H48.28C48.5561 57.5 48.78 57.7239 48.78 58C48.78 58.2761 48.5561 58.5 48.28 58.5H15C14.7239 58.5 14.5 58.2761 14.5 58Z" fill="black"/>
</svg>
