<svg width="64" height="64" viewBox="0 0 64 64" fill="none" xmlns="http://www.w3.org/2000/svg">
<path fill-rule="evenodd" clip-rule="evenodd" d="M49.243 44.437L31.243 54.437L30.7573 53.5629L48.7573 43.5629L49.243 44.437Z" fill="black"/>
<path fill-rule="evenodd" clip-rule="evenodd" d="M31.3096 25.6075L50.3096 40.6075L49.6899 41.3924L30.6899 26.3924L31.3096 25.6075Z" fill="black"/>
<path d="M30 40.0381C30.5265 39.6772 46 42 46 42L30 40.0381Z" fill="#FFC000"/>
<path fill-rule="evenodd" clip-rule="evenodd" d="M30.1601 40.5073C30.1819 40.502 30.2299 40.4867 30.2827 40.4505L29.7173 39.6257C29.8391 39.5422 29.976 39.5233 30.0223 39.5169L30.0236 39.5167C30.096 39.5067 30.1763 39.5023 30.2566 39.5007C30.4188 39.4975 30.6277 39.5049 30.8692 39.5197C31.3548 39.5494 32.0119 39.6116 32.7766 39.6953C34.3079 39.8631 36.2967 40.1203 38.2649 40.3883C40.234 40.6563 42.1862 40.9356 43.646 41.1479C44.3759 41.254 44.9828 41.3434 45.4073 41.4063C45.6196 41.4377 45.7862 41.4625 45.8998 41.4795L46.0735 41.5054C46.0736 41.5054 46.0742 41.5055 46 42C45.9258 42.4945 45.9257 42.4944 45.9256 42.4944L45.7523 42.4685C45.639 42.4516 45.4727 42.4269 45.2608 42.3955C44.8371 42.3327 44.231 42.2435 43.5021 42.1375C42.0441 41.9255 40.095 41.6466 38.13 41.3791C36.164 41.1115 34.1857 40.8557 32.6677 40.6894C31.9076 40.6061 31.2695 40.5461 30.8081 40.5178C30.5761 40.5036 30.3986 40.4981 30.2763 40.5005C30.2143 40.5018 30.1771 40.505 30.1601 40.5073C30.1603 40.5073 30.1599 40.5074 30.1601 40.5073ZM30.1477 40.5097C30.1474 40.5095 30.1512 40.5086 30.1601 40.5073C30.1525 40.5092 30.148 40.5098 30.1477 40.5097Z" fill="black"/>
<path fill-rule="evenodd" clip-rule="evenodd" d="M15.2396 33.561L26.2396 39.561L25.7607 40.4389L14.7607 34.4389L15.2396 33.561Z" fill="black"/>
<path fill-rule="evenodd" clip-rule="evenodd" d="M12.625 29.6692L27.625 12.6692L28.3748 13.3308L13.3748 30.3308L12.625 29.6692Z" fill="black"/>
<path fill-rule="evenodd" clip-rule="evenodd" d="M31.2186 22.5H50.9999V23.5H31.4627L14.2302 32.4438L13.7695 31.5562L31.2186 22.5Z" fill="black"/>
<path fill-rule="evenodd" clip-rule="evenodd" d="M48.7427 21.4288L33.7427 12.4288L34.2572 11.5713L49.2572 20.5713L48.7427 21.4288Z" fill="black"/>
<path fill-rule="evenodd" clip-rule="evenodd" d="M31.7168 36.588L47.7168 25.588L48.2833 26.4121L32.2833 37.4121L31.7168 36.588Z" fill="black"/>
<path fill-rule="evenodd" clip-rule="evenodd" d="M27.6465 52.3536L10.6465 35.3536L11.3536 34.6465L28.3536 51.6465L27.6465 52.3536Z" fill="black"/>
<path fill-rule="evenodd" clip-rule="evenodd" d="M30.5039 51.062L29.5039 43.062L30.4962 42.938L31.4962 50.938L30.5039 51.062Z" fill="black"/>
<path d="M30.5 17C33.5376 17 36 14.5376 36 11.5C36 8.46243 33.5376 6 30.5 6C27.4624 6 25 8.46243 25 11.5C25 14.5376 27.4624 17 30.5 17Z" fill="#FFC000"/>
<path fill-rule="evenodd" clip-rule="evenodd" d="M30.5 6.5C27.7386 6.5 25.5 8.73858 25.5 11.5C25.5 14.2614 27.7386 16.5 30.5 16.5C33.2614 16.5 35.5 14.2614 35.5 11.5C35.5 8.73858 33.2614 6.5 30.5 6.5ZM24.5 11.5C24.5 8.18629 27.1863 5.5 30.5 5.5C33.8137 5.5 36.5 8.18629 36.5 11.5C36.5 14.8137 33.8137 17.5 30.5 17.5C27.1863 17.5 24.5 14.8137 24.5 11.5Z" fill="black"/>
<path d="M51.5 29C54.5376 29 57 26.5376 57 23.5C57 20.4624 54.5376 18 51.5 18C48.4624 18 46 20.4624 46 23.5C46 26.5376 48.4624 29 51.5 29Z" fill="#FFC000"/>
<path fill-rule="evenodd" clip-rule="evenodd" d="M51.5 18.5C48.7386 18.5 46.5 20.7386 46.5 23.5C46.5 26.2614 48.7386 28.5 51.5 28.5C54.2614 28.5 56.5 26.2614 56.5 23.5C56.5 20.7386 54.2614 18.5 51.5 18.5ZM45.5 23.5C45.5 20.1863 48.1863 17.5 51.5 17.5C54.8137 17.5 57.5 20.1863 57.5 23.5C57.5 26.8137 54.8137 29.5 51.5 29.5C48.1863 29.5 45.5 26.8137 45.5 23.5Z" fill="black"/>
<path d="M11.5 38C14.5376 38 17 35.5376 17 32.5C17 29.4624 14.5376 27 11.5 27C8.46243 27 6 29.4624 6 32.5C6 35.5376 8.46243 38 11.5 38Z" fill="#FFC000"/>
<path fill-rule="evenodd" clip-rule="evenodd" d="M11.5 27.5C8.73858 27.5 6.5 29.7386 6.5 32.5C6.5 35.2614 8.73858 37.5 11.5 37.5C14.2614 37.5 16.5 35.2614 16.5 32.5C16.5 29.7386 14.2614 27.5 11.5 27.5ZM5.5 32.5C5.5 29.1863 8.18629 26.5 11.5 26.5C14.8137 26.5 17.5 29.1863 17.5 32.5C17.5 35.8137 14.8137 38.5 11.5 38.5C8.18629 38.5 5.5 35.8137 5.5 32.5Z" fill="black"/>
<path d="M30.5 59C33.5376 59 36 56.7614 36 54C36 51.2386 33.5376 49 30.5 49C27.4624 49 25 51.2386 25 54C25 56.7614 27.4624 59 30.5 59Z" fill="#FFC000"/>
<path fill-rule="evenodd" clip-rule="evenodd" d="M30.5 49.5C27.6927 49.5 25.5 51.5585 25.5 54C25.5 56.4415 27.6927 58.5 30.5 58.5C33.3073 58.5 35.5 56.4415 35.5 54C35.5 51.5585 33.3073 49.5 30.5 49.5ZM24.5 54C24.5 50.9187 27.2322 48.5 30.5 48.5C33.7678 48.5 36.5 50.9187 36.5 54C36.5 57.0813 33.7678 59.5 30.5 59.5C27.2322 59.5 24.5 57.0813 24.5 54Z" fill="black"/>
<path d="M51 47C53.7614 47 56 44.7614 56 42C56 39.2386 53.7614 37 51 37C48.2386 37 46 39.2386 46 42C46 44.7614 48.2386 47 51 47Z" fill="#FFC000"/>
<path fill-rule="evenodd" clip-rule="evenodd" d="M51 37.5C48.5147 37.5 46.5 39.5147 46.5 42C46.5 44.4853 48.5147 46.5 51 46.5C53.4853 46.5 55.5 44.4853 55.5 42C55.5 39.5147 53.4853 37.5 51 37.5ZM45.5 42C45.5 38.9624 47.9624 36.5 51 36.5C54.0376 36.5 56.5 38.9624 56.5 42C56.5 45.0376 54.0376 47.5 51 47.5C47.9624 47.5 45.5 45.0376 45.5 42Z" fill="black"/>
<path d="M30 45C32.7614 45 35 42.7614 35 40C35 37.2386 32.7614 35 30 35C27.2386 35 25 37.2386 25 40C25 42.7614 27.2386 45 30 45Z" fill="#FFC000"/>
<path fill-rule="evenodd" clip-rule="evenodd" d="M30 35.5C27.5147 35.5 25.5 37.5147 25.5 40C25.5 42.4853 27.5147 44.5 30 44.5C32.4853 44.5 34.5 42.4853 34.5 40C34.5 37.5147 32.4853 35.5 30 35.5ZM24.5 40C24.5 36.9624 26.9624 34.5 30 34.5C33.0376 34.5 35.5 36.9624 35.5 40C35.5 43.0376 33.0376 45.5 30 45.5C26.9624 45.5 24.5 43.0376 24.5 40Z" fill="black"/>
<path d="M30.5 31C33.5376 31 36 28.5376 36 25.5C36 22.4624 33.5376 20 30.5 20C27.4624 20 25 22.4624 25 25.5C25 28.5376 27.4624 31 30.5 31Z" fill="#FFC000"/>
<path fill-rule="evenodd" clip-rule="evenodd" d="M30.5 20.5C27.7386 20.5 25.5 22.7386 25.5 25.5C25.5 28.2614 27.7386 30.5 30.5 30.5C33.2614 30.5 35.5 28.2614 35.5 25.5C35.5 22.7386 33.2614 20.5 30.5 20.5ZM24.5 25.5C24.5 22.1863 27.1863 19.5 30.5 19.5C33.8137 19.5 36.5 22.1863 36.5 25.5C36.5 28.8137 33.8137 31.5 30.5 31.5C27.1863 31.5 24.5 28.8137 24.5 25.5Z" fill="black"/>
</svg>
