<svg width="64" height="64" viewBox="0 0 64 64" fill="none" xmlns="http://www.w3.org/2000/svg">
<path fill-rule="evenodd" clip-rule="evenodd" d="M17.0291 8.97464C13.1894 10.8073 11.0279 13.2416 11.0279 15.7666C11.0279 18.2915 13.1894 20.7258 17.0291 22.5585C20.8319 24.3735 26.1205 25.5099 31.9892 25.5099C37.8579 25.5099 43.1466 24.3735 46.9493 22.5585C50.789 20.7258 52.9506 18.2915 52.9506 15.7666C52.9506 13.2416 50.789 10.8073 46.9493 8.97464C43.1466 7.15961 37.8579 6.02319 31.9892 6.02319C26.1205 6.02319 20.8319 7.15961 17.0291 8.97464ZM16.5984 8.07217C20.5631 6.17983 26.0052 5.02319 31.9892 5.02319C37.9733 5.02319 43.4153 6.17983 47.3801 8.07217C51.3079 9.94688 53.9506 12.6342 53.9506 15.7666C53.9506 18.8989 51.3079 21.5862 47.3801 23.4609C43.4153 25.3533 37.9733 26.5099 31.9892 26.5099C26.0052 26.5099 20.5631 25.3533 16.5984 23.4609C12.6706 21.5862 10.0279 18.8989 10.0279 15.7666C10.0279 12.6342 12.6706 9.94688 16.5984 8.07217Z" fill="black"/>
<path fill-rule="evenodd" clip-rule="evenodd" d="M12.5804 36.3475V45.6087L12.4168 45.7575C11.8472 46.2755 11.5011 46.9127 11.2969 47.4327C11.1956 47.691 11.1313 47.9151 11.0927 48.0725C11.0735 48.1511 11.0608 48.2126 11.0531 48.2529C11.0516 48.2608 11.0503 48.2678 11.0492 48.274C11.0722 50.7861 13.2317 53.2042 17.0512 55.0266C20.8542 56.8413 26.1429 57.9769 32.0103 57.9769C37.8778 57.9769 43.1665 56.8413 46.9695 55.0266C50.8095 53.1944 52.9717 50.7601 52.9717 48.2335H53.9717C53.9717 51.3675 51.3283 54.0548 47.4002 55.9292C43.4351 57.8211 37.9931 58.9769 32.0103 58.9769C26.0276 58.9769 20.5856 57.8211 16.6205 55.9292C12.6923 54.0548 10.049 51.3675 10.049 48.2335V48.1974L10.0542 48.1617L10.549 48.2335C10.0542 48.1617 10.0542 48.1617 10.0542 48.1617L10.0544 48.1601L10.0547 48.1579L10.0557 48.1517L10.0589 48.1321C10.0616 48.116 10.0655 48.0936 10.0708 48.0657C10.0814 48.0099 10.0978 47.9314 10.1214 47.8347C10.1687 47.6417 10.2457 47.374 10.3661 47.0673C10.5868 46.5051 10.9604 45.7936 11.5804 45.1737V36.3475H12.5804Z" fill="black"/>
<path fill-rule="evenodd" clip-rule="evenodd" d="M11.5804 28.6342V19.7111H12.5804V29.0045L12.4543 29.146L12.4521 29.1485L12.4404 29.1622C12.4294 29.1751 12.4121 29.1957 12.3897 29.2234C12.3448 29.2789 12.2792 29.363 12.2006 29.4725C12.0432 29.692 11.8358 30.0107 11.6391 30.403C11.2428 31.1936 10.9085 32.246 11.0691 33.3776C11.3805 35.571 13.6515 38.4844 22.5285 40.2516L22.3333 41.2323C13.3928 39.4525 10.4885 36.402 10.079 33.5182C9.87927 32.1111 10.2981 30.8466 10.7451 29.9549C10.9701 29.5061 11.2068 29.1423 11.3881 28.8896C11.4628 28.7855 11.5285 28.6998 11.5804 28.6342Z" fill="black"/>
<path fill-rule="evenodd" clip-rule="evenodd" d="M52.4191 45.1737V36.3475H51.4191V45.6087L51.5827 45.7575C52.1523 46.2755 52.4985 46.9127 52.7026 47.4327C52.804 47.691 52.8683 47.9151 52.9068 48.0725C52.9261 48.1511 52.9388 48.2126 52.9465 48.2529C52.948 48.2608 52.9493 48.2678 52.9504 48.274C52.9274 50.7861 50.7678 53.2042 46.9484 55.0266C43.1453 56.8413 37.8567 57.9769 31.9892 57.9769C26.1217 57.9769 20.8331 56.8413 17.03 55.0266C13.1901 53.1944 11.0279 50.7601 11.0279 48.2335H10.0279C10.0279 51.3675 12.6712 54.0548 16.5994 55.9292C20.5644 57.8211 26.0065 58.9769 31.9892 58.9769C37.972 58.9769 43.414 57.8211 47.379 55.9292C51.3072 54.0548 53.9506 51.3675 53.9506 48.2335V48.1974L53.9454 48.1617L53.4506 48.2335C53.9454 48.1617 53.9454 48.1617 53.9454 48.1617L53.9452 48.1601L53.9448 48.1579L53.9439 48.1517L53.9407 48.1321C53.938 48.116 53.9341 48.0936 53.9288 48.0657C53.9181 48.0099 53.9018 47.9314 53.8781 47.8347C53.8309 47.6417 53.7539 47.374 53.6335 47.0673C53.4128 46.5051 53.0391 45.7936 52.4191 45.1737Z" fill="black"/>
<path fill-rule="evenodd" clip-rule="evenodd" d="M51.4191 19.7111H52.4191V28.6342C52.4711 28.6998 52.5367 28.7855 52.6114 28.8896C52.7927 29.1423 53.0295 29.5061 53.2545 29.9549C53.7014 30.8466 54.1203 32.1111 53.9205 33.5182C53.5111 36.402 50.6068 39.4525 41.6663 41.2323L41.4711 40.2516C50.3481 38.4844 52.619 35.571 52.9305 33.3776C53.0911 32.246 52.7568 31.1936 52.3605 30.403C52.1638 30.0107 51.9564 29.692 51.7989 29.4725C51.7204 29.363 51.6548 29.2789 51.6099 29.2234C51.5874 29.1957 51.5702 29.1751 51.5592 29.1622L51.5475 29.1485L51.5458 29.1466L51.4191 29.0045V19.7111Z" fill="black"/>
<path d="M22.9801 17.9533C24.9808 17.9533 26.6028 17.1289 26.6028 16.1118C26.6028 15.0948 24.9808 14.2703 22.9801 14.2703C20.9794 14.2703 19.3574 15.0948 19.3574 16.1118C19.3574 17.1289 20.9794 17.9533 22.9801 17.9533Z" fill="black"/>
<path d="M31.9894 30.6345C31.9894 30.6345 36.5837 35.8661 36.5837 40.8151C36.5837 47.3964 31.9894 48.5473 31.9894 48.5473C31.9894 48.5473 27.395 47.3964 27.395 40.8151C27.395 35.8661 31.9894 30.6345 31.9894 30.6345Z" fill="#FFC000"/>
<path fill-rule="evenodd" clip-rule="evenodd" d="M32.365 30.3046L31.9894 30.6346L31.6137 30.3046L31.9894 29.8768L32.365 30.3046ZM31.9894 48.5474C31.8679 49.0324 31.8675 49.0323 31.8672 49.0322L31.8644 49.0315L31.8594 49.0302L31.8442 49.0261C31.832 49.0228 31.8154 49.0181 31.7948 49.012C31.7537 48.9997 31.6966 48.9816 31.6256 48.9566C31.4837 48.9065 31.2862 48.8286 31.0518 48.7138C30.5831 48.4846 29.9633 48.1068 29.3447 47.5087C28.0954 46.301 26.895 44.2368 26.895 40.8151C26.895 38.2035 28.1001 35.5629 29.2627 33.6129C29.8487 32.6301 30.434 31.806 30.8731 31.2271C31.0929 30.9375 31.2765 30.7086 31.4058 30.5514C31.4705 30.4727 31.5217 30.412 31.557 30.3704L31.598 30.3226L31.6091 30.3098L31.6122 30.3063L31.6137 30.3046C31.6138 30.3045 31.6137 30.3046 31.9894 30.6346C32.365 30.3046 32.3649 30.3045 32.365 30.3046L32.3665 30.3063L32.3696 30.3098L32.3807 30.3226L32.4217 30.3704C32.4571 30.412 32.5082 30.4727 32.5729 30.5514C32.7023 30.7086 32.8858 30.9375 33.1056 31.2271C33.5447 31.806 34.1301 32.6301 34.716 33.6129C35.8786 35.5629 37.0837 38.2035 37.0837 40.8151C37.0837 44.2368 35.8833 46.301 34.634 47.5087C34.0154 48.1068 33.3956 48.4846 32.927 48.7138C32.6925 48.8286 32.495 48.9065 32.3531 48.9566C32.2822 48.9816 32.225 48.9997 32.1839 49.012C32.1633 49.0181 32.1468 49.0228 32.1345 49.0261L32.1194 49.0302L32.1143 49.0315L32.1123 49.032C32.112 49.0321 32.1109 49.0324 31.9894 48.5474ZM31.9894 48.5474L31.8672 49.0322L31.9894 49.0628L32.1109 49.0324L31.9894 48.5474ZM31.9894 48.0243C31.9992 48.021 32.0095 48.0174 32.0204 48.0135C32.1298 47.9749 32.2913 47.9116 32.4875 47.8156C32.8803 47.6234 33.409 47.3021 33.939 46.7898C34.9869 45.7767 36.0837 43.9748 36.0837 40.8151C36.0837 38.4777 34.9916 36.028 33.8571 34.125C33.2944 33.1813 32.7312 32.3882 32.3089 31.8315C32.19 31.6748 32.0824 31.537 31.9894 31.4201C31.8963 31.537 31.7887 31.6748 31.6698 31.8315C31.2475 32.3882 30.6843 33.1813 30.1217 34.125C28.9871 36.028 27.895 38.4777 27.895 40.8151C27.895 43.9748 28.9918 45.7767 30.0397 46.7898C30.5697 47.3021 31.0984 47.6234 31.4912 47.8156C31.6875 47.9116 31.8489 47.9749 31.9583 48.0135C31.9692 48.0174 31.9795 48.021 31.9894 48.0243ZM31.866 48.0628C31.8657 48.0629 31.8658 48.0629 31.866 48.0628V48.0628Z" fill="black"/>
<path fill-rule="evenodd" clip-rule="evenodd" d="M31.9893 39.8339C32.2654 39.8339 32.4893 40.0577 32.4893 40.3339V51.5608C32.4893 51.8369 32.2654 52.0608 31.9893 52.0608C31.7131 52.0608 31.4893 51.8369 31.4893 51.5608V40.3339C31.4893 40.0577 31.7131 39.8339 31.9893 39.8339Z" fill="black"/>
</svg>
