<svg width="64" height="64" viewBox="0 0 64 64" fill="none" xmlns="http://www.w3.org/2000/svg">
<path fill-rule="evenodd" clip-rule="evenodd" d="M55.4964 61.5075L53.6595 41.8552C53.5154 40.313 52.4937 38.9925 51.037 38.4658L39.119 34.1567C38.0012 34.6886 37.0291 35.1227 35.9954 35.4246C34.8277 35.7656 33.6154 35.9294 32.0306 35.9294C30.1693 35.9294 28.8051 35.6991 27.6175 35.3234C26.6465 35.0162 25.803 34.6119 24.9681 34.2117C24.9296 34.1933 24.8912 34.1749 24.8527 34.1565L12.9613 38.4645C11.5058 38.9918 10.4852 40.3117 10.3412 41.853L8.50408 61.5075H55.4964ZM56.5942 62.5075H7.40625L9.34551 41.76C9.52561 39.8333 10.8013 38.1834 12.6207 37.5243L24.9052 33.0739C25.079 33.1559 25.2489 33.2372 25.4161 33.3173C27.251 34.196 28.7825 34.9294 32.0306 34.9294C35.0489 34.9294 36.4926 34.3088 39.0653 33.0739L51.377 37.5254C53.1979 38.1838 54.475 39.8343 54.6552 41.7622L56.5942 62.5075Z" fill="black"/>
<path d="M48.4032 18.3463V18.0693C48.4032 17.4468 47.8985 16.9422 47.276 16.9422C46.6535 16.9422 46.1541 16.4363 46.0937 15.8168C45.6038 10.7915 41.9116 6.06152 37.4524 4.1756L36.9484 1.77905H27.1644L26.6915 4.1756C21.4781 6.01207 18.2479 10.6676 17.8856 15.945C17.8479 16.4948 17.4048 16.9422 16.8537 16.9422C16.3027 16.9422 15.856 17.3889 15.856 17.94V18.3463H48.4032Z" fill="#FFC000"/>
<path fill-rule="evenodd" clip-rule="evenodd" d="M26.7534 1.27905H37.3542L37.8886 3.82019C42.3991 5.8396 46.0916 10.6427 46.5913 15.7683C46.6297 16.1621 46.9403 16.4422 47.276 16.4422C48.1747 16.4422 48.9032 17.1707 48.9032 18.0693V18.8463H15.356V17.94C15.356 17.1128 16.0265 16.4422 16.8537 16.4422C17.1204 16.4422 17.3655 16.2203 17.3868 15.9108C17.7555 10.54 20.9993 5.77338 26.2556 3.80211L26.7534 1.27905ZM26.0156 4.97671C21.4985 6.92704 18.714 11.1781 18.3844 15.9792C18.3302 16.7692 17.6891 17.4422 16.8537 17.4422C16.6108 17.4422 16.4086 17.6162 16.3648 17.8463H47.8623C47.7724 17.6101 47.5438 17.4422 47.276 17.4422C46.3667 17.4422 45.6785 16.7106 45.5961 15.8653C45.1248 11.0314 41.5564 6.45419 37.2576 4.63611L37.0169 4.53429L36.5426 2.27905H27.5753L27.1812 4.2767L26.7042 6.58702L25.7248 6.38482L26.0156 4.97671Z" fill="black"/>
<path fill-rule="evenodd" clip-rule="evenodd" d="M37.9185 3.93481L38.3869 6.47802L37.4034 6.65915L36.9351 4.11594L37.9185 3.93481Z" fill="black"/>
<path fill-rule="evenodd" clip-rule="evenodd" d="M20.8867 17.903V25.1813C20.8867 30.428 25.14 34.6813 30.3867 34.6813H33.6128C38.8595 34.6813 43.1128 30.428 43.1128 25.1813V17.903H44.1128V25.1813C44.1128 30.9803 39.4118 35.6813 33.6128 35.6813H30.3867C24.5877 35.6813 19.8867 30.9803 19.8867 25.1813V17.903H20.8867Z" fill="black"/>
</svg>
