<svg width="64" height="64" viewBox="0 0 64 64" fill="none" xmlns="http://www.w3.org/2000/svg">
<g clip-path="url(#clip0_5_116)">
<path d="M56.8806 32.5681C56.9018 33.1887 56.4779 33.7358 55.8738 33.8726L52.1648 34.6826C51.7621 34.7668 51.3488 34.8194 50.9355 34.8194C49.9075 34.8509 49.3353 34.63 47.7775 33.7463C47.6927 33.7042 47.6185 33.6411 47.5549 33.578L47.2476 33.3045C46.7495 32.8626 46.6754 32.1052 47.0887 31.5792C48.6571 29.5277 50.3314 29.0543 54.4856 28.2863C54.4856 28.2863 55.6725 27.9918 55.9692 28.5809C56.3719 29.3804 56.711 30.7165 56.8064 31.1268C56.8276 31.211 56.8382 31.2951 56.8382 31.3688L56.8806 32.5681Z" fill="#FFC000"/>
<path d="M50.7237 35.3559C49.7064 35.3559 49.007 35.0613 47.5022 34.2092C47.3856 34.1461 47.2796 34.0725 47.1842 33.9778L46.8875 33.7042C46.1881 33.0836 46.0927 32.0105 46.6544 31.2741C48.3288 29.0859 50.0985 28.5704 54.3798 27.7814C54.5176 27.7498 55.9588 27.4132 56.4357 28.36C56.8702 29.2121 57.2199 30.6113 57.3153 31.0216C57.3471 31.1373 57.3577 31.2531 57.3683 31.3688L57.4106 32.5681C57.4424 33.4412 56.849 34.2092 55.98 34.3986L52.271 35.2192C51.8259 35.3138 51.3808 35.3664 50.9251 35.3664C50.8509 35.3664 50.7873 35.3664 50.7237 35.3664V35.3559ZM55.0898 28.7387C54.9415 28.7387 54.7613 28.7598 54.5918 28.7913C50.5012 29.5593 48.9434 29.9906 47.4916 31.8948C47.2584 32.1999 47.3008 32.6522 47.5869 32.9152L47.8943 33.1888C47.8943 33.1888 47.979 33.2624 48.0214 33.2834C49.5686 34.1671 50.0243 34.3249 50.9039 34.2934C51.296 34.2934 51.6669 34.2513 52.0378 34.1671L55.7469 33.3466C56.1072 33.2624 56.3615 32.9468 56.3403 32.5786L56.2979 31.3793C56.2979 31.3793 56.2979 31.2846 56.2767 31.232C56.086 30.443 55.7787 29.391 55.4713 28.8019C55.4501 28.7598 55.2912 28.7282 55.0898 28.7282V28.7387Z" fill="black"/>
<path d="M55.8737 26.5821H53.945V25.5301H55.8737C56.6897 25.5301 57.4103 25.0672 57.7494 24.3308C58.0885 23.6049 57.9825 22.8054 57.4633 22.2057C56.7003 21.322 55.5981 20.8171 54.4324 20.8171H52.4931C51.8467 20.8171 51.285 21.2589 51.1261 21.8901L50.0981 21.6482C50.3631 20.5435 51.3486 19.7756 52.4931 19.7756H54.4324C55.9161 19.7756 57.3149 20.4173 58.2793 21.5324C59.0635 22.4372 59.233 23.6891 58.7243 24.7832C58.2051 25.8983 57.1242 26.5926 55.8843 26.5926L55.8737 26.5821Z" fill="black"/>
<path d="M9.05494 26.5821H7.12623C5.89694 26.5821 4.80542 25.8878 4.28615 24.7727C3.77748 23.6786 3.94704 22.4372 4.73124 21.5219C5.6956 20.4068 7.09444 19.7651 8.57806 19.7651H10.5174C11.6619 19.7651 12.6474 20.5436 12.9124 21.6377L11.8844 21.8796C11.7361 21.2484 11.1744 20.8066 10.5174 20.8066H8.57806C7.41236 20.8066 6.29964 21.3115 5.54723 22.1952C5.02797 22.7949 4.92199 23.5944 5.26111 24.3203C5.60022 25.0567 6.32084 25.5196 7.13683 25.5196H9.06554V26.5716L9.05494 26.5821Z" fill="black"/>
<path d="M13.8341 50H8.84273C7.05178 50 5.58936 48.5482 5.58936 46.7703V41.5207L6.64909 41.4786C6.64909 41.4786 6.95641 44.5295 8.49302 44.5295H14.9044C15.5932 44.5295 16.1443 45.066 16.1655 45.7498L16.2079 47.4541C16.2079 48.8638 15.1481 50 13.8447 50H13.8341ZM6.64909 44.6136V46.7703C6.64909 47.9696 7.63464 48.948 8.84273 48.948H13.8341C14.65 48.948 15.1375 48.201 15.1375 47.4751L15.0951 45.7814C15.0951 45.6762 14.9998 45.5815 14.8938 45.5815H8.48242C7.65583 45.5815 7.06238 45.1712 6.63849 44.6136H6.64909Z" fill="black"/>
<path d="M9.69073 45.3606C8.78996 45.3606 7.59246 45.2239 6.93543 44.5716C6.20421 43.8457 5.84391 42.9726 5.68495 42.5097C5.62136 42.3413 5.60017 42.152 5.58957 41.9626L5.4624 32.4734C5.4624 30.0854 6.71288 27.3922 8.6204 25.6038C8.95951 25.2882 9.4046 25.1093 9.87088 25.1093H53.0973C53.5636 25.1093 54.0086 25.2776 54.3372 25.5932C56.446 27.571 57.5269 30.6745 57.5269 34.8194L57.6223 41.7207C57.6223 41.8259 57.6223 41.9311 57.6011 42.0363C57.4846 42.7201 57.0925 44.3612 55.895 44.9609C55.0578 45.3711 53.235 45.3185 52.6946 45.287L52.6522 44.761V45.287L10.6339 45.308C10.4219 45.3291 10.0828 45.3501 9.68013 45.3501L9.69073 45.3606ZM9.87088 26.1613C9.66953 26.1613 9.48938 26.235 9.34102 26.3717C7.65604 27.9498 6.52213 30.401 6.51154 32.4629L6.6387 41.9416C6.6387 42.0257 6.6493 42.0994 6.68109 42.173C6.78707 42.4781 7.08379 43.2356 7.67724 43.8247C8.13292 44.2771 9.43639 44.3717 10.4537 44.2665C10.5173 44.2665 10.5809 44.2665 10.6445 44.2665L52.6734 44.2455H52.7476C53.7331 44.2981 54.9836 44.2455 55.4287 44.0351C56.0539 43.73 56.4354 42.678 56.5626 41.889C56.5626 41.8469 56.5732 41.8048 56.5626 41.7522L56.4672 34.8405C56.4672 30.9901 55.5029 28.1496 53.6059 26.3717C53.4682 26.2455 53.288 26.1718 53.0867 26.1718H9.87088V26.1613Z" fill="black"/>
<path d="M16.081 45.0345L15.1484 44.54L15.6783 43.5617C15.7207 43.4775 15.7737 43.3933 15.8373 43.3197C17.0665 41.7101 19.0059 40.7422 21.0405 40.7422H41.9596C44.0367 40.7422 46.0078 41.7417 47.2371 43.4144L47.9153 44.3401L47.0569 44.9608L46.3787 44.0351C45.3508 42.6359 43.6976 41.8048 41.9596 41.8048H21.0405C19.3344 41.8048 17.7024 42.6043 16.6744 43.9614C16.6427 43.993 16.6215 44.0351 16.6109 44.0666L16.081 45.045V45.0345Z" fill="black"/>
<path d="M12.4353 35.3244C12.2869 35.3244 12.1385 35.3244 11.9902 35.2928C10.2098 35.0403 6.11926 34.1987 5.94971 34.1566L6.16165 33.1257C6.16165 33.1257 10.39 33.9988 12.1385 34.2408C13.5586 34.4407 15.3177 33.052 15.8264 32.6102C16.1549 32.3261 16.5788 32.1683 17.0133 32.1683H46.4844V33.2204H17.0027C16.8225 33.2204 16.6424 33.2835 16.5046 33.3992C15.6462 34.1356 14.046 35.3033 12.4247 35.3033L12.4353 35.3244Z" fill="black"/>
<path d="M6.08767 32.5681C6.06648 33.1888 6.49037 33.7359 7.09442 33.8726L10.8035 34.6827C11.2062 34.7668 11.6195 34.8194 12.0328 34.8194C13.2091 34.8194 14.343 34.4302 15.2755 33.7043C15.3073 33.6833 15.3391 33.6517 15.3603 33.6307L15.7206 33.3045C16.2187 32.8627 16.2929 32.1052 15.8796 31.5792C14.3112 29.5278 12.6368 29.0544 8.48266 28.2864C8.48266 28.2864 7.29577 27.9918 6.99904 28.581C6.59635 29.3805 6.25723 30.7166 6.16186 31.1269C6.14066 31.211 6.13006 31.2952 6.13006 31.3688L6.08767 32.5681Z" fill="#FFC000"/>
<path d="M12.0435 35.3454C11.5878 35.3454 11.1427 35.2928 10.6976 35.1981L6.98854 34.3776C6.13016 34.1882 5.52612 33.4202 5.5685 32.547L5.61089 31.3478C5.61089 31.232 5.63209 31.1163 5.66388 31.0006C5.75926 30.5903 6.11956 29.1911 6.54346 28.339C7.00974 27.4027 8.46157 27.7288 8.63113 27.7709C12.87 28.5599 14.6504 29.0649 16.3248 31.2531C16.897 32 16.791 33.0625 16.0916 33.6937L15.7313 34.0199C15.7313 34.0199 15.6571 34.083 15.6147 34.1146C14.5974 34.9036 13.3363 35.3349 12.0435 35.3454ZM7.86812 28.7388C7.66677 28.7388 7.50781 28.7703 7.48662 28.8124C7.18989 29.412 6.87197 30.4641 6.68122 31.2425C6.67062 31.2952 6.66003 31.3372 6.66003 31.3898L6.61764 32.5891C6.60704 32.9573 6.85078 33.2729 7.21109 33.3571L10.9201 34.1777C11.291 34.2618 11.662 34.3039 12.0329 34.3039C13.082 34.3039 14.1205 33.9462 14.9471 33.3045L15.371 32.9258C15.6677 32.6628 15.7101 32.2209 15.4664 31.9053C14.004 30.0012 12.4568 29.5698 8.39798 28.8124C8.20723 28.7703 8.02708 28.7493 7.86812 28.7493V28.7388Z" fill="black"/>
<path d="M53.5951 26.1613H8.09033L9.0123 25.2566C9.0123 25.2566 10.9198 23.384 11.916 21.5114C12.8061 19.8492 16.8331 13.9895 19.705 13.9895H43.284C46.1558 13.9895 50.1934 19.8492 51.073 21.5114C52.0691 23.384 53.9449 25.2356 53.9555 25.2566L54.8668 26.1508H53.5845L53.5951 26.1613ZM10.6125 25.1093H52.3871C51.7194 24.3519 50.7869 23.1946 50.151 22.0059C48.8687 19.6178 45.2127 15.0415 43.2946 15.0415H19.7156C17.7975 15.0415 14.1414 19.6073 12.8591 22.0059C12.2233 23.1946 11.2907 24.3413 10.6125 25.1093Z" fill="black"/>
<path d="M54.4751 50H49.4838C48.1803 50 47.1206 48.8638 47.1206 47.4752L47.163 45.7604C47.1842 45.0871 47.7458 44.54 48.4241 44.54H54.8354C56.3827 44.54 56.6794 41.5208 56.6794 41.4892L57.7391 41.5313V46.7808C57.7391 48.5587 56.2767 50.0105 54.4857 50.0105L54.4751 50ZM48.4029 45.5815C48.2969 45.5815 48.2015 45.6657 48.2015 45.7814L48.1591 47.4857C48.1591 48.2011 48.6466 48.948 49.4626 48.948H54.4539C55.662 48.948 56.6476 47.9696 56.6476 46.7703V44.6137C56.2237 45.1713 55.6302 45.5815 54.8036 45.5815H48.3923H48.4029Z" fill="black"/>
</g>
<defs>
<clipPath id="clip0_5_116">
<rect width="55" height="36" fill="white" transform="translate(4 14)"/>
</clipPath>
</defs>
</svg>
