<svg width="64" height="64" viewBox="0 0 64 64" fill="none" xmlns="http://www.w3.org/2000/svg">
<path fill-rule="evenodd" clip-rule="evenodd" d="M36.4093 51.8057L37.3307 52.1943L34.8385 58.1027L37.8754 57.4177L39.8505 60.0299L42.545 54.1295L43.4546 54.5449L40.0638 61.9701L37.4666 58.5351L33.1611 59.5062L36.4093 51.8057Z" fill="black"/>
<path fill-rule="evenodd" clip-rule="evenodd" d="M50.2297 58.0605L48.2925 52.1558L49.2427 51.8441L51.7703 59.5485L48.3786 58.5648L46.2541 62.1774L43.5288 54.5045L44.4711 54.1698L46.4789 59.8225L47.9106 57.3879L50.2297 58.0605Z" fill="black"/>
<path fill-rule="evenodd" clip-rule="evenodd" d="M7.5 4.5H56.5V50.5H51.5V49.5H55.5V5.5H8.5V49.5H34V50.5H7.5V4.5Z" fill="black"/>
<path fill-rule="evenodd" clip-rule="evenodd" d="M47 12.5L18 12.5V11.5L47 11.5V12.5Z" fill="black"/>
<path fill-rule="evenodd" clip-rule="evenodd" d="M46 20.5H18V19.5H46V20.5Z" fill="black"/>
<path fill-rule="evenodd" clip-rule="evenodd" d="M31 36.5H18V35.5H31V36.5Z" fill="black"/>
<path fill-rule="evenodd" clip-rule="evenodd" d="M28 44.5H18V43.5H28V44.5Z" fill="black"/>
<path fill-rule="evenodd" clip-rule="evenodd" d="M46 28.5H18V27.5H46V28.5Z" fill="black"/>
<path fill-rule="evenodd" clip-rule="evenodd" d="M52.2481 40.924C52.147 41.6416 52.339 42.2531 52.8091 42.799L52.804 42.7889C53.2841 43.3448 53.3448 43.9462 52.9758 44.583C52.5968 45.235 52.5412 45.9021 52.7838 46.6147C53.0314 47.3374 52.8697 47.8833 52.2683 48.3634C51.7022 48.8183 51.4142 49.3944 51.3939 50.1171C51.3737 50.8904 51.025 51.3655 50.2922 51.603C49.625 51.8203 49.1247 52.2196 48.8568 52.8615C48.5384 53.6297 47.9926 53.9885 47.3558 53.9329C46.4613 53.8773 45.8851 54.13 45.3999 54.6354C44.8693 55.1863 44.3285 55.3025 43.6361 54.9841C42.9437 54.6657 42.2665 54.6708 41.5741 54.9841C40.8766 55.2975 40.3409 55.1913 39.8102 54.6404C39.32 54.1249 38.7287 53.8773 38.0211 53.9228C37.2226 53.9784 36.6768 53.6398 36.3685 52.8918C36.1006 52.2499 35.6104 51.8355 34.9483 51.6182C34.175 51.3604 33.8415 50.9056 33.8162 50.0969C33.7909 49.3995 33.5079 48.8284 32.9671 48.3887C32.3354 47.8782 32.1787 47.3627 32.4365 46.5996C32.674 45.9021 32.6083 45.24 32.2394 44.5982C31.8654 43.9462 31.9311 43.3549 32.4264 42.7788C32.8812 42.2531 33.0632 41.6517 32.9772 40.9543C32.861 40.0243 33.0632 39.6402 33.8718 39.1803C34.4682 38.8417 34.8422 38.3313 34.9786 37.6591C35.0443 37.3558 35.1505 37.0829 35.3627 36.8555C35.5851 36.6129 35.8681 36.4613 36.1966 36.431C37.0356 36.3552 37.6522 35.9559 38.1121 35.2534C38.4709 34.7126 39.0117 34.5206 39.6384 34.6823C40.4319 34.8895 41.1344 34.748 41.7964 34.2729C42.3119 33.909 42.9184 33.909 43.4289 34.2729C44.0909 34.748 44.7934 34.8895 45.5869 34.6873C46.254 34.5155 46.7847 34.7429 47.1688 35.3191C47.5832 35.9407 48.1341 36.3097 48.8872 36.4107C49.7009 36.5169 50.0597 36.8707 50.2467 37.6843C50.3983 38.3666 50.7824 38.867 51.3939 39.2056C52.1318 39.615 52.3694 40.0799 52.2481 40.924ZM42.6071 51.0795C39.0184 51.0795 36.1071 48.2514 36.1071 44.7651C36.1071 41.2788 39.0184 38.0795 42.6071 38.0795C46.1959 38.0795 49.1071 41.2788 49.1071 44.7651C49.1071 48.2514 46.1959 51.0795 42.6071 51.0795Z" fill="#FFC000"/>
<path fill-rule="evenodd" clip-rule="evenodd" d="M41.5081 33.8644C42.1956 33.3791 43.0342 33.3775 43.7191 33.8658L43.7204 33.8667C44.2658 34.258 44.817 34.3675 45.4635 34.2028L45.587 34.6873L45.4622 34.2031C45.8814 34.0952 46.2927 34.1051 46.6724 34.2596C47.0494 34.4129 47.3507 34.6905 47.5849 35.0417C47.9251 35.5521 48.3526 35.8343 48.9529 35.9151C49.4176 35.9758 49.8264 36.1167 50.1458 36.4192C50.4619 36.7185 50.6299 37.1194 50.734 37.5724L50.7348 37.5759C50.8544 38.1138 51.1458 38.4967 51.6362 38.7682L51.6365 38.7684C52.0517 38.9987 52.3914 39.28 52.5904 39.6782C52.7896 40.0766 52.8114 40.5184 52.7431 40.9942C52.6637 41.559 52.8059 42.0249 53.1802 42.4636L53.1824 42.4621C53.4747 42.8005 53.6649 43.1837 53.706 43.6073C53.7472 44.0314 53.6339 44.4446 53.4085 44.8337L53.4081 44.8343C53.1046 45.3564 53.0593 45.8725 53.2571 46.4536C53.4041 46.8828 53.4458 47.3091 53.324 47.7216C53.2024 48.1335 52.9361 48.4699 52.581 48.7536C52.1285 49.1174 51.9099 49.5565 51.8938 50.1311C51.8817 50.5897 51.7703 51.0096 51.5123 51.3583C51.2537 51.7079 50.8843 51.9367 50.4464 52.0786C49.8913 52.2596 49.52 52.5708 49.3183 53.054L48.8569 52.8614L49.3188 53.0529C49.1321 53.5033 48.8634 53.8705 48.5122 54.1159C48.1577 54.3636 47.7468 54.4674 47.3192 54.4316C46.9287 54.4079 46.6361 54.4529 46.4009 54.5416C46.1664 54.63 45.9617 54.7723 45.7606 54.9817L45.7601 54.9823C45.4493 55.3049 45.0956 55.5415 44.6776 55.6259C44.2573 55.7106 43.8395 55.628 43.4272 55.4384C42.8697 55.182 42.3439 55.1846 41.7802 55.4396L41.779 55.4402C41.3681 55.6248 40.9524 55.709 40.5336 55.6271C40.1153 55.5452 39.7619 55.3109 39.4502 54.9873L39.4479 54.985C39.0539 54.5706 38.6048 54.3866 38.0544 54.4217C37.5766 54.4547 37.1302 54.372 36.7466 54.133C36.3632 53.8941 36.0906 53.5291 35.9067 53.0835C35.701 52.5911 35.3323 52.2704 34.7924 52.0932L34.7902 52.0925C34.3416 51.943 33.9635 51.717 33.7002 51.362C33.4373 51.0076 33.3313 50.5818 33.3165 50.1139C33.2962 49.5604 33.0799 49.1249 32.6523 48.777C32.2908 48.4849 32.0139 48.15 31.8891 47.7318C31.7639 47.3119 31.8138 46.8808 31.9628 46.4396L31.9632 46.4384C32.154 45.8782 32.1038 45.3656 31.8059 44.8474L31.8057 44.847C31.5792 44.4521 31.4647 44.0367 31.5096 43.6079C31.5544 43.1807 31.7516 42.7967 32.0472 42.4528L32.0483 42.4516L32.0483 42.4516C32.4096 42.0341 32.5498 41.5742 32.4811 41.0158C32.4191 40.5194 32.4265 40.0688 32.632 39.6645C32.8369 39.2614 33.1953 38.9899 33.6246 38.7457L33.625 38.7455C34.0972 38.4774 34.3813 38.0883 34.4886 37.5596L34.4899 37.5532L34.49 37.5532C34.5658 37.2032 34.6997 36.8339 34.9957 36.516C35.294 36.1912 35.6883 35.9758 36.1507 35.9331L36.1517 35.933C36.8266 35.872 37.3108 35.5645 37.6938 34.9795L37.6955 34.9769L37.6955 34.9769C37.9254 34.6305 38.2307 34.3723 38.6017 34.2353C38.9712 34.0989 39.3689 34.0964 39.7634 34.1981L39.7648 34.1985C40.4096 34.3669 40.9596 34.258 41.505 33.8667L41.5081 33.8644L41.5081 33.8644ZM52.4325 43.1237L52.4302 43.1252C51.8704 42.4751 51.631 41.7206 51.753 40.8542L51.7532 40.8528C51.8061 40.4849 51.7696 40.2726 51.696 40.1254C51.6222 39.9778 51.4742 39.822 51.1518 39.643C50.4196 39.2376 49.943 38.6203 49.759 37.7946C49.6762 37.435 49.5715 37.2526 49.4582 37.1452C49.3482 37.0411 49.1711 36.952 48.8225 36.9065L48.8207 36.9063C47.9153 36.7848 47.2413 36.3291 46.7528 35.5964C46.6029 35.3715 46.4468 35.2473 46.2957 35.1859C46.1472 35.1255 45.9596 35.1077 45.7117 35.1715L45.7104 35.1719C44.7702 35.4114 43.9167 35.238 43.1381 34.6796C42.8028 34.4409 42.4291 34.4391 42.0862 34.6804C41.3081 35.2381 40.454 35.4118 39.5128 35.1663C39.2809 35.1065 39.0951 35.1191 38.948 35.1735C38.8024 35.2272 38.6582 35.3351 38.5295 35.5287C37.9928 36.3477 37.2443 36.8382 36.2422 36.9289C36.0486 36.9469 35.8775 37.0339 35.7313 37.1934L35.7283 37.1967L35.7283 37.1967C35.6013 37.3327 35.5233 37.5078 35.468 37.762C35.3018 38.5759 34.8383 39.2064 34.119 39.6149M52.4325 43.1237C52.6155 43.338 52.6939 43.5308 52.7107 43.7039C52.7276 43.8786 52.6868 44.0843 52.5436 44.3317C52.089 45.1136 52.0231 45.9317 52.3105 46.7759L52.3108 46.7768C52.4113 47.07 52.4124 47.2777 52.3649 47.4385C52.3173 47.5999 52.2023 47.7763 51.9564 47.9727L51.9551 47.9737C51.2758 48.5195 50.9185 49.2325 50.8942 50.1032L50.8941 50.1041C50.8859 50.4184 50.8128 50.6224 50.7083 50.7636C50.6043 50.9042 50.433 51.0318 50.138 51.1274L50.1373 51.1276C49.3585 51.3813 48.7294 51.8686 48.3954 52.6689L48.395 52.67C48.2633 52.9878 48.0999 53.1841 47.9394 53.2962C47.784 53.4048 47.6061 53.4528 47.3993 53.4348L47.3993 53.4346L47.3869 53.4339C46.8856 53.4027 46.4446 53.4563 46.0479 53.606C45.6494 53.7563 45.3235 53.9931 45.0394 54.289C44.8197 54.5169 44.6378 54.6137 44.4798 54.6456C44.3239 54.6771 44.1251 54.6586 43.845 54.5298C43.0178 54.1494 42.1891 54.157 41.3679 54.5286L41.5741 54.9841L41.3692 54.528C41.0826 54.6568 40.8818 54.6762 40.7256 54.6457C40.5693 54.6151 40.3899 54.5212 40.1715 54.2947C39.5855 53.6792 38.8527 53.3683 37.9891 53.4238L37.9864 53.424C37.6662 53.4463 37.441 53.3874 37.2754 53.2842C37.1095 53.1809 36.9552 53.003 36.8308 52.7012L36.8299 52.6992C36.5001 51.9088 35.889 51.401 35.1057 51.1436C34.7815 51.0354 34.6064 50.9051 34.5034 50.7663C34.4001 50.627 34.3266 50.4216 34.316 50.0813L34.3159 50.0788C34.2855 49.2382 33.9359 48.5319 33.2826 48.0007L33.2814 47.9998C33.0114 47.7816 32.8944 47.6036 32.8474 47.446C32.8009 47.2899 32.8015 47.0817 32.91 46.7602C33.194 45.9258 33.1128 45.1146 32.6731 44.3494C32.5256 44.0923 32.486 43.8861 32.5042 43.7122C32.5226 43.5369 32.6058 43.3373 32.805 43.1053C33.353 42.4718 33.5765 41.7292 33.4735 40.8931L33.4734 40.8923C33.4193 40.459 33.4548 40.2526 33.5235 40.1176C33.5928 39.9812 33.7397 39.8307 34.1189 39.615M35.6072 44.7651C35.6072 41.0261 38.7194 37.5795 42.6072 37.5795C46.495 37.5795 49.6072 41.0261 49.6072 44.7651C49.6072 48.5411 46.4584 51.5795 42.6072 51.5795C38.756 51.5795 35.6072 48.5411 35.6072 44.7651ZM42.6072 38.5795C39.3174 38.5795 36.6072 41.5315 36.6072 44.7651C36.6072 47.9617 39.2808 50.5795 42.6072 50.5795C45.9336 50.5795 48.6072 47.9617 48.6072 44.7651C48.6072 41.5315 45.897 38.5795 42.6072 38.5795Z" fill="black"/>
</svg>
