<svg width="64" height="64" viewBox="0 0 64 64" fill="none" xmlns="http://www.w3.org/2000/svg">
<path d="M23.1683 23.7583C13.4186 23.7583 5.51562 30.4978 5.51562 38.8183C5.51562 42.7809 7.31081 46.3899 10.2512 49.0732C9.33297 51.6421 8.0846 53.847 6.28941 55.4695C9.15758 55.6255 12.6345 54.4815 16.4002 52.7238C18.4843 53.4622 20.7747 53.8678 23.1683 53.8678C32.918 53.8678 40.8209 47.1283 40.8209 38.8183C40.8209 30.5082 32.918 23.7687 23.1683 23.7687V23.7583Z" fill="#FFC000"/>
<path d="M40.3213 38.8179C40.321 30.9803 32.955 24.4752 23.6143 24.274L23.168 24.2691C23.1366 24.2691 23.106 24.2649 23.0762 24.2593C13.5685 24.3015 6.01588 30.8711 6.01562 38.8179C6.01562 42.6224 7.73784 46.1026 10.5879 48.7037C10.7368 48.8395 10.7895 49.052 10.7217 49.2418C9.94016 51.4281 8.9119 53.384 7.49902 54.9585C10.0037 54.7976 12.9574 53.7791 16.1885 52.271L16.2803 52.2388C16.3746 52.2155 16.4745 52.2196 16.5674 52.2525C18.5972 52.9717 20.8309 53.3677 23.168 53.3677C32.7193 53.3677 40.3213 46.78 40.3213 38.8179ZM41.3213 38.8179C41.3213 47.4759 33.1161 54.3677 23.168 54.3677C20.7917 54.3677 18.5128 53.9761 16.4268 53.2613C12.7188 54.9766 9.2136 56.1297 6.2627 55.9693C6.06111 55.9583 5.88574 55.8266 5.81836 55.6363C5.75102 55.446 5.80434 55.2335 5.9541 55.0982C7.59715 53.6131 8.77751 51.5996 9.66699 49.2115C6.78265 46.4704 5.01562 42.8251 5.01562 38.8179C5.01588 30.15 13.2199 23.2585 23.168 23.2584L23.2695 23.2681C23.2716 23.2685 23.2733 23.2706 23.2754 23.271C33.1751 23.3203 41.321 30.1912 41.3213 38.8179Z" fill="black"/>
<path d="M31.6898 32.754L31.7914 32.7638C32.0191 32.8105 32.1898 33.0125 32.1898 33.254C32.1898 33.4956 32.0191 33.6975 31.7914 33.7443L31.6898 33.754H14.6566C14.3805 33.754 14.1566 33.5302 14.1566 33.254C14.1566 32.9779 14.3805 32.754 14.6566 32.754H31.6898Z" fill="black"/>
<path d="M31.6898 38.3183L31.7914 38.3281C32.0191 38.3748 32.1898 38.5768 32.1898 38.8183C32.1898 39.0598 32.0191 39.2618 31.7914 39.3086L31.6898 39.3183H14.6566C14.3805 39.3183 14.1566 39.0945 14.1566 38.8183C14.1566 38.5422 14.3805 38.3183 14.6566 38.3183H31.6898Z" fill="black"/>
<path d="M25.5209 43.8826L25.6215 43.8924C25.8493 43.939 26.0209 44.141 26.0209 44.3826C26.0209 44.6242 25.8493 44.8262 25.6215 44.8728L25.5209 44.8826H14.6566C14.3805 44.8826 14.1566 44.6587 14.1566 44.3826C14.1566 44.1065 14.3805 43.8826 14.6566 43.8826H25.5209Z" fill="black"/>
<path d="M57.9841 24.5698C57.9841 16.6077 50.3821 10.02 40.8308 10.02C32.5329 10.0202 25.6817 15.0028 24.0457 21.5396L24.0115 21.6353C23.9109 21.8448 23.6735 21.9614 23.4392 21.9028C23.1713 21.8358 23.0079 21.5643 23.075 21.2964L23.1619 20.9673C25.0726 14.0686 32.303 9.02018 40.8308 9.02002C50.7789 9.02002 58.9841 15.9119 58.9841 24.5698C58.9841 28.5778 57.2155 32.2119 54.3318 34.9614C55.2214 37.3503 56.4022 39.3647 58.0457 40.8501C58.1951 40.9854 58.2485 41.1971 58.1814 41.3872C58.1141 41.5775 57.9386 41.7092 57.7371 41.7202C54.7959 41.8807 51.2801 40.728 47.5711 39.0122C46.1875 39.4878 44.7213 39.8179 43.199 39.9907L43.0974 39.9927C42.8658 39.9721 42.6725 39.7904 42.6453 39.5503C42.6144 39.2762 42.8116 39.0288 43.0857 38.9976L43.6531 38.9253C44.9703 38.7389 46.2365 38.4295 47.4314 38.0044L47.5261 37.98C47.6222 37.9658 47.721 37.9804 47.8103 38.022C51.0397 39.5293 54.0003 40.5477 56.4998 40.7095C55.0871 39.1349 54.0586 37.1789 53.2771 34.9927C53.2095 34.8033 53.2626 34.5914 53.4109 34.4556C56.262 31.8435 57.9841 28.3736 57.9841 24.5698Z" fill="black"/>
<path d="M49.343 18.5053L49.4436 18.5151C49.6715 18.5616 49.843 18.7636 49.843 19.0053C49.843 19.247 49.6715 19.449 49.4436 19.4955L49.343 19.5053H32.3196C32.0434 19.5053 31.8196 19.2814 31.8196 19.0053C31.8196 18.7292 32.0434 18.5053 32.3196 18.5053H49.343Z" fill="black"/>
<path d="M49.3433 24.0696L49.4439 24.0794C49.6717 24.126 49.8433 24.328 49.8433 24.5696C49.8433 24.8111 49.6717 25.0131 49.4439 25.0598L49.3433 25.0696H34.6822C34.4061 25.0696 34.1822 24.8457 34.1822 24.5696C34.1822 24.2934 34.4061 24.0696 34.6822 24.0696H49.3433Z" fill="black"/>
<path d="M43.1731 29.6339L43.2737 29.6436C43.5017 29.6901 43.6731 29.8921 43.6731 30.1339C43.6731 30.3756 43.5017 30.5776 43.2737 30.6241L43.1731 30.6339H40.5217C40.2456 30.6339 40.0217 30.41 40.0217 30.1339C40.0217 29.8577 40.2456 29.6339 40.5217 29.6339H43.1731Z" fill="black"/>
</svg>
