<svg width="64" height="64" viewBox="0 0 64 64" fill="none" xmlns="http://www.w3.org/2000/svg">
<path fill-rule="evenodd" clip-rule="evenodd" d="M32 5.5C17.3645 5.5 5.5 17.3645 5.5 32C5.5 46.6355 17.3645 58.5 32 58.5C46.6355 58.5 58.5 46.6355 58.5 32C58.5 28.5528 57.8421 25.2606 56.6454 22.241L57.575 21.8726C58.8174 25.0075 59.5 28.4246 59.5 32C59.5 47.1878 47.1878 59.5 32 59.5C16.8122 59.5 4.5 47.1878 4.5 32C4.5 16.8122 16.8122 4.5 32 4.5C36.2054 4.5 40.1917 5.44432 43.7571 7.13295L43.329 8.03671C39.8946 6.41011 36.0543 5.5 32 5.5Z" fill="black"/>
<path d="M16.4174 35.0023L18.3442 28.1265C18.5293 27.4658 19.3095 27.1836 19.8745 27.5728L30.0064 34.5533C30.4725 34.8745 31.1121 34.745 31.4167 34.2678L48.6907 7.20072C48.9752 6.75498 49.5575 6.60775 50.0196 6.86471L57.7536 11.165C58.2926 11.4647 58.4345 12.1763 58.0516 12.6598L32.8173 44.5256C32.5073 44.9171 31.956 45.0199 31.5258 44.7664L16.8728 36.1337C16.4819 35.9035 16.2951 35.439 16.4174 35.0023Z" fill="#FFC000"/>
<path fill-rule="evenodd" clip-rule="evenodd" d="M48.269 6.93183C48.6957 6.26322 49.5692 6.04237 50.2624 6.42782L57.9963 10.7281C58.8049 11.1777 59.0177 12.245 58.4433 12.9703L33.2091 44.8361C32.7441 45.4233 31.9171 45.5775 31.2718 45.1973L31.5256 44.7665L31.2718 45.1973L16.6187 36.5646C16.0325 36.2192 15.7522 35.5226 15.9358 34.8675L17.8625 27.9916C18.1402 27.0007 19.3105 26.5773 20.1579 27.1612L30.2898 34.1416C30.5229 34.3022 30.8427 34.2375 30.995 33.9989L48.269 6.93183ZM49.7764 7.3018C49.5454 7.17332 49.2542 7.24693 49.112 7.4698L31.8379 34.5369C31.3811 35.2527 30.4217 35.4469 29.7225 34.9651L19.5906 27.9846C19.3081 27.79 18.918 27.9312 18.8254 28.2615L16.8987 35.1373C16.8375 35.3557 16.9309 35.5879 17.1263 35.703L31.7794 44.3357C31.9945 44.4624 32.2701 44.411 32.4251 44.2153L57.6594 12.3495C57.8508 12.1077 57.7799 11.752 57.5103 11.6021L49.7764 7.3018Z" fill="black"/>
</svg>
