<svg width="64" height="64" viewBox="0 0 64 64" fill="none" xmlns="http://www.w3.org/2000/svg">
<path fill-rule="evenodd" clip-rule="evenodd" d="M31.9858 6.5C17.9104 6.5 6.5 17.9104 6.5 31.9858C6.5 46.0612 17.9104 57.4716 31.9858 57.4716C46.0612 57.4716 57.4716 46.0612 57.4716 31.9858C57.4716 17.9104 46.0612 6.5 31.9858 6.5ZM5.5 31.9858C5.5 17.3581 17.3581 5.5 31.9858 5.5C46.6135 5.5 58.4716 17.3581 58.4716 31.9858C58.4716 46.6135 46.6135 58.4716 31.9858 58.4716C17.3581 58.4716 5.5 46.6135 5.5 31.9858Z" fill="black"/>
<path d="M31.9858 34.1546C33.1836 34.1546 34.1546 33.1836 34.1546 31.9858C34.1546 30.7879 33.1836 29.8169 31.9858 29.8169C30.7879 29.8169 29.8169 30.7879 29.8169 31.9858C29.8169 33.1836 30.7879 34.1546 31.9858 34.1546Z" fill="#FFC000"/>
<path fill-rule="evenodd" clip-rule="evenodd" d="M31.9858 30.3169C31.0641 30.3169 30.3169 31.0641 30.3169 31.9858C30.3169 32.9075 31.0641 33.6546 31.9858 33.6546C32.9075 33.6546 33.6546 32.9075 33.6546 31.9858C33.6546 31.0641 32.9075 30.3169 31.9858 30.3169ZM29.3169 31.9858C29.3169 30.5118 30.5118 29.3169 31.9858 29.3169C33.4598 29.3169 34.6546 30.5118 34.6546 31.9858C34.6546 33.4598 33.4598 34.6546 31.9858 34.6546C30.5118 34.6546 29.3169 33.4598 29.3169 31.9858Z" fill="black"/>
<path fill-rule="evenodd" clip-rule="evenodd" d="M32.4858 8.69836V29.8271H31.4858V8.69836H32.4858Z" fill="black"/>
<path fill-rule="evenodd" clip-rule="evenodd" d="M29.993 31.0868L19.9429 21.0367L20.65 20.3296L30.7001 30.3797L29.993 31.0868Z" fill="black"/>
</svg>
