<svg width="64" height="64" viewBox="0 0 64 64" fill="none" xmlns="http://www.w3.org/2000/svg">
<path fill-rule="evenodd" clip-rule="evenodd" d="M31.3041 9.41553L31.6484 9.52256C32.869 9.90208 34.0373 10.3941 35.1433 10.9778L35.4619 11.146L34.5241 16.8328C35.8784 17.8128 37.0671 19.0016 38.0471 20.3558L43.734 19.4181L43.9021 19.7366C44.4858 20.8426 44.9778 22.0109 45.3574 23.2316L45.4644 23.5758L40.7757 26.9436C40.9069 27.7532 40.9799 28.5867 40.9799 29.43C40.9799 30.2733 40.9069 31.1069 40.7757 31.9164L45.4644 35.2842L45.3574 35.6285C44.9778 36.8491 44.4858 38.0174 43.9021 39.1234L43.734 39.442L38.0471 38.5042C37.0671 39.8585 35.8784 41.0472 34.5241 42.0272L35.4619 47.7141L35.1433 47.8822C34.0373 48.4659 32.869 48.9579 31.6484 49.3375L31.3041 49.4445L27.9363 44.7558C27.1268 44.887 26.2932 44.96 25.4499 44.96C24.6066 44.96 23.7731 44.887 22.9635 44.7558L19.5957 49.4445L19.2515 49.3375C18.0308 48.9579 16.8625 48.4659 15.7565 47.8822L15.438 47.7141L16.3757 42.0272C15.0215 41.0472 13.8327 39.8585 12.8527 38.5042L7.16585 39.442L6.99772 39.1234C6.41403 38.0174 5.92198 36.8491 5.54246 35.6285L5.43543 35.2842L10.1242 31.9164C9.99295 31.1069 9.91992 30.2733 9.91992 29.43C9.91992 28.5871 9.99287 27.754 10.124 26.9448L5.41504 23.5871L5.52246 23.2416C5.90198 22.0209 6.39403 20.8526 6.97772 19.7466L7.14585 19.4281L12.8327 20.3658C13.8127 19.0116 15.0015 17.8228 16.3557 16.8428L15.418 11.156L15.7365 10.9878C16.8425 10.4041 18.0108 9.91208 19.2315 9.53256L19.5757 9.42553L22.9435 14.1143C23.7531 13.983 24.5866 13.91 25.4299 13.91C26.2772 13.91 27.1147 13.9837 27.9278 14.1161L31.3041 9.41553ZM31.6936 10.5874L28.494 15.042L28.2144 15.1818L28.0505 15.1519C27.1975 14.9969 26.3175 14.91 25.4299 14.91C24.5424 14.91 23.6623 14.9969 22.8094 15.1519L22.4983 15.2085L19.1862 10.5974C18.2654 10.903 17.3757 11.2762 16.5224 11.7074L17.4447 17.3007L17.1848 17.4809C15.734 18.4868 14.4767 19.7441 13.4708 21.1949L13.2906 21.4548L7.69729 20.5325C7.26632 21.3854 6.8932 22.2746 6.58773 23.1951L11.2186 26.4972L11.1619 26.8095C11.0068 27.6624 10.9199 28.5424 10.9199 29.43C10.9199 30.3176 11.0068 31.1976 11.1619 32.0506L11.2184 32.3617L6.60732 35.6737C6.91286 36.5946 7.28613 37.4842 7.71729 38.3375L13.3106 37.4152L13.4908 37.6751C14.4967 39.1259 15.754 40.3832 17.2048 41.3891L17.4647 41.5693L16.5424 47.1626C17.3957 47.5938 18.2854 47.9671 19.2062 48.2726L22.5183 43.6615L22.8294 43.7181C23.6823 43.8732 24.5624 43.96 25.4499 43.96C26.3375 43.96 27.2175 43.8732 28.0705 43.7181L28.3816 43.6615L31.6936 48.2726C32.6145 47.9671 33.5041 47.5938 34.3574 47.1626L33.4351 41.5693L33.695 41.3891C35.1458 40.3832 36.4031 39.1259 37.409 37.6751L37.5892 37.4152L43.1825 38.3375C43.6137 37.4842 43.987 36.5946 44.2925 35.6737L39.6814 32.3617L39.738 32.0506C39.8931 31.1976 39.9799 30.3176 39.9799 29.43C39.9799 28.5424 39.8931 27.6624 39.738 26.8095L39.6814 26.4984L44.2925 23.1863C43.987 22.2655 43.6137 21.3758 43.1825 20.5225L37.5892 21.4448L37.409 21.1849C36.4031 19.7341 35.1458 18.4768 33.695 17.4709L33.4351 17.2907L34.3574 11.6974C33.5041 11.2662 32.6145 10.893 31.6936 10.5874Z" fill="black"/>
<path fill-rule="evenodd" clip-rule="evenodd" d="M25.4497 19.4301C19.9158 19.4301 15.4297 23.9162 15.4297 29.4501C15.4297 34.9839 19.9158 39.4701 25.4497 39.4701C30.9836 39.4701 35.4697 34.9839 35.4697 29.4501C35.4697 23.9162 30.9836 19.4301 25.4497 19.4301ZM14.4297 29.4501C14.4297 23.3639 19.3635 18.4301 25.4497 18.4301C31.5359 18.4301 36.4697 23.3639 36.4697 29.4501C36.4697 35.5362 31.5359 40.4701 25.4497 40.4701C19.3635 40.4701 14.4297 35.5362 14.4297 29.4501Z" fill="black"/>
<path fill-rule="evenodd" clip-rule="evenodd" d="M26.2932 22.7196L28.8121 29.7701H35.5997V30.7701H28.1074L26.3463 25.8406L23.3044 35.3659L20.2163 29.2543L18.7554 30.9101H15.4897V29.9101H18.3041L20.4432 27.4858L23.0951 32.7342L26.2932 22.7196Z" fill="black"/>
<path d="M41.6023 32C37.8182 32 35.0455 34.1476 33.75 36.6716C33.3636 37.4133 32.4432 37.7011 31.6818 37.3247C30.1136 36.5609 28.2159 36.6605 26.7386 37.524C25.2614 38.3875 24.1591 39.9483 24.1591 42.4945C24.1591 43.2251 23.6136 43.845 22.875 43.9668C20.0682 44.4207 18 47.2214 18 50C18 53.3432 20.6364 56 25.1818 56H50.3295C54.0341 56 57 53.1107 57 49.5018C57 46.3247 54.6932 43.7011 51.625 43.1144C50.8409 42.9705 50.2955 42.262 50.375 41.4871C50.8636 36.8266 47.0909 32 41.6023 32Z" fill="#FFC000"/>
<path fill-rule="evenodd" clip-rule="evenodd" d="M32.7572 36.1528C34.1328 33.3694 37.0784 31 41.0883 31C46.9244 31 50.9119 36.3231 50.3947 41.455C50.3448 41.9612 50.6889 42.4256 51.1819 42.5196L51.1861 42.5204C54.5051 43.1799 57 46.1289 57 49.6975C57 53.7513 53.7906 57 49.786 57H24.7237C22.3452 57 20.4119 56.2762 19.0662 55.0434C17.7181 53.8082 17 52.0974 17 50.2134C17 47.1072 19.2139 43.9247 22.331 43.4003C22.7982 43.3199 23.1382 42.9136 23.1382 42.4409C23.1382 39.6144 24.3315 37.8057 25.9839 36.8021C27.6173 35.81 29.7139 35.6935 31.4548 36.5746L31.4578 36.5762C31.9404 36.824 32.5148 36.6346 32.7572 36.1528ZM41.0883 32.1464C37.5567 32.1464 34.9761 34.2239 33.7692 36.6673L33.7677 36.6703C33.2399 37.7232 31.9813 38.1295 30.947 37.5993C29.5625 36.8992 27.8771 36.9892 26.5665 37.7852C25.2744 38.5699 24.2707 39.994 24.2707 42.4409C24.2707 43.4812 23.5238 44.3587 22.5192 44.5308L22.5174 44.5311C20.0404 44.9473 18.1325 47.5651 18.1325 50.2134C18.1325 51.7915 18.7281 53.1874 19.8262 54.1934C20.9267 55.2017 22.5721 55.8536 24.7237 55.8536H49.786C53.1652 55.8536 55.8675 53.1182 55.8675 49.6975C55.8675 46.6866 53.7654 44.2021 50.9698 43.6457C49.9013 43.4407 49.1594 42.4385 49.2678 41.3407L49.2679 41.3395C49.724 36.8191 46.1919 32.1464 41.0883 32.1464Z" fill="black"/>
</svg>
