<svg width="64" height="64" viewBox="0 0 64 64" fill="none" xmlns="http://www.w3.org/2000/svg">
<path d="M37.5872 15.4666C32.4348 15.4666 28.6628 18.4243 26.8949 21.9045C26.3655 22.9215 25.1082 23.3228 24.0777 22.8096C21.9411 21.7552 19.3697 21.9045 17.3561 23.0895C15.3519 24.2745 13.8487 26.4298 13.8487 29.938C13.8487 30.9457 13.1019 31.7948 12.0998 31.9627C8.28043 32.5972 5.47266 36.4413 5.47266 40.2761C5.47266 44.8853 9.06509 48.5428 15.2479 48.5428H49.4516C54.4905 48.5428 58.5273 44.5588 58.5273 39.5857C58.5273 35.2097 55.3792 31.5895 51.2195 30.7777C50.1512 30.5818 49.4138 29.6114 49.5178 28.5385C50.1796 22.1191 45.0462 15.4666 37.5872 15.4666Z" fill="#FFC000"/>
<path fill-rule="evenodd" clip-rule="evenodd" d="M26.4504 21.6757C28.2947 18.0469 32.2281 14.9666 37.5872 14.9666C45.3624 14.9666 50.7043 21.8951 50.0154 28.5879C49.9374 29.3988 50.4943 30.1364 51.3097 30.286L51.3153 30.287C55.7009 31.1428 59.0273 34.9616 59.0273 39.5857C59.0273 44.8411 54.7604 49.0428 49.4516 49.0428H15.2479C12.0582 49.0428 9.48821 48.0983 7.70889 46.5111C5.92675 44.9213 4.97266 42.7166 4.97266 40.2761C4.97266 36.2355 7.92093 32.1502 12.0175 31.4695C12.7896 31.3399 13.3487 30.6903 13.3487 29.938C13.3487 26.2612 14.9383 23.9381 17.1016 22.6591L17.1025 22.6586C19.2552 21.3918 22.005 21.2292 24.299 22.3612L24.3006 22.362C25.0898 22.755 26.048 22.4459 26.4504 21.6757ZM37.5872 15.9666C32.6428 15.9666 29.0326 18.8003 27.3407 22.131L27.3384 22.1354C26.6815 23.3974 25.1266 23.8899 23.8557 23.2576C21.8769 22.2814 19.4843 22.4174 17.6099 23.5202C15.7652 24.6112 14.3487 26.5987 14.3487 29.938C14.3487 31.201 13.4143 32.2494 12.1824 32.4558C8.64051 33.0442 5.97266 36.6472 5.97266 40.2761C5.97266 42.4448 6.81478 44.3735 8.37456 45.7648C9.93715 47.1587 12.2548 48.0428 15.2479 48.0428H49.4516C54.2206 48.0428 58.0273 44.2764 58.0273 39.5857C58.0273 35.4587 55.0588 32.0377 51.1264 31.269C49.8073 31.0255 48.8909 29.8238 49.0202 28.4902L49.0205 28.4872C49.654 22.3419 44.7292 15.9666 37.5872 15.9666Z" fill="black"/>
</svg>
