<svg width="64" height="64" viewBox="0 0 64 64" fill="none" xmlns="http://www.w3.org/2000/svg">
<path fill-rule="evenodd" clip-rule="evenodd" d="M44.6914 11.7438H29.7817V19.1733H44.6914V11.7438ZM28.7817 10.7438V20.1733H45.6914V10.7438H28.7817Z" fill="black"/>
<path fill-rule="evenodd" clip-rule="evenodd" d="M46.3225 53.2744H40.1875V56H47.6979L46.3225 53.2744ZM46.9379 52.2744H39.1875V57H49.3226L46.9379 52.2744Z" fill="black"/>
<path fill-rule="evenodd" clip-rule="evenodd" d="M12.9212 53.2744H19.0562V56H11.5458L12.9212 53.2744ZM12.3057 52.2744H20.0562V57H9.92102L12.3057 52.2744Z" fill="black"/>
<path d="M47.3174 23.5497H53.5498V45.9875H47.3174V23.5497Z" fill="#FFC000"/>
<path fill-rule="evenodd" clip-rule="evenodd" d="M52.5498 24.5497H48.3174V44.9875H52.5498V24.5497ZM47.3174 23.5497V45.9875H53.5498V23.5497H47.3174Z" fill="black"/>
<path fill-rule="evenodd" clip-rule="evenodd" d="M58.9209 33.7091H53.5498V35.8281H58.9209V33.7091ZM53.5498 32.7091L53.5498 36.8281H59.9209V32.7091H53.5498Z" fill="black"/>
<path fill-rule="evenodd" clip-rule="evenodd" d="M11.5166 21.3818H10C6.68629 21.3818 4 24.0681 4 27.3818V41.9928C4 45.3065 6.6863 47.9928 10 47.9928H11.5166V21.3818Z" fill="#FFC000"/>
<path fill-rule="evenodd" clip-rule="evenodd" d="M10.5166 22.3818H10C7.23858 22.3818 5 24.6204 5 27.3818V41.9928C5 44.7542 7.23858 46.9928 10 46.9928H10.5166V22.3818ZM10 21.3818C6.68629 21.3818 4 24.0681 4 27.3818V41.9928C4 45.3065 6.6863 47.9928 10 47.9928H11.5166V21.3818H10Z" fill="black"/>
<path fill-rule="evenodd" clip-rule="evenodd" d="M47.1304 20.3062H11.5171V49.2148H47.1304V20.3062ZM10.5171 19.3062V50.2148H48.1304V19.3062H10.5171Z" fill="black"/>
<path d="M36.3427 15.4586C36.3427 16.9552 35.1294 18.1685 33.6328 18.1685C32.1361 18.1685 30.9229 16.9552 30.9229 15.4586C30.9229 13.9619 32.1361 12.7487 33.6328 12.7487C35.1294 12.7487 36.3427 13.9619 36.3427 15.4586Z" fill="#FFC000"/>
<path fill-rule="evenodd" clip-rule="evenodd" d="M33.6328 17.1685C34.5771 17.1685 35.3427 16.4029 35.3427 15.4586C35.3427 14.5142 34.5771 13.7487 33.6328 13.7487C32.6884 13.7487 31.9229 14.5142 31.9229 15.4586C31.9229 16.4029 32.6884 17.1685 33.6328 17.1685ZM33.6328 18.1685C35.1294 18.1685 36.3427 16.9552 36.3427 15.4586C36.3427 13.9619 35.1294 12.7487 33.6328 12.7487C32.1361 12.7487 30.9229 13.9619 30.9229 15.4586C30.9229 16.9552 32.1361 18.1685 33.6328 18.1685Z" fill="black"/>
<path d="M43.5502 15.4586C43.5502 16.9552 42.3369 18.1685 40.8403 18.1685C39.3436 18.1685 38.1304 16.9552 38.1304 15.4586C38.1304 13.9619 39.3436 12.7487 40.8403 12.7487C42.3369 12.7487 43.5502 13.9619 43.5502 15.4586Z" fill="#FFC000"/>
<path fill-rule="evenodd" clip-rule="evenodd" d="M40.8403 17.1685C41.7846 17.1685 42.5502 16.4029 42.5502 15.4586C42.5502 14.5142 41.7846 13.7487 40.8403 13.7487C39.8959 13.7487 39.1304 14.5142 39.1304 15.4586C39.1304 16.4029 39.8959 17.1685 40.8403 17.1685ZM40.8403 18.1685C42.3369 18.1685 43.5502 16.9552 43.5502 15.4586C43.5502 13.9619 42.3369 12.7487 40.8403 12.7487C39.3436 12.7487 38.1304 13.9619 38.1304 15.4586C38.1304 16.9552 39.3436 18.1685 40.8403 18.1685Z" fill="black"/>
<path fill-rule="evenodd" clip-rule="evenodd" d="M40.543 28.3733H18.7554V27.3733H40.543V28.3733Z" fill="black"/>
<path fill-rule="evenodd" clip-rule="evenodd" d="M40.543 31.9707H18.7554V30.9707H40.543V31.9707Z" fill="black"/>
<path fill-rule="evenodd" clip-rule="evenodd" d="M40.543 35.5681H18.7554V34.5681H40.543V35.5681Z" fill="black"/>
<path fill-rule="evenodd" clip-rule="evenodd" d="M40.543 39.1655H18.7554V38.1655H40.543V39.1655Z" fill="black"/>
<path fill-rule="evenodd" clip-rule="evenodd" d="M40.543 42.7629H18.7554V41.7629H40.543V42.7629Z" fill="black"/>
<path fill-rule="evenodd" clip-rule="evenodd" d="M39.1875 53.2709H20.0562V52.2709H39.1875V53.2709Z" fill="black"/>
<path fill-rule="evenodd" clip-rule="evenodd" d="M17.0361 50.2148V52.2744H16.0361V50.2148H17.0361Z" fill="black"/>
<path fill-rule="evenodd" clip-rule="evenodd" d="M44.2551 50.2148V52.2744H43.2551V50.2148H44.2551Z" fill="black"/>
</svg>
