<svg width="64" height="64" viewBox="0 0 64 64" fill="none" xmlns="http://www.w3.org/2000/svg">
<g clip-path="url(#clip0_5_290)">
<path fill-rule="evenodd" clip-rule="evenodd" d="M47.0747 34.8503C47.3085 33.9022 48.1547 33.22 49.1402 33.22H50.7602C53.1263 33.22 55.0502 35.1438 55.0502 37.51C55.0502 38.3861 54.3463 39.09 53.4702 39.09H50.3602V38.09H53.4702C53.794 38.09 54.0502 37.8338 54.0502 37.51C54.0502 35.6961 52.574 34.22 50.7602 34.22H49.1402C48.6256 34.22 48.1719 34.5778 48.0456 35.0897L47.0747 34.8503Z" fill="black"/>
<path fill-rule="evenodd" clip-rule="evenodd" d="M12.29 34.22C10.4761 34.22 9 35.6961 9 37.51C9 37.8338 9.25614 38.09 9.58 38.09H12.69V39.09H9.58C8.70386 39.09 8 38.3861 8 37.51C8 35.1438 9.92386 33.22 12.29 33.22H13.91C14.8954 33.22 15.7417 33.9022 15.9755 34.8503L15.0045 35.0897C14.8783 34.5778 14.4246 34.22 13.91 34.22H12.29Z" fill="black"/>
<path fill-rule="evenodd" clip-rule="evenodd" d="M10.73 54.2058V56.41C10.73 56.6994 10.8697 57.0129 11.1167 57.2609C11.3634 57.5086 11.6765 57.65 11.97 57.65H16.71C17.2737 57.65 17.7474 57.1492 17.75 56.4657L17.7121 54.92H12.22C11.5602 54.92 11.0785 54.6111 10.73 54.2058ZM11.0407 52.7496C11.3128 53.476 11.6971 53.92 12.22 53.92H18.2L18.6998 54.4077L18.7501 56.46C18.7501 57.5736 17.9447 58.65 16.71 58.65H11.97C11.3635 58.65 10.8065 58.3664 10.4082 57.9666C10.0102 57.5671 9.72998 57.0106 9.72998 56.41V51.43L10.724 51.3885C10.7282 51.3881 10.7282 51.3881 10.7282 51.3881C10.7282 51.3878 10.7282 51.3881 10.7282 51.3881L10.7286 51.3923L10.7306 51.4123C10.7325 51.4309 10.7356 51.4593 10.7402 51.4964C10.7495 51.5705 10.7648 51.6783 10.7883 51.8083C10.8356 52.0705 10.9146 52.413 11.0407 52.7496Z" fill="black"/>
<path fill-rule="evenodd" clip-rule="evenodd" d="M12.781 37.74H50.2289L50.3672 37.8535C52.1323 39.3027 53.409 41.8024 53.4199 45.9957C53.4199 45.9967 53.4199 45.9977 53.4199 45.9988L53.5104 51.9561L53.5063 51.9896L53.0099 51.93C53.5063 51.9896 53.5064 51.9894 53.5063 51.9896L53.5062 51.9909L53.5059 51.9929L53.5052 51.9988L53.5026 52.018C53.5013 52.0276 53.4996 52.0395 53.4975 52.0535C53.4961 52.0627 53.4946 52.0729 53.4928 52.084C53.4841 52.1395 53.4706 52.2175 53.4512 52.3118C53.4126 52.4994 53.3495 52.757 53.251 53.0339C53.0648 53.5569 52.7062 54.2818 52.0215 54.6182C51.7781 54.7394 51.4736 54.8049 51.1939 54.8444C50.9033 54.8855 50.593 54.9045 50.3139 54.9123C50.0333 54.9201 49.7762 54.9168 49.5895 54.9117C49.4959 54.9091 49.4195 54.906 49.366 54.9035L49.3035 54.9004L49.2958 54.9L13.9888 54.92C13.972 54.9218 13.9491 54.9242 13.9208 54.927C13.8596 54.9329 13.7727 54.9402 13.6668 54.9465C13.4557 54.9589 13.1641 54.9674 12.8448 54.9505C12.5276 54.9338 12.169 54.8913 11.8292 54.7959C11.4944 54.7018 11.1382 54.5454 10.8664 54.2735C10.4357 53.8429 10.1556 53.3516 9.98405 52.9769C9.89751 52.7879 9.83657 52.6241 9.79678 52.5058C9.77684 52.4465 9.7621 52.3983 9.75202 52.3637C9.74697 52.3463 9.74309 52.3323 9.7403 52.322L9.73692 52.3094L9.73583 52.3052L9.73543 52.3036C9.7354 52.3035 9.73513 52.3024 10.2199 52.18L9.73513 52.3024L9.72074 52.2455L9.60986 44.01C9.60986 41.7428 10.9212 39.2668 12.6426 37.8535L12.781 37.74ZM10.719 52.1071C10.7253 52.128 10.7338 52.1549 10.7446 52.187C10.7751 52.2777 10.8236 52.4083 10.8933 52.5606C11.0342 52.8684 11.2541 53.247 11.5735 53.5664C11.6766 53.6696 11.8504 53.7631 12.0997 53.8331C12.344 53.9018 12.6234 53.9374 12.8975 53.9519C13.1695 53.9663 13.4222 53.9592 13.6078 53.9482C13.7 53.9427 13.7746 53.9364 13.8251 53.9316C13.8503 53.9291 13.8695 53.9271 13.8819 53.9257L13.8952 53.9242L13.8976 53.9239L13.9285 53.92L49.3251 53.9L49.3401 53.9009L49.3438 53.9011L49.3573 53.9019L49.412 53.9046C49.4602 53.9068 49.5305 53.9097 49.6172 53.9121C49.7912 53.9169 50.029 53.9199 50.286 53.9127C50.5443 53.9055 50.814 53.8882 51.054 53.8543C51.3042 53.8189 51.4801 53.7709 51.5763 53.7228L51.5799 53.721C51.8941 53.567 52.1401 53.1727 52.3088 52.6986C52.3878 52.4768 52.4397 52.2662 52.4717 52.1104C52.4876 52.033 52.4984 51.9704 52.505 51.9283C52.5068 51.9173 52.5082 51.9077 52.5094 51.8997L52.42 46.0076L52.4199 46.0012C52.4105 42.138 51.2794 39.9716 49.8668 38.74H13.1429C11.6922 40.0031 10.6112 42.1321 10.6099 44.0067L10.719 52.1071Z" fill="black"/>
<path fill-rule="evenodd" clip-rule="evenodd" d="M19.114 53.7772L18.6402 54.657L17.7598 54.1829L18.2656 53.2435L18.2852 53.2164C19.3302 51.7754 21.0119 50.9295 22.7915 50.94H40.28C42.0573 50.94 43.7279 51.7743 44.7833 53.2144L45.3537 53.995L44.5463 54.585L43.9767 53.8055C43.1121 52.6257 41.7427 51.94 40.28 51.94H22.7869C21.338 51.931 19.97 52.6146 19.114 53.7772Z" fill="black"/>
<path fill-rule="evenodd" clip-rule="evenodd" d="M18.7329 43.71H44.08V44.71H19.1386C19.0819 44.7618 19.0107 44.8254 18.9267 44.8972C18.7013 45.0897 18.3808 45.3447 18.0006 45.5926C17.267 46.071 16.2006 46.5971 15.1398 46.4451C14.3738 46.3378 13.101 46.0976 12.0308 45.8868C11.4931 45.7809 11.0025 45.6816 10.6464 45.6088C10.4683 45.5724 10.3237 45.5426 10.2237 45.5218L10.0684 45.4896L10.2723 44.5106L10.4264 44.5426C10.5257 44.5632 10.6695 44.5928 10.8467 44.6291C11.2012 44.7016 11.6893 44.8004 12.2241 44.9057C13.2985 45.1173 14.5452 45.3521 15.2793 45.4549L15.2811 45.4551C15.9599 45.5526 16.7582 45.2089 17.4544 44.755C17.7892 44.5366 18.0748 44.3097 18.277 44.1369C18.3778 44.0509 18.4569 43.979 18.51 43.9294C18.5366 43.9046 18.5566 43.8855 18.5695 43.873L18.5835 43.8593L18.5864 43.8565L18.7329 43.71Z" fill="black"/>
<path d="M10.1699 45L14.1599 45.88C14.4999 45.96 14.8499 45.99 15.1899 45.99C16.1899 45.99 17.1599 45.65 17.9499 45.02L18.9899 44.08C17.4599 41.62 16.1999 41.22 12.2199 40.47C12.2199 40.47 11.2199 40.22 10.9799 40.72C10.5799 41.52 10.2499 42.98 10.2499 42.98L10.1699 45Z" fill="#FFC000"/>
<path fill-rule="evenodd" clip-rule="evenodd" d="M12.3241 39.9808L12.3214 39.9802C12.311 39.9778 12.297 39.9746 12.2796 39.9709C12.245 39.9637 12.1969 39.9543 12.1391 39.945C12.0251 39.9268 11.8648 39.9075 11.69 39.9075C11.5197 39.9075 11.3068 39.9255 11.1024 40.0007C10.8926 40.0778 10.6635 40.2272 10.5312 40.4995C10.3096 40.9437 10.1174 41.5453 9.98411 42.013C9.91598 42.2521 9.86079 42.4651 9.82259 42.6186C9.80347 42.6954 9.78855 42.7575 9.77834 42.8007L9.7666 42.8509L9.76348 42.8644L9.76239 42.8692L9.75217 42.9144L9.65381 45.3981L14.049 46.3675C14.4342 46.4578 14.8228 46.49 15.19 46.49C16.3041 46.49 17.3838 46.111 18.2617 45.4109L18.2738 45.4013L19.6352 44.1707L19.4145 43.8159C18.619 42.5368 17.8599 41.7421 16.7471 41.1864C15.6721 40.6495 14.2938 40.3521 12.3241 39.9808ZM10.7477 43.047L10.6861 44.6018L14.2745 45.3932C14.5681 45.4623 14.8782 45.49 15.19 45.49C16.071 45.49 16.9266 45.1923 17.6265 44.6384L18.3396 43.9938C17.6962 43.0334 17.1023 42.4815 16.3003 42.081C15.37 41.6164 14.1316 41.339 12.1274 40.9613L12.1129 40.9586L12.1 40.9554C12.1002 40.9554 12.1002 40.9554 12.1 40.9554L12.0959 40.9544L12.0735 40.9495C12.0524 40.945 12.0205 40.9388 11.9809 40.9324C11.8998 40.9194 11.7952 40.9075 11.69 40.9075C11.5802 40.9075 11.4981 40.9207 11.4475 40.9393C11.4363 40.9434 11.4289 40.9468 11.4243 40.9493C11.2476 41.3047 11.0766 41.8282 10.9458 42.287C10.8815 42.5129 10.8292 42.7148 10.793 42.8601C10.7749 42.9327 10.7609 42.9909 10.7515 43.0307L10.7477 43.047Z" fill="black"/>
<path fill-rule="evenodd" clip-rule="evenodd" d="M19.6453 29.1705C20.2696 28.7097 20.9599 28.35 21.6301 28.35H41.4201C42.0903 28.35 42.7806 28.7097 43.4049 29.1705C44.0452 29.6432 44.6932 30.2806 45.2917 30.9558C46.4872 32.3042 47.541 33.8665 48.0019 34.7358C48.4176 35.52 49.0166 36.3061 49.5222 36.9049C49.7731 37.2022 49.9972 37.4488 50.1582 37.6207C50.2386 37.7066 50.3031 37.7736 50.347 37.8188C50.369 37.8413 50.3858 37.8584 50.397 37.8696L50.4093 37.882L50.4121 37.8848L51.2725 38.74H11.7471L12.6197 37.8833L12.6232 37.8799L12.6356 37.8675C12.6469 37.8563 12.6639 37.8392 12.6861 37.8167C12.7306 37.7715 12.7958 37.7045 12.8771 37.6187C13.0398 37.4468 13.2663 37.2003 13.5196 36.9031C14.03 36.3043 14.6332 35.5188 15.0483 34.7358C15.5092 33.8665 16.563 32.3042 17.7585 30.9558C18.357 30.2806 19.005 29.6432 19.6453 29.1705ZM14.1182 37.74H48.9205C48.8678 37.6792 48.8136 37.6158 48.7581 37.55C48.2336 36.9289 47.5826 36.08 47.1183 35.2042C46.6992 34.4135 45.693 32.9158 44.5435 31.6192C43.9695 30.9718 43.3737 30.3905 42.811 29.9751C42.2321 29.5478 41.7599 29.35 41.4201 29.35H21.6301C21.2903 29.35 20.8181 29.5478 20.2392 29.9751C19.6765 30.3905 19.0807 30.9718 18.5067 31.6192C17.3572 32.9158 16.351 34.4135 15.9319 35.2042C15.467 36.0811 14.8102 36.9306 14.2806 37.5518C14.2251 37.6169 14.1709 37.6797 14.1182 37.74Z" fill="black"/>
<path d="M52.84 45L48.85 45.88C48.51 45.96 48.16 45.99 47.82 45.99C46.93 46.02 46.45 45.82 45.06 45.02L44.02 44.08C45.55 41.62 46.81 41.22 50.79 40.47C50.79 40.47 51.79 40.22 52.03 40.72C52.43 41.52 52.76 42.98 52.76 42.98L52.84 45Z" fill="#FFC000"/>
<path fill-rule="evenodd" clip-rule="evenodd" d="M50.9106 40.9552L50.8968 40.9586L50.8824 40.9613C48.8782 41.339 47.6398 41.6164 46.7094 42.081C45.9075 42.4815 45.3135 43.0334 44.6701 43.9938L45.3554 44.6132C46.0268 44.9987 46.4472 45.2196 46.7971 45.3459C47.1322 45.467 47.4098 45.5035 47.8029 45.4903L47.8113 45.49H47.8198C48.1315 45.49 48.4416 45.4623 48.7353 45.3933L48.7421 45.3917L52.3236 44.6018L52.262 43.047L52.2582 43.0307C52.2488 42.9909 52.2348 42.9327 52.2168 42.8601C52.1806 42.7148 52.1283 42.5129 52.0639 42.287C51.9332 41.8282 51.7621 41.3047 51.5854 40.9493C51.5808 40.9468 51.5735 40.9434 51.5622 40.9393C51.5116 40.9207 51.4295 40.9075 51.3198 40.9075C51.2146 40.9075 51.1099 40.9194 51.0289 40.9324C50.9893 40.9388 50.9573 40.945 50.9363 40.9495L50.9138 40.9544L50.9106 40.9552ZM53.2475 42.8697L53.2576 42.9144L53.3559 45.3981L48.9608 46.3675C48.5785 46.4571 48.1929 46.4895 47.8282 46.49C47.3351 46.5059 46.9296 46.457 46.4575 46.2865C46.0053 46.1232 45.5019 45.8513 44.8104 45.4533L44.7641 45.4267L43.3745 44.1707L43.5952 43.8159C44.3907 42.5368 45.1499 41.7421 46.2626 41.1864C47.3377 40.6495 48.716 40.3521 50.6856 39.9808L50.6883 39.9802C50.6987 39.9778 50.7128 39.9746 50.7301 39.9709C50.7647 39.9637 50.8128 39.9543 50.8707 39.945C50.9846 39.9268 51.145 39.9075 51.3198 39.9075C51.49 39.9075 51.7029 39.9255 51.9073 40.0007C52.1171 40.0778 52.3463 40.2272 52.4786 40.4995C52.7001 40.9437 52.8924 41.5453 53.0256 42.013C53.0938 42.2521 53.149 42.4651 53.1871 42.6186C53.2063 42.6954 53.2212 42.7575 53.2314 42.8007L53.2431 42.8509L53.2463 42.8644L53.2475 42.8697Z" fill="black"/>
<path fill-rule="evenodd" clip-rule="evenodd" d="M52.5527 51.8319L53.5402 51.93V56.41C53.5402 57.4682 52.8231 58.65 51.5502 58.65H46.3202C45.1212 58.65 44.2202 57.6021 44.2202 56.46V56.4478L44.2704 54.4078L44.7702 53.92H50.4902C51.2731 53.92 51.7749 53.4571 52.1076 52.9139C52.2733 52.6433 52.3856 52.3685 52.4564 52.159C52.4915 52.0551 52.5157 51.9694 52.5308 51.9114C52.5383 51.8824 52.5435 51.8605 52.5466 51.8467L52.5498 51.8325L52.5501 51.8312C52.5501 51.8313 52.5501 51.8313 52.5527 51.8319ZM45.2581 54.92L45.2202 56.4656C45.2232 57.1209 45.7409 57.65 46.3202 57.65H51.5502C52.0773 57.65 52.5402 57.1318 52.5402 56.41V53.9985C52.0829 54.4995 51.4193 54.92 50.4902 54.92H45.2581Z" fill="black"/>
<path fill-rule="evenodd" clip-rule="evenodd" d="M26.2233 22.4509L26.2245 22.4494L26.2337 22.4387C26.2425 22.4287 26.2565 22.4127 26.2756 22.3915C26.3139 22.3491 26.3725 22.2858 26.4505 22.2064C26.6067 22.0475 26.8396 21.8249 27.1413 21.5767C27.7465 21.0789 28.6172 20.4871 29.6893 20.0945C30.7575 19.7033 32.023 19.5103 33.4338 19.8015C34.8446 20.0928 36.4367 20.8756 38.1462 22.4932C38.3468 22.683 38.6633 22.6742 38.853 22.4736C39.0428 22.273 39.0341 21.9566 38.8335 21.7668C37.0131 20.0443 35.2589 19.1572 33.6359 18.8222C32.013 18.4872 30.5572 18.7117 29.3454 19.1555C28.1375 19.5979 27.1695 20.2586 26.506 20.8045C26.1732 21.0782 25.9143 21.3253 25.7372 21.5056C25.6485 21.5958 25.5802 21.6695 25.5331 21.7217C25.5096 21.7478 25.4913 21.7685 25.4785 21.7833L25.4633 21.8009L25.4588 21.8062L25.4574 21.808L25.4568 21.8086C25.4566 21.8089 25.4564 21.8091 25.8399 22.13L25.4564 21.8091C25.2792 22.0209 25.3072 22.3362 25.519 22.5134C25.7306 22.6906 26.0457 22.6627 26.223 22.4512L26.2233 22.4509Z" fill="black"/>
<path fill-rule="evenodd" clip-rule="evenodd" d="M21.7933 18.1809L21.7974 18.1761L21.8151 18.1556C21.8314 18.1368 21.8567 18.108 21.8907 18.0703C21.9588 17.9948 22.0619 17.8836 22.1982 17.7449C22.4709 17.4674 22.8759 17.0807 23.3994 16.6501C24.4483 15.7874 25.9622 14.7578 27.8318 14.0733C29.6975 13.3902 31.9149 13.0513 34.387 13.5614C36.8591 14.0716 39.6218 15.4382 42.5663 18.2233C42.7669 18.413 43.0834 18.4042 43.2732 18.2036C43.4629 18.003 43.4541 17.6865 43.2535 17.4968C40.198 14.6068 37.2732 13.136 34.5891 12.5821C31.9049 12.0281 29.4973 12.3986 27.488 13.1342C25.4826 13.8685 23.8715 14.967 22.7642 15.8778C22.2096 16.3339 21.7786 16.7452 21.4849 17.044C21.338 17.1935 21.2252 17.3151 21.1483 17.4004C21.1098 17.443 21.0803 17.4766 21.0599 17.5L21.0363 17.5275L21.0296 17.5354L21.0276 17.5377L21.0269 17.5385C21.0267 17.5388 21.0265 17.5391 21.4099 17.86L21.0269 17.5385C20.8497 17.7503 20.8772 18.0662 21.089 18.2434C21.3006 18.4206 21.616 18.3924 21.7933 18.1809Z" fill="black"/>
<path fill-rule="evenodd" clip-rule="evenodd" d="M17.1535 14.0409L17.1545 14.0396L17.1605 14.0326L17.1872 14.0016C17.2114 13.9737 17.2485 13.9315 17.2982 13.8764C17.3976 13.7663 17.5472 13.6048 17.7446 13.4039C18.1396 13.002 18.725 12.443 19.4812 11.821C20.9956 10.5755 23.1842 9.08652 25.8907 8.09576C28.5933 7.10642 31.8097 6.61436 35.396 7.35421C38.9824 8.09406 42.9745 10.0732 47.2166 14.0833C47.4172 14.273 47.7337 14.2641 47.9234 14.0635C48.1131 13.8628 48.1042 13.5463 47.9035 13.3566C43.5506 9.24173 39.3964 7.15841 35.5981 6.37483C31.7997 5.59124 28.3931 6.1148 25.5469 7.15671C22.7046 8.1972 20.4188 9.75512 18.846 11.0487C18.0587 11.6962 17.4473 12.2798 17.0314 12.703C16.8233 12.9147 16.664 13.0866 16.5557 13.2065C16.5016 13.2665 16.4603 13.3135 16.432 13.3461L16.3994 13.384L16.3905 13.3945L16.3879 13.3975L16.3871 13.3985C16.3868 13.3988 16.3866 13.3991 16.77 13.72L16.3866 13.3991C16.2094 13.6108 16.2374 13.9262 16.4491 14.1034C16.6608 14.2806 16.976 14.2527 17.1533 14.0411L17.1534 14.041L17.1535 14.0409Z" fill="black"/>
</g>
<defs>
<clipPath id="clip0_5_290">
<rect width="47.05" height="52.65" fill="white" transform="translate(8 6)"/>
</clipPath>
</defs>
</svg>
