<svg width="64" height="64" viewBox="0 0 64 64" fill="none" xmlns="http://www.w3.org/2000/svg">
<path d="M5.92411 41.8643C5.92411 41.8643 3.99706 42.76 4 42.766L7.5123 47.1431L15.4061 44.2221L5.92411 41.8673V41.8643ZM59.3835 35.5578C59.2362 35.0964 57.7452 34.8927 57.7452 34.8927C57.2266 34.8088 55.5559 34.2126 55.3172 34.1886C53.7084 33.88 52.0495 33.9879 50.4937 34.5032C46.1417 35.9832 38.239 38.8024 38.239 38.8024L37.1576 39.1859C36.7863 39.2248 36.4121 39.1559 36.0762 38.9881L22.5338 32.5888C22.0536 32.421 21.532 32.421 21.0517 32.5888L16.8175 34.2755C16.5347 34.3744 16.3873 34.6889 16.4846 34.9766C16.5111 35.0515 16.5523 35.1204 16.6054 35.1773L23.7596 43.1795C23.9452 43.3652 23.8834 43.9884 23.4679 44.1352L8.5819 49.5519C8.17233 49.7047 12.1207 50.7533 14.1538 50.8851C17.5571 51.1397 22.1449 50.1631 25.3861 49.0815C33.9812 46.1575 42.5822 43.2484 51.1685 40.2854C54.4627 39.2218 59.6634 36.5105 59.3776 35.5548L59.3835 35.5578Z" fill="#FFC000"/>
<path fill-rule="evenodd" clip-rule="evenodd" d="M20.8867 32.1168C21.4737 31.9117 22.1115 31.9117 22.6986 32.1168C22.7152 32.1225 22.7314 32.1292 22.7473 32.1367L36.2995 38.5407C36.5347 38.6582 36.7932 38.7104 37.0505 38.6933L38.0709 38.3314L38.0723 38.3309L38.4192 38.2073C38.6439 38.1273 38.9697 38.0114 39.3742 37.8676C40.1833 37.5801 41.3075 37.1814 42.5677 36.7363C45.0874 35.8465 48.1535 34.7708 50.3326 34.0298L50.3364 34.0286C51.9683 33.488 53.7081 33.3736 55.3958 33.6946C55.4654 33.7044 55.5417 33.7242 55.5989 33.7396C55.6763 33.7605 55.7693 33.7879 55.8703 33.8188C56.0277 33.8668 56.2157 33.9266 56.4111 33.9888C56.4661 34.0063 56.5216 34.0239 56.5773 34.0416C57.1053 34.2091 57.6044 34.3624 57.8203 34.3983L57.8343 34.4004C57.8469 34.4022 57.8648 34.4049 57.8873 34.4084C57.9321 34.4155 57.9953 34.426 58.0714 34.4401C58.2223 34.468 58.4285 34.511 58.6427 34.5704C58.8526 34.6287 59.0913 34.7086 59.297 34.8162C59.4735 34.9085 59.758 35.0875 59.8596 35.4057C59.8733 35.4484 59.8809 35.4921 59.8829 35.5355C59.922 35.8397 59.7725 36.1084 59.647 36.2819C59.4885 36.501 59.2574 36.7216 58.9939 36.9357C58.4619 37.3677 57.7066 37.8459 56.858 38.3168C55.1594 39.2595 53.0083 40.2163 51.3267 40.7597C44.6615 43.0597 37.9872 45.3274 31.3149 47.5943C29.392 48.2477 27.4693 48.9009 25.547 49.5549L25.5442 49.5558C22.2773 50.6459 17.6177 51.6451 14.1187 51.3839C13.0571 51.3147 11.5288 51.0112 10.3303 50.7114C9.72873 50.5609 9.19272 50.4069 8.82686 50.2775C8.65314 50.216 8.48278 50.1481 8.36332 50.0766C8.33104 50.0573 8.28988 50.0303 8.24919 49.9951C8.21573 49.9662 8.14236 49.898 8.09506 49.7879C8.03497 49.648 8.02701 49.4543 8.14483 49.2842C8.23535 49.1534 8.35792 49.1017 8.40697 49.0834L8.41076 49.082L23.3012 43.6637C23.3018 43.6635 23.3022 43.6634 23.3033 43.6626C23.3047 43.6615 23.3087 43.6581 23.3144 43.6505C23.3267 43.634 23.3418 43.6042 23.3511 43.5627C23.3583 43.5304 23.3597 43.5016 23.3585 43.4812L16.2353 35.5137C16.1358 35.4056 16.0609 35.2785 16.0131 35.1434L16.0107 35.1367C15.8307 34.6044 16.0959 34.0052 16.6407 33.8077L20.8665 32.1243C20.8732 32.1216 20.8799 32.1191 20.8867 32.1168ZM58.8324 35.7017C58.7172 35.6416 58.5559 35.5842 58.3752 35.534C58.1982 35.4848 58.0225 35.448 57.8893 35.4234C57.8232 35.4111 57.7688 35.4021 57.7315 35.3962L57.6894 35.3898L57.6793 35.3883L57.6774 35.3881L57.6652 35.3864C57.3599 35.337 56.7678 35.1511 56.2749 34.9948C56.2171 34.9764 56.1601 34.9583 56.1042 34.9405C55.9099 34.8787 55.7295 34.8214 55.5781 34.7751C55.4808 34.7454 55.4001 34.7217 55.3384 34.7051C55.2825 34.69 55.2607 34.6859 55.2608 34.6855C55.2608 34.6854 55.263 34.6857 55.2671 34.6861C55.2523 34.6846 55.2375 34.6825 55.2229 34.6797C53.6985 34.3873 52.1268 34.4893 50.6526 34.9772C48.4797 35.7162 45.4195 36.7898 42.9007 37.6793C41.6412 38.124 40.5177 38.5226 39.709 38.8099C39.3047 38.9536 38.9791 39.0694 38.7546 39.1494L38.4083 39.2728L38.4072 39.2732L37.3246 39.6571C37.2874 39.6703 37.2488 39.679 37.2096 39.6831C36.7443 39.732 36.2765 39.6459 35.8578 39.438L22.3454 33.0528C21.9816 32.9315 21.5891 32.933 21.226 33.0575L17.0024 34.74C16.9958 34.7426 16.9891 34.7451 16.9823 34.7475C16.9747 34.7502 16.9666 34.7559 16.9604 34.769C16.9543 34.7818 16.9525 34.7973 16.9571 34.8133C16.9615 34.8243 16.967 34.8321 16.971 34.8364L16.978 34.844L24.1256 42.8388C24.2649 42.9853 24.3221 43.1675 24.3444 43.308C24.3689 43.4621 24.3617 43.6259 24.3269 43.7812C24.2602 44.0793 24.0605 44.4548 23.6369 44.6057C23.6361 44.606 23.6352 44.6063 23.6343 44.6066L9.96359 49.5811C10.1519 49.6333 10.3566 49.6871 10.573 49.7413C11.7537 50.0367 13.2146 50.3231 14.186 50.3861L14.191 50.3864C17.4978 50.6339 22.0117 49.6802 25.2263 48.6077C27.149 47.9536 29.0718 47.3003 30.9946 46.647C37.6681 44.3797 44.3409 42.1125 51.0052 39.8127L51.0147 39.8095C52.6266 39.2891 54.7206 38.3593 56.3728 37.4424C57.2005 36.9831 57.8976 36.5378 58.3634 36.1595C58.5947 35.9716 58.7475 35.8173 58.8324 35.7017ZM6.09609 41.3948C5.97276 41.3496 5.83492 41.3543 5.71318 41.4109L5.41188 41.551C5.23118 41.6351 4.99022 41.7474 4.74931 41.8598C4.50851 41.9722 4.26732 42.085 4.08634 42.1702C3.99601 42.2127 3.91981 42.2487 3.86593 42.2745C3.83931 42.2872 3.81645 42.2983 3.79957 42.3066C3.79176 42.3105 3.78184 42.3154 3.77251 42.3203C3.76907 42.3221 3.75868 42.3276 3.74662 42.3347C3.74232 42.3373 3.72473 42.3477 3.70439 42.3626C3.69676 42.3682 3.66661 42.3903 3.63462 42.4245C3.61611 42.4454 3.57237 42.5066 3.54977 42.5482C3.51908 42.6286 3.50751 42.8533 3.55116 42.9867C3.5673 43.0195 3.58698 43.0504 3.60987 43.079L7.12217 47.4561C7.25685 47.6239 7.48383 47.6867 7.68566 47.6121L15.5795 44.691C15.7853 44.6148 15.9174 44.4134 15.9052 44.1943C15.893 43.9753 15.7394 43.7897 15.5265 43.7368L6.09609 41.3948ZM5.97056 42.394L5.83389 42.4576C5.65337 42.5416 5.41275 42.6537 5.17227 42.766C5.03995 42.8277 4.90781 42.8895 4.78581 42.9466L7.67658 46.5491L13.7107 44.3163L5.97056 42.394Z" fill="black"/>
<path fill-rule="evenodd" clip-rule="evenodd" d="M22.9366 24.6026L22.9415 24.597C22.9466 24.5911 22.955 24.5815 22.9668 24.5684C22.9905 24.5422 23.0274 24.5024 23.0768 24.4521C23.1759 24.3513 23.3246 24.2092 23.5176 24.0504C23.9055 23.7314 24.4614 23.3543 25.1432 23.1048C25.821 22.8566 26.6207 22.7352 27.5123 22.9191C28.404 23.1031 29.4234 23.5998 30.529 24.645C30.7297 24.8347 31.0462 24.8258 31.2359 24.6251C31.4256 24.4245 31.4167 24.108 31.216 23.9183C29.9995 22.7683 28.818 22.1674 27.7144 21.9397C26.6107 21.7121 25.6209 21.865 24.7994 22.1657C23.9819 22.465 23.3287 22.9111 22.8825 23.2781C22.6583 23.4624 22.4837 23.629 22.3636 23.7511C22.3035 23.8123 22.2569 23.8625 22.2244 23.8984C22.2082 23.9164 22.1955 23.9309 22.1863 23.9414L22.1754 23.9542L22.1719 23.9582L22.1707 23.9597L22.1702 23.9603C22.17 23.9605 22.1698 23.9607 22.5532 24.2817L22.1698 23.9607C21.9926 24.1725 22.0205 24.4878 22.2323 24.6651C22.4439 24.8422 22.759 24.8144 22.9363 24.603L22.9361 24.6032L22.9359 24.6035C22.936 24.6034 22.9361 24.6032 22.9365 24.6028L22.9366 24.6026Z" fill="black"/>
<path fill-rule="evenodd" clip-rule="evenodd" d="M20.0246 21.7935L20.0263 21.7915L20.0369 21.7792C20.0469 21.7677 20.0628 21.7495 20.0845 21.7256C20.1277 21.6776 20.1938 21.6063 20.2816 21.5169C20.4574 21.3381 20.7192 21.0879 21.0582 20.8091C21.738 20.2499 22.7171 19.5846 23.9235 19.1429C25.1262 18.7026 26.5523 18.4851 28.1424 18.8132C29.7325 19.1412 31.5226 20.0222 33.4414 21.836C33.6421 22.0257 33.9585 22.0168 34.1482 21.8161C34.3379 21.6155 34.329 21.299 34.1284 21.1093C32.0987 19.1907 30.1466 18.2056 28.3444 17.8338C26.5423 17.462 24.926 17.711 23.5798 18.2039C22.2374 18.6953 21.1612 19.4296 20.423 20.0368C20.0529 20.3412 19.765 20.6158 19.5683 20.8161C19.4699 20.9162 19.3941 20.998 19.342 21.0557C19.3159 21.0846 19.2958 21.1075 19.2817 21.1237L19.2651 21.143L19.2602 21.1487L19.2587 21.1506L19.2581 21.1513C19.2579 21.1515 19.2577 21.1518 19.6409 21.4725L19.2577 21.1518C19.0805 21.3635 19.1085 21.6789 19.3202 21.8561C19.5319 22.0332 19.847 22.0054 20.0243 21.7939L20.0243 21.7939L20.0246 21.7935Z" fill="black"/>
<path fill-rule="evenodd" clip-rule="evenodd" d="M16.9716 19.0711L16.9753 19.0668L16.9918 19.0476C17.007 19.0301 17.0307 19.0031 17.0626 18.9677C17.1264 18.897 17.2231 18.7926 17.3511 18.6623C17.6073 18.4016 17.9878 18.0381 18.4798 17.6334C19.4657 16.8224 20.8883 15.8549 22.6449 15.2118C24.3976 14.5701 26.4804 14.2518 28.8028 14.7309C31.1252 15.2101 33.7232 16.494 36.4945 19.1136C36.6951 19.3033 37.0116 19.2944 37.2013 19.0937C37.391 18.8931 37.3821 18.5766 37.1814 18.3869C34.2993 15.6625 31.5393 14.2744 29.0049 13.7516C26.4704 13.2287 24.1974 13.5784 22.3011 14.2727C20.4086 14.9656 18.8888 16.0021 17.8445 16.8611C17.3214 17.2914 16.9149 17.6794 16.6378 17.9615C16.4992 18.1026 16.3927 18.2174 16.3201 18.2979C16.2837 18.3382 16.2558 18.37 16.2365 18.3922L16.214 18.4183L16.2077 18.4258L16.2058 18.4281L16.2051 18.4289C16.2049 18.4292 16.2047 18.4294 16.5881 18.7503L16.2051 18.4289C16.0279 18.6406 16.0555 18.9565 16.2673 19.1337C16.479 19.3109 16.7943 19.2826 16.9716 19.0711Z" fill="black"/>
</svg>
