<svg width="64" height="64" viewBox="0 0 64 64" fill="none" xmlns="http://www.w3.org/2000/svg">
<path fill-rule="evenodd" clip-rule="evenodd" d="M24.672 16.854L24.6771 16.848C24.6823 16.842 24.6911 16.832 24.7032 16.8186C24.7275 16.7916 24.7655 16.7507 24.8163 16.699C24.918 16.5955 25.0707 16.4496 25.2688 16.2867C25.6669 15.9593 26.2376 15.5721 26.9377 15.3158C27.6339 15.061 28.4555 14.9362 29.3715 15.1252C30.2876 15.3141 31.3339 15.8243 32.4679 16.8964C32.6686 17.0861 32.9851 17.0772 33.1748 16.8765C33.3645 16.6758 33.3556 16.3594 33.1549 16.1697C31.91 14.9928 30.7016 14.3785 29.5735 14.1458C28.4455 13.9131 27.4337 14.0694 26.594 14.3768C25.758 14.6828 25.0901 15.1389 24.6336 15.5143C24.4044 15.7028 24.2258 15.8732 24.1031 15.9981C24.0416 16.0606 23.994 16.1119 23.9608 16.1486C23.9442 16.167 23.9313 16.1818 23.922 16.1925L23.9108 16.2055L23.9073 16.2096L23.9061 16.211C23.9059 16.2113 23.9052 16.2121 24.2886 16.533L23.9052 16.2121C23.7279 16.4238 23.7559 16.7392 23.9677 16.9164C24.1793 17.0936 24.4947 17.0654 24.672 16.854Z" fill="black"/>
<path fill-rule="evenodd" clip-rule="evenodd" d="M21.6881 13.9762L21.69 13.9741L21.7009 13.9614C21.7112 13.9495 21.7276 13.9309 21.7498 13.9063C21.7942 13.857 21.862 13.7838 21.9521 13.6921C22.1324 13.5086 22.401 13.252 22.7487 12.9661C23.4459 12.3926 24.45 11.7102 25.6877 11.2571C26.9215 10.8054 28.3848 10.5822 30.0164 10.9188C31.6481 11.2554 33.484 12.1592 35.4511 14.0187C35.6517 14.2084 35.9682 14.1995 36.1579 13.9988C36.3476 13.7981 36.3387 13.4817 36.138 13.292C34.06 11.3277 32.0621 10.3197 30.2185 9.9394C28.3748 9.55906 26.7213 9.81379 25.3439 10.318C23.9704 10.8209 22.869 11.5723 22.1134 12.1938C21.7347 12.5053 21.4401 12.7864 21.2388 12.9912C21.1381 13.0937 21.0606 13.1774 21.0073 13.2364C20.9807 13.2659 20.9601 13.2893 20.9457 13.3059L20.9288 13.3256L20.9238 13.3314L20.9222 13.3333L20.9217 13.334C20.9215 13.3342 20.9213 13.3345 21.3047 13.6553L20.9213 13.3345C20.744 13.5462 20.772 13.8616 20.9838 14.0388C21.1955 14.2159 21.5106 14.188 21.6879 13.9766L21.6879 13.9765L21.6881 13.9762Z" fill="black"/>
<path fill-rule="evenodd" clip-rule="evenodd" d="M18.5605 11.1874L18.5643 11.1828L18.5813 11.1631C18.5969 11.1451 18.6212 11.1174 18.654 11.0811C18.7195 11.0085 18.8187 10.9014 18.95 10.7678C19.2126 10.5005 19.6028 10.1278 20.1072 9.71285C21.1179 8.88143 22.5765 7.8894 24.3777 7.22993C26.1751 6.57187 28.3112 6.24545 30.693 6.73683C33.0749 7.22823 35.7384 8.54486 38.5788 11.2298C38.7795 11.4195 39.0959 11.4106 39.2856 11.21C39.4753 11.0093 39.4664 10.6928 39.2657 10.5031C36.3144 7.71335 33.4889 6.29259 30.8951 5.75746C28.3012 5.22233 25.9749 5.58025 24.0339 6.29089C22.0968 7.00011 20.541 8.06112 19.4719 8.94057C18.9364 9.38108 18.5203 9.77828 18.2366 10.067C18.0947 10.2114 17.9858 10.3289 17.9114 10.4113C17.8743 10.4525 17.8457 10.485 17.826 10.5077L17.8031 10.5344L17.7966 10.542L17.7946 10.5443L17.794 10.5451C17.7937 10.5454 17.7935 10.5456 18.177 10.8665L17.794 10.5451C17.6168 10.7569 17.6443 11.0728 17.8561 11.25C18.0678 11.4271 18.3832 11.3989 18.5605 11.1874Z" fill="black"/>
<path d="M7 27.5V49.5V50H13C16.2 47.2 19.6667 48.8333 21 50H37V27.5H7Z" fill="#FFC000"/>
<path fill-rule="evenodd" clip-rule="evenodd" d="M6.5 27.0583H37.6926V50.4528H20.6366V49.4528H36.6926V28.0583H7.5V49.4528H13.1052V50.4528H6.5V27.0583Z" fill="black"/>
<path fill-rule="evenodd" clip-rule="evenodd" d="M8.44141 53.7951V50.0939H7.44141V54.7907L11.637 54.8089L11.6413 53.8089L8.44141 53.7951Z" fill="black"/>
<path fill-rule="evenodd" clip-rule="evenodd" d="M22.1724 53.8839L42.5247 53.9932L42.5193 54.9932L22.167 54.8839L22.1724 53.8839Z" fill="black"/>
<path fill-rule="evenodd" clip-rule="evenodd" d="M47.3546 33.7982H37.334V32.7982H48.0283L52.2799 43.2856L56.2792 45.1519C56.2863 45.1545 56.2944 45.1575 56.3034 45.161C56.3337 45.1725 56.375 45.1891 56.4236 45.2107C56.5196 45.2533 56.6513 45.3189 56.7866 45.409C57.0268 45.5691 57.4292 45.9095 57.4292 46.4549V53.4532H56.9441C57.4292 53.4532 57.4292 53.453 57.4292 53.4532L57.4291 53.4549L57.4291 53.457L57.4291 53.4624L57.4288 53.4783C57.4285 53.4909 57.4279 53.5077 57.4268 53.528C57.4246 53.5686 57.4204 53.6243 57.4122 53.6902C57.396 53.8193 57.3629 54.0004 57.2923 54.1886C57.2225 54.3748 57.106 54.5948 56.907 54.7717C56.6978 54.9577 56.4222 55.0729 56.0894 55.0729C56.0346 55.0729 55.2289 55.0696 54.4397 55.0662L52.8726 55.0596L52.8763 54.0596L54.4439 54.0663C55.2356 54.0696 56.0374 54.0729 56.0894 54.0729C56.1764 54.0729 56.2158 54.0482 56.2427 54.0243C56.2799 53.9911 56.3208 53.9313 56.356 53.8375C56.3904 53.7458 56.4098 53.6469 56.4199 53.5661C56.4248 53.527 56.4271 53.4952 56.4282 53.4746C56.4286 53.4675 56.4288 53.4618 56.429 53.4577C56.429 53.4559 56.4291 53.4544 56.4291 53.4533L56.4292 53.4519L56.4292 53.4508V46.4549C56.4292 46.4404 56.4117 46.3609 56.2319 46.2411C56.1572 46.1913 56.079 46.1519 56.0175 46.1245C55.9875 46.1112 55.9631 46.1015 55.9474 46.0955L55.9313 46.0895L55.9303 46.0891L55.9291 46.0887L55.904 46.0804L51.5009 44.0256L47.3546 33.7982Z" fill="black"/>
<path fill-rule="evenodd" clip-rule="evenodd" d="M39.6333 34.7576H45.5003L49.5728 44.1556H39.6333V34.7576ZM40.6333 35.7576V43.1556H48.0496L44.8438 35.7576H40.6333Z" fill="black"/>
<path fill-rule="evenodd" clip-rule="evenodd" d="M47.6917 48.9144C45.0304 48.9144 42.873 51.0718 42.873 53.7331C42.873 56.3944 45.0304 58.5518 47.6917 58.5518C50.353 58.5518 52.5104 56.3944 52.5104 53.7331C52.5104 51.0718 50.353 48.9144 47.6917 48.9144ZM41.873 53.7331C41.873 50.5195 44.4782 47.9144 47.6917 47.9144C50.9053 47.9144 53.5104 50.5195 53.5104 53.7331C53.5104 56.9467 50.9053 59.5518 47.6917 59.5518C44.4782 59.5518 41.873 56.9467 41.873 53.7331Z" fill="black"/>
<path fill-rule="evenodd" clip-rule="evenodd" d="M47.6914 51.4338C46.4215 51.4338 45.3921 52.4632 45.3921 53.7331C45.3921 55.003 46.4215 56.0324 47.6914 56.0324C48.9613 56.0324 49.9907 55.003 49.9907 53.7331C49.9907 52.4632 48.9613 51.4338 47.6914 51.4338ZM44.3921 53.7331C44.3921 51.9109 45.8692 50.4338 47.6914 50.4338C49.5136 50.4338 50.9907 51.9109 50.9907 53.7331C50.9907 55.5552 49.5136 57.0324 47.6914 57.0324C45.8692 57.0324 44.3921 55.5552 44.3921 53.7331Z" fill="black"/>
<path fill-rule="evenodd" clip-rule="evenodd" d="M41.873 53.7331C41.873 50.519 44.4777 47.9144 47.6917 47.9144C50.9058 47.9144 53.5104 50.519 53.5104 53.7331C53.5104 56.9472 50.9058 59.5518 47.6917 59.5518C44.4777 59.5518 41.873 56.9472 41.873 53.7331ZM47.6917 48.9144C45.0299 48.9144 42.873 51.0713 42.873 53.7331C42.873 56.3949 45.0299 58.5518 47.6917 58.5518C50.3535 58.5518 52.5104 56.3949 52.5104 53.7331C52.5104 51.0713 50.3535 48.9144 47.6917 48.9144ZM47.6917 51.4338C46.4216 51.4338 45.3924 52.463 45.3924 53.7331C45.3924 55.0033 46.4216 56.0324 47.6917 56.0324C48.9619 56.0324 49.991 55.0033 49.991 53.7331C49.991 52.463 48.9619 51.4338 47.6917 51.4338ZM44.3924 53.7331C44.3924 51.9107 45.8693 50.4338 47.6917 50.4338C49.5142 50.4338 50.991 51.9107 50.991 53.7331C50.991 55.5555 49.5142 57.0324 47.6917 57.0324C45.8693 57.0324 44.3924 55.5555 44.3924 53.7331Z" fill="black"/>
<path fill-rule="evenodd" clip-rule="evenodd" d="M16.8988 48.9144C14.2375 48.9144 12.0801 51.0718 12.0801 53.7331C12.0801 56.3944 14.2375 58.5518 16.8988 58.5518C19.5601 58.5518 21.7175 56.3944 21.7175 53.7331C21.7175 51.0718 19.5601 48.9144 16.8988 48.9144ZM11.0801 53.7331C11.0801 50.5195 13.6852 47.9144 16.8988 47.9144C20.1123 47.9144 22.7175 50.5195 22.7175 53.7331C22.7175 56.9467 20.1123 59.5518 16.8988 59.5518C13.6852 59.5518 11.0801 56.9467 11.0801 53.7331Z" fill="black"/>
<path fill-rule="evenodd" clip-rule="evenodd" d="M16.8994 51.4338C15.6295 51.4338 14.6001 52.4632 14.6001 53.7331C14.6001 55.003 15.6295 56.0324 16.8994 56.0324C18.1693 56.0324 19.1987 55.003 19.1987 53.7331C19.1987 52.4632 18.1693 51.4338 16.8994 51.4338ZM13.6001 53.7331C13.6001 51.9109 15.0772 50.4338 16.8994 50.4338C18.7216 50.4338 20.1987 51.9109 20.1987 53.7331C20.1987 55.5552 18.7216 57.0324 16.8994 57.0324C15.0772 57.0324 13.6001 55.5552 13.6001 53.7331Z" fill="black"/>
<path fill-rule="evenodd" clip-rule="evenodd" d="M11.0801 53.7331C11.0801 50.519 13.6847 47.9144 16.8988 47.9144C20.1129 47.9144 22.7175 50.519 22.7175 53.7331C22.7175 56.9472 20.1129 59.5518 16.8988 59.5518C13.6847 59.5518 11.0801 56.9472 11.0801 53.7331ZM16.8988 48.9144C14.237 48.9144 12.0801 51.0713 12.0801 53.7331C12.0801 56.3949 14.237 58.5518 16.8988 58.5518C19.5606 58.5518 21.7175 56.3949 21.7175 53.7331C21.7175 51.0713 19.5606 48.9144 16.8988 48.9144ZM16.8988 51.4338C15.6286 51.4338 14.5995 52.463 14.5995 53.7331C14.5995 55.0033 15.6286 56.0324 16.8988 56.0324C18.1689 56.0324 19.1981 55.0033 19.1981 53.7331C19.1981 52.463 18.1689 51.4338 16.8988 51.4338ZM13.5995 53.7331C13.5995 51.9107 15.0763 50.4338 16.8988 50.4338C18.7212 50.4338 20.1981 51.9107 20.1981 53.7331C20.1981 55.5555 18.7212 57.0324 16.8988 57.0324C15.0763 57.0324 13.5995 55.5555 13.5995 53.7331Z" fill="black"/>
</svg>
