<svg width="64" height="64" viewBox="0 0 64 64" fill="none" xmlns="http://www.w3.org/2000/svg">
<path fill-rule="evenodd" clip-rule="evenodd" d="M28.5934 15.811L28.5984 15.8052C28.6037 15.7992 28.6124 15.7892 28.6244 15.7758C28.6486 15.749 28.6864 15.7083 28.7369 15.6568C28.8382 15.5538 28.9902 15.4085 29.1875 15.2463C29.5839 14.9204 30.152 14.5349 30.849 14.2798C31.5421 14.0261 32.3599 13.9018 33.2718 14.09C34.1837 14.2781 35.2254 14.786 36.3546 15.8534C36.5553 16.0431 36.8717 16.0342 37.0614 15.8336C37.2511 15.6329 37.2423 15.3165 37.0416 15.1267C35.8015 13.9544 34.5977 13.3424 33.4738 13.1106C32.3499 12.8787 31.3419 13.0345 30.5052 13.3407C29.6725 13.6456 29.0071 14.1 28.5523 14.474C28.324 14.6617 28.146 14.8315 28.0237 14.9559C27.9625 15.0182 27.9151 15.0693 27.882 15.1059C27.8655 15.1242 27.8526 15.1389 27.8433 15.1496L27.8322 15.1625L27.8287 15.1667L27.8274 15.1681L27.827 15.1687C27.8268 15.1689 27.8266 15.1692 28.21 15.4901L27.8266 15.1692C27.6493 15.3809 27.6773 15.6962 27.889 15.8735C28.1007 16.0506 28.4158 16.0228 28.5931 15.8114L28.5928 15.8117L28.5927 15.8119C28.5927 15.8118 28.5929 15.8116 28.5933 15.8112L28.5934 15.811Z" fill="black"/>
<path fill-rule="evenodd" clip-rule="evenodd" d="M25.6217 12.9451L25.6235 12.9429L25.6344 12.9303C25.6447 12.9184 25.661 12.8999 25.6831 12.8754C25.7273 12.8264 25.7948 12.7535 25.8845 12.6622C26.0641 12.4795 26.3315 12.224 26.6777 11.9393C27.3719 11.3683 28.3718 10.6887 29.6041 10.2376C30.8326 9.78786 32.2896 9.5656 33.9141 9.90074C35.5387 10.2359 37.3668 11.1359 39.3257 12.9875C39.5263 13.1772 39.8428 13.1683 40.0325 12.9676C40.2222 12.767 40.2133 12.4505 40.0126 12.2608C37.9429 10.3043 35.9527 9.30024 34.1162 8.92136C32.2796 8.54248 30.6324 8.79624 29.2604 9.29854C27.8922 9.79943 26.7951 10.5479 26.0424 11.167C25.6652 11.4773 25.3718 11.7573 25.1713 11.9613C25.0709 12.0634 24.9937 12.1467 24.9406 12.2056C24.9141 12.235 24.8935 12.2583 24.8792 12.2748L24.8623 12.2944L24.8574 12.3002L24.8558 12.3021L24.8553 12.3028C24.855 12.303 24.8548 12.3033 25.2381 12.624L24.8548 12.3033C24.6776 12.5151 24.7056 12.8304 24.9174 13.0076C25.1291 13.1847 25.4442 13.1569 25.6215 12.9454L25.6215 12.9453L25.6217 12.9451Z" fill="black"/>
<path fill-rule="evenodd" clip-rule="evenodd" d="M22.5072 10.1675L22.511 10.1631L22.5279 10.1434C22.5435 10.1255 22.5677 10.0979 22.6003 10.0618C22.6655 9.98947 22.7643 9.88284 22.895 9.74981C23.1566 9.4836 23.5451 9.11248 24.0474 8.6993C25.0538 7.87137 26.5063 6.88352 28.3 6.22683C30.0897 5.57156 32.2167 5.24653 34.5884 5.73583C36.9601 6.22513 39.6125 7.53619 42.4411 10.21C42.6418 10.3997 42.9582 10.3908 43.1479 10.1901C43.3376 9.98947 43.3287 9.67301 43.128 9.48332C40.1885 6.70468 37.3742 5.28949 34.7905 4.75645C32.2067 4.22341 29.8895 4.57994 27.9562 5.28779C26.0266 5.99422 24.477 7.05106 23.4121 7.92702C22.8787 8.36579 22.4642 8.76142 22.1817 9.04899C22.0404 9.19284 21.9319 9.30985 21.8578 9.39196C21.8208 9.43302 21.7923 9.46538 21.7727 9.48802L21.7498 9.51457L21.7434 9.52215L21.7414 9.52448L21.7408 9.52527C21.7405 9.52556 21.7403 9.52581 22.1238 9.84667L21.7408 9.52527C21.5635 9.73705 21.5911 10.0529 21.8029 10.2301C22.0146 10.4073 22.33 10.379 22.5072 10.1675Z" fill="black"/>
<path fill-rule="evenodd" clip-rule="evenodd" d="M13.5 38.5006H51.3192V59.4196H13.5V38.5006ZM14.5 39.5006V58.4196H50.3192V39.5006H14.5Z" fill="black"/>
<path d="M48.8915 40.6061H15.9277V57.3135H48.8915V40.6061Z" fill="#FFC000"/>
<path fill-rule="evenodd" clip-rule="evenodd" d="M15.4277 40.1061H49.3915V57.8135H15.4277V40.1061ZM16.4277 41.1061V56.8135H48.3915V41.1061H16.4277Z" fill="black"/>
<path fill-rule="evenodd" clip-rule="evenodd" d="M19.9268 54.852V42.8848H20.9268V54.852H19.9268Z" fill="black"/>
<path fill-rule="evenodd" clip-rule="evenodd" d="M25.9722 54.852V42.8848H26.9722V54.852H25.9722Z" fill="black"/>
<path fill-rule="evenodd" clip-rule="evenodd" d="M32.0195 54.852V42.8848H33.0195V54.852H32.0195Z" fill="black"/>
<path fill-rule="evenodd" clip-rule="evenodd" d="M38.0649 54.852V42.8848H39.0649V54.852H38.0649Z" fill="black"/>
<path fill-rule="evenodd" clip-rule="evenodd" d="M44.1099 54.852V42.8848H45.1099V54.852H44.1099Z" fill="black"/>
<path fill-rule="evenodd" clip-rule="evenodd" d="M31.9537 31.6707L32.478 31.6786L33.0059 31.6963L45.1148 38.5657L44.6214 39.4354L32.7265 32.6875L32.4493 32.6783L32.2057 32.6746L20.0295 39.4377L19.5439 38.5634L31.9537 31.6707Z" fill="black"/>
<path fill-rule="evenodd" clip-rule="evenodd" d="M31.8288 25.6161V22.5202H32.8288V25.6161C32.8288 25.9093 32.9063 26.0186 32.9376 26.0535C32.974 26.0942 33.0185 26.1116 33.0554 26.1194C34.6933 26.4558 35.9267 27.9033 35.9267 29.6431C35.9267 31.6291 34.3168 33.239 32.3308 33.239C30.3447 33.239 28.7349 31.6291 28.7349 29.6431H29.7349C29.7349 31.0768 30.897 32.239 32.3308 32.239C33.7645 32.239 34.9267 31.0768 34.9267 29.6431C34.9267 28.3878 34.0365 27.3412 32.853 27.0987L32.8509 27.0982C32.6855 27.0636 32.4179 26.972 32.1928 26.7208C31.9624 26.4637 31.8288 26.0979 31.8288 25.6161Z" fill="black"/>
<path fill-rule="evenodd" clip-rule="evenodd" d="M35.7929 22.6002H28.8647V21.6002H35.7929V22.6002Z" fill="black"/>
</svg>
