<svg width="64" height="64" viewBox="0 0 64 64" fill="none" xmlns="http://www.w3.org/2000/svg">
<path d="M43.0425 33.3115C43.0425 31.2744 43.0425 29.2373 43.0425 27.2001C43.0425 25.0209 41.3749 23.3722 39.1956 23.3722C34.676 23.3722 30.1659 23.3722 25.6463 23.3722C25.4568 23.3722 25.2578 23.3722 25.0683 23.4101C23.2017 23.6754 21.8278 25.2483 21.8184 27.1433C21.8184 29.9574 21.8184 32.7715 21.8184 35.5761C21.8184 35.8982 21.8563 36.2204 21.9415 36.5331C22.3869 38.2101 23.865 39.3377 25.6179 39.3377C28.4414 39.3377 31.265 39.3377 34.0886 39.3377C34.2117 39.3377 34.297 39.3661 34.3918 39.4609C35.7183 40.7874 37.0448 42.1139 38.3713 43.4404C38.4187 43.4878 38.4755 43.5446 38.5324 43.5825C38.8072 43.7625 39.0914 43.7815 39.3757 43.6299C39.6599 43.4783 39.8115 43.2319 39.8115 42.9098C39.8115 41.7728 39.8115 40.6358 39.8115 39.5082V39.3187C39.9063 39.2998 39.9726 39.2903 40.0389 39.2714C41.6686 38.9492 42.9478 37.509 43.0236 35.8414C43.0615 34.9981 43.0425 34.1548 43.0425 33.3115Z" fill="#FFC000"/>
<path fill-rule="evenodd" clip-rule="evenodd" d="M25.6293 22.8721C25.635 22.8721 25.6407 22.8721 25.6463 22.8721H39.1956C41.6478 22.8721 43.5425 24.7414 43.5425 27.2V33.3114C43.5425 33.516 43.5437 33.7228 43.5448 33.9313C43.5484 34.5669 43.5521 35.2174 43.5231 35.8637C43.4392 37.7078 42.0756 39.2922 40.3115 39.723V42.9097C40.3115 43.4209 40.0542 43.8346 39.611 44.0709C39.1562 44.3135 38.677 44.2749 38.2584 44.0006L38.255 43.9984C38.1554 43.932 38.0676 43.8438 38.0253 43.8014C38.0226 43.7987 38.0201 43.7961 38.0177 43.7938L34.0615 39.8376L25.6179 39.8376C23.6421 39.8376 21.9636 38.5614 21.4587 36.6629C21.3607 36.3029 21.3184 35.9366 21.3184 35.576V27.1407C21.329 25.0026 22.8789 23.2227 24.9847 22.9169C25.2186 22.872 25.4539 22.872 25.6293 22.8721ZM25.6463 23.8721C25.4478 23.8721 25.2991 23.8737 25.1664 23.9003L25.1526 23.903L25.1387 23.905C23.5185 24.1353 22.3272 25.4975 22.3184 27.1444V35.576C22.3184 35.8591 22.3517 36.1365 22.4239 36.4014L22.4248 36.4046C22.8111 37.8594 24.0884 38.8376 25.6179 38.8376H34.0886C34.1884 38.8376 34.3073 38.8489 34.4326 38.8978C34.5598 38.9475 34.6612 39.023 34.7453 39.1072L38.7249 43.0867C38.7497 43.1116 38.7679 43.1296 38.7854 43.1456C38.8003 43.1593 38.8095 43.1662 38.8095 43.1662C38.9388 43.2499 39.0275 43.2488 39.1404 43.1886C39.2656 43.1218 39.3115 43.0427 39.3115 42.9097V38.9087L39.7135 38.8283C39.7675 38.8175 39.8021 38.8112 39.827 38.8066C39.8619 38.8002 39.8778 38.7973 39.9016 38.7905L39.9215 38.7848L39.9419 38.7807C41.3529 38.5018 42.4591 37.2489 42.5241 35.8186C42.5519 35.1999 42.5484 34.5855 42.5449 33.9566C42.5437 33.7434 42.5425 33.5286 42.5425 33.3114V27.2C42.5425 25.3001 41.102 23.8721 39.1956 23.8721H25.6463Z" fill="black"/>
<path d="M32.3235 5.59974L31.5327 4.98767L26.7793 11.1291L31.4934 16.9042L32.2681 16.2718L28.4244 11.5631C37.433 10.8016 42.9328 13.5833 46.1918 16.5447C47.8697 18.0694 48.966 19.6531 49.6418 20.8533C49.9796 21.4531 50.2117 21.956 50.3585 22.3061C50.4319 22.4811 50.4839 22.6178 50.517 22.7091C50.5335 22.7547 50.5454 22.789 50.5528 22.8111L50.5608 22.8349L50.5623 22.8397C50.5623 22.8397 50.5623 22.8397 51.0393 22.6899C51.5164 22.5402 51.5161 22.5394 51.5161 22.5394L51.5158 22.5383L51.5148 22.5352L51.5116 22.5254L51.5003 22.4913C51.4905 22.4623 51.4762 22.4209 51.457 22.368C51.4186 22.2622 51.3608 22.1103 51.2807 21.9195C51.1207 21.5378 50.8719 20.9997 50.5131 20.3626C49.7958 19.0888 48.6365 17.415 46.8643 15.8046C43.4115 12.6671 37.6786 9.81328 28.4887 10.5544L32.3235 5.59974Z" fill="black"/>
<path d="M11.4219 34.9147C10.6797 25.6576 13.3921 20.0048 16.2772 16.6575C17.7624 14.9344 19.3044 13.8094 20.4717 13.1165C21.0552 12.7701 21.5442 12.5322 21.8844 12.3818C22.0544 12.3067 22.1871 12.2535 22.2756 12.2197C22.3199 12.2027 22.353 12.1906 22.3743 12.1831L22.3972 12.1751L22.4017 12.1735C22.4017 12.1735 22.4015 12.1736 22.2444 11.6989C22.0873 11.2242 22.0866 11.2245 22.0866 11.2245L22.0855 11.2249L22.0824 11.2259L22.0726 11.2292L22.0391 11.2409C22.0107 11.2511 21.9701 11.2658 21.9184 11.2856C21.8149 11.3252 21.6665 11.3848 21.4801 11.4672C21.1075 11.6319 20.5826 11.8877 19.9612 12.2566C18.7189 12.9941 17.0879 14.1852 15.5198 16.0046C12.466 19.5476 9.69153 25.4255 10.4137 34.8485L5.61921 30.9344L4.98682 31.7091L10.9868 36.6073L16.6295 31.7578L15.9777 30.9994L11.4219 34.9147Z" fill="black"/>
<path d="M59.2296 31.7022L53.2292 26.7937L47.5861 31.6535L48.2387 32.4112L52.7941 28.4881C53.536 37.7446 50.8237 43.3994 47.9386 46.7489C46.4534 48.4732 44.9113 49.5994 43.744 50.2932C43.1605 50.64 42.6715 50.8783 42.3313 51.0289C42.1613 51.1042 42.0286 51.1574 41.9401 51.1914C41.8958 51.2083 41.8626 51.2204 41.8414 51.228L41.8185 51.236L41.814 51.2376C41.814 51.2376 41.8142 51.2375 41.9715 51.7121C42.1289 52.1867 42.1297 52.1864 42.1297 52.1864L42.1308 52.1861L42.1339 52.185L42.1437 52.1817L42.1772 52.1699C42.2056 52.1598 42.2461 52.145 42.2979 52.1252C42.4014 52.0855 42.5498 52.0258 42.7361 51.9433C43.1087 51.7783 43.6337 51.5221 44.255 51.1528C45.4973 50.4144 47.1282 49.2221 48.6963 47.4016C51.7498 43.8565 54.5241 37.9768 53.8024 28.5546L58.5964 32.4762L59.2296 31.7022Z" fill="black"/>
<path d="M35.4142 52.5868C26.4049 53.3487 20.9048 50.5669 17.6457 47.6053C15.9677 46.0807 14.8715 44.4969 14.1956 43.2968C13.8579 42.6969 13.6257 42.194 13.4789 41.8439C13.4056 41.6689 13.3536 41.5322 13.3204 41.4409C13.3039 41.3953 13.292 41.361 13.2846 41.3389L13.2767 41.3151L13.2751 41.3103C13.2751 41.3103 13.2751 41.3103 12.7981 41.4601C12.321 41.6099 12.3213 41.6106 12.3213 41.6106L12.3216 41.6117L12.3226 41.6148L12.3258 41.6247L12.3371 41.6587C12.3469 41.6877 12.3612 41.7291 12.3804 41.782C12.4188 41.8878 12.4767 42.0397 12.5567 42.2306C12.7167 42.6122 12.9655 43.1503 13.3243 43.7874C14.0416 45.0612 15.201 46.7351 16.9732 48.3454C20.4259 51.4829 26.1589 54.3367 35.3487 53.5956L31.5139 58.5503L32.3047 59.1624L37.0578 53.0212L32.3538 47.2463L31.5785 47.8778L35.4142 52.5868Z" fill="black"/>
</svg>
