<svg width="64" height="64" viewBox="0 0 64 64" fill="none" xmlns="http://www.w3.org/2000/svg">
<path fill-rule="evenodd" clip-rule="evenodd" d="M27.7921 6.02002L48.5456 16.8869V41.1755L29.0344 52.0502L7.01855 40.5016V15.9645L27.7921 6.02002ZM8.01855 39.8969V17.073L28.5272 26.8879V50.6549L8.01855 39.8969ZM29.5272 50.6307L47.5456 40.5881V17.4921L47.21 17.3163L47.3765 17.6316L29.5272 27.0623V50.6307ZM37.6478 12.3094L46.5182 16.9541L29.2028 26.1026L19.7167 21.5628L37.6898 12.3917L37.6478 12.3094ZM36.6623 11.7934L27.7721 7.1383L8.67669 16.2794L18.5813 21.0195L36.6623 11.7934ZM19.6788 36.1557C19.6788 35.7421 19.5335 35.3905 19.243 35.1112C18.9525 34.832 18.4648 34.5735 17.7696 34.3356C16.8047 34.0461 16.1095 33.6634 15.6634 33.1877C15.2172 32.712 14.9994 32.1226 14.9994 31.3883C14.9994 30.6541 15.2172 30.0439 15.6426 29.5682C16.068 29.0925 16.6698 28.8133 17.4272 28.7202V27.2414H18.4337V28.7306C19.1911 28.834 19.7825 29.1546 20.2079 29.682C20.6333 30.2094 20.8408 30.9436 20.8408 31.864H19.5957C19.5957 31.2229 19.4401 30.7161 19.1392 30.3438C18.8383 29.9715 18.4233 29.7854 17.9149 29.7854C17.4065 29.7854 16.9603 29.9198 16.6802 30.1991C16.4001 30.4783 16.2548 30.8609 16.2548 31.3573C16.2548 31.8227 16.4001 32.1846 16.701 32.4535C17.0019 32.7224 17.4999 32.9706 18.1847 33.1981C18.8695 33.4256 19.409 33.6634 19.8033 33.9323C20.1975 34.2012 20.4777 34.5114 20.6541 34.8734C20.8304 35.2353 20.9238 35.649 20.9238 36.1247C20.9238 36.89 20.6956 37.5001 20.239 37.9655C19.7825 38.4309 19.1392 38.6997 18.3092 38.7928V40.0855H17.3027V38.7928C16.4623 38.7204 15.7983 38.4205 15.321 37.8931C14.8437 37.3657 14.6051 36.6625 14.6051 35.7731H15.8605C15.8605 36.4039 16.0265 36.8796 16.3586 37.2209C16.6906 37.5622 17.1575 37.7276 17.7593 37.7276C18.3611 37.7276 18.8176 37.5829 19.16 37.3036C19.5024 37.0244 19.6684 36.6314 19.6684 36.1454L19.6788 36.1557Z" fill="black"/>
<path fill-rule="evenodd" clip-rule="evenodd" d="M43.0139 32.9808V49.2169H37.9194L46.8425 58.2657L55.7655 49.2169H50.2456V32.9808H43.0242H43.0139Z" fill="#FFC000"/>
<path fill-rule="evenodd" clip-rule="evenodd" d="M42.5138 32.4808H50.7456V48.7169H56.9607L46.8424 58.9778L36.7241 48.7169H42.5138V32.4808ZM43.5138 33.4808V49.7169H39.1146L46.8424 57.5536L54.5701 49.7169H49.7456V33.4808H43.5138Z" fill="black"/>
</svg>
