<svg width="64" height="64" viewBox="0 0 64 64" fill="none" xmlns="http://www.w3.org/2000/svg">
<g clip-path="url(#clip0_5_79)">
<path fill-rule="evenodd" clip-rule="evenodd" d="M9.81982 9H59.1098V45.43H28.5198V44.43H58.1098V10H10.8198V32.6H9.81982V9Z" fill="black"/>
<path fill-rule="evenodd" clip-rule="evenodd" d="M16.7798 29.95H17.2798C18.894 29.95 20.4894 30.2624 21.9819 30.8884C23.4726 31.5036 24.8274 32.4105 25.9633 33.5465C27.0997 34.6828 28.0067 36.0381 28.622 37.5293C29.2364 39.0185 29.5598 40.6132 29.5598 42.23V42.73H16.7798V29.95ZM17.7798 30.9609V41.73H28.5486C28.4896 40.4182 28.1995 39.1272 27.6976 37.9107C27.1329 36.542 26.2999 35.2972 25.2562 34.2536C24.2126 33.2099 22.9678 32.3769 21.5991 31.8122L21.5963 31.8111C20.3828 31.3019 19.093 31.0183 17.7798 30.9609Z" fill="black"/>
<path fill-rule="evenodd" clip-rule="evenodd" d="M16.7801 30.9612C14.7253 31.0535 12.7276 31.7124 11.0077 32.8559C9.14978 34.1011 7.70421 35.8629 6.85223 37.9209C5.99993 39.9897 5.77961 42.2497 6.21073 44.4436C6.64152 46.6259 7.71359 48.6362 9.29329 50.2161C10.8749 51.7879 12.8762 52.869 15.0665 53.2994C17.2609 53.7306 19.5308 53.51 21.5889 52.658C23.657 51.8059 25.419 50.36 26.6538 48.5032L26.6547 48.5017C27.8062 46.7833 28.4579 44.7862 28.549 42.73H16.7801V30.9612ZM10.4533 32.0237C12.4739 30.68 14.85 29.95 17.2801 29.95H17.7801V41.73H29.5601V42.23C29.5601 44.6584 28.8411 47.035 27.4861 49.0575C26.1408 51.0803 24.2222 52.6545 21.9706 53.5823C19.7289 54.5101 17.259 54.7494 14.8737 54.2806C12.4843 53.8111 10.3059 52.6325 8.58763 50.9246L8.58656 50.9236C6.86655 49.2036 5.6988 47.0142 5.22957 44.6368C4.76072 42.2509 5.00026 39.7907 5.92781 37.5395C6.85574 35.2979 8.43016 33.3793 10.4518 32.0246L10.4533 32.0237Z" fill="black"/>
<path d="M29.0601 42.23C29.0601 44.66 28.3101 47.04 26.9001 49.02C25.5001 51.01 23.5101 52.51 21.2201 53.33C18.9301 54.14 16.4401 54.23 14.1001 53.57C11.7601 52.91 9.68014 51.55 8.14014 49.66L17.2801 42.22H29.0601V42.23Z" fill="#FFC000"/>
<path fill-rule="evenodd" clip-rule="evenodd" d="M17.1024 41.72H29.5601V42.23C29.5601 44.762 28.7789 47.2432 27.3082 49.3088C25.848 51.384 23.7737 52.9467 21.3887 53.8007L21.3869 53.8014C19.0007 54.6454 16.405 54.7396 13.9644 54.0512C11.526 53.3634 9.35782 51.946 7.75251 49.9758L7.43652 49.588L17.1024 41.72ZM17.4579 42.72L8.85231 49.725C10.2889 51.337 12.1548 52.5018 14.2359 53.0887C16.4749 53.7203 18.8589 53.6346 21.0524 52.859C23.2466 52.0731 25.1517 50.6363 26.4912 48.7323L26.4928 48.7299C27.7469 46.969 28.456 44.8759 28.5495 42.72H17.4579Z" fill="black"/>
<path fill-rule="evenodd" clip-rule="evenodd" d="M40.0539 16.3946L26.7869 26.0293L18.7068 18.3368L12.2918 24.6854L11.5884 23.9746L18.6933 16.9432L26.8732 24.7307L39.4663 15.5854L40.0539 16.3946Z" fill="black"/>
<path d="M10.3701 27.61C11.6017 27.61 12.6001 26.6116 12.6001 25.38C12.6001 24.1484 11.6017 23.15 10.3701 23.15C9.13854 23.15 8.14014 24.1484 8.14014 25.38C8.14014 26.6116 9.13854 27.61 10.3701 27.61Z" fill="#FFC000"/>
<path fill-rule="evenodd" clip-rule="evenodd" d="M10.3701 23.65C9.41468 23.65 8.64014 24.4245 8.64014 25.38C8.64014 26.3354 9.41468 27.11 10.3701 27.11C11.3256 27.11 12.1001 26.3354 12.1001 25.38C12.1001 24.4245 11.3256 23.65 10.3701 23.65ZM7.64014 25.38C7.64014 23.8723 8.8624 22.65 10.3701 22.65C11.8779 22.65 13.1001 23.8723 13.1001 25.38C13.1001 26.8877 11.8779 28.11 10.3701 28.11C8.8624 28.11 7.64014 26.8877 7.64014 25.38Z" fill="black"/>
<path d="M18.7002 19.87C19.9318 19.87 20.9302 18.8716 20.9302 17.64C20.9302 16.4084 19.9318 15.41 18.7002 15.41C17.4686 15.41 16.4702 16.4084 16.4702 17.64C16.4702 18.8716 17.4686 19.87 18.7002 19.87Z" fill="#FFC000"/>
<path fill-rule="evenodd" clip-rule="evenodd" d="M18.7002 15.91C17.7448 15.91 16.9702 16.6846 16.9702 17.64C16.9702 18.5955 17.7448 19.37 18.7002 19.37C19.6557 19.37 20.4302 18.5955 20.4302 17.64C20.4302 16.6846 19.6557 15.91 18.7002 15.91ZM15.9702 17.64C15.9702 16.1323 17.1925 14.91 18.7002 14.91C20.208 14.91 21.4302 16.1323 21.4302 17.64C21.4302 19.1477 20.208 20.37 18.7002 20.37C17.1925 20.37 15.9702 19.1477 15.9702 17.64Z" fill="black"/>
<path d="M26.8301 27.61C28.0617 27.61 29.0601 26.6116 29.0601 25.38C29.0601 24.1484 28.0617 23.15 26.8301 23.15C25.5985 23.15 24.6001 24.1484 24.6001 25.38C24.6001 26.6116 25.5985 27.61 26.8301 27.61Z" fill="#FFC000"/>
<path fill-rule="evenodd" clip-rule="evenodd" d="M26.8301 23.65C25.8746 23.65 25.1001 24.4245 25.1001 25.38C25.1001 26.3354 25.8746 27.11 26.8301 27.11C27.7855 27.11 28.5601 26.3354 28.5601 25.38C28.5601 24.4245 27.7855 23.65 26.8301 23.65ZM24.1001 25.38C24.1001 23.8723 25.3224 22.65 26.8301 22.65C28.3378 22.65 29.5601 23.8723 29.5601 25.38C29.5601 26.8877 28.3378 28.11 26.8301 28.11C25.3224 28.11 24.1001 26.8877 24.1001 25.38Z" fill="black"/>
<path d="M39.7598 18.22C40.9914 18.22 41.9898 17.2216 41.9898 15.99C41.9898 14.7584 40.9914 13.76 39.7598 13.76C38.5282 13.76 37.5298 14.7584 37.5298 15.99C37.5298 17.2216 38.5282 18.22 39.7598 18.22Z" fill="#FFC000"/>
<path fill-rule="evenodd" clip-rule="evenodd" d="M39.7598 14.26C38.8043 14.26 38.0298 15.0346 38.0298 15.99C38.0298 16.9455 38.8043 17.72 39.7598 17.72C40.7152 17.72 41.4898 16.9455 41.4898 15.99C41.4898 15.0346 40.7152 14.26 39.7598 14.26ZM37.0298 15.99C37.0298 14.4823 38.252 13.26 39.7598 13.26C41.2675 13.26 42.4898 14.4823 42.4898 15.99C42.4898 17.4977 41.2675 18.72 39.7598 18.72C38.252 18.72 37.0298 17.4977 37.0298 15.99Z" fill="black"/>
<path fill-rule="evenodd" clip-rule="evenodd" d="M36.04 25.11H37.04V41.47H55.44V42.47H36.04V25.11Z" fill="black"/>
<path d="M42.0499 31.87H38.8999V41.84H42.0499V31.87Z" fill="#FFC000"/>
<path fill-rule="evenodd" clip-rule="evenodd" d="M38.3999 31.37H42.5499V42.34H38.3999V31.37ZM39.3999 32.37V41.34H41.5499V32.37H39.3999Z" fill="black"/>
<path d="M47.8902 26.95H44.7402V41.84H47.8902V26.95Z" fill="#FFC000"/>
<path fill-rule="evenodd" clip-rule="evenodd" d="M44.2402 26.45H48.3902V42.34H44.2402V26.45ZM45.2402 27.45V41.34H47.3902V27.45H45.2402Z" fill="black"/>
<path d="M53.7301 36.07H50.5801V41.84H53.7301V36.07Z" fill="#FFC000"/>
<path fill-rule="evenodd" clip-rule="evenodd" d="M50.0801 35.57H54.2301V42.34H50.0801V35.57ZM51.0801 36.57V41.34H53.2301V36.57H51.0801Z" fill="black"/>
</g>
<defs>
<clipPath id="clip0_5_79">
<rect width="54.11" height="45.51" fill="white" transform="translate(5 9)"/>
</clipPath>
</defs>
</svg>
