<svg width="64" height="64" viewBox="0 0 64 64" fill="none" xmlns="http://www.w3.org/2000/svg">
<g clip-path="url(#clip0_5_132)">
<path d="M56.7199 46.72L56.6199 44.67L56.9099 43.48L58.8599 42.43L59.0999 40.96L57.5399 39.84L54.5099 39.7L52.4399 37.44L52.6799 35.49L53.1099 34.87L52.3999 33.68L50.4499 33.87L49.6999 35.07L48.4099 36.3L47.0999 36.15L45.7499 36.3L43.2599 33.36L41.6099 33.93L41.2799 34.5L41.7599 37.31L40.3799 38.83L39.7099 40.26L35.6699 39.69L34.8999 41.45L35.4199 42.44L37.4599 43.78L37.7999 44.96L37.4699 47.15L37.1399 48.15L34.8999 49.24V50.1L35.6699 51.69L38.5599 51.39L39.4699 51.42L41.7999 53.81L41.1299 57.38L43.0299 58.02L43.9799 57L44.8799 55.57L46.6899 55.14L47.9699 55.18L49.2999 55.9L50.3799 57.26L51.6699 57.9L52.7099 57.3L52.8199 56.09L52.5299 54.52L53.2699 52.93L54.6699 51.33L56.2899 51.09L58.0999 51.47L58.9099 50.61V48.85L57.3599 48.04L56.7299 46.71L56.7199 46.72ZM47.2099 50.47C44.6599 50.47 42.5899 48.4 42.5899 45.85C42.5899 43.3 44.6599 41.23 47.2099 41.23C49.7599 41.23 51.8299 43.3 51.8299 45.85C51.8299 48.4 49.7599 50.47 47.2099 50.47Z" fill="#FFC000"/>
<path fill-rule="evenodd" clip-rule="evenodd" d="M7.4532 10.4077C6.46331 11.2435 6 12.0912 6 12.91C6 13.7288 6.46331 14.5765 7.4532 15.4123C8.44076 16.2461 9.89944 17.0195 11.7457 17.6788C15.4338 18.9959 20.5618 19.82 26.25 19.82C31.9382 19.82 37.0662 18.9959 40.7543 17.6788C42.6006 17.0195 44.0592 16.2461 45.0468 15.4123C46.0367 14.5765 46.5 13.7288 46.5 12.91C46.5 12.0912 46.0367 11.2435 45.0468 10.4077C44.0592 9.57394 42.6006 8.80053 40.7543 8.14121C37.0662 6.82415 31.9382 6 26.25 6C20.5618 6 15.4338 6.82415 11.7457 8.14121C9.89944 8.80053 8.44076 9.57394 7.4532 10.4077ZM11.4094 7.19946C15.2313 5.83464 20.4783 5 26.25 5C32.0217 5 37.2687 5.83464 41.0906 7.19946C42.9994 7.8811 44.5795 8.70441 45.6919 9.64365C46.802 10.5809 47.5 11.6826 47.5 12.91C47.5 14.1374 46.802 15.2391 45.6919 16.1763C44.5795 17.1156 42.9994 17.9389 41.0906 18.6205C37.2687 19.9854 32.0217 20.82 26.25 20.82C20.4783 20.82 15.2313 19.9854 11.4094 18.6205C9.50062 17.9389 7.92053 17.1156 6.80808 16.1763C5.69795 15.2391 5 14.1374 5 12.91C5 11.6826 5.69795 10.5809 6.80808 9.64365C7.92053 8.70441 9.50062 7.8811 11.4094 7.19946Z" fill="black"/>
<path fill-rule="evenodd" clip-rule="evenodd" d="M11.7506 28.3878C15.4413 29.7053 20.5718 30.53 26.26 30.53C31.9482 30.53 37.0762 29.7053 40.7643 28.3879C42.6106 27.7284 44.0693 26.9549 45.0568 26.1212C46.0468 25.2855 46.51 24.4381 46.51 23.62H47.51C47.51 24.8468 46.812 25.9482 45.7019 26.8853C44.5895 27.8244 43.0094 28.6478 41.1007 29.3296C37.2788 30.6947 32.0318 31.53 26.26 31.53C20.4882 31.53 15.2387 30.6947 11.4144 29.3296C9.50445 28.6479 7.92317 27.8245 6.80982 26.8855C5.69889 25.9485 5 24.8471 5 23.62H6C6 24.4379 6.46361 25.2853 7.45455 26.1211C8.44308 26.9548 9.90305 27.7284 11.7506 28.3878Z" fill="black"/>
<path fill-rule="evenodd" clip-rule="evenodd" d="M11.7457 39.0979C15.4338 40.4153 20.5618 41.24 26.25 41.24C29.2946 41.24 32.1875 41.0019 34.779 40.5766L34.941 41.5634C32.2925 41.9981 29.3454 42.24 26.25 42.24C20.4782 42.24 15.2312 41.4048 11.4093 40.0396C9.50056 39.3578 7.92051 38.5345 6.80809 37.5954C5.69803 36.6583 5 35.5569 5 34.33H6C6 35.1482 6.46322 35.9955 7.45316 36.8312C8.44074 37.6649 9.89944 38.4384 11.7457 39.0979Z" fill="black"/>
<path fill-rule="evenodd" clip-rule="evenodd" d="M6 12.66V45.03C6 45.8481 6.46322 46.6955 7.45316 47.5312C8.44074 48.3649 9.89944 49.1384 11.7457 49.7979C15.4338 51.1152 20.5618 51.94 26.25 51.94C29.7113 51.94 32.9704 51.6324 35.8282 51.0985L36.0118 52.0815C33.0896 52.6275 29.7687 52.94 26.25 52.94C20.4782 52.94 15.2312 52.1047 11.4093 50.7396C9.50056 50.0578 7.92051 49.2344 6.80809 48.2953C5.69803 47.3582 5 46.2568 5 45.03V12.66H6Z" fill="black"/>
<path fill-rule="evenodd" clip-rule="evenodd" d="M46.5098 12.66H47.5098V36.15H46.5098V12.66Z" fill="black"/>
<path d="M9.4601 24.58C9.93506 24.58 10.3201 23.8099 10.3201 22.86C10.3201 21.9101 9.93506 21.14 9.4601 21.14C8.98513 21.14 8.6001 21.9101 8.6001 22.86C8.6001 23.8099 8.98513 24.58 9.4601 24.58Z" fill="black"/>
<path d="M9.4601 35.39C9.93506 35.39 10.3201 34.6199 10.3201 33.67C10.3201 32.7201 9.93506 31.95 9.4601 31.95C8.98513 31.95 8.6001 32.7201 8.6001 33.67C8.6001 34.6199 8.98513 35.39 9.4601 35.39Z" fill="black"/>
<path d="M9.4601 46.2C9.93506 46.2 10.3201 45.4299 10.3201 44.48C10.3201 43.5301 9.93506 42.76 9.4601 42.76C8.98513 42.76 8.6001 43.5301 8.6001 44.48C8.6001 45.4299 8.98513 46.2 9.4601 46.2Z" fill="black"/>
<path fill-rule="evenodd" clip-rule="evenodd" d="M43.4366 32.7667L45.5849 35.7562C46.07 35.6829 46.5667 35.64 47.08 35.64C47.5933 35.64 48.0901 35.6829 48.5751 35.7562L50.7235 32.7667L51.0666 32.872C51.851 33.1125 52.5995 33.4353 53.3113 33.8067L53.6322 33.9741L53.0339 37.6049C53.8378 38.2003 54.5543 38.9095 55.147 39.7158L58.7759 39.1178L58.9433 39.4387C59.3147 40.1505 59.6375 40.899 59.878 41.6834L59.9833 42.0266L56.9938 44.1749C57.0671 44.6599 57.11 45.1567 57.11 45.67C57.11 46.1833 57.0671 46.6801 56.9938 47.1651L59.9833 49.3134L59.878 49.6566C59.6375 50.441 59.3147 51.1895 58.9433 51.9013L58.7759 52.2222L55.1451 51.6238C54.5497 52.4277 53.8405 53.1443 53.0342 53.7369L53.6322 57.3658L53.3113 57.5333C52.5995 57.9047 51.851 58.2275 51.0666 58.468L50.7235 58.5732L48.5751 55.5838C48.0901 55.657 47.5933 55.7 47.08 55.7C46.5667 55.7 46.07 55.657 45.5849 55.5838L43.4366 58.5732L43.0934 58.468C42.309 58.2275 41.5606 57.9047 40.8487 57.5333L40.5278 57.3658L41.1262 53.7351C40.3223 53.1397 39.6058 52.4305 39.0131 51.6241L35.3842 52.2222L35.2167 51.9013C34.8453 51.1894 34.5226 50.441 34.282 49.6566L34.1768 49.3134L37.1662 47.1651C37.093 46.6801 37.05 46.1833 37.05 45.67C37.05 45.1567 37.093 44.6599 37.1662 44.1749L34.1768 42.0266L34.282 41.6834C34.5226 40.899 34.8453 40.1505 35.2167 39.4387L35.3842 39.1178L39.0149 39.7161C39.6103 38.9122 40.3195 38.1957 41.1259 37.603L40.5278 33.9741L40.8487 33.8067C41.5606 33.4353 42.309 33.1125 43.0934 32.872L43.4366 32.7667ZM41.633 34.5304L42.2151 38.0628L41.9524 38.2426C41.0553 38.8564 40.278 39.6423 39.6507 40.5453L39.4704 40.8047L35.9404 40.2229C35.7145 40.6834 35.5144 41.1547 35.3485 41.6372L38.2576 43.7278L38.2022 44.0379C38.1065 44.574 38.05 45.1142 38.05 45.67C38.05 46.2258 38.1065 46.766 38.2022 47.3021L38.2576 47.6122L35.3485 49.7028C35.5144 50.1852 35.7145 50.6566 35.9404 51.117L39.4729 50.5349L39.6527 50.7976C40.2664 51.6947 41.0523 52.472 41.9553 53.0994L42.2147 53.2796L41.633 56.8096C42.0934 57.0355 42.5648 57.2356 43.0472 57.4015L45.1378 54.4924L45.4479 54.5478C45.984 54.6435 46.5243 54.7 47.08 54.7C47.6358 54.7 48.176 54.6435 48.7121 54.5478L49.0222 54.4924L51.1128 57.4015C51.5953 57.2356 52.0666 57.0355 52.5271 56.8096L51.9449 53.2771L52.2077 53.0973C53.1047 52.4836 53.8821 51.6977 54.5094 50.7947L54.6896 50.5353L58.2196 51.117C58.4455 50.6566 58.6456 50.1852 58.8116 49.7028L55.9024 47.6122L55.9578 47.3021C56.0535 46.766 56.11 46.2258 56.11 45.67C56.11 45.1142 56.0535 44.574 55.9578 44.0379L55.9024 43.7278L58.8116 41.6372C58.6456 41.1547 58.4455 40.6834 58.2196 40.2229L54.6872 40.8051L54.5074 40.5423C53.8936 39.6453 53.1077 38.8679 52.2047 38.2406L51.9453 38.0604L52.5271 34.5304C52.0666 34.3045 51.5953 34.1044 51.1128 33.9384L49.0222 36.8476L48.7121 36.7922C48.176 36.6965 47.6358 36.64 47.08 36.64C46.5243 36.64 45.984 36.6965 45.4479 36.7922L45.1378 36.8476L43.0472 33.9384C42.5648 34.1044 42.0934 34.3045 41.633 34.5304Z" fill="black"/>
<path fill-rule="evenodd" clip-rule="evenodd" d="M47.0802 41.59C44.8214 41.59 42.9902 43.4211 42.9902 45.68C42.9902 47.9388 44.8214 49.77 47.0802 49.77C49.3391 49.77 51.1702 47.9388 51.1702 45.68C51.1702 43.4211 49.3391 41.59 47.0802 41.59ZM41.9902 45.68C41.9902 42.8688 44.2691 40.59 47.0802 40.59C49.8914 40.59 52.1702 42.8688 52.1702 45.68C52.1702 48.4911 49.8914 50.77 47.0802 50.77C44.2691 50.77 41.9902 48.4911 41.9902 45.68Z" fill="black"/>
</g>
<defs>
<clipPath id="clip0_5_132">
<rect width="54.99" height="53.59" fill="white" transform="translate(5 5)"/>
</clipPath>
</defs>
</svg>
