<svg width="64" height="64" viewBox="0 0 64 64" fill="none" xmlns="http://www.w3.org/2000/svg">
<path d="M15.5 15.9824C15.5698 18.014 16.6515 19.8654 17.9766 21.3848L18.2949 21.7373C19.9189 23.4713 22.0198 24.7965 24.2969 25.8242C28.479 27.7032 30.5446 30.1501 31.5547 32.167C32.0575 33.1709 32.2938 34.0585 32.4043 34.7012C32.4595 35.0225 32.4833 35.2833 32.4932 35.4668C32.4981 35.5584 32.4999 35.6312 32.5 35.6826C32.5001 35.708 32.4993 35.7283 32.499 35.7432V43H31.499V35.7383L31.5 35.7275V35.6846C31.4999 35.6493 31.4991 35.5935 31.4951 35.5195C31.4872 35.3715 31.467 35.1497 31.4189 34.8701C31.3228 34.3107 31.1141 33.5187 30.6611 32.6143C29.7594 30.8138 27.8706 28.5258 23.8877 26.7363C21.5341 25.6742 19.3069 24.2816 17.5645 22.4209L17.2227 22.042C15.8298 20.4448 14.5813 18.3793 14.5 16.0176L15.5 15.9824Z" fill="black"/>
<path d="M49.5 16.0166C49.4252 18.233 48.3415 20.1904 47.0762 21.7461L46.8213 22.0518C45.061 24.1088 42.7319 25.6218 40.2598 26.7578L40.2588 26.7588C37.265 28.1241 35.4778 29.7834 34.4072 31.29L33.5928 30.71C34.7727 29.0497 36.702 27.2814 39.8438 25.8486C42.2329 24.7505 44.4252 23.3135 46.0615 21.4014L46.3037 21.1123C47.4951 19.6468 48.4354 17.8952 48.5 15.9834L49.5 16.0166Z" fill="black"/>
<path d="M38.6045 33.6943C38.7732 33.476 39.0871 33.4359 39.3057 33.6045C39.524 33.7732 39.5641 34.0871 39.3955 34.3057L32.0615 43.8145L24.6064 34.3086L24.5527 34.2227C24.4489 34.0146 24.5013 33.7555 24.6914 33.6064C24.8815 33.4574 25.146 33.4678 25.3232 33.6182L25.3936 33.6914L32.0537 42.1855L38.6045 33.6943Z" fill="black"/>
<path d="M40 45H25V59H40V45Z" fill="#FFC000"/>
<path d="M40 45V59H25V45H40ZM26 58H39V46H26V58Z" fill="black"/>
<path d="M49.5 18C53.0899 18 56 15.0899 56 11.5C56 7.91015 53.0899 5 49.5 5C45.9101 5 43 7.91015 43 11.5C43 15.0899 45.9101 18 49.5 18Z" fill="#FFC000"/>
<path d="M55 11.5C55 8.46243 52.5376 6 49.5 6C46.4624 6 44 8.46243 44 11.5C44 14.5376 46.4624 17 49.5 17V18C45.9101 18 43 15.0899 43 11.5C43 7.91015 45.9101 5 49.5 5C53.0899 5 56 7.91015 56 11.5C56 15.0899 53.0899 18 49.5 18V17C52.5376 17 55 14.5376 55 11.5Z" fill="black"/>
<path d="M15.5 18C19.0899 18 22 15.0899 22 11.5C22 7.91015 19.0899 5 15.5 5C11.9101 5 9 7.91015 9 11.5C9 15.0899 11.9101 18 15.5 18Z" fill="#FFC000"/>
<path d="M21 11.5C21 8.46243 18.5376 6 15.5 6C12.4624 6 10 8.46243 10 11.5C10 14.5376 12.4624 17 15.5 17V18C11.9101 18 9 15.0899 9 11.5C9 7.91015 11.9101 5 15.5 5C19.0899 5 22 7.91015 22 11.5C22 15.0899 19.0899 18 15.5 18V17C18.5376 17 21 14.5376 21 11.5Z" fill="black"/>
</svg>
