<svg width="64" height="64" viewBox="0 0 64 64" fill="none" xmlns="http://www.w3.org/2000/svg">
<path d="M59.2692 44.008C59.4525 35.8175 52.8993 29.0259 44.6323 28.8385C36.3653 28.6511 29.515 35.1389 29.3318 43.3295C29.1485 51.52 35.7017 58.3116 43.9687 58.499C52.2357 58.6863 59.086 52.1985 59.2692 44.008Z" fill="#FFC000"/>
<path fill-rule="evenodd" clip-rule="evenodd" d="M10.88 9.89156C7.13367 11.6644 5.03418 14.0152 5.03418 16.4451C5.03418 18.8749 7.13367 21.2258 10.88 22.9986C14.5881 24.7533 19.7459 25.8523 25.4701 25.8523C31.1942 25.8523 36.352 24.7533 40.0601 22.9986C43.8064 21.2258 45.9059 18.8749 45.9059 16.4451C45.9059 14.0152 43.8064 11.6644 40.0601 9.89156C36.352 8.13683 31.1942 7.03784 25.4701 7.03784C19.7459 7.03784 14.5881 8.13683 10.88 9.89156ZM10.4523 8.98766C14.3215 7.15666 19.6317 6.03784 25.4701 6.03784C31.3084 6.03784 36.6186 7.15666 40.4878 8.98766C44.3188 10.8005 46.9059 13.4033 46.9059 16.4451C46.9059 19.4869 44.3188 22.0896 40.4878 23.9025C36.6186 25.7335 31.3084 26.8523 25.4701 26.8523C19.6317 26.8523 14.3215 25.7335 10.4523 23.9025C6.62135 22.0896 4.03418 19.4869 4.03418 16.4451C4.03418 13.4033 6.62135 10.8005 10.4523 8.98766Z" fill="black"/>
<path fill-rule="evenodd" clip-rule="evenodd" d="M10.8797 32.1758C14.5876 33.93 19.7454 35.0281 25.4701 35.0281C27.577 35.0281 30.1587 34.8986 32.1096 34.439L32.3389 35.4124C30.2715 35.8994 27.5951 36.0281 25.4701 36.0281C19.6313 36.0281 14.3212 34.9102 10.452 33.0797C6.62105 31.2672 4.03418 28.6644 4.03418 25.6209H5.03418C5.03418 28.0526 7.13357 30.4034 10.8797 32.1758Z" fill="black"/>
<path fill-rule="evenodd" clip-rule="evenodd" d="M10.8797 42.438C14.5876 44.1922 19.7454 45.2903 25.4701 45.2903C26.6675 45.2903 28.6905 45.2153 29.8221 45.0993L29.9241 46.0941C28.7473 46.2147 26.6879 46.2903 25.4701 46.2903C19.6313 46.2903 14.3212 45.1725 10.452 43.3419C6.62105 41.5295 4.03418 38.9266 4.03418 35.8831H5.03418C5.03418 38.3149 7.13357 40.6657 10.8797 42.438Z" fill="black"/>
<path fill-rule="evenodd" clip-rule="evenodd" d="M4.07693 15.7775L5.07693 15.7788L5.03418 47.2318C5.03438 49.6579 7.13352 52.009 10.8798 53.7827C14.5878 55.5383 19.7456 56.639 25.4701 56.639C28.404 56.639 31.1868 56.3526 33.7025 55.8345L33.7077 55.8293L33.772 55.8162L33.8205 55.8H33.8523L33.8761 55.7951L33.9333 55.7834C33.9828 55.7733 34.0541 55.7586 34.1406 55.7406C34.3137 55.7045 34.5473 55.6551 34.7902 55.6018C35.0337 55.5484 35.2837 55.4916 35.4906 55.4407C35.5942 55.4152 35.6842 55.3918 35.7556 55.3716C35.7913 55.3615 35.8204 55.3527 35.8431 55.3454C35.8543 55.3418 35.8631 55.3388 35.8697 55.3364C35.8765 55.334 35.8793 55.3328 35.8793 55.3328L36.2638 56.256C36.1438 56.3059 35.9323 56.3618 35.7298 56.4117C35.5109 56.4656 35.2513 56.5244 35.0045 56.5786C34.7571 56.6329 34.5199 56.683 34.3446 56.7195C34.257 56.7378 34.1847 56.7527 34.1342 56.763L34.1079 56.7684C34.0616 56.7845 34.0238 56.7907 34.004 56.7935C33.9722 56.8031 33.932 56.8127 33.8859 56.8177C31.305 57.3479 28.4608 57.639 25.4701 57.639C19.6312 57.639 14.321 56.5184 10.4519 54.6865C6.62128 52.8729 4.03418 50.2694 4.03418 47.2311L4.07693 15.7775Z" fill="black"/>
<path fill-rule="evenodd" clip-rule="evenodd" d="M45.9272 28.9224L45.9486 16.3259L46.9486 16.3276L46.9272 28.9241L45.9272 28.9224Z" fill="black"/>
<path fill-rule="evenodd" clip-rule="evenodd" d="M44.6108 29.0682C40.7907 29.0682 36.9541 31.1302 34.1718 34.3084L33.4193 33.6497C36.3439 30.3091 40.4371 28.0682 44.6108 28.0682C53.0868 28.0682 59.9658 34.9858 59.9658 43.5205C59.9658 52.055 53.0977 58.9728 44.6108 58.9728C36.124 58.9728 29.2559 52.055 29.2559 43.5205H30.2559C30.2559 51.5089 36.6824 57.9728 44.6108 57.9728C52.5392 57.9728 58.9658 51.5089 58.9658 43.5205C58.9658 35.5324 52.5288 29.0682 44.6108 29.0682Z" fill="black"/>
<path d="M38.0594 35.3452L30.6533 39.0887L31.1342 30.7627L38.0594 35.3452Z" fill="black"/>
<path fill-rule="evenodd" clip-rule="evenodd" d="M50.4939 36.4414L44.7499 45.4967L37.2437 44.3049L37.4005 43.3173L44.2576 44.406L49.6495 35.9058L50.4939 36.4414Z" fill="black"/>
</svg>
