<svg width="64" height="64" viewBox="0 0 64 64" fill="none" xmlns="http://www.w3.org/2000/svg">
<path d="M24.4561 19.4873C24.6749 19.3192 24.9889 19.3604 25.1572 19.5791C25.3254 19.7979 25.2842 20.1119 25.0654 20.2803L17.8193 25.8555H58.9775V56.9805H26.8945V44.8457H27.8945V55.9805H57.9775V26.8555H18.0713L25.0645 32.2012C25.2838 32.3689 25.3258 32.683 25.1582 32.9023C24.9905 33.1217 24.6764 33.1637 24.457 32.9961L15.6514 26.2637L24.4561 19.4873ZM38.1055 20.1543H37.1055V9.01953H7.02246V38.1338H47.1631L40.0195 32.6738C39.8002 32.5061 39.7582 32.192 39.9258 31.9727C40.0935 31.7536 40.4077 31.7114 40.627 31.8789L49.4326 38.6113L40.6289 45.3975C40.4102 45.566 40.0953 45.5253 39.9268 45.3066C39.7586 45.088 39.7992 44.774 40.0176 44.6055L47.1152 39.1338H6.02246V8.01953H38.1055V20.1543Z" fill="black"/>
</svg>
