<svg width="64" height="64" viewBox="0 0 64 64" fill="none" xmlns="http://www.w3.org/2000/svg">
<path fill-rule="evenodd" clip-rule="evenodd" d="M10.2629 11.0708C9.15409 12.007 8.625 12.9652 8.625 13.9C8.625 14.8349 9.15409 15.793 10.2629 16.7293C11.3694 17.6636 13.0001 18.5275 15.059 19.2628C19.1724 20.7319 24.8879 21.65 31.225 21.65C37.5621 21.65 43.2776 20.7319 47.391 19.2628C49.4499 18.5275 51.0806 17.6636 52.1871 16.7293C53.2959 15.793 53.825 14.8349 53.825 13.9C53.825 12.9652 53.2959 12.007 52.1871 11.0708C51.0806 10.1365 49.4499 9.27258 47.391 8.53726C43.2776 7.06819 37.5621 6.15002 31.225 6.15002C24.8879 6.15002 19.1724 7.06819 15.059 8.53726C13.0001 9.27258 11.3694 10.1365 10.2629 11.0708ZM14.7227 7.59552C18.9698 6.07868 24.8043 5.15002 31.225 5.15002C37.6457 5.15002 43.4802 6.07868 47.7273 7.59552C49.8487 8.35316 51.6009 9.26698 52.8323 10.3067C54.0613 11.3445 54.825 12.5567 54.825 13.9C54.825 15.2434 54.0613 16.4555 52.8323 17.4933C51.6009 18.5331 49.8487 19.4469 47.7273 20.2045C43.4802 21.7214 37.6457 22.65 31.225 22.65C24.8043 22.65 18.9698 21.7214 14.7227 20.2045C12.6013 19.4469 10.8491 18.5331 9.61774 17.4933C8.38869 16.4555 7.625 15.2434 7.625 13.9C7.625 12.5567 8.38869 11.3445 9.61774 10.3067C10.8491 9.26698 12.6013 8.35316 14.7227 7.59552Z" fill="black"/>
<path fill-rule="evenodd" clip-rule="evenodd" d="M8.125 25.3157C8.40114 25.3157 8.625 25.5396 8.625 25.8157C8.625 26.7507 9.15413 27.7089 10.263 28.6451C11.3695 29.5795 13.0003 30.4434 15.0592 31.1786C19.1727 32.6477 24.8882 33.5657 31.225 33.5657C37.5618 33.5657 43.2773 32.6477 47.3908 31.1786C49.4497 30.4434 51.0805 29.5795 52.187 28.6451C53.2959 27.7089 53.825 26.7507 53.825 25.8157C53.825 25.5396 54.0489 25.3157 54.325 25.3157C54.6011 25.3157 54.825 25.5396 54.825 25.8157C54.825 27.1592 54.0613 28.3714 52.8322 29.4092C51.6008 30.449 49.8486 31.3628 47.7271 32.1204C43.4799 33.6372 37.6454 34.5657 31.225 34.5657C24.8046 34.5657 18.9701 33.6372 14.7229 32.1204C12.6014 31.3628 10.8492 30.449 9.61781 29.4092C8.38872 28.3714 7.625 27.1592 7.625 25.8157C7.625 25.5396 7.84886 25.3157 8.125 25.3157Z" fill="black"/>
<path fill-rule="evenodd" clip-rule="evenodd" d="M8.125 37.2343C8.40114 37.2343 8.625 37.4581 8.625 37.7343C8.625 38.6692 9.15413 39.6274 10.263 40.5637C11.3695 41.498 13.0003 42.3619 15.0592 43.0972C19.1727 44.5662 24.8882 45.4843 31.225 45.4843C37.5618 45.4843 43.2773 44.5662 47.3908 43.0972C49.4497 42.3619 51.0805 41.498 52.187 40.5637C53.2959 39.6274 53.825 38.6692 53.825 37.7343C53.825 37.4581 54.0489 37.2343 54.325 37.2343C54.6011 37.2343 54.825 37.4581 54.825 37.7343C54.825 39.0777 54.0613 40.2899 52.8322 41.3277C51.6008 42.3675 49.8486 43.2813 47.7271 44.0389C43.4799 45.5557 37.6454 46.4843 31.225 46.4843C24.8046 46.4843 18.9701 45.5557 14.7229 44.0389C12.6014 43.2813 10.8492 42.3675 9.61781 41.3277C8.38872 40.2899 7.625 39.0777 7.625 37.7343C7.625 37.4581 7.84886 37.2343 8.125 37.2343Z" fill="black"/>
<path fill-rule="evenodd" clip-rule="evenodd" d="M8.125 49.15C8.40114 49.15 8.625 49.3739 8.625 49.65C8.625 50.585 9.15413 51.5432 10.263 52.4794C11.3695 53.4137 13.0003 54.2776 15.0592 55.0129C19.1727 56.482 24.8882 57.4 31.225 57.4C37.5618 57.4 43.2773 56.482 47.3908 55.0129C49.4497 54.2776 51.0805 53.4137 52.187 52.4794C53.2959 51.5432 53.825 50.585 53.825 49.65C53.825 49.3739 54.0489 49.15 54.325 49.15C54.6011 49.15 54.825 49.3739 54.825 49.65C54.825 50.9935 54.0613 52.2057 52.8322 53.2435C51.6008 54.2833 49.8486 55.1971 47.7271 55.9547C43.4799 57.4715 37.6454 58.4 31.225 58.4C24.8046 58.4 18.9701 57.4715 14.7229 55.9547C12.6014 55.1971 10.8492 54.2833 9.61781 53.2435C8.38872 52.2057 7.625 50.9935 7.625 49.65C7.625 49.3739 7.84886 49.15 8.125 49.15Z" fill="black"/>
<path fill-rule="evenodd" clip-rule="evenodd" d="M8.125 13.125C8.40114 13.125 8.625 13.3489 8.625 13.625V49.65C8.625 49.9261 8.40114 50.15 8.125 50.15C7.84886 50.15 7.625 49.9261 7.625 49.65V13.625C7.625 13.3489 7.84886 13.125 8.125 13.125Z" fill="black"/>
<path fill-rule="evenodd" clip-rule="evenodd" d="M54.3252 13.125C54.6013 13.125 54.8252 13.3489 54.8252 13.625V49.65C54.8252 49.9261 54.6013 50.15 54.3252 50.15C54.0491 50.15 53.8252 49.9261 53.8252 49.65V13.625C53.8252 13.3489 54.0491 13.125 54.3252 13.125Z" fill="black"/>
<path d="M12.3873 26.825C12.9189 26.825 13.3498 25.9631 13.3498 24.9C13.3498 23.8368 12.9189 22.975 12.3873 22.975C11.8557 22.975 11.4248 23.8368 11.4248 24.9C11.4248 25.9631 11.8557 26.825 12.3873 26.825Z" fill="#FFC000"/>
<path fill-rule="evenodd" clip-rule="evenodd" d="M13.9623 26.7084C13.735 27.163 13.2359 27.825 12.3873 27.825C11.5387 27.825 11.0396 27.163 10.8123 26.7084C10.555 26.1939 10.4248 25.5531 10.4248 24.9C10.4248 24.2468 10.555 23.6061 10.8123 23.0916C11.0396 22.6369 11.5387 21.975 12.3873 21.975C13.2359 21.975 13.735 22.6369 13.9623 23.0916C14.2196 23.6061 14.3498 24.2468 14.3498 24.9C14.3498 25.5531 14.2196 26.1939 13.9623 26.7084ZM13.3498 24.9C13.3498 25.9631 12.9189 26.825 12.3873 26.825C11.8557 26.825 11.4248 25.9631 11.4248 24.9C11.4248 23.8368 11.8557 22.975 12.3873 22.975C12.9189 22.975 13.3498 23.8368 13.3498 24.9Z" fill="black"/>
<path d="M12.3873 38.925C12.9189 38.925 13.3498 38.0632 13.3498 37C13.3498 35.9369 12.9189 35.075 12.3873 35.075C11.8557 35.075 11.4248 35.9369 11.4248 37C11.4248 38.0632 11.8557 38.925 12.3873 38.925Z" fill="#FFC000"/>
<path fill-rule="evenodd" clip-rule="evenodd" d="M13.9623 38.8084C13.735 39.2631 13.2359 39.925 12.3873 39.925C11.5387 39.925 11.0396 39.2631 10.8123 38.8084C10.555 38.2939 10.4248 37.6532 10.4248 37C10.4248 36.3469 10.555 35.7061 10.8123 35.1916C11.0396 34.737 11.5387 34.075 12.3873 34.075C13.2359 34.075 13.735 34.737 13.9623 35.1916C14.2196 35.7061 14.3498 36.3469 14.3498 37C14.3498 37.6532 14.2196 38.2939 13.9623 38.8084ZM13.3498 37C13.3498 38.0632 12.9189 38.925 12.3873 38.925C11.8557 38.925 11.4248 38.0632 11.4248 37C11.4248 35.9369 11.8557 35.075 12.3873 35.075C12.9189 35.075 13.3498 35.9369 13.3498 37Z" fill="black"/>
<path d="M12.3873 51.025C12.9189 51.025 13.3498 50.1631 13.3498 49.1C13.3498 48.0368 12.9189 47.175 12.3873 47.175C11.8557 47.175 11.4248 48.0368 11.4248 49.1C11.4248 50.1631 11.8557 51.025 12.3873 51.025Z" fill="#FFC000"/>
<path fill-rule="evenodd" clip-rule="evenodd" d="M13.9623 50.9084C13.735 51.363 13.2359 52.025 12.3873 52.025C11.5387 52.025 11.0396 51.363 10.8123 50.9084C10.555 50.3939 10.4248 49.7531 10.4248 49.1C10.4248 48.4468 10.555 47.8061 10.8123 47.2916C11.0396 46.8369 11.5387 46.175 12.3873 46.175C13.2359 46.175 13.735 46.8369 13.9623 47.2916C14.2196 47.8061 14.3498 48.4468 14.3498 49.1C14.3498 49.7531 14.2196 50.3939 13.9623 50.9084ZM13.3498 49.1C13.3498 50.1631 12.9189 51.025 12.3873 51.025C11.8557 51.025 11.4248 50.1631 11.4248 49.1C11.4248 48.0368 11.8557 47.175 12.3873 47.175C12.9189 47.175 13.3498 48.0368 13.3498 49.1Z" fill="black"/>
</svg>
