<svg width="64" height="64" viewBox="0 0 64 64" fill="none" xmlns="http://www.w3.org/2000/svg">
<path d="M59.1542 30.4406V52.8671C59.1542 55.705 52.9988 58 45.4072 58C37.8155 58 31.6602 55.705 31.6602 52.8671V30.4406" fill="#FFC000"/>
<path fill-rule="evenodd" clip-rule="evenodd" d="M31.6602 29.9406C31.9363 29.9406 32.1602 30.1644 32.1602 30.4406V52.8671C32.1602 53.3815 32.4373 53.9316 33.0715 54.4915C33.705 55.0509 34.6504 55.5773 35.8616 56.0293C38.2803 56.932 41.6552 57.5 45.4072 57.5C49.1592 57.5 52.534 56.932 54.9527 56.0293C56.1639 55.5773 57.1093 55.0509 57.7429 54.4915C58.3771 53.9316 58.6542 53.3815 58.6542 52.8671V30.4406C58.6542 30.1644 58.878 29.9406 59.1542 29.9406C59.4303 29.9406 59.6542 30.1644 59.6542 30.4406V52.8671C59.6542 53.7717 59.1619 54.5726 58.4047 55.2412C57.6469 55.9103 56.5789 56.4898 55.3024 56.9662C52.7455 57.9205 49.2468 58.5 45.4072 58.5C41.5676 58.5 38.0689 57.9205 35.512 56.9662C34.2354 56.4898 33.1675 55.9103 32.4096 55.2412C31.6524 54.5726 31.1602 53.7717 31.1602 52.8671V30.4406C31.1602 30.1644 31.384 29.9406 31.6602 29.9406Z" fill="black"/>
<path d="M45.4072 35.7449C52.9994 35.7449 59.1542 33.4468 59.1542 30.612C59.1542 27.7772 52.9994 25.4791 45.4072 25.4791C37.8149 25.4791 31.6602 27.7772 31.6602 30.612C31.6602 33.4468 37.8149 35.7449 45.4072 35.7449Z" fill="#FFC000"/>
<path fill-rule="evenodd" clip-rule="evenodd" d="M33.0714 28.9889C32.4371 29.5488 32.1602 30.0985 32.1602 30.612C32.1602 31.1255 32.4371 31.6752 33.0714 32.2351C33.7049 32.7944 34.6503 33.3208 35.8615 33.7731C38.2801 34.6762 41.6549 35.2449 45.4072 35.2449C49.1594 35.2449 52.5342 34.6762 54.9529 33.7731C56.1641 33.3208 57.1094 32.7944 57.743 32.2351C58.3772 31.6752 58.6542 31.1255 58.6542 30.612C58.6542 30.0985 58.3772 29.5488 57.743 28.9889C57.1094 28.4296 56.1641 27.9032 54.9529 27.4509C52.5342 26.5478 49.1594 25.9791 45.4072 25.9791C41.6549 25.9791 38.2801 26.5478 35.8615 27.4509C34.6503 27.9032 33.7049 28.4296 33.0714 28.9889ZM35.5117 26.5141C38.0685 25.5594 41.5672 24.9791 45.4072 24.9791C49.2472 24.9791 52.7459 25.5594 55.3027 26.5141C56.5792 26.9907 57.647 27.5703 58.4048 28.2392C59.1618 28.9075 59.6542 29.7081 59.6542 30.612C59.6542 31.5159 59.1618 32.3165 58.4048 32.9848C57.647 33.6537 56.5792 34.2333 55.3027 34.7099C52.7459 35.6646 49.2472 36.2449 45.4072 36.2449C41.5672 36.2449 38.0685 35.6646 35.5117 34.7099C34.2351 34.2333 33.1673 33.6537 32.4096 32.9848C31.6525 32.3165 31.1602 31.5159 31.1602 30.612C31.1602 29.7081 31.6525 28.9075 32.4096 28.2392C33.1673 27.5703 34.2351 26.9907 35.5117 26.5141Z" fill="black"/>
<path d="M59.1542 38.0304C59.1542 40.8682 52.9988 43.1633 45.4072 43.1633C37.8155 43.1633 31.6602 40.8682 31.6602 38.0304" fill="#FFC000"/>
<path fill-rule="evenodd" clip-rule="evenodd" d="M31.6602 37.5304C31.9363 37.5304 32.1602 37.7543 32.1602 38.0304C32.1602 38.5448 32.4373 39.0949 33.0715 39.6548C33.705 40.2142 34.6504 40.7405 35.8616 41.1926C38.2803 42.0953 41.6552 42.6633 45.4072 42.6633C49.1592 42.6633 52.534 42.0953 54.9527 41.1926C56.1639 40.7405 57.1093 40.2142 57.7429 39.6548C58.3771 39.0949 58.6542 38.5448 58.6542 38.0304C58.6542 37.7543 58.878 37.5304 59.1542 37.5304C59.4303 37.5304 59.6542 37.7543 59.6542 38.0304C59.6542 38.9349 59.1619 39.7359 58.4047 40.4044C57.6469 41.0735 56.5789 41.653 55.3024 42.1295C52.7455 43.0837 49.2468 43.6633 45.4072 43.6633C41.5676 43.6633 38.0689 43.0837 35.512 42.1295C34.2354 41.653 33.1675 41.0735 32.4096 40.4044C31.6524 39.7359 31.1602 38.9349 31.1602 38.0304C31.1602 37.7543 31.384 37.5304 31.6602 37.5304Z" fill="black"/>
<path d="M59.1542 45.4487C59.1542 48.2866 52.9988 50.5816 45.4072 50.5816C37.8155 50.5816 31.6602 48.2866 31.6602 45.4487" fill="#FFC000"/>
<path fill-rule="evenodd" clip-rule="evenodd" d="M31.6602 44.9487C31.9363 44.9487 32.1602 45.1726 32.1602 45.4487C32.1602 45.9631 32.4373 46.5132 33.0715 47.0731C33.705 47.6325 34.6504 48.1589 35.8616 48.6109C38.2803 49.5136 41.6552 50.0816 45.4072 50.0816C49.1592 50.0816 52.534 49.5136 54.9527 48.6109C56.1639 48.1589 57.1093 47.6325 57.7429 47.0731C58.3771 46.5132 58.6542 45.9631 58.6542 45.4487C58.6542 45.1726 58.878 44.9487 59.1542 44.9487C59.4303 44.9487 59.6542 45.1726 59.6542 45.4487C59.6542 46.3533 59.1619 47.1543 58.4047 47.8228C57.6469 48.4919 56.5789 49.0714 55.3024 49.5478C52.7455 50.5021 49.2468 51.0816 45.4072 51.0816C41.5676 51.0816 38.0689 50.5021 35.512 49.5478C34.2354 49.0714 33.1675 48.4919 32.4096 47.8228C31.6524 47.1543 31.1602 46.3533 31.1602 45.4487C31.1602 45.1726 31.384 44.9487 31.6602 44.9487Z" fill="black"/>
<path fill-rule="evenodd" clip-rule="evenodd" d="M6.31496 6.5C5.87026 6.5 5.5 6.86624 5.5 7.33013V15.6699C5.5 16.1338 5.87026 16.5 6.31496 16.5H42.685C43.1297 16.5 43.5 16.1338 43.5 15.6699V7.33013C43.5 6.86624 43.1297 6.5 42.685 6.5H6.31496ZM4.5 7.33013C4.5 6.3248 5.30719 5.5 6.31496 5.5H42.685C43.6928 5.5 44.5 6.3248 44.5 7.33013V15.6699C44.5 16.6752 43.6928 17.5 42.685 17.5H6.31496C5.30719 17.5 4.5 16.6752 4.5 15.6699V7.33013Z" fill="black"/>
<path fill-rule="evenodd" clip-rule="evenodd" d="M11.5 9.5C10.3954 9.5 9.5 10.3954 9.5 11.5C9.5 12.6046 10.3954 13.5 11.5 13.5C12.6046 13.5 13.5 12.6046 13.5 11.5C13.5 10.3954 12.6046 9.5 11.5 9.5ZM8.5 11.5C8.5 9.84315 9.84315 8.5 11.5 8.5C13.1569 8.5 14.5 9.84315 14.5 11.5C14.5 13.1569 13.1569 14.5 11.5 14.5C9.84315 14.5 8.5 13.1569 8.5 11.5Z" fill="black"/>
<path fill-rule="evenodd" clip-rule="evenodd" d="M18.5 9.5C17.3954 9.5 16.5 10.3954 16.5 11.5C16.5 12.6046 17.3954 13.5 18.5 13.5C19.6046 13.5 20.5 12.6046 20.5 11.5C20.5 10.3954 19.6046 9.5 18.5 9.5ZM15.5 11.5C15.5 9.84315 16.8431 8.5 18.5 8.5C20.1569 8.5 21.5 9.84315 21.5 11.5C21.5 13.1569 20.1569 14.5 18.5 14.5C16.8431 14.5 15.5 13.1569 15.5 11.5Z" fill="black"/>
<path fill-rule="evenodd" clip-rule="evenodd" d="M6.27355 17.5C5.85335 17.5 5.5 17.8437 5.5 18.2891V26.7109C5.5 27.1511 5.84822 27.5 6.27355 27.5H32.7885V28.5H6.27355C5.27919 28.5 4.5 27.6865 4.5 26.7109V18.2891C4.5 17.2975 5.29494 16.5 6.27355 16.5H42.7264C43.7208 16.5 44.5 17.3135 44.5 18.2891V25.088H43.5V18.2891C43.5 17.8489 43.1518 17.5 42.7264 17.5H6.27355Z" fill="black"/>
<path fill-rule="evenodd" clip-rule="evenodd" d="M11.5 20.5C10.3954 20.5 9.5 21.3954 9.5 22.5C9.5 23.6046 10.3954 24.5 11.5 24.5C12.6046 24.5 13.5 23.6046 13.5 22.5C13.5 21.3954 12.6046 20.5 11.5 20.5ZM8.5 22.5C8.5 20.8431 9.84315 19.5 11.5 19.5C13.1569 19.5 14.5 20.8431 14.5 22.5C14.5 24.1569 13.1569 25.5 11.5 25.5C9.84315 25.5 8.5 24.1569 8.5 22.5Z" fill="black"/>
<path fill-rule="evenodd" clip-rule="evenodd" d="M18.5 20.5C17.3954 20.5 16.5 21.3954 16.5 22.5C16.5 23.6046 17.3954 24.5 18.5 24.5C19.6046 24.5 20.5 23.6046 20.5 22.5C20.5 21.3954 19.6046 20.5 18.5 20.5ZM15.5 22.5C15.5 20.8431 16.8431 19.5 18.5 19.5C20.1569 19.5 21.5 20.8431 21.5 22.5C21.5 24.1569 20.1569 25.5 18.5 25.5C16.8431 25.5 15.5 24.1569 15.5 22.5Z" fill="black"/>
<path fill-rule="evenodd" clip-rule="evenodd" d="M6.28325 28.5C5.85415 28.5 5.5 28.8473 5.5 29.2891V37.7109C5.5 38.1475 5.84896 38.5 6.28325 38.5H31.7168V39.5H6.28325C5.28703 39.5 4.5 38.6901 4.5 37.7109V29.2891C4.5 28.294 5.30288 27.5 6.28325 27.5H33.5L33.1372 28.5H6.28325Z" fill="black"/>
<path fill-rule="evenodd" clip-rule="evenodd" d="M11.5 31.5C10.3954 31.5 9.5 32.3954 9.5 33.5C9.5 34.6046 10.3954 35.5 11.5 35.5C12.6046 35.5 13.5 34.6046 13.5 33.5C13.5 32.3954 12.6046 31.5 11.5 31.5ZM8.5 33.5C8.5 31.8431 9.84315 30.5 11.5 30.5C13.1569 30.5 14.5 31.8431 14.5 33.5C14.5 35.1569 13.1569 36.5 11.5 36.5C9.84315 36.5 8.5 35.1569 8.5 33.5Z" fill="black"/>
<path fill-rule="evenodd" clip-rule="evenodd" d="M18.5 31.5C17.3954 31.5 16.5 32.3954 16.5 33.5C16.5 34.6046 17.3954 35.5 18.5 35.5C19.6046 35.5 20.5 34.6046 20.5 33.5C20.5 32.3954 19.6046 31.5 18.5 31.5ZM15.5 33.5C15.5 31.8431 16.8431 30.5 18.5 30.5C20.1569 30.5 21.5 31.8431 21.5 33.5C21.5 35.1569 20.1569 36.5 18.5 36.5C16.8431 36.5 15.5 35.1569 15.5 33.5Z" fill="black"/>
<path fill-rule="evenodd" clip-rule="evenodd" d="M6.29685 39.5C5.85529 39.5 5.5 39.8522 5.5 40.2891V48.7109C5.5 49.1425 5.85002 49.5 6.29685 49.5H32V50.5H6.29685C5.29801 50.5 4.5 49.6951 4.5 48.7109V40.2891C4.5 39.289 5.314 38.5 6.29685 38.5H31.9894V39.5H6.29685Z" fill="black"/>
<path fill-rule="evenodd" clip-rule="evenodd" d="M11.5 42.5C10.3954 42.5 9.5 43.3954 9.5 44.5C9.5 45.6046 10.3954 46.5 11.5 46.5C12.6046 46.5 13.5 45.6046 13.5 44.5C13.5 43.3954 12.6046 42.5 11.5 42.5ZM8.5 44.5C8.5 42.8432 9.84314 41.5 11.5 41.5C13.1569 41.5 14.5 42.8432 14.5 44.5C14.5 46.1569 13.1569 47.5 11.5 47.5C9.84315 47.5 8.5 46.1569 8.5 44.5Z" fill="black"/>
<path fill-rule="evenodd" clip-rule="evenodd" d="M18.5 42.5C17.3954 42.5 16.5 43.3954 16.5 44.5C16.5 45.6046 17.3954 46.5 18.5 46.5C19.6046 46.5 20.5 45.6046 20.5 44.5C20.5 43.3954 19.6046 42.5 18.5 42.5ZM15.5 44.5C15.5 42.8432 16.8431 41.5 18.5 41.5C20.1569 41.5 21.5 42.8432 21.5 44.5C21.5 46.1569 20.1569 47.5 18.5 47.5C16.8431 47.5 15.5 46.1569 15.5 44.5Z" fill="black"/>
</svg>
