<svg width="64" height="64" viewBox="0 0 64 64" fill="none" xmlns="http://www.w3.org/2000/svg">
<path fill-rule="evenodd" clip-rule="evenodd" d="M45.5 12C45.7761 12 46 12.1997 46 12.446V31.554C46 31.8003 45.7761 32 45.5 32C45.2239 32 45 31.8003 45 31.554V12.446C45 12.1997 45.2239 12 45.5 12Z" fill="black"/>
<path fill-rule="evenodd" clip-rule="evenodd" d="M9.1367 9.99755C8.22576 10.7665 7.80033 11.5456 7.80033 12.2974C7.80033 13.0492 8.22576 13.8283 9.1367 14.5973C10.0455 15.3644 11.3881 16.0762 13.0879 16.6831C16.4834 17.8954 21.2048 18.6541 26.4423 18.6541C31.6797 18.6541 36.4012 17.8954 39.7967 16.6831C41.4965 16.0762 42.8391 15.3644 43.7479 14.5973C44.6588 13.8283 45.0842 13.0492 45.0842 12.2974C45.0842 11.5456 44.6588 10.7665 43.7479 9.99755C42.8391 9.23043 41.4965 8.51864 39.7967 7.91175C36.4012 6.69941 31.6797 5.94071 26.4423 5.94071C21.2048 5.94071 16.4834 6.69941 13.0879 7.91175C11.3881 8.51864 10.0455 9.23043 9.1367 9.99755ZM8.53636 15.3084C8.26206 15.0769 8.01501 14.8344 7.80033 14.5817L7.80033 22.1535C7.80033 22.9058 8.22576 23.6851 9.13653 24.4541C10.0452 25.2213 11.3876 25.933 13.0873 26.5398C16.4826 27.7519 21.2041 28.5102 26.4423 28.5102C31.6805 28.5102 36.402 27.7519 39.7973 26.5398C41.497 25.933 42.8394 25.2213 43.748 24.4541C44.6588 23.6851 45.0842 22.9058 45.0842 22.1535C45.0842 21.8965 45.2926 21.6882 45.5496 21.6882C45.8066 21.6882 46.0149 21.8965 46.0149 22.1535C46.0149 23.2859 45.3712 24.3017 44.3485 25.1652C43.3236 26.0306 41.8681 26.7888 40.1102 27.4163C36.5904 28.6729 31.7582 29.4409 26.4423 29.4409C21.1264 29.4409 16.2942 28.6729 12.7744 27.4163C11.0165 26.7888 9.56101 26.0306 8.53611 25.1652C8.2619 24.9337 8.01494 24.6913 7.80033 24.4385V32.0187L7.80033 32.019C7.80033 32.7712 8.22576 33.5506 9.13653 34.3195C10.0452 35.0867 11.3876 35.7985 13.0873 36.4052C16.4826 37.6174 21.2041 38.3757 26.4423 38.3757C29.2477 38.3757 31.9125 38.1541 34.2974 37.7674C34.5511 37.7263 34.7901 37.8986 34.8312 38.1523C34.8724 38.406 34.7 38.645 34.4464 38.6861C32.0102 39.0812 29.2955 39.3064 26.4423 39.3064C21.1264 39.3064 16.2942 38.5383 12.7744 37.2818C11.0165 36.6542 9.56101 35.896 8.53611 35.0307C8.2619 34.7992 8.01494 34.5567 7.80033 34.304V41.8658C7.80033 42.6181 8.22576 43.3974 9.13653 44.1664C10.0452 44.9335 11.3876 45.6453 13.0873 46.2521C16.4826 47.4642 21.2041 48.2225 26.4423 48.2225C29.9322 48.2225 33.2037 47.89 35.9978 47.3018C36.2493 47.2488 36.4961 47.4098 36.549 47.6613C36.602 47.9128 36.441 48.1596 36.1895 48.2125C33.3249 48.8156 29.9885 49.1532 26.4423 49.1532C21.1264 49.1532 16.2942 48.3851 12.7744 47.1286C11.0165 46.501 9.56101 45.7428 8.53611 44.8775C7.51334 44.014 6.86963 42.9982 6.86963 41.8658V32.019V22.1535V12.2974V12.074C6.86963 12.0236 6.87764 11.9751 6.89245 11.9297C7.01521 10.9447 7.62555 10.0552 8.53636 9.28636C9.56136 8.42112 11.017 7.66289 12.7749 7.03524C16.2949 5.77847 21.1271 5.01001 26.4423 5.01001C31.7575 5.01001 36.5897 5.77847 40.1097 7.03524C41.8676 7.66289 43.3232 8.42112 44.3482 9.28636C45.371 10.1498 46.0149 11.1653 46.0149 12.2974C46.0149 13.4295 45.371 14.445 44.3482 15.3084C43.3232 16.1737 41.8676 16.9319 40.1097 17.5596C36.5897 18.8163 31.7575 19.5848 26.4423 19.5848C21.1271 19.5848 16.2949 18.8163 12.7749 17.5596C11.017 16.9319 9.56136 16.1737 8.53636 15.3084ZM11.7744 21.4555C11.7744 22.3293 11.4202 23.0377 10.9833 23.0377C10.5464 23.0377 10.1922 22.3293 10.1922 21.4555C10.1922 20.5817 10.5464 19.8733 10.9833 19.8733C11.4202 19.8733 11.7744 20.5817 11.7744 21.4555ZM10.9833 32.9962C11.4202 32.9962 11.7744 32.2878 11.7744 31.414C11.7744 30.5402 11.4202 29.8318 10.9833 29.8318C10.5464 29.8318 10.1922 30.5402 10.1922 31.414C10.1922 32.2878 10.5464 32.9962 10.9833 32.9962ZM11.7744 41.3632C11.7744 42.237 11.4202 42.9454 10.9833 42.9454C10.5464 42.9454 10.1922 42.237 10.1922 41.3632C10.1922 40.4894 10.5464 39.781 10.9833 39.781C11.4202 39.781 11.7744 40.4894 11.7744 41.3632Z" fill="black"/>
<path d="M56.9974 36.5493L45.4999 33L34.0024 36.5493C34.0024 36.5493 33.5379 54.6589 45.4419 58.9814C45.4612 58.9814 45.4806 59 45.4999 59C45.5193 59 45.5386 58.9814 45.558 58.9814C57.4716 54.6589 56.9974 36.5493 56.9974 36.5493Z" fill="#FFC000"/>
<path fill-rule="evenodd" clip-rule="evenodd" d="M45.4999 32L56.9891 35.7021L56.9974 36.0334L56.5332 36.0452C56.9974 36.0334 56.9974 36.0331 56.9974 36.0334L56.9975 36.0379L56.9977 36.0489L56.9984 36.0904C56.999 36.1265 56.9996 36.1793 56.9998 36.248C57.0004 36.3854 56.9997 36.5861 56.9947 36.8423C56.9846 37.3545 56.9574 38.089 56.8886 38.9831C56.7512 40.77 56.4475 43.2016 55.781 45.7739C54.4544 50.8938 51.6531 56.7042 45.7194 58.9514L45.6403 58.9813H45.6344C45.6256 58.9838 45.6162 58.9862 45.6061 58.9884C45.5769 58.9948 45.541 59 45.4999 59C45.4589 59 45.423 58.9948 45.3937 58.9884C45.3837 58.9862 45.3743 58.9838 45.3654 58.9813H45.3595L45.2803 58.9513C39.3514 56.7041 36.5501 50.8937 35.2224 45.774C34.5553 43.2017 34.2507 40.7702 34.1126 38.9833C34.0434 38.0892 34.0159 37.3547 34.0056 36.8425C34.0004 36.5863 33.9996 36.3857 34.0001 36.2483C34.0004 36.1796 34.0009 36.1267 34.0015 36.0906L34.0021 36.0492L34.0024 36.0381L34.0024 36.0351C34.0025 36.0348 34.0025 36.0337 34.4667 36.0452L34.0025 36.0337L34.0106 35.7022L45.4999 32ZM34.9288 36.3862C34.9292 36.5034 34.9306 36.6501 34.9341 36.8237C34.9441 37.3204 34.9709 38.0369 35.0385 38.9111C35.1738 40.6607 35.4717 43.0348 36.1211 45.5387C37.4177 50.5382 40.0784 55.9244 45.5 58.0367C50.9261 55.9243 53.5868 50.5382 54.8822 45.5388C55.531 43.0349 55.8281 40.6609 55.9627 38.9112C56.0299 38.0371 56.0564 37.3206 56.0661 36.8239C56.0695 36.6502 56.0709 36.5034 56.0712 36.3863L45.4999 32.9799L34.9288 36.3862Z" fill="black"/>
<path fill-rule="evenodd" clip-rule="evenodd" d="M50.8003 40.0794C51.0076 40.2229 51.0624 40.5117 50.9226 40.7244L45.4863 49L42.1194 45.2397C41.9502 45.0508 41.9623 44.7568 42.1464 44.5832C42.3305 44.4095 42.6169 44.4219 42.786 44.6109L45.3768 47.5044L50.1719 40.2049C50.3116 39.9922 50.593 39.936 50.8003 40.0794Z" fill="black"/>
</svg>
