<svg width="64" height="64" viewBox="0 0 64 64" fill="none" xmlns="http://www.w3.org/2000/svg">
<path d="M58.5089 28.8618H30.5581V48.5711H58.5089V28.8618Z" fill="#FFC000"/>
<path fill-rule="evenodd" clip-rule="evenodd" d="M4.82846 16.3359C4.82338 16.4095 4.8208 16.4835 4.8208 16.558C4.8208 16.6325 4.82338 16.7065 4.82846 16.78V26.7595C4.82342 26.7898 4.8208 26.8209 4.8208 26.8526C4.8208 26.9271 4.82338 27.0011 4.82846 27.0746V37.0541C4.82342 37.0844 4.8208 37.1155 4.8208 37.1472C4.8208 37.2217 4.82338 37.2957 4.82846 37.3692V47.4419C4.82846 48.6527 5.50942 49.7324 6.57502 50.643C7.64276 51.5555 9.15466 52.3519 10.9738 53.0097C14.6169 54.3269 19.6125 55.1312 25.1035 55.1312C31.2618 55.1312 36.8074 54.1202 40.5166 52.4986C41.0455 52.2669 41.541 52.0246 42.0003 51.7636C42.2712 51.6097 42.366 51.2653 42.2121 50.9944C42.0582 50.7236 41.7138 50.6288 41.4429 50.7827C41.0251 51.0201 40.5663 51.2451 40.0643 51.4651C36.5415 53.005 31.1624 54.003 25.1035 54.003C19.7081 54.003 14.8483 53.2109 11.3574 51.9487C9.60967 51.3167 8.23503 50.5776 7.30797 49.7854C6.37877 48.9913 5.95667 48.1973 5.95667 47.4419V39.7604C6.14193 39.9635 6.34637 40.1596 6.56736 40.3484C7.6351 41.2609 9.147 42.0573 10.9662 42.715C14.6092 44.0323 19.6048 44.8366 25.0958 44.8366C25.4074 44.8366 25.6599 44.584 25.6599 44.2725C25.6599 43.9609 25.4074 43.7084 25.0958 43.7084C19.7005 43.7084 14.8406 42.9163 11.3498 41.6541C9.60201 41.0221 8.22737 40.283 7.30031 39.4907C6.44319 38.7583 6.01755 38.0258 5.95667 37.3237V29.4658C6.14193 29.6689 6.34637 29.865 6.56736 30.0538C7.6351 30.9663 9.147 31.7627 10.9662 32.4204C14.6092 33.7377 19.6048 34.542 25.0958 34.542C25.6018 34.542 26.1002 34.5341 26.5911 34.5183L26.6011 34.518L26.611 34.5173C26.7041 34.5111 26.8077 34.5108 26.9269 34.5108C27.2385 34.5108 27.491 34.2583 27.491 33.9467C27.491 33.6352 27.2385 33.3826 26.9269 33.3826H26.9191C26.8116 33.3826 26.6768 33.3826 26.5455 33.391C26.0701 33.4062 25.5868 33.4138 25.0958 33.4138C19.7005 33.4138 14.8406 32.6217 11.3498 31.3595C9.60201 30.7275 8.22737 29.9884 7.30031 29.1961C6.44319 28.4637 6.01755 27.7312 5.95667 27.0291V19.1721C6.14193 19.3752 6.34639 19.5714 6.56739 19.7603C7.63518 20.6729 9.14715 21.4692 10.9663 22.1268C14.6094 23.4437 19.605 24.2473 25.0958 24.2473C30.5866 24.2473 35.5823 23.4437 39.2253 22.1268C41.0445 21.4692 42.5565 20.6729 43.6243 19.7603C43.8514 19.5662 44.061 19.3644 44.2503 19.1553V24.4931C44.2503 24.8047 44.5029 25.0572 44.8144 25.0572C45.126 25.0572 45.3785 24.8047 45.3785 24.4931V16.3244C45.3785 16.2532 45.3653 16.1851 45.3413 16.1223C45.1997 15.0866 44.5605 14.1559 43.6243 13.3557C42.5565 12.4431 41.0445 11.6468 39.2253 10.9892C35.5823 9.67225 30.5866 8.86865 25.0958 8.86865C19.605 8.86865 14.6094 9.67225 10.9663 10.9892C9.14715 11.6468 7.63518 12.4431 6.56739 13.3557C5.60353 14.1795 4.95446 15.1417 4.8392 16.2143C4.83215 16.2499 4.82846 16.2867 4.82846 16.3244V16.3359ZM5.95667 16.3814C6.01755 15.6786 6.44331 14.9459 7.30038 14.2134C8.22745 13.421 9.60208 12.682 11.3499 12.0502C14.8407 10.7883 19.7006 9.99686 25.0958 9.99686C30.4911 9.99686 35.3509 10.7883 38.8418 12.0502C40.5896 12.682 41.9642 13.421 42.8913 14.2134C43.8204 15.0075 44.2427 15.8018 44.2427 16.558C44.2427 17.3142 43.8204 18.1085 42.8913 18.9026C41.9642 19.695 40.5896 20.434 38.8418 21.0658C35.3509 22.3277 30.4911 23.1191 25.0958 23.1191C19.7006 23.1191 14.8407 22.3277 11.3499 21.0658C9.60208 20.434 8.22745 19.695 7.30038 18.9026C6.44331 18.1701 6.01755 17.4374 5.95667 16.7346V16.3814Z" fill="black"/>
<path fill-rule="evenodd" clip-rule="evenodd" d="M30.0583 28.3617H59.009V49.071H30.0583V28.3617ZM31.0583 33.0217V48.071H58.009V33.0217H31.0583ZM31.0583 32.0217H58.009V29.3617H31.0583V32.0217Z" fill="black"/>
</svg>
