<svg width="64" height="64" viewBox="0 0 64 64" fill="none" xmlns="http://www.w3.org/2000/svg">
<path fill-rule="evenodd" clip-rule="evenodd" d="M7.49615 12.5904C6.49616 13.451 6.02959 14.3226 6.02959 15.1633C6.02959 16.0039 6.49616 16.8755 7.49615 17.7361C8.49377 18.5947 9.96786 19.3915 11.8345 20.071C15.5631 21.4283 20.7482 22.2778 26.5 22.2778C32.2518 22.2778 37.4368 21.4283 41.1655 20.071C43.0321 19.3915 44.5062 18.5947 45.5039 17.7361C46.5038 16.8755 46.9704 16.0039 46.9704 15.1633C46.9704 14.3226 46.5038 13.451 45.5039 12.5904C44.5062 11.7319 43.0321 10.935 41.1655 10.2556C37.4368 8.89828 32.2518 8.04878 26.5 8.04878C20.7482 8.04878 15.5631 8.89828 11.8345 10.2556C9.96786 10.935 8.49377 11.7319 7.49615 12.5904ZM11.488 9.26796C15.3544 7.86052 20.662 7 26.5 7C32.338 7 37.6456 7.86052 41.512 9.26796C43.443 9.97086 45.0421 10.8201 46.1683 11.7893C47.2921 12.7565 48 13.8945 48 15.1633C48 16.4321 47.2921 17.57 46.1683 18.5372C45.0421 19.5065 43.443 20.3557 41.512 21.0586C37.6456 22.466 32.338 23.3265 26.5 23.3265C20.662 23.3265 15.3544 22.466 11.488 21.0586C9.557 20.3557 7.95788 19.5065 6.83168 18.5372C5.70785 17.57 5 16.4321 5 15.1633C5 13.8945 5.70785 12.7565 6.83168 11.7893C7.95788 10.8201 9.557 9.97086 11.488 9.26796Z" fill="black"/>
<path fill-rule="evenodd" clip-rule="evenodd" d="M5.50584 25.3673C5.78521 25.3673 6.01169 25.6431 6.01169 25.9833C6.01169 26.9697 6.47003 27.993 7.45268 29.0038C8.43295 30.0121 9.88141 30.9481 11.7155 31.7464C15.3794 33.341 20.4742 34.3396 26.1262 34.3396C26.6413 34.3396 27.1483 34.33 27.6471 34.3108C27.7819 34.3003 27.9211 34.3004 28.0346 34.3004H28.0418C28.3211 34.3004 28.5476 34.5761 28.5476 34.9163C28.5476 35.2564 28.3211 35.5322 28.0418 35.5322C27.9177 35.5322 27.8062 35.5324 27.7052 35.5406L27.6964 35.5414L27.6876 35.5417C27.175 35.5615 26.6546 35.5714 26.1262 35.5714C20.3895 35.5714 15.1742 34.5599 11.375 32.9063C9.47762 32.0805 7.90637 31.083 6.79981 29.9448C5.69562 28.809 5 27.4728 5 25.9833C5 25.6431 5.22647 25.3673 5.50584 25.3673Z" fill="black"/>
<path fill-rule="evenodd" clip-rule="evenodd" d="M5.50276 37.6122C5.78042 37.6122 6.00551 37.8329 6.00551 38.105C6.00551 38.8941 6.46106 39.7128 7.4377 40.5214C8.41199 41.328 9.85161 42.0768 11.6745 42.7155C15.316 43.9912 20.3798 44.79 25.9972 44.79C26.2749 44.79 26.5 45.0106 26.5 45.2828C26.5 45.5549 26.2749 45.7755 25.9972 45.7755C20.2956 45.7755 15.1121 44.9663 11.3361 43.6434C9.45029 42.9828 7.88863 42.1848 6.78882 41.2742C5.69137 40.3656 5 39.2966 5 38.105C5 37.8329 5.22509 37.6122 5.50276 37.6122Z" fill="black"/>
<path fill-rule="evenodd" clip-rule="evenodd" d="M5.50439 14.1429C5.78295 14.1429 6.00878 14.3822 6.00878 14.6773V48.6797C6.00878 49.5357 6.4658 50.4237 7.44562 51.3008C8.42308 52.1758 9.86737 52.988 11.6962 53.6807C15.3495 55.0645 20.4297 55.931 26.0654 55.931C32.3936 55.931 38.0179 54.8394 41.7071 53.15C42.2329 52.9088 42.7143 52.6615 43.1533 52.4002C43.3961 52.2556 43.7036 52.347 43.84 52.6044C43.9765 52.8618 43.8902 53.1876 43.6473 53.3322C43.1714 53.6155 42.6576 53.8787 42.108 54.131C38.2534 55.8962 32.4813 57 26.0654 57C20.3452 57 15.1449 56.1222 11.3567 54.6873C9.46474 53.9707 7.89801 53.1051 6.79463 52.1174C5.69361 51.1318 5 49.9723 5 48.6797V14.6773C5 14.3822 5.22582 14.1429 5.50439 14.1429Z" fill="black"/>
<path fill-rule="evenodd" clip-rule="evenodd" d="M47.4881 14.1429C47.7708 14.1429 48 14.3872 48 14.6885V23.8013C48 24.1026 47.7708 24.3469 47.4881 24.3469C47.2054 24.3469 46.9762 24.1026 46.9762 23.8013V14.6885C46.9762 14.3872 47.2054 14.1429 47.4881 14.1429Z" fill="black"/>
<path fill-rule="evenodd" clip-rule="evenodd" d="M49.3577 24L46.9516 27.2311C46.3189 27.1194 45.6684 27.0592 45 27.0592C44.3316 27.0592 43.6811 27.1194 43.0484 27.2311L40.6423 24C39.7868 24.2578 38.9669 24.5929 38.1827 24.9882L38.851 28.9067C37.7728 29.62 36.837 30.5309 36.0885 31.5707L32.0248 30.9262C31.6149 31.6824 31.2673 32.4729 31 33.2979L34.3507 35.6181C34.2349 36.2282 34.1725 36.8555 34.1725 37.5C34.1725 38.1445 34.2349 38.7718 34.3507 39.3819L31 41.7021C31.2673 42.5271 31.6149 43.3176 32.0248 44.0738L36.0885 43.4293C36.8281 44.4691 37.7728 45.3714 38.851 46.0933L38.1827 50.0118C38.9669 50.4071 39.7868 50.7422 40.6423 51L43.0484 47.7689C43.6811 47.8806 44.3316 47.9408 45 47.9408C45.6684 47.9408 46.3189 47.8806 46.9516 47.7689L49.3577 51C50.2132 50.7422 51.0331 50.4071 51.8173 50.0118L51.149 46.0933C52.2272 45.38 53.163 44.4691 53.9115 43.4293L57.9752 44.0738C58.3851 43.3176 58.7327 42.5271 59 41.7021L55.6493 39.3819C55.7651 38.7718 55.8275 38.1445 55.8275 37.5C55.8275 36.8555 55.7651 36.2282 55.6493 35.6181L59 33.2979C58.7327 32.4729 58.3851 31.6824 57.9752 30.9262L53.9115 31.5707C53.1719 30.5309 52.2272 29.6286 51.149 28.9067L51.8173 24.9882C51.0331 24.5929 50.2132 24.2578 49.3577 24ZM50.2221 37.5086C50.2221 40.2897 47.8841 42.5442 45 42.5442C42.1159 42.5442 39.7778 40.2897 39.7778 37.5086C39.7778 34.7275 42.1159 32.4729 45 32.4729C47.8841 32.4729 50.2221 34.7275 50.2221 37.5086Z" fill="#FFC000"/>
<path fill-rule="evenodd" clip-rule="evenodd" d="M41.0464 23L43.376 26.2443C43.9048 26.1643 44.4462 26.1217 45 26.1217C45.5538 26.1217 46.0952 26.1643 46.624 26.2443L48.9536 23L49.3226 23.1153C50.173 23.3811 50.9857 23.7258 51.7605 24.1309L52.1032 24.31L51.4559 28.2458C52.3306 28.8931 53.111 29.6673 53.7559 30.544L57.6901 29.8969L57.8694 30.2398C58.2744 31.0145 58.6191 31.8272 58.8849 32.6776L59 33.0461L55.7558 35.3757C55.8359 35.9046 55.8785 36.4461 55.8785 37C55.8785 37.5539 55.8359 38.0954 55.7558 38.6243L59 40.9539L58.8849 41.3224C58.6191 42.1728 58.2744 42.9855 57.8694 43.7602L57.6901 44.1031L53.7543 43.4557C53.107 44.3304 52.3329 45.1108 51.4562 45.7557L52.1032 49.69L51.7605 49.8691C50.9857 50.2742 50.173 50.6189 49.3226 50.8847L48.9536 51L46.624 47.7557C46.0952 47.8357 45.5538 47.8783 45 47.8783C44.4462 47.8783 43.9048 47.8357 43.376 47.7557L41.0464 51L40.6774 50.8847C39.827 50.6189 39.0143 50.2742 38.2395 49.8691L37.8968 49.69L38.5441 45.7542C37.6694 45.1069 36.889 44.3328 36.2441 43.456L32.3098 44.1031L32.1306 43.7602C31.7256 42.9855 31.3809 42.1728 31.1151 41.3224L31 40.9539L34.2442 38.6243C34.1641 38.0954 34.1215 37.5539 34.1215 37C34.1215 36.4461 34.1641 35.9046 34.2442 35.3757L31 33.0461L31.1151 32.6776C31.3809 31.8272 31.7256 31.0145 32.1306 30.2398L32.3098 29.8969L36.2457 30.5443C36.8929 29.6696 37.6671 28.8892 38.5438 28.2443L37.8968 24.31L38.2395 24.1309C39.0143 23.7258 39.827 23.3811 40.6774 23.1153L41.0464 23ZM49.3687 24.2563L47.1014 27.4137L46.768 27.3526C46.1942 27.2476 45.605 27.1911 45 27.1911C44.395 27.1911 43.8058 27.2476 43.232 27.3526L42.8986 27.4137L40.6313 24.2563C40.0996 24.4402 39.5822 24.6579 39.079 24.9045L39.709 28.7353L39.4287 28.9276C38.4545 29.5959 37.6063 30.4514 36.9265 31.4307L36.7337 31.7084L32.905 31.0787C32.6583 31.582 32.4406 32.0996 32.2567 32.6315L35.4141 34.8989L35.3531 35.2319C35.248 35.8057 35.1916 36.395 35.1916 37C35.1916 37.605 35.248 38.1943 35.3531 38.7681L35.4141 39.1011L32.2567 41.3685C32.4406 41.9004 32.6583 42.418 32.905 42.9213L36.7357 42.2913L36.9282 42.5718C37.5965 43.5461 38.452 44.3943 39.4312 45.0741L39.7087 45.2667L39.079 49.0954C39.5822 49.3421 40.0996 49.5598 40.6313 49.7437L42.8986 46.5863L43.232 46.6474C43.8058 46.7524 44.395 46.8089 45 46.8089C45.605 46.8089 46.1942 46.7524 46.768 46.6474L47.1014 46.5863L49.3687 49.7437C49.9004 49.5598 50.4178 49.3421 50.921 49.0955L50.291 45.2647L50.5713 45.0724C51.5455 44.4041 52.3937 43.5486 53.0735 42.5693L53.2663 42.2916L57.095 42.9213C57.3417 42.418 57.5594 41.9004 57.7433 41.3685L54.5859 39.1011L54.6469 38.7681C54.752 38.1943 54.8084 37.605 54.8084 37C54.8084 36.395 54.752 35.8057 54.6469 35.2319L54.5859 34.8989L57.7433 32.6315C57.5594 32.0996 57.3417 31.582 57.095 31.0787L53.2643 31.7087L53.0718 31.4282C52.4035 30.4539 51.548 29.6057 50.5688 28.9259L50.2913 28.7333L50.921 24.9045C50.4178 24.6579 49.9004 24.4402 49.3687 24.2563ZM39.4762 37.0085C39.4762 33.9583 41.949 31.485 45 31.485C48.0509 31.485 50.5237 33.9583 50.5237 37.0085C50.5237 40.0588 48.0509 42.532 45 42.532C41.949 42.532 39.4762 40.0588 39.4762 37.0085ZM45 32.5545C42.5406 32.5545 40.5463 34.5483 40.5463 37.0085C40.5463 39.4687 42.5406 41.4625 45 41.4625C47.4594 41.4625 49.4536 39.4687 49.4536 37.0085C49.4536 34.5483 47.4594 32.5545 45 32.5545Z" fill="black"/>
</svg>
