<svg width="64" height="64" viewBox="0 0 64 64" fill="none" xmlns="http://www.w3.org/2000/svg">
<path fill-rule="evenodd" clip-rule="evenodd" d="M51.9142 11.6246L50.3376 17.75H45.23V16.75H49.5624L50.9458 11.3754L51.9142 11.6246Z" fill="black"/>
<path d="M42.2501 12.83H35.8701C34.2022 12.83 32.8501 14.1821 32.8501 15.85V17.72C32.8501 19.3879 34.2022 20.74 35.8701 20.74H42.2501C43.918 20.74 45.2701 19.3879 45.2701 17.72V15.85C45.2701 14.1821 43.918 12.83 42.2501 12.83Z" fill="#FFC000"/>
<path fill-rule="evenodd" clip-rule="evenodd" d="M24.4102 12.8H30.2402V13.8H24.4102V12.8Z" fill="black"/>
<path fill-rule="evenodd" clip-rule="evenodd" d="M10.6521 11.4558C10.675 11.1978 10.8912 11 11.1502 11H19.7902C20.0449 11 20.2589 11.1915 20.2871 11.4447L22.3171 29.6747L21.3233 29.7853L19.3428 12H11.6078L8.19823 50.4142L7.20215 50.3258L10.6521 11.4558Z" fill="black"/>
<path d="M44.1899 35H48.6699V52.22H54.6899V31.53C54.6899 30.12 53.5499 28.98 52.1399 28.98H44.4999" fill="#FFC000"/>
<path d="M30.9999 28.98H23.1999C21.7899 28.98 20.6499 30.12 20.6499 31.53V52.22H26.6699V35H30.8399" fill="#FFC000"/>
<path d="M9.31 15.38H21.87V14.38H9.31V15.38Z" fill="black"/>
<path fill-rule="evenodd" clip-rule="evenodd" d="M20.15 31.53V49.87H5V50.87H20.15V52.72H27.17V50.87H48.17V52.72H55.19V50.87H58.55V49.87H55.19V31.53C55.19 29.8439 53.8261 28.48 52.14 28.48H44.4186C43.1431 26.055 40.5986 24.4 37.67 24.4C34.7414 24.4 32.197 26.055 30.9214 28.48H23.2C21.5139 28.48 20.15 29.8439 20.15 31.53ZM30.4841 29.48H23.2C22.0661 29.48 21.15 30.3962 21.15 31.53V51.72H26.17V34.5H30.4632C30.1954 33.7225 30.05 32.8881 30.05 32.02C30.05 31.1295 30.203 30.2746 30.4841 29.48ZM30.8902 35.5H27.17V49.87H48.17V35.5H44.4498C43.1849 37.9577 40.6226 39.64 37.67 39.64C34.7174 39.64 32.1551 37.9577 30.8902 35.5ZM44.8768 34.5H49.17V51.72H54.19V31.53C54.19 30.3962 53.2739 29.48 52.14 29.48H44.8559C45.137 30.2746 45.29 31.1295 45.29 32.02C45.29 32.8881 45.1446 33.7225 44.8768 34.5ZM31.05 32.02C31.05 30.9934 31.2841 30.0212 31.7019 29.1537L36.2413 31.7729C36.2273 31.8533 36.22 31.9358 36.22 32.02C36.22 32.6407 36.6175 33.175 37.17 33.3803V38.6214C33.7493 38.3655 31.05 35.5057 31.05 32.02ZM38.17 33.3803V38.6214C41.5907 38.3655 44.29 35.5057 44.29 32.02C44.29 30.9934 44.0559 30.0212 43.6382 29.1537L39.0987 31.7729C39.1127 31.8533 39.12 31.9358 39.12 32.02C39.12 32.6407 38.7225 33.175 38.17 33.3803ZM38.5968 30.908L43.1374 28.2881C41.9446 26.5448 39.94 25.4 37.67 25.4C35.4 25.4 33.3954 26.5448 32.2026 28.2881L36.7432 30.908C36.9951 30.6973 37.3187 30.57 37.67 30.57C38.0213 30.57 38.3449 30.6973 38.5968 30.908Z" fill="black"/>
<path d="M23.57 19.38H7.61V18.38H23.57V19.38Z" fill="black"/>
<path fill-rule="evenodd" clip-rule="evenodd" d="M53.73 13.8H47.89V12.8H53.73V13.8Z" fill="black"/>
<path fill-rule="evenodd" clip-rule="evenodd" d="M35.52 13.33C34.1283 13.33 33 14.4582 33 15.85V17.72C33 19.1118 34.1283 20.24 35.52 20.24H41.9C43.2918 20.24 44.42 19.1118 44.42 17.72V15.85C44.42 14.4582 43.2918 13.33 41.9 13.33H35.52ZM32 15.85C32 13.906 33.576 12.33 35.52 12.33H41.9C43.8441 12.33 45.42 13.906 45.42 15.85V17.72C45.42 19.664 43.8441 21.24 41.9 21.24H35.52C33.576 21.24 32 19.664 32 17.72V15.85Z" fill="black"/>
<path fill-rule="evenodd" clip-rule="evenodd" d="M28.5676 16.75L27.1843 11.3754L26.2158 11.6246L27.7924 17.75H32.9V16.75H28.5676Z" fill="black"/>
<path fill-rule="evenodd" clip-rule="evenodd" d="M39.23 17.08H38V16.08H39.23V17.08Z" fill="black"/>
</svg>
