<svg width="64" height="64" viewBox="0 0 64 64" fill="none" xmlns="http://www.w3.org/2000/svg">
<g clip-path="url(#clip0_5_190)">
<path d="M33.8244 59H20.7006C20.5339 59 20.3769 58.912 20.2886 58.7654C20.2004 58.6187 20.1906 58.4428 20.269 58.2864C20.2886 58.2473 22.4269 53.8776 23.5843 46.7317C23.7609 45.6368 23.8589 44.3269 23.9472 43.0756C23.9963 42.4011 24.0453 41.7462 24.1042 41.1596C24.1238 41.013 24.2022 40.8761 24.3199 40.7979C24.3396 40.7979 25.8403 39.8008 26.5465 38.618C27.0957 37.6991 27.0859 35.5876 27.0369 34.8446C27.0173 34.61 27.1644 34.4048 27.39 34.3363L29.2536 33.8084C29.4007 33.7693 29.5479 33.7987 29.6754 33.8769C29.7931 33.9649 29.8715 34.1017 29.8814 34.2483C30.0579 37.2592 30.411 43.3689 30.9603 46.7317C32.1177 53.8776 34.2559 58.2473 34.2756 58.2864C34.354 58.4428 34.3442 58.6187 34.2559 58.7654C34.1677 58.912 34.0107 59 33.844 59H33.8244ZM21.4657 58.0224H33.0691C32.412 56.4974 30.9113 52.597 29.9794 46.8979C29.4596 43.6817 29.1065 38.0412 28.9299 34.9229L28.0374 35.177C28.0668 36.047 28.0472 38.0315 27.3998 39.1263C26.7328 40.2407 25.5362 41.1499 25.0654 41.492C25.0163 42.0199 24.9771 42.5771 24.9379 43.1636C24.8496 44.4442 24.7515 45.7737 24.5652 46.9076C23.6432 52.6068 22.1326 56.517 21.4755 58.0322L21.4657 58.0224Z" fill="black"/>
<path d="M27.2626 32.8211C29.4078 32.8211 31.1468 31.088 31.1468 28.95C31.1468 26.8121 29.4078 25.0789 27.2626 25.0789C25.1174 25.0789 23.3784 26.8121 23.3784 28.95C23.3784 31.088 25.1174 32.8211 27.2626 32.8211Z" fill="#FFC000"/>
<path d="M27.2625 33.3001C26.8702 33.3001 26.4779 33.2513 26.0757 33.134C24.9477 32.8211 24.0159 32.088 23.447 31.0713C22.8781 30.0547 22.731 28.8816 23.0547 27.7574C23.7119 25.4406 26.1247 24.0916 28.4494 24.7466C30.774 25.3917 32.1276 27.8063 31.4704 30.1231C30.9309 32.0391 29.1654 33.3001 27.2625 33.3001ZM27.2625 25.5677C25.7815 25.5677 24.4181 26.5453 23.9963 28.0311C23.7511 28.9012 23.859 29.8103 24.3004 30.6021C24.7418 31.3841 25.4676 31.9609 26.3405 32.2053C27.2135 32.4497 28.1257 32.3421 28.9202 31.9022C29.7147 31.4623 30.2836 30.739 30.5288 29.8689C30.774 28.9989 30.6661 28.0898 30.2247 27.298C29.7833 26.5159 29.0575 25.9392 28.1845 25.6948C27.8805 25.6068 27.5666 25.5677 27.2625 25.5677Z" fill="black"/>
<path d="M50.8619 33.3393C50.7442 33.3393 50.6167 33.3393 50.4794 33.3295L31.2842 32.0684L31.6569 31.3939C31.6569 31.3939 32.1964 30.4066 32.3043 29.5757C32.422 28.6568 32.1964 28.0409 32.1964 28.0312L32.0689 27.7086L32.3337 27.4837C32.422 27.4153 34.4719 25.7046 36.1688 25.8121C37.13 25.8708 39.1702 26.5942 41.3379 27.3664C42.7699 27.8747 44.2412 28.3929 45.1632 28.6275C47.3701 29.1847 50.9502 29.8787 50.9796 29.8885C52.039 30.1231 53.0983 30.5435 53.0002 31.8729C52.961 32.4399 52.6177 33.3393 50.8718 33.3393H50.8619ZM32.8437 31.1887L50.5481 32.3519C51.4897 32.4106 51.9801 32.2346 52.0194 31.8045C52.0488 31.4624 52.0684 31.1398 50.7737 30.8465C50.7541 30.8465 47.1543 30.1329 44.918 29.5757C43.947 29.3313 42.5149 28.823 41.0044 28.2853C39.0917 27.6108 36.9241 26.8385 36.11 26.7897C35.1683 26.7115 33.8638 27.5424 33.2165 28.0312C33.2949 28.3831 33.3832 28.9696 33.2851 29.7028C33.2165 30.2307 33.0203 30.7781 32.8437 31.1887Z" fill="black"/>
<path d="M23.5647 25.294L23.241 25.1767C23.1331 25.1376 20.6417 24.2285 19.8767 22.7035C19.4451 21.8432 19.0528 19.7219 18.6408 17.4736C18.3662 15.9877 18.0817 14.4529 17.8267 13.5438C17.1989 11.3639 16.0219 7.92287 16.0121 7.89355C15.6884 6.85734 15.5217 5.73316 16.7281 5.1564C17.2774 4.90224 18.3269 4.73605 19.2489 6.60318L27.7529 23.8081L26.978 23.8277C26.978 23.8277 25.85 23.857 25.0752 24.1698C24.212 24.5217 23.7903 25.03 23.7903 25.0398L23.5745 25.3038L23.5647 25.294ZM17.3657 5.98732C17.297 5.98732 17.2284 6.00687 17.1499 6.0362C16.836 6.18283 16.5516 6.31969 16.9439 7.58073C16.9439 7.60028 18.1406 11.0608 18.7683 13.2701C19.0429 14.2281 19.3176 15.714 19.6118 17.2976C19.9748 19.282 20.3965 21.5402 20.7594 22.2733C21.1812 23.1238 22.5348 23.8277 23.29 24.1502C23.5549 23.9059 24.0257 23.5442 24.7024 23.2607C25.1929 23.0554 25.7618 22.9479 26.213 22.899L18.3662 7.0333C18.0229 6.33924 17.6894 5.98732 17.3657 5.98732Z" fill="black"/>
<path d="M12.5887 50.1336C12.2945 50.1336 11.9806 50.0358 11.6471 49.811C11.1469 49.4689 10.4799 48.6379 11.6471 46.9175L22.3384 30.9736L22.7405 31.6285C22.7405 31.6285 23.3192 32.5865 23.996 33.0949C24.7317 33.6618 25.3888 33.7694 25.3986 33.7694L25.7419 33.828L25.8106 34.1702C25.8302 34.2777 26.2912 36.8878 25.3398 38.3052C24.8101 39.1068 23.1525 40.5047 21.4066 41.9906C20.2492 42.9681 19.0624 43.9848 18.4052 44.6593C16.8162 46.2918 14.4229 49.029 14.4033 49.0485C13.8835 49.6057 13.295 50.1141 12.6084 50.1141L12.5887 50.1336ZM22.3188 32.7625L12.4612 47.4649C11.9316 48.2469 11.8531 48.765 12.2062 49.0094C12.4907 49.2049 12.7555 49.3907 13.6579 48.4131C13.6677 48.3936 16.0806 45.6466 17.6892 43.9946C18.3856 43.281 19.543 42.3034 20.7592 41.2574C22.309 39.9475 24.0549 38.4616 24.5061 37.7773C25.0357 36.9855 24.9769 35.4605 24.869 34.6589C24.5257 34.5514 23.9666 34.3266 23.3879 33.8769C22.9661 33.5543 22.5836 33.1144 22.3188 32.7527V32.7625Z" fill="black"/>
</g>
<defs>
<clipPath id="clip0_5_190">
<rect width="42" height="54" fill="white" transform="translate(11 5)"/>
</clipPath>
</defs>
</svg>
