<svg width="64" height="64" viewBox="0 0 64 64" fill="none" xmlns="http://www.w3.org/2000/svg">
<path fill-rule="evenodd" clip-rule="evenodd" d="M40.4357 32.1476C37.0197 32.1476 34.2471 34.9283 34.2471 38.3626C34.2471 41.7968 37.0197 44.5775 40.4357 44.5775C43.8518 44.5775 46.6244 41.7968 46.6244 38.3626C46.6244 34.9283 43.8518 32.1476 40.4357 32.1476ZM33.2471 38.3626C33.2471 34.3797 36.4637 31.1476 40.4357 31.1476C44.4078 31.1476 47.6244 34.3797 47.6244 38.3626C47.6244 42.3454 44.4078 45.5775 40.4357 45.5775C36.4637 45.5775 33.2471 42.3454 33.2471 38.3626Z" fill="black"/>
<path fill-rule="evenodd" clip-rule="evenodd" d="M16.5324 6.01791L18.3614 9.57281C18.9011 9.56756 19.4501 9.59795 20.0114 9.69186C20.5531 9.7825 21.0877 9.8972 21.612 10.0563L24.3873 7.17407L24.7133 7.33101C25.5079 7.71349 26.2701 8.17253 26.9783 8.69757L27.2653 8.91034L26.0536 12.7197C26.8334 13.4994 27.4959 14.388 28.0139 15.3725L31.9985 15.3085L32.1184 15.6474C32.4121 16.4771 32.6295 17.3288 32.7708 18.2125L32.8278 18.5691L29.2873 20.4051C29.2926 20.9474 29.2624 21.499 29.1688 22.0629C29.0784 22.6073 28.964 23.1445 28.8053 23.6712L30.7658 25.5638L30.0713 26.2833L27.6595 23.9551L27.7608 23.6551C27.9491 23.0981 28.0801 22.5146 28.1823 21.8991C28.2803 21.3084 28.3011 20.7212 28.2808 20.1215L28.2702 19.806L31.722 18.0161C31.614 17.4371 31.4702 16.873 31.2907 16.32L27.3998 16.3825L27.2603 16.097C26.7312 15.0145 26.0116 14.0507 25.1398 13.2257L24.9119 13.0101L26.0941 9.29312C25.6185 8.9606 25.1187 8.65924 24.602 8.39277L21.8956 11.2035L21.5947 11.101C21.0401 10.9121 20.4592 10.7807 19.8464 10.6782C19.2584 10.5798 18.6739 10.559 18.0768 10.5793L17.7602 10.5901L15.9775 7.12505C15.4021 7.23339 14.8416 7.37744 14.292 7.55723L14.3542 11.4634L14.0702 11.6034C12.9924 12.1344 12.0325 12.8566 11.2107 13.7319L10.9945 13.9622L7.2924 12.7754C6.96086 13.2536 6.6604 13.756 6.39477 14.2755L9.19491 16.9929L9.09384 17.292C8.90557 17.8491 8.77458 18.4325 8.6724 19.048C8.57434 19.6387 8.55362 20.2259 8.57387 20.8256L8.58452 21.1411L5.13268 22.931C5.24072 23.51 5.38448 24.0741 5.56398 24.6271L9.45484 24.5646L9.59438 24.8501C10.1235 25.9326 10.8431 26.8964 11.7149 27.7214L11.9428 27.9371L10.7605 31.654C11.2362 31.9865 11.736 32.2879 12.2527 32.5543L14.9591 29.7436L15.26 29.8461C15.8146 30.035 16.3955 30.1664 17.0083 30.269C17.5962 30.3673 18.1808 30.3881 18.7778 30.3678L19.0945 30.357L21.0455 34.1491L20.1563 34.6066L18.4933 31.3743C17.9536 31.3796 17.4046 31.3492 16.8433 31.2552C16.3016 31.1646 15.767 31.0499 15.2427 30.8908L12.4674 33.773L12.1414 33.6161C11.3468 33.2336 10.5846 32.7746 9.87641 32.2495L9.58943 32.0368L10.8011 28.2274C10.0213 27.4477 9.35882 26.5591 8.84076 25.5746L4.85617 25.6386L4.73624 25.2997C4.44263 24.47 4.22514 23.6183 4.08386 22.7346L4.02686 22.378L7.56742 20.542C7.56208 19.9998 7.59229 19.4481 7.68591 18.8842C7.77633 18.3395 7.89079 17.802 8.04966 17.275L5.17913 14.4892L5.33392 14.1651C5.7148 13.3675 6.17195 12.6025 6.69486 11.8916L6.9079 11.602L10.7026 12.8185C11.479 12.0362 12.3639 11.3715 13.3444 10.8515L13.2806 6.85125L13.6183 6.73081C14.445 6.43594 15.2936 6.21752 16.1743 6.07562L16.5324 6.01791Z" fill="black"/>
<path fill-rule="evenodd" clip-rule="evenodd" d="M18.4273 15.9769C15.9508 15.9769 13.9398 17.993 13.9398 20.4841C13.9398 22.9752 15.9508 24.9913 18.4273 24.9913C20.9039 24.9913 22.9149 22.9752 22.9149 20.4841C22.9149 17.993 20.9039 15.9769 18.4273 15.9769ZM12.9398 20.4841C12.9398 17.4444 15.3948 14.9769 18.4273 14.9769C21.4599 14.9769 23.9149 17.4444 23.9149 20.4841C23.9149 23.5238 21.4599 25.9913 18.4273 25.9913C15.3948 25.9913 12.9398 23.5238 12.9398 20.4841Z" fill="black"/>
<path d="M54.3275 38.3626C54.3275 37.4982 54.2435 36.6654 54.0965 35.8431L58.3911 32.7439C58.0446 31.6476 57.6036 30.5829 57.0785 29.5815L51.8704 30.4353C50.9149 29.0438 49.7074 27.8421 48.3214 26.8723L49.1719 21.6437C48.1744 21.1166 47.1244 20.6738 46.0218 20.326L42.9348 24.6375C42.1263 24.4899 41.2863 24.4056 40.4252 24.4056C39.5642 24.4056 38.7347 24.4899 37.9157 24.6375L34.8286 20.326C33.7366 20.6633 32.6761 21.1166 31.6786 21.6437L32.5291 26.8723C31.1431 27.8316 29.9461 29.0438 28.98 30.4353L23.7719 29.5815C23.2469 30.5829 22.8059 31.6371 22.4594 32.7439L26.754 35.8431C26.607 36.6548 26.523 37.4982 26.523 38.3626C26.523 39.227 26.607 40.0597 26.754 40.882L22.4594 43.9812C22.7954 45.0775 23.2469 46.1422 23.7719 47.1437L28.98 46.2898C29.9356 47.6813 31.1431 48.883 32.5291 49.8528L31.6786 55.0814C32.6761 55.6085 33.7261 56.0513 34.8286 56.3991L37.9157 52.0877C38.7242 52.2352 39.5642 52.3196 40.4252 52.3196C41.2863 52.3196 42.1158 52.2352 42.9348 52.0877L46.0218 56.3991C47.1139 56.0618 48.1744 55.6085 49.1719 55.0814L48.3214 49.8528C49.7074 48.8936 50.9044 47.6813 51.8704 46.2898L57.0785 47.1437C57.6036 46.1422 58.0446 45.0881 58.3911 43.9812L54.0965 40.882C54.2435 40.0703 54.3275 39.227 54.3275 38.3626ZM40.4357 45.0775C36.7397 45.0775 33.7471 42.0732 33.7471 38.3626C33.7471 34.6519 36.7397 31.6476 40.4357 31.6476C44.1318 31.6476 47.1244 34.6519 47.1244 38.3626C47.1244 42.0732 44.1318 45.0775 40.4357 45.0775Z" fill="#FFC000"/>
<path fill-rule="evenodd" clip-rule="evenodd" d="M45.8264 19.74L46.1723 19.8491C47.3042 20.2063 48.382 20.6608 49.4055 21.2016L49.7231 21.3694L48.8647 26.6462C50.1049 27.5531 51.2005 28.6443 52.0989 29.8912L57.3538 29.0296L57.5214 29.3493C58.0605 30.3776 58.5127 31.4696 58.8678 32.5932L58.9767 32.9379L54.6413 36.0666C54.7603 36.8141 54.8275 37.5749 54.8275 38.3626C54.8275 39.1486 54.7605 39.9165 54.6417 40.6589L58.9759 43.7866L58.8682 44.1306C58.5126 45.2666 58.06 46.3484 57.5214 47.3758L57.3538 47.6955L52.0975 46.8337C51.1942 48.0785 50.1072 49.1784 48.865 50.0803L49.7231 55.3557L49.4055 55.5235C48.3837 56.0634 47.2944 56.5293 46.1694 56.8769L45.8251 56.9832L42.7103 52.633C41.9663 52.7522 41.2092 52.8196 40.4252 52.8196C39.6429 52.8196 38.8787 52.7525 38.1398 52.6335L35.024 56.9851L34.6782 56.876C33.5463 56.5188 32.4685 56.0643 31.445 55.5235L31.1274 55.3557L31.9858 50.0789C30.7456 49.1721 29.65 48.0808 28.7515 46.8339L23.4967 47.6955L23.3291 47.3758C22.7914 46.3502 22.3274 45.2569 21.9814 44.1277L21.8764 43.7853L26.2092 40.6586C26.0902 39.911 26.023 39.1502 26.023 38.3626C26.023 37.5765 26.0899 36.8086 26.2087 36.0662L21.8746 32.9385L21.9823 32.5945C22.3379 31.4585 22.7905 30.3767 23.3291 29.3493L23.4967 29.0296L28.753 29.8914C29.6562 28.6466 30.7433 27.5468 31.9855 26.6448L31.1274 21.3694L31.445 21.2016C32.4668 20.6617 33.556 20.1958 34.6811 19.8482L35.0254 19.7419L38.1401 24.0921C38.8841 23.9729 39.6413 23.9056 40.4252 23.9056C41.2075 23.9056 41.9718 23.9726 42.7106 24.0917L45.8264 19.74ZM32.2303 21.9213L33.0733 27.1037L32.8136 27.2834C31.479 28.2071 30.3241 29.3761 29.3908 30.7205L29.2107 30.9798L24.0508 30.1338C23.6634 30.9083 23.3273 31.7141 23.0472 32.5515L27.3022 35.6221L27.246 35.9322C27.1038 36.7171 27.023 37.5305 27.023 38.3626C27.023 39.1941 27.1037 39.9972 27.2462 40.794L27.3015 41.1035L23.0458 44.1746C23.3201 45.0042 23.6615 45.8148 24.0506 46.5913L29.2125 45.745L29.3922 46.0068C30.3125 47.3469 31.4768 48.5063 32.8158 49.4432L33.073 49.6232L32.2303 54.8036C33.0008 55.192 33.8025 55.5292 34.6354 55.8101L37.6937 51.5389L38.0055 51.5958C38.787 51.7384 39.5969 51.8196 40.4252 51.8196C41.2531 51.8196 42.0528 51.7385 42.8461 51.5956L43.1573 51.5395L46.2161 55.8116C47.0413 55.5363 47.8477 55.194 48.6202 54.8038L47.7772 49.6214L48.0368 49.4417C49.3715 48.518 50.5264 47.3491 51.4597 46.0047L51.6398 45.7453L56.7997 46.5913C57.187 45.8168 57.5232 45.011 57.8033 44.1736L53.5483 41.103L53.6045 40.7929C53.7466 40.008 53.8275 39.1946 53.8275 38.3626C53.8275 37.5311 53.7467 36.7279 53.6043 35.9311L53.549 35.6217L57.8025 32.552C57.5223 31.7195 57.1862 30.9084 56.7996 30.1339L51.638 30.9801L51.4583 30.7184C50.538 29.3782 49.3736 28.2188 48.0347 27.2819L47.7775 27.1019L48.6201 21.9215C47.8497 21.5331 47.048 21.196 46.2151 20.915L43.1568 25.1863L42.845 25.1293C42.0635 24.9867 41.2536 24.9056 40.4252 24.9056C39.5974 24.9056 38.7977 24.9866 38.0044 25.1295L37.6932 25.1856L34.6344 20.9135C33.8092 21.1888 33.0028 21.5311 32.2303 21.9213ZM40.4357 32.1476C37.0177 32.1476 34.2471 34.9262 34.2471 38.3626C34.2471 41.7989 37.0177 44.5775 40.4357 44.5775C43.8538 44.5775 46.6244 41.7989 46.6244 38.3626C46.6244 34.9262 43.8538 32.1476 40.4357 32.1476ZM33.2471 38.3626C33.2471 34.3776 36.4617 31.1476 40.4357 31.1476C44.4098 31.1476 47.6244 34.3776 47.6244 38.3626C47.6244 42.3475 44.4098 45.5775 40.4357 45.5775C36.4617 45.5775 33.2471 42.3475 33.2471 38.3626Z" fill="black"/>
</svg>
