<svg width="64" height="64" viewBox="0 0 64 64" fill="none" xmlns="http://www.w3.org/2000/svg">
<g clip-path="url(#clip0_5_217)">
<path d="M58.4814 55.2399V23.9343C58.4814 22.6995 57.4748 21.7034 56.24 21.693H29.2608C29.2608 21.693 28.0882 21.5373 27.1439 22.6269C26.0752 23.9135 24.9856 25.1795 23.9064 26.4454C22.5263 28.199 20.368 28.0952 20.368 28.0952H7.88492C6.6501 28.0952 5.51904 29.0914 5.51904 30.3365V55.2399C5.51904 56.4747 6.6501 57.4812 7.88492 57.4812H56.2504C57.4852 57.4812 58.4918 56.4851 58.4918 55.2399H58.4814Z" fill="#FFC000"/>
<path d="M56.2502 58H7.8847C6.31783 58 5 56.7341 5 55.2399V30.3365C5 29.5998 5.3113 28.9046 5.89239 28.3754C6.44235 27.8669 7.16872 27.5868 7.89508 27.5868H20.3885C20.4923 27.5868 22.329 27.649 23.5119 26.1341C24.6118 24.8474 25.7014 23.5815 26.7598 22.3052C27.8805 21.0081 29.2813 21.1741 29.3436 21.1845H56.2606C57.7756 21.1845 59.0208 22.4193 59.0208 23.9343V55.2399C59.0208 56.7548 57.7859 58 56.2606 58H56.2502ZM7.8847 28.6244C7.41776 28.6244 6.94043 28.8112 6.58762 29.1432C6.23482 29.4753 6.02729 29.9007 6.02729 30.3469V55.2502C6.02729 56.1634 6.88855 56.9727 7.87433 56.9727H56.2398C57.1841 56.9727 57.9623 56.2049 57.9623 55.2502V23.9446C57.9623 23.0004 57.1945 22.2222 56.2398 22.2222H29.2606C29.1568 22.2222 28.2748 22.1288 27.538 22.9796C26.4693 24.2559 25.3901 25.5322 24.3005 26.7981C22.7855 28.7282 20.4404 28.6348 20.347 28.6348H7.8847V28.6244Z" fill="black"/>
<path d="M5.51883 26.5803C5.51883 26.5803 5.43582 26.5803 5.38394 26.5595C5.15565 26.4973 5 26.3001 5 26.0614V9.76012C5 8.26592 6.32821 7 7.8847 7H20.5234C21.8828 7 23.1695 7.66409 23.9685 8.77436L27.2994 12.9768C27.7456 13.589 28.4304 13.9522 29.1672 13.9522H56.2502C57.7652 13.9522 59.0104 15.187 59.0104 16.7123V19.6696C59.0104 19.8875 58.8755 20.0743 58.6783 20.1469C58.4812 20.2299 58.2529 20.1676 58.1076 20.012C58.1076 20.012 57.236 19.0781 56.2502 19.0781H28.3993C28.2955 19.0781 26.4589 19.0159 25.2656 20.5308C24.1656 21.8175 23.0865 23.0834 22.0177 24.3597C20.897 25.6568 19.5065 25.4907 19.4339 25.4804L8.1545 25.3974C6.50461 25.3974 5.98578 26.2793 5.96503 26.3105C5.87164 26.4765 5.69523 26.5803 5.50846 26.5803H5.51883ZM7.8847 8.03764C6.89892 8.03764 6.03766 8.83662 6.03766 9.76012V24.8889C6.52537 24.5984 7.21022 24.3597 8.16487 24.3597L19.5065 24.4531C19.5999 24.4531 20.4923 24.5465 21.2187 23.6956C22.2875 22.4193 23.3666 21.143 24.4562 19.8771C25.9712 17.9471 28.3163 18.0301 28.4097 18.0405H56.2398C56.9039 18.0405 57.5058 18.2999 57.9623 18.5801V16.7019C57.9623 15.7577 57.1945 14.9795 56.2398 14.9795H29.1568C28.088 14.9795 27.0815 14.4606 26.4589 13.5994L23.128 9.39695C22.5158 8.53571 21.5404 8.03764 20.5131 8.03764H7.8847Z" fill="black"/>
</g>
<defs>
<clipPath id="clip0_5_217">
<rect width="54" height="51" fill="white" transform="translate(5 7)"/>
</clipPath>
</defs>
</svg>
