<svg width="64" height="64" viewBox="0 0 64 64" fill="none" xmlns="http://www.w3.org/2000/svg">
<path d="M58 34.2825H6V55.5327H58V34.2825Z" fill="#FFC000"/>
<path fill-rule="evenodd" clip-rule="evenodd" d="M5.5 33.7825H58.5V56.0327H5.5V33.7825ZM6.5 34.7825V55.0327H57.5V34.7825H6.5Z" fill="black"/>
<path d="M14.566 47.2234C15.5808 47.2234 16.4034 46.3568 16.4034 45.2879C16.4034 44.219 15.5808 43.3524 14.566 43.3524C13.5512 43.3524 12.7285 44.219 12.7285 45.2879C12.7285 46.3568 13.5512 47.2234 14.566 47.2234Z" fill="black"/>
<path d="M20.9908 47.2234C22.0056 47.2234 22.8282 46.3568 22.8282 45.2879C22.8282 44.219 22.0056 43.3524 20.9908 43.3524C19.976 43.3524 19.1533 44.219 19.1533 45.2879C19.1533 46.3568 19.976 47.2234 20.9908 47.2234Z" fill="black"/>
<path d="M27.4092 47.2234C28.424 47.2234 29.2467 46.3568 29.2467 45.2879C29.2467 44.219 28.424 43.3524 27.4092 43.3524C26.3944 43.3524 25.5718 44.219 25.5718 45.2879C25.5718 46.3568 26.3944 47.2234 27.4092 47.2234Z" fill="black"/>
<path fill-rule="evenodd" clip-rule="evenodd" d="M49.7506 45.0937H35.6782V44.0937H49.7506V45.0937Z" fill="black"/>
<path fill-rule="evenodd" clip-rule="evenodd" d="M16.8659 13.4652C21.2595 9.73565 26.8787 7.49994 32.9282 7.49994C38.9778 7.49994 44.5264 9.71558 48.9063 13.3969C49.1177 13.5746 49.1451 13.89 48.9674 14.1014C48.7897 14.3128 48.4743 14.3401 48.2629 14.1624C44.0511 10.6224 38.7271 8.49994 32.9282 8.49994C27.1293 8.49994 21.7365 10.6424 17.513 14.2276C17.3025 14.4063 16.987 14.3805 16.8083 14.17C16.6296 13.9595 16.6554 13.6439 16.8659 13.4652Z" fill="black"/>
<path fill-rule="evenodd" clip-rule="evenodd" d="M22.4729 20.1595C25.3272 17.7309 28.9889 16.2762 32.9282 16.2762C36.867 16.2762 40.4836 17.7104 43.3312 20.1114C43.5423 20.2894 43.5692 20.6048 43.3912 20.8159C43.2132 21.027 42.8977 21.0539 42.6866 20.8759C40.0092 18.6184 36.6181 17.2762 32.9282 17.2762C29.239 17.2762 25.8043 18.638 23.1209 20.9212C22.9106 21.1001 22.595 21.0747 22.4161 20.8644C22.2371 20.6541 22.2626 20.3385 22.4729 20.1595Z" fill="black"/>
<path fill-rule="evenodd" clip-rule="evenodd" d="M32.9282 26.413C31.4256 26.413 30.0371 26.9667 28.9433 27.8958C28.7329 28.0746 28.4173 28.0489 28.2386 27.8384C28.0598 27.628 28.0855 27.3124 28.2959 27.1337C29.5592 26.0606 31.174 25.413 32.9282 25.413C34.6823 25.413 36.2775 26.0538 37.5401 27.1193C37.7512 27.2973 37.7779 27.6128 37.5998 27.8238C37.4217 28.0349 37.1063 28.0616 36.8952 27.8835C35.8008 26.9601 34.4308 26.413 32.9282 26.413Z" fill="black"/>
</svg>
