<svg width="64" height="64" viewBox="0 0 64 64" fill="none" xmlns="http://www.w3.org/2000/svg">
<path d="M51.7389 31.6108C51.7389 30.3708 51.6189 29.1608 51.4089 27.9808L57.6289 23.5108C57.1389 21.9208 56.4889 20.4008 55.7289 18.9508L48.1789 20.1908C46.7889 18.1808 45.0489 16.4408 43.0389 15.0508L44.2789 7.50081C42.8289 6.74081 41.3089 6.10081 39.7189 5.60081L35.2489 11.8208C34.0689 11.6008 32.8589 11.4908 31.6189 11.4908C30.3789 11.4908 29.1689 11.6108 27.9889 11.8208L23.4989 5.58081C21.9089 6.07081 20.3889 6.72081 18.9389 7.48081L20.1789 15.0308C18.1689 16.4208 16.4289 18.1608 15.0389 20.1708L7.48887 18.9308C6.72887 20.3808 6.08887 21.9008 5.58887 23.4908L11.8089 27.9608C11.5889 29.1408 11.4789 30.3508 11.4789 31.5908C11.4789 32.8308 11.5989 34.0408 11.8089 35.2208L5.58887 39.6908C6.07887 41.2808 6.72887 42.8008 7.48887 44.2508L15.0389 43.0108C16.4289 45.0208 18.1689 46.7608 20.1789 48.1508L18.9389 55.7008C20.3889 56.4608 21.9089 57.1008 23.4989 57.6008L27.9689 51.3808C29.1489 51.6008 30.3589 51.7108 31.5989 51.7108C32.8389 51.7108 34.0489 51.5908 35.2289 51.3808L39.6989 57.6008C41.2889 57.1108 42.8089 56.4608 44.2589 55.7008L43.0189 48.1508C45.0289 46.7608 46.7689 45.0208 48.1589 43.0108L55.7089 44.2508C56.4689 42.8008 57.1089 41.2808 57.6089 39.6908L51.3889 35.2208C51.6089 34.0408 51.7189 32.8308 51.7189 31.5908L51.7389 31.6108ZM31.6089 44.7608C24.3489 44.7608 18.4589 38.8708 18.4589 31.6108C18.4589 24.3508 24.3489 18.4608 31.6089 18.4608C38.8689 18.4608 44.7589 24.3508 44.7589 31.6108C44.7589 38.8708 38.8689 44.7608 31.6089 44.7608Z" fill="#FFC000"/>
<path d="M23.9053 5.28809L28.2129 11.2754C29.3207 11.0937 30.4567 10.9902 31.6201 10.9902C32.7799 10.9902 33.9154 11.085 35.0264 11.2734L39.5244 5.01465L39.8701 5.12305C41.4896 5.63234 43.0367 6.2845 44.5117 7.05762L44.832 7.22461L43.583 14.8223C45.4467 16.1536 47.0758 17.7819 48.4072 19.6455L56.0049 18.3984L56.1729 18.7178C56.9451 20.1911 57.6072 21.7401 58.1074 23.3633L58.2139 23.7061L51.9541 28.2031C52.1358 29.3109 52.2402 30.4469 52.2402 31.6104V32.8174L52.1855 32.7627C52.1433 33.5182 52.0601 34.2629 51.9355 34.9971L58.1953 39.4951L58.0869 39.8398C57.5776 41.4594 56.9255 43.0073 56.1523 44.4824L55.9854 44.8018L48.3867 43.5537C47.0554 45.4172 45.427 47.0457 43.5635 48.377L44.8115 55.9756L44.4922 56.1426C43.0189 56.9148 41.4699 57.5779 39.8467 58.0781L39.5039 58.1836L35.0049 51.9238C33.8976 52.1053 32.7624 52.21 31.5996 52.21C30.4394 52.2099 29.3037 52.1143 28.1924 51.9258L23.6953 58.1855L23.3496 58.0771C21.7301 57.5679 20.183 56.9157 18.708 56.1426L18.3877 55.9756L19.6357 48.377C17.7721 47.0455 16.1428 45.4174 14.8115 43.5537L7.21484 44.8018L7.04688 44.4824C6.27466 43.0091 5.61253 41.4601 5.1123 39.8369L5.00586 39.4941L11.2646 34.9951C11.0832 33.888 10.9795 32.7526 10.9795 31.5898C10.9795 30.4301 11.0743 29.2946 11.2627 28.1836L5.00391 23.6855L5.11328 23.3398C5.62254 21.7205 6.27383 20.1732 7.04688 18.6982L7.21484 18.3779L14.8115 19.626C16.143 17.7622 17.772 16.1332 19.6357 14.8018L18.3877 7.20508L18.708 7.03711C20.1812 6.26497 21.7295 5.60273 23.3525 5.10254L23.6963 4.99609L23.9053 5.28809ZM44.2598 31.6104C44.2598 24.6265 38.5932 18.96 31.6094 18.96C24.6257 18.9602 18.96 24.6266 18.96 31.6104C18.9601 38.5939 24.6258 44.2595 31.6094 44.2598C38.5931 44.2598 44.2596 38.5941 44.2598 31.6104ZM45.2598 31.6104C45.2596 39.1464 39.1454 45.2598 31.6094 45.2598C24.0735 45.2595 17.9601 39.1462 17.96 31.6104C17.96 24.0744 24.0734 17.9602 31.6094 17.96C39.1455 17.96 45.2598 24.0742 45.2598 31.6104ZM11.9795 31.5898C11.9795 32.7974 12.0963 33.9786 12.3018 35.1328L12.3574 35.4424L6.17676 39.8828C6.60514 41.2017 7.14542 42.473 7.76855 43.6973L14.959 42.5166L15.2715 42.4658L15.4512 42.7256C16.8069 44.686 18.5035 46.3836 20.4639 47.7393L20.7246 47.9189L20.6729 48.2314L19.4922 55.4199C20.7147 56.0411 21.9858 56.5755 23.3066 57.0107L27.749 50.8301L28.0615 50.8887C29.2102 51.1028 30.3894 51.2099 31.5996 51.21C32.8072 51.21 33.9884 51.0931 35.1426 50.8877L35.4521 50.833L35.6357 51.0879L39.8926 57.0117C41.2115 56.5833 42.4827 56.0431 43.707 55.4199L42.5264 48.2314L42.4756 47.9189L42.7354 47.7393C44.6958 46.3835 46.3933 44.686 47.749 42.7256L47.9287 42.4658L48.2412 42.5166L55.4297 43.6973C56.0509 42.4745 56.5853 41.203 57.0205 39.8818L50.8398 35.4404L50.8984 35.1289C51.1126 33.9801 51.2197 32.8001 51.2197 31.5898V30.7363C51.1781 29.8315 51.0736 28.9417 50.918 28.0674L50.8623 27.7578L57.042 23.3164C56.6135 21.9976 56.0734 20.7262 55.4502 19.502L48.2607 20.6836L47.9482 20.7344L47.7686 20.4746C46.4129 18.5142 44.7162 16.8166 42.7559 15.4609L42.4951 15.2812L42.5469 14.9688L43.7266 7.7793C42.5041 7.15822 41.2329 6.62363 39.9121 6.18848L35.4707 12.3701L35.1582 12.3115C34.0095 12.0974 32.8303 11.9903 31.6201 11.9902C30.4125 11.9902 29.2314 12.1071 28.0771 12.3125L27.7676 12.3672L23.3057 6.16699C21.9873 6.5953 20.7161 7.13489 19.4922 7.75781L20.6729 14.9492L20.7246 15.2617L20.4639 15.4414C18.5037 16.797 16.8068 18.4939 15.4512 20.4541L15.2715 20.7148L14.959 20.6631L7.76855 19.4824C7.14747 20.7049 6.61291 21.9761 6.17773 23.2969L12.3594 27.7393L12.3018 28.0518C12.0876 29.2005 11.9795 30.3797 11.9795 31.5898Z" fill="black"/>
</svg>
