<svg width="64" height="64" viewBox="0 0 64 64" fill="none" xmlns="http://www.w3.org/2000/svg">
<path d="M48.5249 32C43.2791 32 39.0249 36.3604 39.0249 41.7373C39.0249 48.9844 48.5249 58 48.5249 58C48.5249 58 58.0249 48.9945 58.0249 41.7373C58.0249 36.3604 53.7707 32 48.5249 32ZM51.8965 44.0242C51.1726 45.1423 49.933 45.8843 48.5249 45.8843C47.1168 45.8843 45.8772 45.1423 45.1533 44.0242C44.7269 43.3737 44.4889 42.5809 44.4889 41.7373C44.4889 40.8937 44.7071 40.1923 45.0938 39.552C45.1533 39.4605 45.2128 39.3589 45.2822 39.2776C46.016 38.2611 47.1961 37.6005 48.5348 37.6005C49.8735 37.6005 51.0437 38.2611 51.7775 39.2776C51.8469 39.369 51.9064 39.4707 51.9659 39.5622C52.3527 40.1923 52.5708 40.9445 52.5708 41.7373C52.5708 42.5809 52.3229 43.3636 51.9064 44.0141L51.8965 44.0242Z" fill="#FFC000"/>
<path d="M48.8688 58.3633C48.6759 58.5459 48.3741 58.5452 48.1813 58.3623L48.5251 58L48.8688 58.3633ZM57.5251 41.7373C57.5251 36.6249 53.4832 32.5 48.5251 32.5C43.5669 32.5 39.5251 36.6249 39.5251 41.7373C39.5251 43.4458 40.087 45.2913 40.9606 47.1201C41.8322 48.9447 42.9991 50.7224 44.1745 52.2862C45.3488 53.8485 46.5246 55.1882 47.4069 56.1377C47.8478 56.6122 48.2152 56.9881 48.4714 57.2451C48.4898 57.2637 48.5078 57.2816 48.5251 57.2989C48.5424 57.2816 48.5613 57.2646 48.5798 57.2461C48.8359 56.9893 49.2024 56.6127 49.6432 56.1387C50.5255 55.19 51.7014 53.8517 52.8756 52.2901C54.051 50.727 55.2179 48.9491 56.0895 47.1241C56.963 45.295 57.5251 43.4484 57.5251 41.7373ZM52.071 41.7373C52.071 41.0408 51.8804 40.3836 51.5465 39.835L51.3796 39.5801L51.3717 39.5703C50.7255 38.6757 49.7019 38.1006 48.5348 38.1006C47.4391 38.1007 46.4627 38.6065 45.8131 39.4063L45.6881 39.5703C45.6802 39.5813 45.6716 39.5923 45.6628 39.6026C45.6231 39.6491 45.5941 39.6994 45.5221 39.8106L45.401 40.0254C45.1355 40.532 44.9889 41.0826 44.9889 41.7373C44.9889 42.3935 45.1509 43.0093 45.4401 43.5323L45.5719 43.75L45.5729 43.753L45.6979 43.9336C46.3477 44.8168 47.3749 45.3848 48.5251 45.3848C49.7519 45.3848 50.8389 44.7387 51.4772 43.753L51.487 43.7393C51.8522 43.1671 52.071 42.48 52.071 41.7373ZM53.071 41.7373C53.071 42.5621 52.8591 43.3358 52.4938 44.0039L52.3278 44.2832C52.3213 44.2934 52.3116 44.3019 52.3044 44.3116C51.4933 45.5527 50.1075 46.3848 48.5251 46.3848C46.9365 46.3848 45.5447 45.5471 44.735 44.2979C44.2533 43.563 43.9889 42.6748 43.9889 41.7373C43.9889 40.7986 44.2342 40.0085 44.6657 39.294L44.6745 39.2793L44.7673 39.1358C44.7998 39.0868 44.8383 39.0345 44.8776 38.9854C45.6998 37.8465 47.0263 37.1007 48.5348 37.1006C50.0405 37.1006 51.3536 37.8434 52.1755 38.9756L52.3854 39.2891L52.3923 39.3008L52.5465 39.5733C52.8847 40.2219 53.071 40.9637 53.071 41.7373ZM58.5251 41.7373C58.5251 43.6548 57.8995 45.6553 56.9919 47.5557C56.0822 49.4602 54.8741 51.2953 53.6745 52.8907C52.4738 54.4874 51.2746 55.8538 50.3756 56.8203C49.926 57.3039 49.5501 57.6882 49.2868 57.9522C49.1552 58.0841 49.0513 58.1866 48.9801 58.2559C48.9448 58.2903 48.9178 58.317 48.8991 58.335C48.8897 58.344 48.8816 58.3508 48.8766 58.3555L48.8688 58.3633L48.5251 58L48.1813 58.3623L48.1784 58.3604C48.1771 58.3591 48.1749 58.3577 48.1725 58.3555C48.1676 58.3508 48.1604 58.343 48.151 58.334C48.1323 58.316 48.1044 58.2894 48.069 58.2549C47.9978 58.1855 47.8939 58.0832 47.7624 57.9512C47.499 57.6869 47.1241 57.3022 46.6745 56.8184C45.7756 55.851 44.5763 54.4841 43.3756 52.8867C42.176 51.2907 40.9679 49.4549 40.0583 47.5508C39.1508 45.6511 38.5251 43.6522 38.5251 41.7373C38.5251 36.096 42.9915 31.5 48.5251 31.5C54.0586 31.5 58.5251 36.096 58.5251 41.7373Z" fill="black"/>
<path d="M5.5249 32.0303C5.5249 26.8978 6.98 22.1065 9.50537 18.043L9.50635 18.041L9.79639 17.5869C9.99195 17.286 10.1925 16.9884 10.4028 16.6953L10.7251 16.2598C15.5566 9.72795 23.3072 5.50012 32.0444 5.5C40.7828 5.5 48.5343 9.72881 53.3657 16.2412L53.6968 16.6914C54.0206 17.1439 54.3269 17.6081 54.6157 18.084L54.9683 18.6719C56.5818 21.4379 57.7104 24.5281 58.2417 27.8105L58.3462 28.5176L58.4126 29.0127L57.4214 29.1465L57.355 28.6504L57.2544 27.9707C56.7065 24.5854 55.4993 21.4131 53.7651 18.6104L53.7632 18.6064C53.3947 17.999 52.9961 17.4114 52.5679 16.8438L52.5649 16.8408C47.914 10.5696 40.454 6.5 32.0444 6.5C23.6351 6.50012 16.1757 10.5693 11.5249 16.8604L11.52 16.8662C11.1044 17.4104 10.7266 17.9781 10.354 18.5723C7.92491 22.4815 6.5249 27.09 6.5249 32.0303V32.0801L6.53076 32.5645C6.62995 37.4003 8.07082 41.9041 10.5151 45.6904L10.7632 46.0664L10.771 46.0781L10.9507 46.3535C11.1322 46.6237 11.3241 46.889 11.5259 47.1582C11.5343 47.1681 11.5431 47.1766 11.5493 47.1846C11.563 47.2022 11.5751 47.2189 11.5806 47.2266C11.5866 47.2349 11.5884 47.2373 11.5884 47.2373L11.5942 47.2432L11.7046 47.3848C11.7345 47.4256 11.751 47.449 11.7671 47.4678C11.812 47.5202 11.8514 47.5738 11.8774 47.6094L11.9409 47.6914L11.9771 47.7402L12.0142 47.7871C12.0317 47.8085 12.0621 47.8464 12.0933 47.8906L12.3638 48.2275L12.3667 48.2305L12.6265 48.5391L12.6313 48.5439C12.6678 48.5856 12.7019 48.6251 12.7349 48.6631L12.8345 48.7793L12.9048 48.8584C12.9293 48.8854 12.9622 48.9218 12.9956 48.9619C13.0499 49.0271 13.0858 49.0697 13.1177 49.1016C13.1565 49.1404 13.2012 49.1881 13.2495 49.2441C13.2997 49.2943 13.3453 49.3459 13.3765 49.3818C13.4116 49.4224 13.4336 49.4478 13.4546 49.4688L13.6255 49.6445C13.6796 49.7012 13.7295 49.7534 13.7808 49.8047L14.0562 50.0801L14.0737 50.0996C14.1136 50.1439 14.1563 50.1881 14.1997 50.2314L14.3325 50.3574L14.3677 50.3926L14.5083 50.5352L14.6704 50.6855L14.688 50.7021C14.6872 50.7014 14.6898 50.7039 14.7105 50.7217C14.725 50.7341 14.7591 50.7625 14.7905 50.7939L14.8472 50.8467C14.8691 50.8664 14.8997 50.8949 14.9321 50.9268C14.9756 50.9653 15.0184 51.0036 15.0542 51.0371C15.0961 51.0764 15.1304 51.1087 15.1636 51.1377C15.2272 51.191 15.2894 51.2454 15.3472 51.2959L15.521 51.4463L15.5337 51.457L15.6655 51.5703C15.7129 51.6102 15.7672 51.6552 15.8188 51.7012C15.898 51.7716 15.9755 51.8318 16.0845 51.9189C16.134 51.9585 16.1814 51.9958 16.23 52.0342C16.2782 52.0723 16.328 52.1114 16.3804 52.1533C16.4353 52.1929 16.4854 52.2317 16.5259 52.2637L16.6499 52.3594L16.6704 52.374L17.0737 52.6787L17.48 52.9668L17.5532 53.0264L17.5337 53.0088L17.5396 53.0127L17.5581 53.0254L17.5679 53.0322L17.8345 53.2168L17.8638 53.2354L17.9985 53.3223C18.0455 53.3513 18.1037 53.3883 18.1626 53.4287C18.3173 53.5285 18.4738 53.6262 18.6304 53.7227L19.1069 54.0107L19.354 54.1592L19.8804 54.4521C20.0555 54.5472 20.2307 54.6405 20.4058 54.7305C20.4683 54.7597 20.5254 54.7892 20.5718 54.8135C20.6272 54.8425 20.6692 54.864 20.7105 54.8828C20.7762 54.9127 20.8406 54.9454 20.895 54.9727L21.0464 55.0459L21.0874 55.0674L21.2397 55.1455L21.2876 55.166L21.3862 55.2109C21.4252 55.228 21.4777 55.2513 21.5317 55.2783L21.5278 55.2842C21.525 55.2832 21.5221 55.2823 21.519 55.2812C21.5297 55.2846 21.5399 55.2889 21.5503 55.293C21.5478 55.2919 21.5452 55.2902 21.5425 55.2891C21.5381 55.2873 21.533 55.2861 21.5278 55.2842L21.5317 55.2783C21.5459 55.2854 21.5583 55.2936 21.5688 55.2998C21.5768 55.3033 21.5855 55.3047 21.5933 55.3086L21.688 55.3496C21.7234 55.3642 21.7741 55.3859 21.8267 55.4111C21.8672 55.4292 21.9121 55.448 21.9614 55.4688L22.1128 55.5332L22.1333 55.543L22.3198 55.624L22.3687 55.6455C22.374 55.6481 22.385 55.652 22.4214 55.666C22.4456 55.6753 22.4883 55.6933 22.5347 55.7148C22.6727 55.774 22.8114 55.8299 22.9497 55.8838L23.3677 56.0381L23.4019 56.0508L23.5913 56.1191C23.8858 56.2207 24.1706 56.3185 24.4624 56.4062C24.5318 56.4229 24.5996 56.4418 24.6636 56.4609L24.8608 56.5215L24.8726 56.5254L25.2124 56.627L25.1011 57.0723V57.1113L25.2231 56.627L25.6011 56.7266L25.6177 56.7305L25.8306 56.7842L26.0659 56.8428L26.0688 56.8438L26.2163 56.8789C26.2669 56.8904 26.3281 56.9041 26.3911 56.9209C26.4726 56.9366 26.5526 56.9538 26.6255 56.9697L26.856 57.0186L26.8843 57.0244L26.978 57.043C27.0148 57.0495 27.0696 57.0589 27.1255 57.0723C27.1561 57.0791 27.19 57.0848 27.2378 57.0928L27.4019 57.123L27.4048 57.124C27.4185 57.1248 27.4322 57.125 27.4458 57.127L27.5855 57.1523L27.6704 57.168L27.6812 57.1689L27.8745 57.1982C27.9328 57.2053 27.9849 57.214 28.023 57.2207L28.1235 57.2373L28.1763 57.248C28.188 57.2491 28.1998 57.2491 28.2114 57.251L28.3726 57.2744C28.4146 57.28 28.4623 57.2869 28.5122 57.2949H28.5171L28.6255 57.3066C28.685 57.3199 28.75 57.3277 28.8521 57.3379L28.8511 57.3389C28.8729 57.3402 28.8927 57.3409 28.9087 57.3428C28.935 57.3459 28.9602 57.3493 28.9751 57.3516C28.9933 57.3544 29.0014 57.3558 29.0073 57.3564H28.9966L29.0513 57.3594L29.3306 57.3896C29.4196 57.3993 29.5094 57.4092 29.5972 57.4189C29.7854 57.4346 29.8141 57.4482 29.9136 57.4482H29.9546L30.0249 57.4531L30.1792 57.4688L30.2339 57.4717C30.3353 57.4829 30.386 57.4892 30.4438 57.4893H30.4946L30.5405 57.4912L30.8521 57.5088L30.9282 57.5146L31.0698 57.5273L31.2495 57.5293L31.2681 57.5303C31.5326 57.5401 31.7888 57.54 32.0552 57.54C32.182 57.54 32.3096 57.5377 32.4429 57.5352C32.5702 57.5327 32.7029 57.5295 32.8364 57.5293C32.8941 57.5249 32.9558 57.5203 33.02 57.5166L33.2476 57.5088C33.3476 57.5005 33.435 57.499 33.5024 57.499C33.524 57.499 33.5464 57.4978 33.5864 57.4951C33.6145 57.4932 33.6538 57.4914 33.6978 57.4902L34.4468 57.4297L34.6147 57.4141C34.6707 57.409 34.7267 57.4045 34.7827 57.3994L34.7866 57.3984L34.939 57.3809C34.9903 57.374 35.0544 57.3656 35.1196 57.3594L35.2573 57.3438C35.3032 57.3387 35.3492 57.3342 35.395 57.3291L35.4009 57.3281L35.6655 57.2949C35.7077 57.2839 35.7423 57.2803 35.7622 57.2783C35.7759 57.2769 35.7894 57.2769 35.8013 57.2764C35.8548 57.2675 35.9057 57.2598 35.9487 57.2539C36.0065 57.246 36.0519 57.2393 36.0952 57.2314L36.1841 57.2236H36.2134C36.2907 57.2159 36.3721 57.2019 36.4731 57.1836C36.5098 57.173 36.5631 57.1602 36.6235 57.1553L36.8423 57.1162C36.8494 57.1138 36.8578 57.1111 36.8667 57.1084C36.8937 57.1003 36.9265 57.0931 36.9644 57.0879C37.0315 57.0729 37.0971 57.0605 37.1519 57.0498C37.2173 57.037 37.2698 57.0264 37.3169 57.0146L37.3257 57.0117C37.392 56.9964 37.4586 56.9821 37.5249 56.9668C37.5881 56.9522 37.6512 56.9374 37.7144 56.9229L37.9077 56.876C37.9719 56.8606 38.0338 56.8457 38.0923 56.8311L38.1089 56.8271C38.2515 56.7966 38.3757 56.7689 38.4976 56.7344C38.5201 56.7272 38.546 56.7198 38.563 56.7148C38.5747 56.7114 38.5856 56.7083 38.5933 56.7061C38.5968 56.705 38.5999 56.7047 38.6021 56.7041C38.6031 56.7038 38.6044 56.7033 38.605 56.7031L38.606 56.7021L39.0864 56.5654L39.3618 57.5264L38.8804 57.6631L38.8813 57.6641L38.8784 57.665C38.8766 57.6656 38.8739 57.666 38.8706 57.667C38.864 57.6689 38.8551 57.6719 38.8452 57.6748C38.8353 57.6777 38.8249 57.6809 38.8159 57.6836C38.8115 57.6849 38.8072 57.6856 38.8042 57.6865C38.803 57.6869 38.8021 57.6872 38.8013 57.6875L38.7993 57.6885C38.7926 57.6907 38.7856 57.6924 38.7788 57.6943C38.6192 57.74 38.4618 57.7729 38.3228 57.8027C38.2625 57.8177 38.2006 57.8334 38.1411 57.8477C38.0771 57.863 38.0159 57.878 37.9575 57.8926L37.9487 57.8945C37.8825 57.9098 37.8158 57.9251 37.7495 57.9404C37.6861 57.9551 37.6225 57.9688 37.5591 57.9834L37.5601 57.9844C37.485 58.0031 37.4095 58.0186 37.3452 58.0312C37.2771 58.0446 37.2199 58.0554 37.1636 58.0684C37.1563 58.07 37.1484 58.069 37.1411 58.0703L37.1274 58.0762C37.108 58.0827 37.088 58.0878 37.0679 58.0918C36.9836 58.1087 36.8674 58.1326 36.7417 58.1465L36.7397 58.1475L36.6714 58.165C36.5631 58.1847 36.4286 58.2091 36.2905 58.2217L36.2456 58.2236H36.2231C36.1725 58.2318 36.1244 58.2395 36.0835 58.2451L35.937 58.2666C35.9203 58.2696 35.9032 58.2692 35.8862 58.2705L35.8657 58.2764C35.7294 58.3011 35.594 58.3138 35.4995 58.3232L35.4985 58.3223C35.4549 58.3271 35.4113 58.333 35.3677 58.3379L35.23 58.3535L35.2202 58.3545C35.1769 58.3584 35.1323 58.364 35.0718 58.3721C35.0147 58.3797 34.9445 58.3893 34.8696 58.3955L34.8687 58.3945C34.8143 58.3995 34.76 58.4052 34.7056 58.4102L34.5366 58.4258H34.5337C34.288 58.4463 34.0316 58.4669 33.7769 58.4873C33.7639 58.4883 33.7508 58.4892 33.7378 58.4893C33.7162 58.4893 33.6937 58.4905 33.6538 58.4932C33.6176 58.4956 33.5624 58.499 33.5024 58.499L33.3032 58.5059C33.2849 58.5079 33.266 58.5088 33.2476 58.5088C33.1375 58.5088 33.0238 58.5179 32.8882 58.5283C32.8756 58.5293 32.8627 58.5293 32.8501 58.5293C32.7233 58.5293 32.5956 58.5316 32.4624 58.5342C32.3307 58.5367 32.1933 58.54 32.0552 58.54C31.7914 58.54 31.5169 58.5399 31.231 58.5293C31.1206 58.5293 30.9803 58.526 30.8325 58.5078C30.707 58.5069 30.586 58.4982 30.4849 58.4893H30.4438C30.3183 58.4892 30.2055 58.4749 30.1235 58.4658C30.0505 58.4628 29.9795 58.4558 29.9233 58.4482H29.9136C29.7686 58.4482 29.5714 58.4207 29.5151 58.416L29.5015 58.415C29.4108 58.405 29.3174 58.394 29.2231 58.3838C29.129 58.3736 29.0336 58.3638 28.9409 58.3535C28.9218 58.3522 28.9045 58.3513 28.8901 58.3496C28.8638 58.3465 28.8387 58.3421 28.8237 58.3398C28.8055 58.337 28.7974 58.3366 28.7915 58.3359C28.7862 58.3353 28.7912 58.3359 28.8022 58.3359C28.7857 58.3359 28.7689 58.3347 28.7524 58.333C28.6693 58.3247 28.5754 58.3133 28.4761 58.2949L28.3872 58.2871C28.3442 58.2793 28.2985 58.2733 28.2407 58.2656C28.1926 58.2592 28.1349 58.2509 28.0737 58.2412C28.0412 58.2388 27.9969 58.2345 27.9478 58.2207C27.9099 58.2151 27.8757 58.2108 27.8491 58.2061L27.7485 58.1904L27.7329 58.1885C27.667 58.1791 27.594 58.1669 27.5288 58.1562C27.5262 58.1559 27.5236 58.1557 27.521 58.1553C27.5198 58.1551 27.5183 58.1555 27.5171 58.1553C27.4691 58.148 27.4217 58.1393 27.3892 58.1328C27.3551 58.126 27.3326 58.122 27.3149 58.1191C27.2806 58.1169 27.2352 58.1111 27.1851 58.0986C27.1544 58.0918 27.1217 58.0871 27.0737 58.0791L26.9097 58.0488L26.897 58.0459C26.8763 58.0407 26.8508 58.0356 26.8042 58.0273C26.7644 58.0203 26.7029 58.0103 26.6421 57.9951C26.562 57.9796 26.4832 57.9629 26.4116 57.9473L26.1821 57.8994L26.1421 57.8896C26.0981 57.8777 26.0522 57.8676 25.9946 57.8545C25.9411 57.8423 25.876 57.8268 25.8091 57.8086C25.7393 57.79 25.6708 57.7739 25.5962 57.7559C25.5231 57.7382 25.443 57.7194 25.3599 57.6973C25.2433 57.6695 25.0608 57.6171 24.9888 57.5986C24.9827 57.5974 24.9762 57.5982 24.9702 57.5967C24.8309 57.5619 24.6849 57.5175 24.5562 57.4746C24.4155 57.4312 24.3212 57.3997 24.2144 57.375C24.2039 57.3726 24.1934 57.3693 24.1831 57.3662C23.8659 57.2711 23.5603 57.1659 23.2661 57.0645L23.2534 57.0605C23.2321 57.0526 23.1204 57.0125 23.0415 56.9814V56.9834C22.7327 56.8769 22.4358 56.7601 22.1411 56.6338C22.1322 56.6299 22.1235 56.6255 22.1147 56.6211C22.1095 56.6185 22.0995 56.614 22.062 56.5996C22.0415 56.5917 22.0077 56.5766 21.9692 56.5596C21.8793 56.5258 21.7971 56.4917 21.7065 56.4473L21.5737 56.3896L21.4214 56.3252L21.4009 56.3154C21.3793 56.3047 21.3534 56.2935 21.3071 56.2744C21.2775 56.2622 21.2373 56.2436 21.1938 56.2236C21.1842 56.2203 21.1745 56.2191 21.1665 56.2158C21.1227 56.198 21.0891 56.1785 21.0737 56.1689C21.072 56.1679 21.07 56.1664 21.0679 56.165C21.045 56.1541 21.0199 56.1418 20.9858 56.127C20.9468 56.1099 20.8943 56.0875 20.8403 56.0605C20.7421 56.0194 20.6579 55.9735 20.6001 55.9404C20.5458 55.915 20.4932 55.889 20.4478 55.8662C20.3903 55.8375 20.3425 55.8139 20.2964 55.793C20.2255 55.7608 20.1596 55.7263 20.1079 55.6992C20.0526 55.6703 20.0114 55.6486 19.9702 55.6299L19.9478 55.6191C19.5843 55.4322 19.2209 55.2347 18.8579 55.0273C18.7558 54.9704 18.6653 54.9136 18.5864 54.8643C18.4248 54.7682 18.2646 54.672 18.106 54.5742L17.6216 54.2695C17.6163 54.2662 17.6111 54.2624 17.606 54.2588C17.5687 54.2327 17.5274 54.2071 17.4722 54.1729C17.4284 54.1457 17.3748 54.1105 17.3198 54.0732L17.2905 54.0547C17.1784 53.9845 17.0632 53.8996 16.9946 53.8516C16.9779 53.8405 16.9471 53.8174 16.9126 53.79C16.6181 53.5899 16.3355 53.3803 16.0562 53.1631C15.9997 53.1226 15.9472 53.0816 15.9058 53.0488L15.7808 52.9541L15.7554 52.9346C15.7059 52.895 15.6584 52.8577 15.6099 52.8193C15.5617 52.7813 15.5118 52.7421 15.4595 52.7002C15.3648 52.6244 15.2589 52.5417 15.1548 52.4492C15.1148 52.4137 15.0714 52.3766 15.022 52.335C14.9745 52.295 14.9204 52.2501 14.8687 52.2041C14.8065 52.152 14.7444 52.0982 14.688 52.0488L14.5142 51.8984L14.5044 51.8906C14.4563 51.8485 14.409 51.8035 14.3696 51.7666L14.2358 51.6436C14.2211 51.6288 14.2049 51.6148 14.1782 51.5908L14.0825 51.501C14.0812 51.4998 14.0759 51.495 14.0601 51.4814C14.0481 51.4712 14.0244 51.4493 13.9985 51.4248C13.8957 51.3314 13.7675 51.2139 13.6528 51.0908C13.5989 51.042 13.5451 50.9909 13.4927 50.9385L13.3306 50.7686L13.0737 50.5117C13.0129 50.4509 12.9548 50.3904 12.9019 50.335L12.7476 50.1758C12.6972 50.1254 12.6518 50.0731 12.6206 50.0371L12.5435 49.9512C12.5304 49.9381 12.5179 49.9245 12.5063 49.9102C12.4856 49.8842 12.4643 49.8622 12.4106 49.8086C12.3406 49.7385 12.2745 49.6585 12.2271 49.6016C12.2096 49.5806 12.1909 49.5602 12.1646 49.5312C12.1401 49.5044 12.108 49.4686 12.0747 49.4287C12.0412 49.3904 12.0096 49.3536 11.979 49.3184C11.9458 49.2801 11.9132 49.2428 11.8784 49.2031C11.7791 49.0924 11.681 48.9727 11.5923 48.8643L11.2935 48.4902L11.2778 48.4678C11.2732 48.4609 11.2658 48.4515 11.2407 48.4209C11.2267 48.4038 11.2054 48.3755 11.1812 48.3428L11.0718 48.2012C11.0418 48.1603 11.0245 48.137 11.0083 48.1182C10.9633 48.0657 10.924 48.0121 10.898 47.9766C10.868 47.9357 10.8516 47.9124 10.8355 47.8936C10.8211 47.8776 10.8077 47.8626 10.7983 47.8506C10.7846 47.833 10.7725 47.8162 10.7671 47.8086C10.7611 47.8002 10.7593 47.7979 10.7593 47.7979L10.7798 47.8203C10.7631 47.8036 10.7471 47.7855 10.7329 47.7666C10.4547 47.3956 10.1805 47.0163 9.92529 46.6123C7.23049 42.5953 5.6373 37.7712 5.53076 32.5859L5.5249 32.082V32.0303ZM35.8481 58.2744C35.8517 58.2742 35.8565 58.274 35.8618 58.2734L35.8638 58.2725C35.8585 58.2726 35.8534 58.2744 35.8481 58.2744ZM37.0649 58.0791C37.081 58.0785 37.0967 58.0787 37.1118 58.0762C37.1167 58.0754 37.1212 58.0732 37.1255 58.0723C37.1053 58.0753 37.0854 58.0785 37.0649 58.0791ZM21.4741 55.2676H21.4722L21.3696 55.2559L21.4741 55.2676Z" fill="black"/>
<path d="M31.5448 40.737H32.5448V42.695H31.5448V40.737Z" fill="black"/>
<path d="M20.4822 32.0811V32.0303C20.4822 27.7451 20.9235 23.692 21.6961 20.1074L21.8748 19.3174C22.7947 15.4044 24.1348 12.072 25.7722 9.66309C27.5109 7.10541 29.6512 5.50002 32.0444 5.5C34.4374 5.5 36.578 7.10287 38.3181 9.6582C39.9568 12.0646 41.299 15.3941 42.2234 19.3066L42.4031 20.0967L42.5574 20.8379C42.8564 22.3338 43.1 23.9115 43.2771 25.5449L43.3601 26.3652L43.407 26.8633L42.4109 26.9561L42.365 26.459L42.283 25.6523C42.0801 23.7816 41.7875 21.987 41.4255 20.3096L41.2498 19.5342C40.3438 15.7005 39.0411 12.4956 37.492 10.2207C35.8317 7.7826 33.9541 6.5 32.0444 6.5C30.1351 6.50002 28.2585 7.78485 26.5994 10.2256C25.0514 12.5029 23.7509 15.71 22.8494 19.5439L22.6736 20.3184C21.9168 23.8301 21.4822 27.8121 21.4822 32.0303V32.0811C21.4822 36.2785 21.9169 40.2395 22.6736 43.7305L22.8494 44.5059C23.7554 48.3399 25.059 51.5468 26.6082 53.8242C28.2685 56.2649 30.1453 57.5496 32.0545 57.5498H32.5545V58.5498H32.0545C29.6613 58.5496 27.5208 56.9442 25.781 54.3867C24.1425 51.978 22.8001 48.6461 21.8757 44.7334L21.697 43.9434C20.9244 40.379 20.4822 36.3458 20.4822 32.0811Z" fill="black"/>
<path d="M32.0444 5.5C40.7843 5.5 48.5367 9.73072 53.368 16.2451C53.4529 16.3598 53.485 16.5048 53.4559 16.6445C53.4267 16.7843 53.3394 16.9055 53.2156 16.9766C48.3745 19.7562 40.6636 21.539 32.035 21.5391C23.4064 21.5391 15.7158 19.7663 10.8748 16.9971C10.7509 16.9262 10.663 16.8057 10.6336 16.666C10.6042 16.5263 10.6357 16.3804 10.7205 16.2656L11.1824 15.6602C16.0378 9.47046 23.5775 5.50003 32.0444 5.5ZM32.0444 6.5C23.8401 6.50003 16.5419 10.3743 11.8719 16.4053C16.5417 18.9047 23.814 20.5391 32.035 20.5391C40.256 20.539 47.5466 18.8949 52.2176 16.3857C47.5475 10.3739 40.2485 6.5 32.0444 6.5Z" fill="black"/>
<path d="M32.5546 42.5009V43.5009H32.0546C29.0269 43.5009 26.1257 43.7181 23.4325 44.124L22.2919 44.3095C18.1644 45.0323 14.5969 46.1892 11.8993 47.6347L11.9511 47.7021L11.9872 47.7499L12.0243 47.7978C12.0418 47.8191 12.0715 47.8565 12.1024 47.9003L12.3729 48.2372L12.4052 48.2802L12.4354 48.3173C12.4469 48.3307 12.4523 48.3376 12.4677 48.3554L12.5126 48.4081L12.538 48.4433L12.5673 48.4804C12.5788 48.4938 12.585 48.5006 12.6005 48.5185C12.6093 48.5287 12.6197 48.5412 12.6308 48.5546L12.7343 48.6738C12.7675 48.7121 12.8001 48.7493 12.8349 48.789C12.8838 48.8429 12.9324 48.8963 12.9813 48.9501C13.0322 49.006 13.0828 49.0622 13.1337 49.1181C13.1689 49.1533 13.2079 49.1959 13.2495 49.2441C13.2997 49.2943 13.3453 49.3459 13.3765 49.3818L13.4546 49.4688L13.4628 49.4775L14.0458 50.08L14.0634 50.0995C14.1033 50.1439 14.146 50.188 14.1893 50.2314L14.3222 50.3574L14.329 50.3642L14.7636 50.7695L14.7905 50.7939C14.8053 50.8087 14.8204 50.8226 14.8472 50.8467C14.8661 50.8637 14.8915 50.8877 14.9188 50.914L15.0536 51.038C15.0918 51.0738 15.1237 51.1038 15.1542 51.1308L15.3472 51.2959L15.521 51.4463L15.5337 51.457C15.5737 51.4926 15.6161 51.5287 15.6655 51.5703C15.7129 51.6102 15.7672 51.6552 15.8188 51.7012C15.898 51.7716 15.9755 51.8318 16.0845 51.9189C16.134 51.9585 16.1814 51.9958 16.23 52.0342C16.2756 52.0702 16.3217 52.108 16.371 52.1474C16.429 52.1888 16.4834 52.2302 16.5259 52.2637L16.6499 52.3594L16.6704 52.374L17.0737 52.6787L17.48 52.9668L17.5532 53.0264L17.5337 53.0088L17.5396 53.0127L17.5581 53.0254L17.5679 53.0322L17.8345 53.2168L17.8632 53.2363L17.9985 53.3223C18.0459 53.3516 18.1045 53.3887 18.164 53.4296L18.6304 53.7227L19.1069 54.0107L19.3485 54.1562L19.354 54.1592L19.8804 54.4521C20.055 54.5469 20.2287 54.6397 20.4032 54.7294C20.4664 54.7589 20.525 54.789 20.5718 54.8135C20.6272 54.8425 20.6692 54.864 20.7105 54.8828C20.7762 54.9127 20.8406 54.9454 20.895 54.9727L21.0464 55.0459L21.0874 55.0674L21.2397 55.1455L21.2876 55.166L21.3862 55.2109C21.4252 55.228 21.4777 55.2513 21.5317 55.2783L21.5278 55.2842C21.5233 55.2825 21.5187 55.2809 21.5136 55.2792C21.5269 55.2833 21.5396 55.2887 21.5526 55.2939C21.5494 55.2925 21.5459 55.2905 21.5425 55.2891C21.5381 55.2873 21.533 55.2861 21.5278 55.2842L21.5317 55.2783C21.5463 55.2856 21.5594 55.2934 21.5702 55.2997C21.5776 55.303 21.5861 55.305 21.5933 55.3086L21.688 55.3496C21.7234 55.3642 21.7741 55.3859 21.8267 55.4111C21.8672 55.4292 21.9121 55.448 21.9614 55.4688L22.1128 55.5332L22.1333 55.543L22.3198 55.624L22.3687 55.6455C22.3739 55.6481 22.3836 55.6526 22.4208 55.6669C22.4449 55.6762 22.4884 55.6934 22.5347 55.7148C22.6727 55.774 22.8114 55.8299 22.9497 55.8838L23.3677 56.0381L23.4019 56.0508C23.4663 56.0784 23.4662 56.0727 23.5913 56.1191C23.8854 56.2205 24.1695 56.3185 24.4608 56.4062C24.5309 56.423 24.599 56.4416 24.6636 56.4609L24.8608 56.5215L24.8726 56.5254L25.2124 56.627L25.1015 57.0683L25.1011 57.1113L25.2231 56.627L25.6011 56.7266L25.6177 56.7305L25.8306 56.7842L26.0659 56.8428L26.0688 56.8438L26.2163 56.8789C26.2599 56.8888 26.3114 56.9022 26.3651 56.916C26.4552 56.9328 26.5447 56.9531 26.6249 56.9706L26.856 57.0186L26.978 57.043C27.0148 57.0495 27.0696 57.0589 27.1255 57.0723C27.1561 57.0791 27.19 57.0848 27.2378 57.0928C27.2814 57.1 27.3411 57.1096 27.4019 57.123C27.4166 57.1238 27.4312 57.1249 27.4458 57.127L27.5855 57.1523L27.6704 57.168L27.6812 57.1689C27.7354 57.178 27.8017 57.1878 27.8745 57.1982C27.9329 57.2053 27.9843 57.2149 28.0224 57.2216L28.1235 57.2373L28.1747 57.247C28.187 57.2481 28.1992 57.2489 28.2114 57.251C28.2628 57.2595 28.3129 57.2665 28.3726 57.2744C28.4133 57.2799 28.4595 57.2872 28.5077 57.2949L28.5171 57.2949L28.6255 57.3066L28.8521 57.3379C28.8736 57.3392 28.8929 57.3409 28.9087 57.3428C28.935 57.3459 28.9602 57.3493 28.9751 57.3516C28.9933 57.3544 29.0014 57.3558 29.0073 57.3564H28.9966L29.0513 57.3594L29.3306 57.3896C29.4196 57.3993 29.5094 57.4092 29.5972 57.4189C29.7854 57.4346 29.8141 57.4482 29.9136 57.4482H29.9546L30.0249 57.4531L30.1792 57.4688L30.2339 57.4717L30.4438 57.4893H30.4946L30.5405 57.4912L30.8515 57.5097L30.9282 57.5146C30.9724 57.5214 31.018 57.5254 31.0698 57.5273L31.2495 57.5293L31.2681 57.5303L32.0552 57.54C32.182 57.54 32.3096 57.5377 32.4429 57.5352C32.5702 57.5327 32.7029 57.5295 32.8364 57.5293C32.9537 57.5203 33.0871 57.5107 33.2245 57.5097C33.3342 57.4994 33.4299 57.499 33.5024 57.499C33.524 57.499 33.5464 57.4978 33.5864 57.4951C33.6145 57.4932 33.6538 57.4914 33.6978 57.4902L34.4468 57.4297L34.6147 57.4141C34.6707 57.409 34.7267 57.4045 34.7827 57.3994L34.7866 57.3984L34.939 57.3809C34.9903 57.374 35.0544 57.3656 35.1196 57.3594L35.2573 57.3438C35.3032 57.3387 35.3492 57.3342 35.395 57.3291L35.4009 57.3281L35.6698 57.2939C35.7101 57.2837 35.7431 57.2802 35.7622 57.2783C35.7759 57.2769 35.7894 57.2769 35.8013 57.2764L36.0952 57.2314L36.1841 57.2236H36.2134C36.291 57.2159 36.3719 57.201 36.4735 57.1826C36.5102 57.172 36.5633 57.1601 36.6235 57.1553L36.8407 57.1161C36.848 57.1137 36.8574 57.1112 36.8667 57.1084C36.8937 57.1003 36.9265 57.0931 36.9644 57.0879C37.0315 57.0729 37.0971 57.0605 37.1519 57.0498C37.2173 57.037 37.2698 57.0264 37.3169 57.0146L37.3257 57.0117L37.7144 56.9229C37.7782 56.9069 37.8445 56.8912 37.9077 56.876C37.9719 56.8606 38.0338 56.8457 38.0923 56.8311L38.1089 56.8271C38.2515 56.7966 38.3757 56.7689 38.4976 56.7344C38.5201 56.7272 38.546 56.7198 38.563 56.7148C38.5747 56.7114 38.5856 56.7083 38.5933 56.7061C38.5968 56.705 38.5999 56.7047 38.6021 56.7041L38.605 56.7031L38.606 56.7021L39.0864 56.5654L39.3612 57.5273L38.8813 57.6641L38.8784 57.665C38.8784 57.665 38.8737 57.6661 38.8706 57.667C38.864 57.6689 38.8551 57.6719 38.8452 57.6748C38.8353 57.6777 38.8249 57.6809 38.8159 57.6836C38.8115 57.6849 38.8072 57.6856 38.8042 57.6865L38.8013 57.6875L38.7993 57.6885C38.7926 57.6907 38.7856 57.6924 38.7788 57.6943C38.6175 57.7404 38.4583 57.7746 38.3183 57.8046C38.2595 57.8192 38.199 57.8338 38.1411 57.8477C38.0771 57.863 38.0159 57.878 37.9575 57.8926L37.9481 57.8954C37.882 57.9107 37.8156 57.9252 37.7495 57.9404C37.6861 57.9551 37.6225 57.9688 37.5591 57.9834L37.5601 57.9844C37.485 58.0031 37.4095 58.0186 37.3452 58.0312C37.2771 58.0446 37.2199 58.0554 37.1636 58.0684C37.1563 58.07 37.1484 58.069 37.1411 58.0703L37.1274 58.0762C37.108 58.0827 37.088 58.0878 37.0679 58.0918C36.9822 58.1089 36.8634 58.1347 36.7352 58.1484C36.7143 58.1551 36.6931 58.1611 36.6714 58.165C36.5631 58.1847 36.4286 58.2091 36.2905 58.2217L36.2456 58.2236H36.2231C36.1725 58.2318 36.1244 58.2395 36.0835 58.2451L35.937 58.2666C35.9223 58.2693 35.9073 58.2681 35.8925 58.2695C35.8836 58.2716 35.8747 58.2747 35.8657 58.2764C35.7294 58.3011 35.594 58.3138 35.4995 58.3232L35.4985 58.3223C35.4549 58.3271 35.4113 58.333 35.3677 58.3379L35.23 58.3535L35.2202 58.3545C35.1769 58.3584 35.1323 58.364 35.0718 58.3721C35.0153 58.3796 34.9459 58.3882 34.872 58.3945L34.8729 58.3954C34.817 58.4005 34.7615 58.4051 34.7056 58.4102L34.5366 58.4258H34.5337L33.7769 58.4873C33.7639 58.4883 33.7508 58.4892 33.7378 58.4893C33.7162 58.4893 33.6937 58.4905 33.6538 58.4932C33.6176 58.4956 33.5624 58.499 33.5024 58.499C33.4188 58.499 33.3638 58.4991 33.3032 58.5059C33.2849 58.5079 33.266 58.5088 33.2476 58.5088C33.1375 58.5088 33.0238 58.5179 32.8882 58.5283C32.8756 58.5293 32.8627 58.5293 32.8501 58.5293C32.7232 58.5293 32.5952 58.5325 32.4618 58.5351C32.3301 58.5376 32.1933 58.54 32.0552 58.54C31.7914 58.54 31.5169 58.5399 31.231 58.5293C31.1213 58.5293 30.9815 58.5266 30.8349 58.5087C30.7043 58.5079 30.5783 58.4985 30.4745 58.4892L30.4438 58.4893C30.3183 58.4892 30.2055 58.4749 30.1235 58.4658C30.0505 58.4628 29.9795 58.4558 29.9233 58.4482H29.9136C29.7686 58.4482 29.5714 58.4207 29.5151 58.416L29.5015 58.415C29.4108 58.405 29.3174 58.394 29.2231 58.3838C29.129 58.3736 29.0336 58.3638 28.9409 58.3535C28.9218 58.3522 28.9045 58.3513 28.8901 58.3496C28.8636 58.3465 28.8381 58.3431 28.8231 58.3408C28.8049 58.338 28.7974 58.3366 28.7915 58.3359C28.7862 58.3353 28.7912 58.3359 28.8022 58.3359C28.7857 58.3359 28.7689 58.3347 28.7524 58.333C28.6688 58.3246 28.5745 58.3124 28.4745 58.2939L28.3872 58.2871C28.3442 58.2793 28.2985 58.2733 28.2407 58.2656C28.1923 58.2592 28.1338 58.25 28.0722 58.2402C28.0423 58.2379 28.0029 58.2341 27.9589 58.2226C27.9163 58.2165 27.8784 58.2112 27.8491 58.2061L27.7485 58.1904C27.7434 58.1899 27.7381 58.1892 27.7329 58.1885C27.6631 58.1785 27.5845 58.1675 27.5165 58.1562V58.1542C27.4686 58.147 27.4216 58.1393 27.3892 58.1328C27.3551 58.126 27.3326 58.122 27.3149 58.1191C27.2806 58.1169 27.2352 58.1111 27.1851 58.0986C27.1544 58.0918 27.1217 58.0871 27.0737 58.0791C27.03 58.0718 26.9706 58.0624 26.9097 58.0488L26.897 58.0459C26.8763 58.0407 26.8508 58.0356 26.8042 58.0273C26.7644 58.0203 26.7029 58.0103 26.6421 57.9951C26.562 57.9796 26.4832 57.9629 26.4116 57.9473L26.1821 57.8994L26.1421 57.8896C26.0981 57.8777 26.0522 57.8676 25.9946 57.8545C25.9411 57.8423 25.876 57.8268 25.8091 57.8086C25.7393 57.79 25.6708 57.7739 25.5962 57.7559C25.5231 57.7382 25.443 57.7194 25.3599 57.6973C25.2441 57.6697 25.0632 57.6174 24.9901 57.5986C24.9835 57.5972 24.9768 57.5983 24.9702 57.5967C24.8309 57.5619 24.6849 57.5175 24.5562 57.4746C24.4155 57.4312 24.3212 57.3997 24.2144 57.375L24.1831 57.3662C23.8659 57.2711 23.5603 57.1659 23.2661 57.0645L23.2534 57.0605C23.2321 57.0526 23.1204 57.0125 23.0415 56.9814C22.8869 56.9281 22.7357 56.8737 22.5858 56.8154L22.1411 56.6338C22.1322 56.6299 22.1235 56.6255 22.1147 56.6211C22.1095 56.6185 22.0995 56.614 22.062 56.5996C22.0415 56.5917 22.0077 56.5766 21.9692 56.5596C21.8793 56.5258 21.7971 56.4917 21.7065 56.4473L21.5731 56.3906L21.4214 56.3252L21.4009 56.3154C21.3793 56.3047 21.3534 56.2935 21.3071 56.2744C21.2775 56.2622 21.2373 56.2436 21.1938 56.2236C21.1842 56.2203 21.1745 56.2191 21.1665 56.2158C21.1227 56.198 21.0891 56.1785 21.0737 56.1689L21.0692 56.166C21.0459 56.1548 21.0201 56.1431 20.9852 56.1279C20.9462 56.1108 20.8944 56.0876 20.8403 56.0605C20.744 56.0201 20.661 55.9743 20.6034 55.9413C20.5479 55.9154 20.4935 55.8903 20.4472 55.8671C20.3896 55.8384 20.3426 55.814 20.2964 55.793C20.2255 55.7608 20.1596 55.7263 20.1079 55.6992L19.9702 55.6299L19.9478 55.6191C19.5859 55.433 19.2246 55.2366 18.8632 55.0302C18.7585 54.9721 18.6663 54.9155 18.5858 54.8652C18.424 54.7691 18.2648 54.672 18.106 54.5742L17.6216 54.2695L17.606 54.2588C17.5687 54.2327 17.5274 54.2071 17.4722 54.1729C17.4284 54.1457 17.3748 54.1105 17.3198 54.0732L17.2905 54.0547C17.1784 53.9845 17.0632 53.8996 16.9946 53.8516C16.9765 53.8396 16.9416 53.8144 16.9042 53.7841C16.6198 53.5906 16.3471 53.3882 16.077 53.1786L15.9058 53.0488L15.7808 52.9541C15.7721 52.948 15.7636 52.9412 15.7554 52.9346C15.7059 52.895 15.6584 52.8577 15.6099 52.8193C15.5617 52.7813 15.5118 52.7421 15.4595 52.7002C15.3648 52.6244 15.2589 52.5417 15.1548 52.4492C15.1148 52.4137 15.0714 52.3766 15.022 52.335C14.9781 52.298 14.9288 52.2562 14.8808 52.2138C14.8142 52.1583 14.7483 52.1016 14.688 52.0488L14.5142 51.8984L14.5044 51.8906C14.4563 51.8485 14.409 51.8035 14.3696 51.7666L14.2597 51.6669C14.2513 51.6596 14.2437 51.6514 14.2358 51.6436C14.2211 51.6288 14.2049 51.6148 14.1782 51.5908C14.154 51.569 14.1187 51.5372 14.0825 51.501C13.9324 51.3688 13.7798 51.2189 13.6532 51.1005C13.5383 50.9971 13.4237 50.8835 13.3202 50.7685C13.121 50.5687 12.9315 50.369 12.747 50.1747C12.6966 50.1243 12.6518 50.0731 12.6206 50.0371L12.5435 49.9512L12.5063 49.9102L12.4106 49.8086L12.3944 49.791C12.3435 49.7349 12.2921 49.679 12.2411 49.623C12.1903 49.5671 12.1396 49.5109 12.0888 49.455L12.0819 49.4482C12.0454 49.4064 12.0114 49.3671 11.9784 49.329L11.8778 49.2128L11.8642 49.1962C11.8506 49.1793 11.8424 49.1714 11.8085 49.1318C11.7874 49.1071 11.7605 49.0724 11.7313 49.0322C11.7178 49.0153 11.7097 49.0083 11.6757 48.9687C11.656 48.9458 11.6323 48.9135 11.6054 48.8769L11.3036 48.5009L11.288 48.4785C11.2834 48.4715 11.2762 48.4616 11.2509 48.4306C11.2369 48.4135 11.2157 48.3853 11.1913 48.3525L11.0809 48.2109L11.0184 48.1288L10.994 48.0976C10.9571 48.0468 10.9191 47.9974 10.8778 47.9433L10.7489 47.7714C10.6654 47.6565 10.6342 47.5109 10.664 47.372C10.6937 47.2331 10.7819 47.1135 10.9052 47.0429C13.7836 45.3952 17.656 44.1057 22.119 43.3242L23.2831 43.1347C26.0287 42.7209 28.98 42.5009 32.0546 42.5009H32.5546ZM35.8481 58.2744C35.8517 58.2742 35.8565 58.274 35.8618 58.2734L35.8651 58.2724C35.8593 58.2726 35.854 58.2744 35.8481 58.2744ZM37.0649 58.0791C37.081 58.0785 37.0967 58.0787 37.1118 58.0762C37.1167 58.0754 37.1212 58.0732 37.1255 58.0723C37.1053 58.0753 37.0854 58.0785 37.0649 58.0791ZM21.6044 55.3212C21.6064 55.3226 21.6083 55.3232 21.6083 55.3232C21.6083 55.3232 21.6057 55.3217 21.6034 55.3202L21.6015 55.3193L21.6044 55.3212ZM21.4755 55.2675L21.4722 55.2676L21.3696 55.2559L21.4755 55.2675Z" fill="black"/>
<path d="M35.7261 31.581V32.581H5.5249V31.581H35.7261Z" fill="black"/>
<path d="M31.545 5.50003H32.545V58.5498H31.545V5.50003Z" fill="black"/>
</svg>
