<svg width="64" height="64" viewBox="0 0 64 64" fill="none" xmlns="http://www.w3.org/2000/svg">
<path d="M17.6558 43.9396H10.9165V58.4928H17.6558V43.9396Z" fill="#FFC000"/>
<path d="M29.9286 37.4807H23.1894V58.4824H29.9286V37.4807Z" fill="#FFC000"/>
<path d="M42.2118 31.5394H35.4725V58.4824H42.2118V31.5394Z" fill="#FFC000"/>
<path d="M54.4846 25.2461H47.7454V58.4928H54.4846V25.2461Z" fill="#FFC000"/>
<path d="M18.1557 43.4396V58.9924H10.4165V43.4396H18.1557ZM11.4165 57.9924H17.1557V44.4396H11.4165V57.9924Z" fill="black"/>
<path d="M30.4286 36.9807V58.9827H22.6893V36.9807H30.4286ZM23.6893 57.9827H29.4286V37.9807H23.6893V57.9827Z" fill="black"/>
<path d="M42.7117 31.0394V58.9827H34.9725V31.0394H42.7117ZM35.9725 57.9827H41.7117V32.0394H35.9725V57.9827Z" fill="black"/>
<path d="M54.9846 24.7461V58.9932H47.2453V24.7461H54.9846ZM48.2453 57.9932H53.9846V25.7461H48.2453V57.9932Z" fill="black"/>
<path d="M49.2793 8.44409C42.3936 21.3629 32.3472 28.3111 24.0273 32.0261C19.8686 33.8831 16.1391 34.933 13.4473 35.5193C12.1011 35.8125 11.013 35.9903 10.2598 36.0945C9.88323 36.1466 9.58977 36.18 9.38965 36.2009C9.28973 36.2114 9.21253 36.2187 9.16016 36.2234C9.13428 36.2257 9.11436 36.2272 9.10059 36.2283C9.09365 36.2288 9.08777 36.229 9.08398 36.2292C9.08236 36.2294 9.08109 36.2301 9.08008 36.2302H9.07812C9.07767 36.2295 9.0763 36.2105 9.04102 35.7312C9.00747 35.2755 9.00419 35.2365 9.00391 35.2332L9.00684 35.2322C9.00939 35.232 9.01388 35.2317 9.01953 35.2312C9.0309 35.2303 9.04861 35.2294 9.07227 35.2273C9.11963 35.2231 9.19134 35.2157 9.28613 35.2058C9.47573 35.186 9.75796 35.1538 10.123 35.1033C10.8533 35.0022 11.9156 34.829 13.2344 34.5417C15.8725 33.9671 19.5344 32.9369 23.6191 31.113C31.7867 27.466 41.6388 20.652 48.3965 7.97339L49.2793 8.44409Z" fill="black"/>
<path d="M45 6.84244L51.5847 11.4382L51.1622 5L45 6.84244Z" fill="black"/>
</svg>
