<svg width="64" height="64" viewBox="0 0 64 64" fill="none" xmlns="http://www.w3.org/2000/svg">
<path d="M16.3599 44.62H9.81991V58.68H16.3599V44.62Z" fill="#FFC000"/>
<path fill-rule="evenodd" clip-rule="evenodd" d="M9.31991 44.12H16.8599V59.18H9.31991V44.12ZM10.3199 45.12V58.18H15.8599V45.12H10.3199Z" fill="black"/>
<path d="M28.2701 38.38H21.7301V58.67H28.2701V38.38Z" fill="#FFC000"/>
<path fill-rule="evenodd" clip-rule="evenodd" d="M21.2301 37.88H28.7701V59.17H21.2301V37.88ZM22.2301 38.88V58.17H27.7701V38.88H22.2301Z" fill="black"/>
<path d="M40.19 32.64H33.65V58.67H40.19V32.64Z" fill="#FFC000"/>
<path fill-rule="evenodd" clip-rule="evenodd" d="M33.15 32.14H40.69V59.17H33.15V32.14ZM34.15 33.14V58.17H39.69V33.14H34.15Z" fill="black"/>
<path d="M52.1001 26.5601H45.5601V58.6801H52.1001V26.5601Z" fill="#FFC000"/>
<path fill-rule="evenodd" clip-rule="evenodd" d="M45.0601 26.0601H52.6001V59.1801H45.0601V26.0601ZM46.0601 27.0601V58.1801H51.6001V27.0601H46.0601Z" fill="black"/>
<path fill-rule="evenodd" clip-rule="evenodd" d="M8.03738 37.1886C8.03696 37.1886 8.03663 37.1886 8.00009 36.69C7.96354 36.1913 7.96341 36.1913 7.96338 36.1913L7.96635 36.1911L7.97832 36.1902L8.02934 36.1858C8.07524 36.1818 8.14472 36.1753 8.23665 36.1657C8.4205 36.1466 8.69409 36.1152 9.04826 36.0664C9.75667 35.9688 10.7871 35.8017 12.0666 35.5243C14.6262 34.9693 18.1789 33.9736 22.142 32.2118C30.0661 28.6893 39.6237 22.1087 46.1793 9.86398L47.0609 10.336C40.3765 22.8212 30.624 29.5356 22.5482 33.1256C18.5113 34.9201 14.8915 35.935 12.2785 36.5016C10.9718 36.7849 9.91601 36.9563 9.18473 37.0571C8.81906 37.1074 8.53444 37.1402 8.34005 37.1604C8.24285 37.1705 8.16821 37.1775 8.11726 37.1819L8.05875 37.1869L8.04309 37.1881L8.0387 37.1885L8.03738 37.1886Z" fill="black"/>
<path d="M42.3702 8.78L48.7602 13.22L48.3502 7L42.3702 8.78Z" fill="black"/>
</svg>
