<svg width="64" height="64" viewBox="0 0 64 64" fill="none" xmlns="http://www.w3.org/2000/svg">
<g clip-path="url(#clip0_2488_206)">
<path d="M35.8058 23.0671L31.9771 34.6238L32.9673 34.9519L36.796 23.3952L35.8058 23.0671Z" fill="black"/>
<path d="M32.5052 57C18.9955 57 8 46.0149 8 32.5052C8 18.9955 18.9955 8 32.5052 8C46.0149 8 57.0104 18.9955 57.0104 32.5052C57.0104 46.0149 46.0149 57.0104 32.5052 57.0104V57ZM32.5052 9.04322C19.5693 9.04322 9.04322 19.5693 9.04322 32.5052C9.04322 45.4411 19.5693 55.9672 32.5052 55.9672C45.4411 55.9672 55.9672 45.4411 55.9672 32.5052C55.9672 19.5693 45.4411 9.04322 32.5052 9.04322Z" fill="black"/>
<path d="M48.5291 44.1057L45.316 42.0923L45.8689 41.2055L48.237 42.6869C50.2609 39.6199 51.325 36.0625 51.325 32.3591C51.325 21.979 42.8853 13.5394 32.5053 13.5394C22.1253 13.5394 13.6856 21.9895 13.6856 32.3591C13.6856 36.0625 14.7497 39.6303 16.784 42.6974L19.3503 41.2055L19.8719 42.1132L16.471 44.0953L16.1998 43.6988C13.8734 40.3605 12.6528 36.438 12.6528 32.3591C12.6424 21.4157 21.5515 12.5066 32.5053 12.5066C43.4591 12.5066 52.3682 21.4157 52.3682 32.3695C52.3682 36.4485 51.1372 40.371 48.8212 43.7093L48.5396 44.1161L48.5291 44.1057Z" fill="black"/>
<path d="M19.5381 32.7137H13.5187V33.757H19.5381V32.7137Z" fill="black"/>
<path d="M33.0269 12.7778H31.9837V18.7972H33.0269V12.7778Z" fill="black"/>
<path d="M18.8421 18.8515L18.1044 19.5891L22.3608 23.8455L23.0984 23.1078L18.8421 18.8515Z" fill="black"/>
<path d="M46.2607 18.8443L42.0044 23.1006L42.742 23.8383L46.9984 19.582L46.2607 18.8443Z" fill="black"/>
<path d="M52.0657 32.7137H46.0463V33.757H52.0657V32.7137Z" fill="black"/>
<path d="M32.505 38.1909C34.7808 38.1909 36.6257 36.346 36.6257 34.0702C36.6257 31.7944 34.7808 29.9495 32.505 29.9495C30.2292 29.9495 28.3843 31.7944 28.3843 34.0702C28.3843 36.346 30.2292 38.1909 32.505 38.1909Z" fill="#FFC000"/>
<path d="M32.5051 38.7124C29.9492 38.7124 27.8628 36.6259 27.8628 34.0701C27.8628 31.5142 29.9492 29.4277 32.5051 29.4277C35.061 29.4277 37.1474 31.5142 37.1474 34.0701C37.1474 36.6259 35.061 38.7124 32.5051 38.7124ZM32.5051 30.4814C30.523 30.4814 28.906 32.0984 28.906 34.0805C28.906 36.0626 30.523 37.6796 32.5051 37.6796C34.4872 37.6796 36.1042 36.0626 36.1042 34.0805C36.1042 32.0984 34.4872 30.4814 32.5051 30.4814Z" fill="black"/>
</g>
<defs>
<clipPath id="clip0_2488_206">
<rect width="49" height="49" fill="white" transform="translate(8 8)"/>
</clipPath>
</defs>
</svg>
