<svg width="64" height="64" viewBox="0 0 64 64" fill="none" xmlns="http://www.w3.org/2000/svg">
<g clip-path="url(#clip0_461_126)">
<path d="M58.6032 29.6886L47.9336 13.8345L40.691 18.7086L51.3606 34.5627L58.6032 29.6886Z" fill="#FFC000"/>
<path fill-rule="evenodd" clip-rule="evenodd" d="M48.0693 13.1405L59.2972 29.8242L51.225 35.2567L39.9971 18.573L48.0693 13.1405ZM47.798 14.5285L41.3851 18.8443L51.4963 33.8688L57.9093 29.5529L47.798 14.5285Z" fill="black"/>
<path d="M12.0687 35.013L22.7383 19.1589L15.4957 14.2848L4.82609 30.1389L12.0687 35.013Z" fill="#FFC000"/>
<path fill-rule="evenodd" clip-rule="evenodd" d="M23.4321 19.0233L12.2042 35.707L4.13199 30.2745L15.3599 13.5908L23.4321 19.0233ZM22.0442 19.2946L15.6312 14.9788L5.51994 30.0032L11.9329 34.3191L22.0442 19.2946Z" fill="black"/>
<path fill-rule="evenodd" clip-rule="evenodd" d="M50.974 34.0506L48.974 35.2306L48.4658 34.3693L50.4658 33.1893L50.974 34.0506Z" fill="black"/>
<path fill-rule="evenodd" clip-rule="evenodd" d="M18.3282 41.3233C17.6326 41.9701 17.593 43.0585 18.2399 43.7541L18.2467 43.7614C18.8936 44.4571 19.9819 44.4966 20.6776 43.8497L25.5987 39.2735C26.2943 38.6267 26.3338 37.5383 25.687 36.8427L25.6801 36.8354C25.0333 36.1397 23.9449 36.1002 23.2493 36.7471L18.3282 41.3233ZM17.5076 44.4351C16.4846 43.335 16.5472 41.6139 17.6472 40.5909L22.5683 36.0148C23.6684 34.9918 25.3895 35.0543 26.4124 36.1544L26.4193 36.1617C27.4422 37.2618 27.3797 38.9829 26.2796 40.0058L21.3586 44.582C20.2585 45.605 18.5374 45.5425 17.5144 44.4424L17.5076 44.4351Z" fill="black"/>
<path fill-rule="evenodd" clip-rule="evenodd" d="M15.592 37.8293C14.8964 38.4762 14.8569 39.5645 15.5037 40.2601L15.5105 40.2674C16.1574 40.9631 17.2458 41.0026 17.9414 40.3557L20.8486 37.6522C21.5443 37.0054 21.5838 35.917 20.9369 35.2214L20.9301 35.2141C20.2832 34.5184 19.1949 34.4789 18.4993 35.1258L15.592 37.8293ZM14.7714 40.9411C13.7485 39.841 13.811 38.1199 14.911 37.097L17.8183 34.3935C18.9184 33.3705 20.6394 33.433 21.6624 34.5331L21.6692 34.5404C22.6922 35.6405 22.6297 37.3616 21.5296 38.3846L18.6224 41.088C17.5223 42.111 15.8012 42.0485 14.7782 40.9484L14.7714 40.9411Z" fill="black"/>
<path fill-rule="evenodd" clip-rule="evenodd" d="M27.6302 45.4585C26.9345 46.1053 26.895 47.1937 27.5419 47.8893L27.5487 47.8966C28.1956 48.5923 29.2839 48.6318 29.9796 47.9849L32.2717 45.8535C32.9673 45.2066 33.0068 44.1182 32.36 43.4226L32.3531 43.4153C31.7063 42.7196 30.6179 42.6801 29.9223 43.327L27.6302 45.4585ZM26.8096 48.5703C25.7866 47.4702 25.8491 45.7491 26.9492 44.7262L29.2413 42.5947C30.3414 41.5717 32.0625 41.6342 33.0855 42.7343L33.0923 42.7416C34.1152 43.8417 34.0527 45.5628 32.9526 46.5858L30.6605 48.7172C29.5605 49.7402 27.8394 49.6777 26.8164 48.5776L26.8096 48.5703Z" fill="black"/>
<path fill-rule="evenodd" clip-rule="evenodd" d="M22.635 43.4709C21.9394 44.1177 21.8998 45.2061 22.5467 45.9017L22.5535 45.909C23.2004 46.6047 24.2887 46.6442 24.9844 45.9973L29.7151 41.5982C30.4107 40.9513 30.4502 39.863 29.8033 39.1674L29.7965 39.16C29.1496 38.4644 28.0613 38.4249 27.3657 39.0717L22.635 43.4709ZM21.8144 46.5827C20.7914 45.4826 20.8539 43.7615 21.954 42.7385L26.6847 38.3394C27.7848 37.3165 29.5059 37.379 30.5288 38.4791L30.5356 38.4864C31.5586 39.5865 31.4961 41.3075 30.396 42.3305L25.6653 46.7296C24.5653 47.7526 22.8442 47.6901 21.8212 46.59L21.8144 46.5827Z" fill="black"/>
<path fill-rule="evenodd" clip-rule="evenodd" d="M30.4252 20.4212L30.428 20.4198C30.4358 20.4159 30.4484 20.4097 30.4655 20.4014C30.4997 20.3848 30.5522 20.3598 30.6221 20.3282C30.7618 20.2649 30.9705 20.1749 31.2403 20.0712C31.7801 19.8638 32.5623 19.6027 33.5232 19.3921C35.4469 18.9704 38.0692 18.7547 40.8926 19.5607L41.1671 18.5992C38.1405 17.7352 35.3428 17.9695 33.309 18.4153C32.2911 18.6384 31.4602 18.9155 30.8816 19.1377C30.5922 19.249 30.3654 19.3466 30.2093 19.4174C30.1313 19.4527 30.0709 19.4814 30.0292 19.5016C30.0083 19.5117 29.9921 19.5197 29.9807 19.5254L29.9672 19.5323L29.9631 19.5343L29.9618 19.535C29.9618 19.535 29.9609 19.5354 30.1898 19.98L29.9618 19.535L29.9529 19.5396L26.9237 21.2404L22.5627 23.9973C20.8307 25.0942 20.3089 27.3829 21.4074 29.1175C22.5044 30.8495 24.7928 31.3709 26.5274 30.2724L30.877 27.5226L34.3456 25.2412L45.9092 33.0838L46.4705 32.2561L34.3541 24.0387L30.3389 26.6797L25.9927 29.4273C24.7273 30.2287 23.0553 29.8504 22.2523 28.5824C21.4508 27.317 21.8294 25.6454 23.0974 24.8424L27.436 22.0996L30.4252 20.4212Z" fill="black"/>
<path fill-rule="evenodd" clip-rule="evenodd" d="M40.6644 34.472L45.7664 37.8234C47.1533 38.744 47.5506 40.6123 46.6275 42.0148L46.6264 42.0165C45.7058 43.4034 43.8375 43.8007 42.435 42.8776L37.3353 39.5279L37.8844 38.692L42.9844 42.042C43.9215 42.6588 45.1731 42.3967 45.7927 41.4643C46.4088 40.5273 46.1464 39.2766 45.2143 38.6572L45.2133 38.6565L40.1153 35.3079L40.6644 34.472Z" fill="black"/>
<path fill-rule="evenodd" clip-rule="evenodd" d="M45.4137 31.5617L48.2264 33.4034C49.6133 34.324 50.0106 36.1923 49.0875 37.5948L49.0864 37.5965C48.1659 38.9832 46.298 39.3806 44.8955 38.458L42.0859 36.6183L42.6338 35.7817L45.4437 37.6217L45.4447 37.6223C46.3819 38.239 47.6331 37.9767 48.2527 37.0443C48.8687 36.1073 48.6064 34.8568 47.6746 34.2373L44.8659 32.3983L45.4137 31.5617Z" fill="black"/>
<path fill-rule="evenodd" clip-rule="evenodd" d="M34.4747 43.1522L36.5864 44.5334C37.9733 45.454 38.3706 47.3223 37.4475 48.7248L37.4464 48.7265C36.5258 50.1134 34.6575 50.5107 33.255 49.5876L31.0547 48.1374L31.605 47.3025L33.8047 48.7523C34.7418 49.3688 35.9932 49.1066 36.6127 48.1743C37.2287 47.2374 36.9664 45.987 36.0347 45.3674L33.925 43.9877C33.6417 43.8013 33.2251 43.6952 32.8542 43.6687L32.9255 42.6712C33.3944 42.7047 33.9981 42.8389 34.4747 43.1522Z" fill="black"/>
<path fill-rule="evenodd" clip-rule="evenodd" d="M36.6542 37.962L41.5464 41.1734C42.9333 42.094 43.3306 43.9623 42.4075 45.3648L42.4064 45.3665C41.4904 46.7464 39.6363 47.1467 38.2361 46.2414L33.6866 43.8422L34.1531 42.9577L38.7445 45.379L38.7647 45.3923C39.7019 46.009 40.9531 45.7467 41.5727 44.8143C42.1887 43.8773 41.9264 42.6267 40.9943 42.0072L40.9933 42.0065L36.1055 38.7979L36.6542 37.962Z" fill="black"/>
<path fill-rule="evenodd" clip-rule="evenodd" d="M22.5252 20.0387L22.4898 19.54C22.4545 19.0412 22.4546 19.0412 22.4546 19.0412L22.4743 19.0398L22.5301 19.0361C22.5788 19.0328 22.6502 19.0282 22.7414 19.0226C22.9239 19.0115 23.186 18.9964 23.5055 18.9809C24.1441 18.9497 25.0141 18.9163 25.9376 18.9075C26.8594 18.8987 27.8428 18.9142 28.7055 18.9824C29.5449 19.0488 30.3459 19.1694 30.8525 19.4074L30.4272 20.3125C30.1038 20.1605 29.4711 20.0461 28.6267 19.9793C27.8057 19.9144 26.8553 19.8987 25.9471 19.9074C25.0406 19.9161 24.1844 19.9489 23.5542 19.9797C23.2393 19.995 22.9814 20.0098 22.8025 20.0208C22.713 20.0262 22.6434 20.0308 22.5962 20.0339L22.5428 20.0375L22.5252 20.0387Z" fill="black"/>
<path fill-rule="evenodd" clip-rule="evenodd" d="M15.8872 37.0291L12.3672 34.7391L12.9125 33.9008L16.4325 36.1908L15.8872 37.0291Z" fill="black"/>
</g>
<defs>
<clipPath id="clip0_461_126">
<rect width="55.43" height="37.18" fill="white" transform="translate(4 13)"/>
</clipPath>
</defs>
</svg>
