<svg width="64" height="64" viewBox="0 0 64 64" fill="none" xmlns="http://www.w3.org/2000/svg">
<path fill-rule="evenodd" clip-rule="evenodd" d="M53.4483 15.0001H9.29883V44.4642H53.4483V15.0001ZM8.29883 14.0001V45.4642H54.4483V14.0001H8.29883Z" fill="black"/>
<path fill-rule="evenodd" clip-rule="evenodd" d="M59 46.1794H4C4 46.5238 4.04056 46.8586 4.11715 47.1794C4.56771 49.0667 6.26526 50.47 8.29056 50.47H54.7094C56.7347 50.47 58.4323 49.0667 58.8828 47.1794C58.9594 46.8586 59 46.5238 59 46.1794ZM57.8453 47.1794H5.1547C5.57795 48.5078 6.82189 49.47 8.29056 49.47H54.7094C56.1781 49.47 57.4221 48.5078 57.8453 47.1794Z" fill="black"/>
<path d="M11.165 17.2419H51.2876V43.176H11.165V17.2419Z" fill="#FFC000"/>
<path fill-rule="evenodd" clip-rule="evenodd" d="M50.2876 18.2419H12.165V42.176H50.2876V18.2419ZM11.165 17.2419V43.176H51.2876V17.2419H11.165Z" fill="black"/>
</svg>
