<svg width="64" height="64" viewBox="0 0 64 64" fill="none" xmlns="http://www.w3.org/2000/svg">
<path fill-rule="evenodd" clip-rule="evenodd" d="M16 21.6315C16 12.4553 23.0334 5 31.7231 5H32.2769C40.9666 5 48 12.4553 48 21.6315C48 25.7172 46.0596 29.191 43.6382 31.8613C41.6541 34.0473 40.6097 36.5834 40.0623 38.5845C39.789 39.5835 39.641 40.444 39.5615 41.0523C39.5217 41.3563 39.4992 41.5969 39.4866 41.7596C39.4803 41.841 39.4765 41.9029 39.4743 41.9435L39.4721 41.9883L39.4717 41.9982L39.4717 42C39.4717 41.9999 39.4717 41.9997 38.972 41.9823C38.4722 41.9649 38.4722 41.9647 38.4722 41.9645L38.4723 41.9624L38.4725 41.9577L38.4731 41.9419C38.4737 41.9286 38.4746 41.9096 38.4759 41.8852C38.4785 41.8365 38.4828 41.7662 38.4898 41.676C38.5037 41.4958 38.5282 41.2362 38.5706 40.9118C38.6554 40.2632 38.8122 39.3534 39.1006 38.299C39.6766 36.1934 40.7838 33.49 42.9114 31.1458C45.2303 28.5885 47 25.3579 47 21.6315C47 13.0151 40.3996 6.04175 32.2769 6.04175H31.7231C23.6004 6.04175 17 13.0151 17 21.6315C17 25.358 18.7698 28.5886 21.0887 31.1459C23.2162 33.4915 24.3234 36.1948 24.8994 38.3001C25.1878 39.3543 25.3446 40.2639 25.4294 40.9122C25.4718 41.2365 25.4963 41.496 25.5102 41.6761C25.5172 41.7662 25.5215 41.8365 25.5241 41.8853C25.5254 41.9096 25.5263 41.9286 25.5269 41.9419L25.5275 41.9577L25.5277 41.9624L25.5277 41.9639C25.5277 41.9641 25.5278 41.9649 25.028 41.9823C24.5283 41.9997 24.5283 41.9999 24.5283 42L24.5283 41.9982L24.5279 41.9883L24.5257 41.9436C24.5235 41.903 24.5197 41.8411 24.5134 41.7598C24.5008 41.5971 24.4783 41.3567 24.4385 41.0528C24.359 40.4446 24.211 39.5845 23.9377 38.5857C23.3903 36.5849 22.346 34.0489 20.3618 31.8614C17.9405 29.1911 16 25.7172 16 21.6315Z" fill="black"/>
<path fill-rule="evenodd" clip-rule="evenodd" d="M20 18.7032C21.2014 15.1437 24.0567 12.3051 27.6873 11L28 11.8724C24.6223 13.0866 21.9835 15.7215 20.8769 19L20 18.7032Z" fill="black"/>
<path d="M32.0462 57.9984C32.0462 57.9984 33.2159 58.0607 34.019 57.4011C34.8221 56.7414 35.3314 55.8015 35.3314 55.8015L39 54.383V46H25V54.383L28.9484 55.8015C28.9484 55.8015 29.4549 56.7442 30.2608 57.4011C31.0668 58.0579 32.0434 57.9984 32.0434 57.9984H32.0462Z" fill="#FFC000"/>
<path fill-rule="evenodd" clip-rule="evenodd" d="M24 45H40V54.923L35.9149 56.52C35.9096 56.5289 35.904 56.5381 35.8983 56.5476C35.8285 56.6627 35.7268 56.8227 35.5968 57.006C35.339 57.3694 34.9587 57.8404 34.4826 58.2358C33.9585 58.6711 33.3339 58.8553 32.8685 58.9355C32.6318 58.9762 32.4256 58.9918 32.2772 58.9973C32.2028 59.0001 32.1422 59.0003 32.0988 58.9998C32.0782 58.9995 32.0614 58.9991 32.0488 58.9987C32.0374 58.9991 32.0231 58.9994 32.006 58.9996C31.9668 59.0001 31.9129 58.9997 31.8467 58.9967C31.7147 58.9907 31.5318 58.9741 31.3186 58.9321C30.8948 58.8486 30.3326 58.6606 29.8186 58.237C29.34 57.8426 28.9592 57.3708 28.7016 57.0067C28.5715 56.8229 28.47 56.6625 28.4004 56.5469C28.3961 56.5397 28.3918 56.5326 28.3877 56.5257L24 54.932V45ZM29.1722 55.884L29.1755 55.89L29.191 55.918C29.2054 55.9435 29.2275 55.982 29.2571 56.031C29.3162 56.1292 29.4043 56.2686 29.5179 56.4291C29.7474 56.7535 30.0697 57.1481 30.4546 57.4653C30.8041 57.7533 31.1968 57.8889 31.5121 57.951C31.6684 57.9818 31.801 57.9936 31.8922 57.9978C31.9376 57.9998 31.9722 58 31.9937 57.9997C32.0044 57.9996 32.0118 57.9993 32.0156 57.9992L32.0179 57.9991L32.0311 57.9983H32.0629L32.0749 57.9989C32.0745 57.9989 32.0747 57.9989 32.0749 57.9989L32.0761 57.999L32.0808 57.9992C32.0867 57.9994 32.097 57.9997 32.1112 57.9998C32.1397 58.0002 32.1838 58.0001 32.2403 57.998C32.3537 57.9938 32.5146 57.9817 32.6988 57.95C33.0752 57.8852 33.5074 57.7459 33.8438 57.4665C34.2282 57.1472 34.551 56.7518 34.7812 56.4274C34.8951 56.2669 34.9836 56.1275 35.043 56.0294C35.0727 55.9804 35.095 55.942 35.1094 55.9165L35.1251 55.8885L35.1284 55.8825L35.1289 55.8815L35.2157 55.7197L39 54.2402V46H25V54.2313L29.0818 55.7139L29.1722 55.884Z" fill="black"/>
</svg>
