<svg width="64" height="64" viewBox="0 0 64 64" fill="none" xmlns="http://www.w3.org/2000/svg">
<path d="M39.7214 42.1778L32.9723 50.015L32.1221 49.9743L27.9027 45.3331L25.4571 42.127C19.8731 43.4705 16 46.361 16 49.7198C16 54.3611 23.3893 58.127 32.5 58.127C41.6107 58.127 49 54.3611 49 49.7198C49 46.4018 45.2109 43.5315 39.7214 42.1677V42.1778Z" fill="#FFC000"/>
<path d="M39.0126 22.3966C39.0126 21.1437 38.6499 19.9655 38.037 18.9679C37.9428 18.8171 37.8372 18.6643 37.7314 18.5196L37.5009 18.2267C36.3068 16.7936 34.5099 15.8772 32.495 15.8771C30.345 15.8771 28.4439 16.9091 27.2587 18.5167L27.2597 18.5177C27.2075 18.589 27.1566 18.6601 27.1073 18.7335L26.9608 18.961C26.3397 19.9567 25.9872 21.0611 25.9872 22.3966C25.9872 23.7264 26.3881 24.9607 27.0673 25.9962L27.2958 26.3194C28.4853 27.9007 30.3736 28.9268 32.5048 28.9269C34.7777 28.9269 36.775 27.7603 37.9423 25.9874L38.0653 25.7911C38.6675 24.7986 39.0126 23.6362 39.0126 22.3966ZM40.0126 22.3966C40.0126 23.9191 39.5607 25.3438 38.7782 26.5362L38.7773 26.5372C37.4337 28.5778 35.1296 29.9269 32.5048 29.9269C29.8801 29.9268 27.5768 28.5777 26.2333 26.5479L26.2323 26.547C25.4509 25.3563 24.9872 23.9316 24.9872 22.3966C24.9872 20.8668 25.3959 19.5799 26.1122 18.4317L26.2773 18.1769C26.3334 18.0931 26.3911 18.0101 26.4521 17.9269L26.453 17.9249L26.7187 17.5851C28.0951 15.9255 30.1703 14.8771 32.495 14.8771C34.8208 14.8772 36.8941 15.9358 38.2694 17.586L38.5351 17.9239L38.537 17.9269L38.7148 18.1788L38.8866 18.4415L38.8886 18.4444L39.0175 18.6622C39.6438 19.7612 40.0126 21.0394 40.0126 22.3966Z" fill="black"/>
<path d="M48.4995 22.3962C48.4993 13.5393 41.3243 6.36304 32.4946 6.36304C23.6654 6.3631 16.4997 13.5392 16.4897 22.3972C16.4899 25.3656 17.4883 28.5481 19.0181 31.6746C20.5458 34.7968 22.5874 37.8316 24.6382 40.4949C26.6878 43.1567 28.7389 45.438 30.2778 47.0544C31.047 47.8623 31.6876 48.5037 32.1353 48.9421C32.2738 49.0779 32.395 49.193 32.4946 49.2888C32.5943 49.193 32.7154 49.0779 32.854 48.9421C33.3017 48.5037 33.9422 47.8624 34.7114 47.0544C36.2503 45.4381 38.3014 43.1567 40.3511 40.4949C42.4019 37.8315 44.4445 34.7968 45.9722 31.6746C47.502 28.5479 48.4995 25.3647 48.4995 22.3962ZM49.4995 22.3962C49.4995 25.5763 48.4344 28.9159 46.8696 32.114C45.3027 35.3165 43.2185 38.4098 41.1431 41.1052C39.0667 43.8017 36.9917 46.1099 35.436 47.7439C34.6581 48.561 34.0091 49.2104 33.5542 49.656C33.3268 49.8787 33.1475 50.0512 33.0249 50.1677C32.9636 50.226 32.9163 50.2705 32.8843 50.3005C32.8683 50.3156 32.8555 50.327 32.8472 50.3347L32.8354 50.3464C32.6676 50.5019 32.4187 50.5218 32.231 50.405L32.1548 50.3464L32.1519 50.3435C32.1497 50.3415 32.1462 50.3385 32.1421 50.3347C32.1338 50.327 32.121 50.3156 32.105 50.3005C32.073 50.2705 32.0255 50.2259 31.9644 50.1677C31.8418 50.0512 31.6634 49.8787 31.436 49.656C30.9811 49.2104 30.3323 48.5612 29.5542 47.7439C27.9985 46.1099 25.9227 43.8019 23.8462 41.1052C21.7707 38.4098 19.6866 35.3165 18.1196 32.114C16.5548 28.916 15.4897 25.5762 15.4897 22.3962L15.4956 21.9568C15.7382 12.7526 23.2574 5.3631 32.4946 5.36304C41.8778 5.36304 49.4993 12.9882 49.4995 22.3962Z" fill="black"/>
<path d="M15.4998 49.7402C15.4999 48.1962 16.2327 46.7774 17.449 45.5674C18.6633 44.3595 20.3807 43.3349 22.4255 42.5557L22.4412 42.5508L25.0437 41.6543L25.1423 41.6309C25.3728 41.6009 25.6007 41.7356 25.6794 41.9639C25.7694 42.225 25.63 42.5097 25.3689 42.5996L22.7722 43.4932C20.8202 44.2381 19.2396 45.1965 18.1541 46.2764C17.0689 47.356 16.4999 48.5338 16.4998 49.7402C16.4998 51.7657 18.131 53.7326 21.0623 55.2227C23.9656 56.6985 28.01 57.627 32.4998 57.627C36.9895 57.627 41.0339 56.6985 43.9373 55.2227C46.8685 53.7326 48.4998 51.7657 48.4998 49.7402C48.4996 48.5392 47.9311 47.3615 46.8455 46.2803C45.7608 45.2001 44.1821 44.2406 42.2332 43.4961L39.6453 42.6973L39.5525 42.6582C39.3484 42.5465 39.244 42.3032 39.3152 42.0723C39.3865 41.8413 39.61 41.6989 39.8416 41.7217L39.9402 41.7422L42.5427 42.5459L42.574 42.5557L42.9529 42.7051C44.8317 43.4646 46.4131 44.4385 47.5515 45.5723C48.7671 46.7831 49.4996 48.2013 49.4998 49.7402C49.4998 52.3406 47.433 54.5676 44.3904 56.1143C41.3197 57.6751 37.1138 58.627 32.4998 58.627C27.8857 58.627 23.6798 57.6751 20.6091 56.1143C17.5665 54.5676 15.4998 52.3406 15.4998 49.7402Z" fill="black"/>
<path d="M24.4998 49.9053C24.4998 49.016 25.1177 48.2602 25.9587 47.709L26.0486 47.6621C26.2645 47.5765 26.5177 47.6509 26.6501 47.8526C26.8015 48.0834 26.7374 48.3935 26.5066 48.5449L26.2556 48.7236C25.718 49.1399 25.4998 49.5592 25.4998 49.9053C25.4998 50.1731 25.6214 50.4683 25.9226 50.7813C26.2262 51.0967 26.69 51.4049 27.3025 51.6777C28.5261 52.2228 30.2542 52.5861 32.197 52.627H32.8044C34.7521 52.5906 36.4792 52.2275 37.7009 51.6817C38.3125 51.4084 38.7751 51.0992 39.0779 50.7832C39.3784 50.4696 39.4998 50.1738 39.4998 49.9053C39.4997 49.5504 39.2807 49.1302 38.7458 48.7217L38.4968 48.5479L38.4177 48.4844C38.2512 48.3219 38.2158 48.0597 38.3464 47.8565C38.4771 47.6534 38.7303 47.5764 38.947 47.6602L39.0378 47.7061L39.3435 47.9199C40.0281 48.4417 40.4997 49.1196 40.4998 49.9053C40.4998 50.5027 40.2223 51.0334 39.7996 51.4746C39.3791 51.9134 38.7938 52.2874 38.1082 52.5938C36.8214 53.1686 35.1013 53.5396 33.2048 53.6152L32.823 53.627H32.1755C30.1346 53.584 28.2688 53.2027 26.8953 52.5908C26.2094 52.2853 25.6232 51.9124 25.2019 51.4746C24.7782 51.0343 24.4998 50.5034 24.4998 49.9053Z" fill="black"/>
</svg>
