<svg width="64" height="64" viewBox="0 0 64 64" fill="none" xmlns="http://www.w3.org/2000/svg">
<g clip-path="url(#clip0_5_160)">
<path d="M40.03 49.38H24.59C24.44 49.38 24.29 49.31 24.2 49.19C24.1 49.07 24.07 48.91 24.11 48.77L26.65 37.99L14.32 25.66C12.56 23.9 12.56 21.03 14.32 19.26C14.96 18.62 15.77 18.19 16.68 18.03L27.45 7.26C28.27 6.45 29.35 6 30.5 6C31.65 6 32.74 6.45 33.55 7.26C34.36 8.07 34.81 9.18 34.8 10.32L40.09 14.89H47.36C47.59 14.89 47.8 15.05 47.85 15.28L50.09 25.18C50.14 25.41 50.02 25.65 49.8 25.75L48.82 26.18C48.6 26.28 48.34 26.2 48.21 26.01L44.18 20.2H41.46C41.29 20.57 41.06 20.91 40.77 21.2C40.42 21.55 40 21.81 39.54 21.98V24.74L45.36 28.77C45.56 28.91 45.63 29.16 45.53 29.38L45.1 30.36C45 30.58 44.77 30.7 44.53 30.65L34.58 28.4C34.33 28.34 34.16 28.11 34.19 27.85L35.01 21.06L30.77 16.16L24.19 22.74L33.86 32.41H36.25C36.48 32.41 36.68 32.57 36.74 32.8L40.51 48.77C40.55 48.92 40.51 49.08 40.42 49.19C40.33 49.31 40.18 49.38 40.03 49.38ZM25.22 48.38H39.39L35.85 33.41H33.65C33.52 33.41 33.39 33.36 33.3 33.26L23.13 23.09C22.93 22.89 22.93 22.58 23.13 22.38L30.45 15.06C30.55 14.96 30.68 14.91 30.82 14.91C30.96 14.91 31.09 14.98 31.18 15.08L35.92 20.56C36.01 20.67 36.06 20.81 36.04 20.95L35.24 27.51L44.35 29.57L44.45 29.34L38.76 25.4C38.63 25.31 38.55 25.15 38.55 24.99V21.6C38.55 21.37 38.71 21.17 38.93 21.11C39.36 21.01 39.76 20.79 40.07 20.48C40.34 20.21 40.53 19.9 40.65 19.53C40.72 19.32 40.91 19.19 41.13 19.19H44.46C44.62 19.19 44.78 19.27 44.87 19.41L48.81 25.1L49.04 25L46.98 15.89H39.92C39.8 15.89 39.68 15.85 39.59 15.77L33.97 10.93C33.85 10.83 33.79 10.68 33.8 10.52C33.86 9.56 33.52 8.65 32.85 7.97C31.6 6.72 29.41 6.72 28.16 7.97L17.27 18.85C17.19 18.93 17.1 18.98 16.99 18.99C16.23 19.1 15.55 19.44 15.03 19.97C13.66 21.34 13.66 23.58 15.03 24.95L27.55 37.47C27.67 37.59 27.72 37.77 27.68 37.94L25.22 48.38Z" fill="black"/>
<path d="M37.8499 20.15C37.5899 20.14 37.3899 20.1 37.2099 20.03C36.9799 19.94 36.8099 19.85 36.6599 19.72C36.4399 19.53 36.3199 19.39 36.2299 19.24C36.0799 18.98 36.0199 18.8 35.9799 18.61C35.9499 18.48 35.9399 18.36 35.9399 18.23C35.9399 17.17 36.7999 16.31 37.8599 16.31C37.9799 16.31 38.1099 16.32 38.2299 16.35C38.4199 16.39 38.5999 16.46 38.7899 16.56C39.0299 16.7 39.1699 16.83 39.2999 16.97C39.4799 17.2 39.5799 17.37 39.6499 17.54C39.7499 17.83 39.7799 18.03 39.7799 18.23C39.7799 19.29 38.9199 20.15 37.8599 20.15H37.8499ZM37.8499 17.32C37.3499 17.32 36.9299 17.73 36.9299 18.24C36.9299 18.3 36.9299 18.36 36.9499 18.42C36.9699 18.5 36.9999 18.59 37.0499 18.68C37.1099 18.79 37.1699 18.86 37.2399 18.92C37.3499 19.01 37.4299 19.06 37.5099 19.09C37.6299 19.13 37.7199 19.15 37.8099 19.15C38.3399 19.15 38.7499 18.74 38.7499 18.24C38.7499 18.15 38.7299 18.06 38.6999 17.95C38.6599 17.83 38.6099 17.75 38.5499 17.68C38.4599 17.57 38.3899 17.51 38.3099 17.47C38.1799 17.4 38.0899 17.37 38.0099 17.35C37.9499 17.34 37.8899 17.33 37.8299 17.33L37.8499 17.32Z" fill="black"/>
<path d="M30.19 12.96C28.98 12.96 28 11.98 28 10.77C28 9.56002 28.98 8.58002 30.19 8.58002C31.4 8.58002 32.38 9.56002 32.38 10.77C32.38 11.98 31.4 12.96 30.19 12.96ZM30.19 9.58002C29.54 9.58002 29 10.11 29 10.77C29 11.43 29.53 11.96 30.19 11.96C30.85 11.96 31.38 11.43 31.38 10.77C31.38 10.11 30.85 9.58002 30.19 9.58002Z" fill="black"/>
<path d="M17.9498 25.33C16.4998 25.33 15.3198 24.15 15.3198 22.7C15.3198 21.25 16.4998 20.06 17.9498 20.06C19.3998 20.06 20.5798 21.24 20.5798 22.7C20.5798 24.16 19.3998 25.33 17.9498 25.33ZM17.9498 21.06C17.0498 21.06 16.3198 21.79 16.3198 22.7C16.3198 23.61 17.0498 24.33 17.9498 24.33C18.8498 24.33 19.5798 23.6 19.5798 22.7C19.5798 21.8 18.8498 21.06 17.9498 21.06Z" fill="black"/>
<path d="M31.65 39.44C30.44 39.44 29.46 38.46 29.46 37.25C29.46 36.04 30.44 35.06 31.65 35.06C32.86 35.06 33.84 36.04 33.84 37.25C33.84 38.46 32.86 39.44 31.65 39.44ZM31.65 36.06C31 36.06 30.46 36.59 30.46 37.25C30.46 37.91 30.99 38.44 31.65 38.44C32.31 38.44 32.84 37.91 32.84 37.25C32.84 36.59 32.31 36.06 31.65 36.06Z" fill="black"/>
<path fill-rule="evenodd" clip-rule="evenodd" d="M43.7202 58.13H20.2602C19.4202 58.13 18.7402 57.45 18.7402 56.61L19.5602 52.82C19.5602 51.98 20.2402 51.3 21.0802 51.3H42.9002C43.7402 51.3 44.4202 51.98 44.4202 52.82L45.2402 56.61C45.2402 57.45 44.5602 58.13 43.7202 58.13Z" fill="#FFC000"/>
<path d="M43.7202 58.63H20.2602C19.1502 58.63 18.2402 57.72 18.2402 56.61V56.5L19.0602 52.76C19.0902 51.67 19.9802 50.8 21.0802 50.8H42.9002C43.9902 50.8 44.8902 51.67 44.9202 52.76L45.7402 56.61C45.7402 57.72 44.8302 58.63 43.7202 58.63ZM19.2402 56.66C19.2702 57.2 19.7102 57.63 20.2602 57.63H43.7202C44.2702 57.63 44.7102 57.2 44.7402 56.66L43.9202 52.82C43.9202 52.26 43.4602 51.8 42.9002 51.8H21.0802C20.5202 51.8 20.0602 52.26 20.0602 52.82V52.93L19.2402 56.67V56.66Z" fill="black"/>
</g>
<defs>
<clipPath id="clip0_5_160">
<rect width="37.11" height="52.63" fill="white" transform="translate(13 6)"/>
</clipPath>
</defs>
</svg>
