<svg width="64" height="64" viewBox="0 0 64 64" fill="none" xmlns="http://www.w3.org/2000/svg">
<path d="M40.9602 12.52L37.1802 12.29L37.4602 8.58002L40.8502 8.62002L40.9602 12.53V12.52Z" fill="#FFC000"/>
<path opacity="0.5" d="M44.2699 28.84V20.74C44.2699 20.54 44.1499 20.36 43.9699 20.26C43.7899 20.17 43.5599 20.2 43.3899 20.32L41.5499 21.81L36.5099 25.92L31.9899 29.6V20.73C31.9899 20.43 31.7499 20.19 31.4499 20.19C31.3199 20.19 31.1999 20.23 31.1099 20.31L19.7399 29.6V20.72C19.7399 20.51 19.6199 20.31 19.4299 20.23C19.2399 20.14 19.0199 20.17 18.8499 20.3L6.54986 30.34C6.42986 30.44 6.35986 30.6 6.35986 30.76V43.42C6.35986 43.72 6.59986 43.96 6.89986 43.96H15.8299" stroke="black" stroke-miterlimit="10"/>
<path fill-rule="evenodd" clip-rule="evenodd" d="M37.8511 8.89362C37.85 8.896 37.8499 8.89722 37.8499 8.89784L37.8496 8.90402L37.0296 25.954L36.0308 25.906L36.8506 8.85855C36.8724 8.30345 37.34 7.87 37.8902 7.87H40.4102C40.9378 7.87 41.428 8.28157 41.4498 8.85946L41.6096 12.3457L41.6097 12.3471L42.0696 21.8057L41.0708 21.8543L40.6108 12.3943L40.6107 12.3929L40.4504 8.89723C40.4504 8.89511 40.4501 8.89408 40.4495 8.8928C40.4486 8.89103 40.4465 8.88756 40.4421 8.88347C40.432 8.8741 40.4194 8.87 40.4102 8.87H37.8902C37.8793 8.87 37.8684 8.87408 37.8593 8.88273C37.8549 8.88691 37.8524 8.89092 37.8511 8.89362Z" fill="black"/>
<path fill-rule="evenodd" clip-rule="evenodd" d="M41.0699 13.02H37.1099V12.02H41.0699V13.02Z" fill="black"/>
<path d="M54.4602 24.53L50.6802 24.3L50.9602 20.59L54.3502 20.63L54.4602 24.54V24.53Z" fill="#FFC000"/>
<path fill-rule="evenodd" clip-rule="evenodd" d="M51.341 20.8936C51.3399 20.896 51.3398 20.8972 51.3398 20.8978L51.3396 20.904L50.5747 36.8062L54.5467 33.5672L54.1007 24.3943L53.9404 20.8972C53.9403 20.8951 53.94 20.8941 53.9394 20.8928C53.9385 20.891 53.9364 20.8876 53.932 20.8835C53.9219 20.8741 53.9093 20.87 53.9001 20.87H51.3801C51.3692 20.87 51.3583 20.8741 51.3492 20.8827C51.3448 20.8869 51.3423 20.8909 51.341 20.8936ZM55.3548 34.1986L50.5101 38.1492L50.5088 38.1765L45.0001 42.6736V32.75C45.0001 32.7363 44.9954 32.7274 44.989 32.721C44.9827 32.7147 44.9738 32.71 44.9601 32.71C44.9525 32.71 44.9471 32.7106 44.9437 32.7112L32.7501 42.6742V32.74C32.7501 32.735 32.7494 32.7296 32.7478 32.724C32.7462 32.7185 32.744 32.714 32.742 32.7107C32.7414 32.7098 32.7409 32.7091 32.7405 32.7085L32.736 32.7066L32.7261 32.7019C32.7195 32.6988 32.713 32.6976 32.7046 32.6986C32.6961 32.6997 32.683 32.7035 32.6676 32.7144L20.3614 42.7232C20.3606 42.7242 20.3586 42.727 20.3564 42.732C20.3521 42.7415 20.3501 42.7519 20.3501 42.76V55.42C20.3501 55.4337 20.3548 55.4426 20.3611 55.4489C20.3675 55.4553 20.3764 55.46 20.3901 55.46H34.8201V50.29H42.8001V55.46H57.2201C57.2338 55.46 57.2427 55.4553 57.2491 55.4489C57.2554 55.4426 57.2601 55.4337 57.2601 55.42V32.7401C57.2599 32.739 57.259 32.736 57.2558 32.7309C57.2517 32.7246 57.2446 32.7161 57.2336 32.7077C57.2307 32.7076 57.2267 32.7076 57.2216 32.7082C57.2068 32.7098 57.1906 32.7152 57.1766 32.7232L55.3561 34.1975L55.3548 34.1986ZM41.8001 55.46V51.29H35.8201V55.46H41.8001ZM49.1051 38.0315L49.0847 38.0213L49.5327 37.656L50.3405 20.8586C50.3623 20.3035 50.8299 19.87 51.3801 19.87H53.9001C54.4278 19.87 54.9181 20.2817 54.9397 20.8596C54.9397 20.8607 54.9398 20.8617 54.9398 20.8628L55.0996 24.3471L55.5099 32.7862L56.5783 31.921L56.5918 31.9115C56.8893 31.7015 57.3153 31.6286 57.6837 31.8128L57.6934 31.8176L57.7029 31.8229C58.0174 31.9976 58.2601 32.3322 58.2601 32.74V55.42C58.2601 55.9962 57.7962 56.46 57.2201 56.46H20.3901C19.814 56.46 19.3501 55.9961 19.3501 55.42V42.76C19.3501 42.4641 19.4768 42.1586 19.72 41.9559L19.7246 41.9521L32.0504 31.9274L32.0564 31.9228C32.3604 31.6903 32.7744 31.6229 33.1444 31.7936C33.5341 31.9629 33.7501 32.3558 33.7501 32.74V40.5658L44.2972 31.9482C44.4918 31.7797 44.7324 31.71 44.9601 31.71C45.5362 31.71 46.0001 32.1739 46.0001 32.75V40.5664L49.1051 38.0315Z" fill="black"/>
<path fill-rule="evenodd" clip-rule="evenodd" d="M54.5699 25.03H50.6099V24.03H54.5699V25.03Z" fill="black"/>
<path d="M41.9999 51.12H35.6299V55.6H41.9999V51.12Z" fill="#FFC000"/>
<path fill-rule="evenodd" clip-rule="evenodd" d="M17.9238 20.1118C18.9223 19.2612 20.4545 20.0115 20.395 21.3217L20.0529 28.8474L29.9032 20.1791C30.8966 19.305 32.4527 20.0515 32.3926 21.3733L32.0499 28.9131L42.5575 20.4262C43.5385 19.6339 45 20.3321 45 21.5931V29H44V21.5931C44 21.1728 43.5128 20.9401 43.1858 21.2042L30.9501 31.0869L31.3937 21.3279C31.4137 20.8873 30.895 20.6385 30.5639 20.9298L18.9471 31.1526L19.396 21.2763C19.4159 20.8396 18.9051 20.5895 18.5723 20.873L7 30.7309V43.5H15.5V44.5H6V30.2691L17.9238 20.1118Z" fill="black"/>
</svg>
